<svg width="1150" height="558" viewBox="0 0 1150 558" fill="none" xmlns="http://www.w3.org/2000/svg">
<path fill-rule="evenodd" clip-rule="evenodd" d="M626.794 175.336C626.755 132.214 617.355 140.468 676.956 140.455C700.182 140.455 740.607 138.086 761.815 141.028C782.75 143.932 802.044 165.545 793.699 191.547C783.206 224.266 747.715 218.915 709.765 218.915C610.611 218.928 626.755 228.654 626.781 175.336H626.794ZM419.919 264.837C400.833 263.678 340.607 286.308 317.133 294.654C306.978 298.26 295.404 304.197 284.585 306.554L285.848 313.611L357.401 459.919L484.742 448.175C507.473 447.354 531.741 446.469 554.446 446.456C577.152 446.443 604.83 449.581 626.781 447.641L626.768 380.912C626.742 378.061 626.52 372.54 626.781 369.949C627.184 365.835 626.012 361.89 632.105 360.275C653.157 354.664 761.672 367.541 814.191 349.625C890.171 323.715 907.617 269.655 919.646 257.194C922.081 253.848 918.37 252.325 936.272 261.647C989.234 289.211 994.311 292.062 1043.63 324.938C1050.29 329.378 1054.72 333.701 1063.03 335.055C1054.88 300.786 1068.57 29.5233 1059.71 2.33711C1048.48 -0.709615 930.752 -1.0872 925.101 3.06624C918.657 8.84721 920.701 16.3468 920.818 26.5156C920.922 35.2652 920.857 44.0278 920.844 52.7773C920.844 70.0031 920.662 87.2158 920.623 104.428C918.566 103.283 905.26 79.1042 894.91 66.709C862.544 27.9218 814.66 1.33456 757.948 0.865828C725.192 0.592404 502.331 -1.23042 488.843 2.48033C479.781 32.9476 495.274 376.967 484.442 394.388L475.186 379.311C464.549 357.828 420.596 273.769 419.919 264.798V264.837Z" fill="#E2E2E2" fill-opacity="0.38"/>
<path fill-rule="evenodd" clip-rule="evenodd" d="M106.041 342.255C107.981 346.174 103.033 349.117 120.206 338.506C147.897 321.397 214.009 288.664 241.739 276.074C280.927 258.288 334.097 239.266 376.748 227.183C386.434 224.436 392.462 225.712 394.988 216.91C379.573 197.354 294.102 2.38919 283.166 0.553344C272.126 -1.29552 265.669 21.6981 257.323 37.8692L149.277 255.84C137.157 281.308 119.281 320.772 106.015 342.242L106.041 342.255Z" fill="#E2E2E2" fill-opacity="0.38"/>
<path fill-rule="evenodd" clip-rule="evenodd" d="M62.8955 426.34C61.5675 436.222 37.8336 479.814 31.5193 492.469C23.5516 508.445 4.2833 542.18 0 558C27.9912 551.203 111.301 521.765 149.382 509.708C185.835 498.159 183.062 504.552 190.965 487.873C204.752 458.799 218.826 430.246 233.602 401.393C243.549 381.954 265.955 329.235 276.813 315.942C275.147 309.874 279.365 314.184 274.131 311.293L217.953 337.633C199.831 346.851 181.513 355.953 164.731 365.444L62.9085 426.34H62.8955Z" fill="#E2E2E2" fill-opacity="0.38"/>
<path fill-rule="evenodd" clip-rule="evenodd" d="M1061.44 392.344C1052.22 388.646 1036.35 375.301 1026.52 368.283C1015.58 360.484 1004.19 352.685 992.618 345.393C970.121 331.227 944.305 316.085 921.274 304.653L921.573 496.935C932.053 504.005 976.266 514.864 992.072 520.762C1004.17 525.267 1052.9 545.019 1061.69 545.631L1061.42 392.331L1061.44 392.344Z" fill="#E2E2E2" fill-opacity="0.38"/>
<path d="M1090.16 541.591V510.362H1079.01V504.003H1108.88V510.362H1097.75V541.591H1090.16Z" fill="#E2E2E2" fill-opacity="0.38"/>
<path d="M1113.7 541.591V504.003H1125.05L1131.87 529.643L1138.62 504.003H1150V541.591H1142.95V512.003L1135.49 541.591H1128.18L1120.75 512.003V541.591H1113.7Z" fill="#E2E2E2" fill-opacity="0.38"/>
</svg>
