<svg width="142" height="141" viewBox="0 0 142 141" fill="none" xmlns="http://www.w3.org/2000/svg">
<g clip-path="url(#clip0_345_21149)">
<path d="M141.016 112.522C140.405 119.792 137.803 126.191 132.766 131.515C127.998 136.558 122.151 139.584 115.294 140.62C113.894 140.829 112.472 140.956 111.056 141C110.003 141.028 109.144 140.532 108.714 139.501C108.317 138.547 108.455 137.655 109.116 136.861C109.744 136.106 110.637 135.963 111.541 135.919C114.065 135.792 116.579 135.549 118.971 134.667C127.943 131.355 133.521 125.061 135.51 115.68C135.83 114.165 135.869 112.588 136.034 111.034C136.199 109.502 137.175 108.504 138.52 108.515C139.842 108.521 140.906 109.634 141.011 111.144C141.044 111.602 141.011 112.059 141.011 112.522H141.016Z" fill="white"/>
<path d="M111.949 131.785C109.992 131.812 109.122 131.316 108.664 130.098C108.168 128.776 108.896 127.254 110.279 126.973C111.442 126.736 112.666 126.791 113.823 126.538C119.186 125.364 123.22 122.481 125.463 117.328C126.34 115.322 126.725 113.233 126.83 111.056C126.907 109.43 127.905 108.466 129.305 108.499C130.765 108.537 131.856 109.695 131.79 111.31C131.454 119.869 127.304 125.981 119.737 129.828C117.213 131.112 114.468 131.653 111.949 131.779V131.785Z" fill="white"/>
<path d="M108.389 120.167C108.515 118.949 109.304 118.006 110.511 117.753C110.891 117.67 111.282 117.631 111.668 117.593C114.815 117.306 117.339 114.765 117.598 111.618C117.62 111.321 117.659 111.023 117.714 110.731C117.99 109.21 119.009 108.372 120.426 108.499C121.726 108.615 122.707 109.827 122.669 111.266C122.498 117.13 117.764 122.09 111.911 122.575C110.764 122.669 109.673 122.685 108.978 121.583C108.708 121.153 108.582 120.641 108.394 120.161L108.389 120.167Z" fill="white"/>
<path d="M55.6218 87.175C53.4227 89.3244 51.2732 91.4243 49.0741 93.5793C49.2725 93.8053 49.4379 94.0147 49.6253 94.2076C51.8244 96.4232 54.0289 98.6388 56.228 100.854C58.2728 102.91 58.3003 103.919 56.2501 105.997C53.6211 108.659 50.948 111.277 48.3025 113.922C41.6557 120.586 35.0144 127.26 28.373 133.923C27.0778 135.224 25.7771 136.525 24.4489 137.792C22.6852 139.479 21.4672 139.462 19.7255 137.726C16.4683 134.485 13.2275 131.234 9.98126 127.987C7.04365 125.05 4.10603 122.112 1.16291 119.175C0.567667 118.579 0.0550997 117.929 -1.4998e-05 117.053C-0.0551297 116.187 0.363742 115.509 0.95347 114.92C11.7725 104.079 22.586 93.2321 33.4105 82.3965C34.9868 80.8202 36.2655 80.8588 37.8418 82.4406C40.2062 84.8161 42.5926 87.1695 44.946 89.5614C45.3263 89.9472 45.5358 89.9197 45.883 89.5614C47.8451 87.5663 49.8292 85.5877 51.885 83.5209C51.5818 83.1902 51.2787 82.8264 50.948 82.4957C47.6246 79.1613 44.2902 75.8434 40.9668 72.5034C39.5558 71.087 38.1394 69.665 37.219 67.8628C34.7663 63.0678 34.8821 58.3389 37.6819 53.7203C37.952 53.2739 37.9354 53.0369 37.5717 52.6787C35.8521 50.9866 34.1436 49.2836 32.4681 47.553C31.1288 46.1696 31.1563 44.8248 32.4681 43.4359C32.4846 43.4194 32.5011 43.4029 32.5177 43.3863C36.1552 39.7487 39.7818 36.1057 43.4359 32.4791C44.8799 31.0406 46.1475 31.0627 47.6081 32.5067C49.2946 34.1656 50.9646 35.8356 52.6235 37.5276C52.9928 37.9024 53.2628 37.9575 53.7313 37.6764C59.5459 34.2207 65.9778 34.838 70.9106 39.4622C74.1403 42.4935 77.2157 45.6901 80.3628 48.8096C81.2777 49.7135 82.2146 50.5953 83.124 51.5047C83.4161 51.7968 83.62 51.7968 83.9176 51.5047C85.8467 49.5702 87.7867 47.6467 89.7323 45.7287C90.074 45.3925 89.8094 45.2106 89.6 45.0012C87.5111 42.9013 85.4113 40.8069 83.3279 38.7071C82.8264 38.2 82.3193 37.693 81.8894 37.1363C81.0627 36.0616 81.0903 34.9427 82.0107 33.9452C83.3004 32.5452 84.6286 31.1784 85.9734 29.8281C94.2792 21.5113 102.602 13.2 110.913 4.88868C112.197 3.60451 113.481 2.33136 114.765 1.04718C116.165 -0.352729 117.598 -0.341707 119.086 1.13537C121.666 3.68718 124.218 6.26655 126.786 8.82938C130.374 12.4174 133.967 15.9998 137.555 19.5878C137.814 19.8468 138.073 20.1059 138.31 20.3869C139.247 21.4947 139.275 22.6963 138.343 23.8206C137.803 24.4709 137.208 25.0827 136.607 25.6835C129.437 32.8649 122.261 40.0409 115.08 47.2168C112.01 50.2812 108.929 53.329 105.848 56.3824C103.99 58.2232 102.872 58.2287 101.003 56.3824C98.5561 53.9628 96.1256 51.5213 93.7336 49.1348C91.5896 51.2677 89.4457 53.4062 87.1364 55.7045C88.2276 56.7406 89.4016 57.7988 90.5149 58.9176C94.654 63.0568 98.7766 67.2179 102.905 71.3681C103.164 71.6271 103.412 71.9027 103.627 72.1948C104.332 73.1648 104.36 74.1514 103.654 75.1269C103.268 75.6615 102.811 76.1575 102.348 76.6315C100.75 78.2464 99.1458 79.8612 97.5145 81.4375C97.1286 81.8068 97.1507 82.0217 97.5034 82.369C98.5837 83.4327 99.6088 84.546 100.717 85.5877C100.943 85.7971 101.439 85.8908 101.747 85.8026C104.106 85.1578 106.498 84.7499 108.945 84.8106C114.606 84.9428 119.632 86.7892 123.975 90.4378C124.482 90.8677 124.995 91.2976 125.447 91.7826C126.411 92.8132 126.472 93.9706 125.612 95.0839C125.166 95.6626 124.653 96.1973 124.135 96.7153C120.376 100.491 116.606 104.255 112.836 108.019C112.66 108.196 112.451 108.345 112.197 108.554C112.539 108.945 112.825 109.265 113.101 109.59C114.071 110.748 114.076 112.109 113.117 113.062C112.153 114.027 110.698 114.049 109.568 113.112C109.254 112.847 108.962 112.561 108.532 112.164C108.135 112.616 107.782 113.062 107.385 113.465C103.621 117.235 99.8513 120.999 96.0815 124.763C95.872 124.973 95.6516 125.177 95.4201 125.369C93.9706 126.576 92.7305 126.51 91.4408 125.144C89.4567 123.038 87.8528 120.674 86.7285 118.001C84.4964 112.704 84.1877 107.297 85.8136 101.786C85.9569 101.301 85.8852 100.981 85.5215 100.628C84.3365 99.4821 83.1791 98.2971 81.9611 97.0736C81.7572 97.2499 81.5643 97.3932 81.3934 97.5641C79.6683 99.2892 77.9653 101.031 76.2291 102.739C74.234 104.707 73.1427 104.701 71.1751 102.739C66.1211 97.6909 61.0781 92.6368 56.0241 87.5883C55.8808 87.445 55.7265 87.3073 55.5997 87.186L55.6218 87.175ZM45.3429 69.8304C45.4806 69.9792 45.657 70.1886 45.8444 70.3815C50.1434 74.6915 54.4368 78.9959 58.7413 83.3004C61.2545 85.8192 63.7842 88.3214 66.292 90.8511C66.7329 91.2976 67.0029 91.3802 67.4935 90.8511C68.7666 89.4622 70.1114 88.145 71.4397 86.8112C77.7338 80.5061 84.0389 74.212 90.333 67.9069C91.3747 66.8652 91.3747 66.8266 90.3275 65.7739C84.072 59.4963 77.8054 53.2243 71.5444 46.9522C70.9822 46.3846 70.4201 45.8169 69.9351 45.3208C61.7119 53.5164 53.5494 61.6568 45.3484 69.8304H45.3429ZM93.5848 119.897C102.387 111.1 111.161 102.326 119.935 93.5518C112.875 88.0623 101.4 88.1946 94.4391 96.2358C87.445 104.321 89.3354 114.854 93.5793 119.891L93.5848 119.897ZM121.809 33.1295C116.479 27.8054 111.161 22.4813 105.892 17.2123C103.434 19.7035 100.959 22.2057 98.6443 24.5536C103.886 29.8336 109.204 35.1797 114.44 40.4487C116.882 38.0237 119.351 35.5766 121.815 33.124L121.809 33.1295ZM40.4983 114.358C39.9361 113.773 39.2692 113.057 38.5748 112.362C34.138 107.904 29.7013 103.445 25.2591 98.9916C24.5701 98.3026 24.5756 98.3137 23.9087 98.9805C22.09 100.799 20.2767 102.618 18.4414 104.42C17.9894 104.867 17.4713 105.253 17.047 105.611C22.5364 111.117 27.8605 116.457 33.168 121.787C35.5986 119.323 38.0457 116.843 40.4928 114.363L40.4983 114.358ZM94.9461 28.2683C92.4219 30.7926 89.9527 33.2728 87.5387 35.6923C92.7691 40.9337 98.0932 46.2743 103.456 51.648C105.859 49.2726 108.24 46.9247 110.621 44.5713C110.924 44.2737 110.759 44.0808 110.516 43.8383C108.466 41.799 106.427 39.7487 104.382 37.6985C101.202 34.5184 98.0215 31.3382 94.9516 28.2683H94.9461ZM132.733 22.1396C127.431 16.832 122.101 11.5024 116.887 6.28308C114.457 8.6916 111.988 11.1387 109.623 13.4811C114.931 18.8162 120.233 24.1458 125.507 29.4478C127.932 26.9952 130.363 24.5371 132.733 22.1396ZM13.4039 109.513C10.9788 111.944 8.54828 114.374 6.1563 116.772C11.5024 122.134 16.8265 127.475 22.1065 132.766C24.5371 130.33 26.9786 127.883 29.4092 125.447C24.1568 120.216 18.8106 114.898 13.4039 109.513ZM35.6757 87.5167C33.179 89.9583 30.7154 92.3668 28.2242 94.8028C28.4061 95.0013 28.5494 95.1831 28.7092 95.343C33.6034 100.248 38.5031 105.148 43.4028 110.048C44.224 110.869 44.2406 110.863 45.0618 110.048C47.2553 107.86 49.4434 105.671 51.6315 103.483C46.2798 98.1318 40.9557 92.8022 35.6757 87.5222V87.5167ZM65.9392 41.7549C65.3991 41.5069 64.8645 41.1872 64.2858 41.0054C60.5215 39.8314 57.2201 40.6361 54.4258 43.4194C50.7662 47.068 47.1231 50.7276 43.4635 54.3707C41.4628 56.3658 40.366 58.7303 40.4762 61.5852C40.5369 63.1449 40.9337 64.6055 41.8045 65.8841C49.8512 57.8374 57.8594 49.8292 65.9337 41.7549H65.9392ZM94.9351 70.5413C86.8112 78.6653 78.6762 86.8002 70.4697 95.0068C71.3295 95.8776 72.2444 96.7704 73.1262 97.7019C73.5285 98.1263 73.7876 98.0712 74.1844 97.6743C81.928 89.9032 89.6771 82.1485 97.4318 74.3939C97.6688 74.1569 97.9388 73.9529 98.2034 73.7215C97.035 72.5861 95.9712 71.5555 94.9351 70.5469V70.5413ZM49.3056 41.2589C48.1151 40.0574 46.8751 38.8118 45.8003 37.726C43.0942 40.3771 40.4046 43.0115 37.6599 45.7011C38.8944 46.8696 40.1566 48.0656 41.3636 49.2119C43.954 46.6216 46.6325 43.932 49.3056 41.2589ZM93.684 85.5822C90.9778 88.2497 88.2938 90.8952 85.505 93.6454C86.4309 94.4667 87.3678 95.2989 88.3379 96.1642C90.2944 92.951 93.0226 90.3165 96.2358 88.2662C95.3209 87.3072 94.4556 86.3979 93.6785 85.5877L93.684 85.5822Z" fill="white"/>
</g>
<defs>
<clipPath id="clip0_345_21149">
<rect width="141.028" height="141" fill="white"/>
</clipPath>
</defs>
</svg>
