<svg width="159" height="68" viewBox="0 0 159 68" fill="none" xmlns="http://www.w3.org/2000/svg">
<path d="M45.8961 0C41.8984 0 37.2076 0.350882 33.3297 3.19858L10.6371 19.8666L5.95657 19.8332C4.79265 19.8258 3.65743 20.0101 2.60692 20.5968C1.55647 21.1835 0.725547 22.2294 0.366481 23.2642C-0.351594 25.3338 0.122901 27.103 0.621494 28.8976L6.24477 49.1295C6.42819 49.7896 6.69681 50.4061 6.99897 50.9999H2.83975C2.0867 50.9999 1.36454 51.2985 0.832054 51.8298C0.29957 52.3612 0.000382638 53.0818 0.000382638 53.8333C0.000382638 54.5847 0.29957 55.3054 0.832054 55.8368C1.36454 56.3681 2.0867 56.6666 2.83975 56.6666H16.2713H17.0366H23.3142C25.1784 63.1913 31.2149 68 38.3318 68C45.4487 68 51.4852 63.1913 53.3494 56.6666H105.656C107.52 63.1913 113.557 68 120.673 68C127.79 68 133.827 63.1913 135.691 56.6666H143.322C147.962 56.6666 152.13 53.7437 153.614 49.373L158.617 34.6197C160.124 30.1804 157.009 25.3958 152.35 24.8579L141.403 23.5964L138.186 15.9044C137.97 15.3897 137.606 14.9502 137.141 14.6411C136.675 14.332 136.128 14.1669 135.569 14.1667H119.254C118.501 14.1668 117.779 14.4653 117.246 14.9967C116.714 15.528 116.414 16.2486 116.414 17.0001V20.7188L114.728 20.5196C114.629 20.507 114.529 20.4996 114.429 20.4975H113.841C113.634 20.3897 113.414 20.308 113.187 20.254C110.596 19.6945 108.18 18.5091 106.177 16.7898L91.7697 4.41603C88.4483 1.56413 84.2008 0 79.8022 0H45.8961ZM45.8961 5.66669H79.8021C82.8495 5.66669 85.7829 6.75068 88.0651 8.71031L101.696 20.42L42.5909 20.0548V5.83272C43.6543 5.71774 44.7633 5.66669 45.8961 5.66669ZM36.9122 7.62568V20.0216L20.1311 19.9219L36.7015 7.75848C36.7673 7.71031 36.8441 7.67197 36.9122 7.62568ZM122.093 19.8334H133.672L134.937 22.8549L122.093 21.3718V19.8334ZM51.109 28.3334H59.6271C60.3802 28.3334 61.1024 28.6319 61.6349 29.1633C62.1674 29.6946 62.4665 30.4153 62.4665 31.1668C62.4665 31.9182 62.1674 32.6389 61.6349 33.1702C61.1024 33.7016 60.3802 34.0001 59.6271 34.0001H51.109C50.356 34.0001 49.6338 33.7016 49.1013 33.1702C48.5689 32.6389 48.2697 31.9182 48.2697 31.1668C48.2697 30.4153 48.5689 29.6946 49.1013 29.1633C49.6338 28.6319 50.356 28.3334 51.109 28.3334ZM144.808 34.0001H150.487C151.24 34.0001 151.962 34.2986 152.495 34.83C153.027 35.3613 153.326 36.082 153.326 36.8335C153.326 37.5849 153.027 38.3056 152.495 38.8369C151.962 39.3683 151.24 39.6668 150.487 39.6668H144.808C144.055 39.6668 143.333 39.3683 142.8 38.8369C142.268 38.3056 141.969 37.5849 141.969 36.8335C141.969 36.082 142.268 35.3613 142.8 34.83C143.333 34.2986 144.055 34.0001 144.808 34.0001ZM10.7923 39.6668H17.0367C17.7897 39.6668 18.512 39.9653 19.0444 40.4967C19.5769 41.028 19.876 41.7487 19.876 42.5001C19.876 43.2516 19.5769 43.9723 19.0444 44.5036C18.512 45.035 17.7897 45.3335 17.0367 45.3335H10.7923C10.0392 45.3335 9.31706 45.035 8.78458 44.5036C8.2521 43.9723 7.95291 43.2516 7.95291 42.5001C7.95291 41.7487 8.2521 41.028 8.78458 40.4967C9.31706 39.9653 10.0392 39.6668 10.7923 39.6668ZM38.3319 42.5001C43.854 42.5001 48.2697 46.9064 48.2697 52.4168C48.2697 57.9272 43.854 62.3335 38.3319 62.3335C32.8098 62.3335 28.3941 57.9272 28.3941 52.4168C28.3941 46.9064 32.8098 42.5001 38.3319 42.5001ZM120.673 42.5001C126.196 42.5001 130.611 46.9064 130.611 52.4168C130.611 57.9272 126.196 62.3335 120.673 62.3335C115.151 62.3335 110.736 57.9272 110.736 52.4168C110.736 46.9064 115.151 42.5001 120.673 42.5001ZM38.3319 46.7502C36.8258 46.7502 35.3815 47.3472 34.3165 48.4099C33.2515 49.4726 32.6532 50.9139 32.6532 52.4168C32.6532 53.9197 33.2515 55.3611 34.3165 56.4238C35.3815 57.4865 36.8258 58.0835 38.3319 58.0835C39.838 58.0835 41.2824 57.4865 42.3474 56.4238C43.4123 55.3611 44.0106 53.9197 44.0106 52.4168C44.0106 50.9139 43.4123 49.4726 42.3474 48.4099C41.2824 47.3472 39.838 46.7502 38.3319 46.7502ZM120.673 46.7502C119.167 46.7502 117.723 47.3472 116.658 48.4099C115.593 49.4726 114.995 50.9139 114.995 52.4168C114.995 53.9197 115.593 55.3611 116.658 56.4238C117.723 57.4865 119.167 58.0835 120.673 58.0835C122.18 58.0835 123.624 57.4865 124.689 56.4238C125.754 55.3611 126.352 53.9197 126.352 52.4168C126.352 50.9139 125.754 49.4726 124.689 48.4099C123.624 47.3472 122.18 46.7502 120.673 46.7502Z" fill="white"/>
</svg>
