<svg width="22" height="22" viewBox="0 0 22 22" fill="none" xmlns="http://www.w3.org/2000/svg">
<path d="M10.9781 15.0226C13.2625 15.0226 15.1144 13.1821 15.1144 10.9117C15.1144 8.64129 13.2625 6.80078 10.9781 6.80078C8.69368 6.80078 6.8418 8.64129 6.8418 10.9117C6.8418 13.1821 8.69368 15.0226 10.9781 15.0226Z" fill="#9D9D9D"/>
<path fill-rule="evenodd" clip-rule="evenodd" d="M15.781 6.46653L18.905 3.36164C16.9069 1.28985 14.0942 0 10.9786 0C4.91508 0 0 4.88537 0 10.9112C0 16.9375 4.91555 21.8224 10.9786 21.8224C14.0891 21.8224 16.8975 20.5368 18.8952 18.4706L15.7716 15.3662C14.5738 16.6383 12.8697 17.4333 10.9786 17.4333C7.3543 17.4333 4.41625 14.5133 4.41625 10.9112C4.41625 7.30915 7.3543 4.38913 10.9786 4.38913C12.8748 4.38913 14.5832 5.18835 15.7814 6.46653H15.781Z" fill="white"/>
<path fill-rule="evenodd" clip-rule="evenodd" d="M15.9 6.59503C16.9216 7.74483 17.5412 9.2555 17.5412 10.9099C17.5412 12.5695 16.9174 14.0844 15.8906 15.2356L19.0166 18.3423C20.8414 16.3943 21.9574 13.7819 21.9574 10.9099C21.9574 8.0436 20.8452 5.43543 19.026 3.48828L15.8995 6.5955L15.9 6.59503Z" fill="#9D9D9D"/>
</svg>
