<svg width="115" height="85" viewBox="0 0 115 85" fill="none" xmlns="http://www.w3.org/2000/svg">
<path fill-rule="evenodd" clip-rule="evenodd" d="M57.3308 20.1861C64.0774 20.1861 69.5466 25.6499 69.5466 32.3896C69.5466 39.1293 64.0774 44.5929 57.3308 44.5929C50.5845 44.5929 45.1152 39.1293 45.1152 32.3896C45.1152 25.6499 50.5845 20.1861 57.3308 20.1861Z" fill="black"/>
<path fill-rule="evenodd" clip-rule="evenodd" d="M71.5139 19.1953L80.7394 9.97912C74.8382 3.82898 66.5321 4.95911e-05 57.3308 4.95911e-05C39.4246 4.95911e-05 24.9087 14.5013 24.9087 32.3894C24.9087 50.2777 39.4246 64.779 57.3308 64.779C66.5171 64.779 74.8109 60.9624 80.7104 54.8299L71.4853 45.6142C67.9486 49.3903 62.9155 51.7502 57.3308 51.7502C46.6275 51.7502 37.9506 43.0821 37.9506 32.3894C37.9506 21.6969 46.6275 13.0288 57.3308 13.0288C62.9306 13.0288 67.9758 15.4015 71.5139 19.1953Z" fill="#F39406"/>
<path fill-rule="evenodd" clip-rule="evenodd" d="M71.8641 19.5813C74.8805 22.9946 76.7113 27.4783 76.7113 32.3894C76.7113 37.3157 74.8697 41.812 71.8364 45.2291L81.0681 54.4515C86.4566 48.6681 89.7532 40.9134 89.7532 32.3894C89.7532 23.8804 86.4683 16.1381 81.0966 10.3581L71.8641 19.5813Z" fill="black"/>
<path d="M9.06837 79.8152L11.6916 80.6201C11.2886 82.0956 10.6172 83.1905 9.68049 83.9081C8.74375 84.6224 7.55696 84.9812 6.11744 84.9812C4.33448 84.9812 2.86997 84.3728 1.72079 83.1563C0.574695 81.9397 0 80.2768 0 78.1649C0 75.9346 0.577779 74.2001 1.73008 72.9647C2.88234 71.7294 4.39998 71.1117 6.27986 71.1117C7.92231 71.1117 9.25581 71.5983 10.28 72.5685C10.8921 73.1424 11.3479 73.9659 11.654 75.0423L8.97479 75.6788C8.81545 74.9862 8.48442 74.437 7.98161 74.0347C7.47572 73.6324 6.86387 73.4325 6.14555 73.4325C5.1495 73.4325 4.34068 73.7882 3.72239 74.5027C3.10101 75.2139 2.79184 76.3681 2.79184 77.9653C2.79184 79.656 3.09789 80.8633 3.70668 81.5809C4.31877 82.3015 5.11189 82.6601 6.08933 82.6601C6.81074 82.6601 7.43215 82.4324 7.95042 81.9739C8.46889 81.5152 8.84356 80.7978 9.0684 79.8152L9.06837 79.8152ZM26.1028 84.7566H23.1769L22.0184 81.7056H16.6379L15.5231 84.7566H12.6502L17.8588 71.3549H20.7288L26.1028 84.7566ZM21.1377 79.441L19.2735 74.4808L17.4623 79.441H21.1377ZM27.5488 84.7566V71.3549H33.2539C34.6873 71.3549 35.7302 71.4767 36.3797 71.7168C37.0323 71.9571 37.5508 72.3844 37.9412 72.999C38.3315 73.6167 38.5283 74.3185 38.5283 75.1109C38.5283 76.1185 38.2346 76.9484 37.6444 77.6034C37.0542 78.2585 36.1737 78.6703 34.9995 78.8418C35.5835 79.1819 36.0644 79.5563 36.4421 79.9649C36.8232 80.3736 37.3353 81.1005 37.9785 82.1424L39.6148 84.7566H36.3766L34.4343 81.8305C33.7379 80.7917 33.2602 80.1365 33.001 79.8652C32.745 79.5968 32.4732 79.4096 32.186 79.3099C31.8954 79.21 31.4395 79.1602 30.8151 79.1602H30.2654V84.7566H27.5488V84.7566ZM30.2654 77.0264H32.2703C33.5693 77.0264 34.3781 76.9703 34.7028 76.8611C35.0245 76.7519 35.2805 76.5615 35.4616 76.2932C35.6459 76.025 35.7364 75.6881 35.7364 75.2855C35.7364 74.8332 35.6147 74.4713 35.3741 74.1905C35.1338 73.9131 34.7935 73.7382 34.3562 73.6666C34.1345 73.6354 33.4757 73.6197 32.3796 73.6197H30.2654V77.0264V77.0264ZM44.096 84.7566V73.6197H40.124V71.3549H50.7661V73.6197H46.8128V84.7566H44.096ZM52.5241 84.7566V71.3549H62.4542V73.6198H55.2407V76.5958H61.9483V78.8607H55.2407V82.4917H62.7166V84.7566H52.5241V84.7566ZM65.0212 84.7566V71.3549H70.7263C72.1597 71.3549 73.2026 71.4767 73.8521 71.7168C74.5047 71.9571 75.0232 72.3844 75.4136 72.999C75.8039 73.6167 76.0007 74.3185 76.0007 75.1109C76.0007 76.1185 75.707 76.9484 75.1168 77.6034C74.5266 78.2585 73.6461 78.6703 72.4719 78.8418C73.0559 79.1819 73.5368 79.5563 73.9145 79.9649C74.2956 80.3736 74.8077 81.1005 75.451 82.1424L77.0872 84.7566H73.849L71.9067 81.8305C71.2103 80.7917 70.7326 80.1365 70.4734 79.8652C70.2174 79.5968 69.9456 79.4096 69.6584 79.3099C69.3678 79.21 68.9119 79.1602 68.2875 79.1602H67.7378V84.7566H65.0212V84.7566ZM67.7378 77.0264H69.7427C71.0417 77.0264 71.8505 76.9703 72.1752 76.8611C72.4969 76.7519 72.7529 76.5615 72.934 76.2932C73.1183 76.025 73.2088 75.6881 73.2088 75.2855C73.2088 74.8332 73.0871 74.4713 72.8466 74.1905C72.6062 73.9131 72.2659 73.7382 71.8286 73.6666C71.6069 73.6354 70.9481 73.6197 69.852 73.6197H67.7378V77.0264V77.0264ZM77.9899 78.1369C77.9899 76.7705 78.1959 75.6227 78.6051 74.6928C78.9078 74.0097 79.3263 73.3952 79.8541 72.8524C80.3819 72.3095 80.9594 71.9071 81.5872 71.6421C82.4241 71.2895 83.389 71.1117 84.482 71.1117C86.4616 71.1117 88.0419 71.7263 89.2316 72.9521C90.4182 74.1813 91.0114 75.8877 91.0114 78.0746C91.0114 80.2426 90.4212 81.9398 89.244 83.1625C88.0667 84.3886 86.4898 85 84.5194 85C82.524 85 80.9346 84.3916 79.7574 83.172C78.5801 81.9553 77.9899 80.2769 77.9899 78.1369L77.9899 78.1369ZM80.7814 78.0465C80.7814 79.5657 81.1344 80.7168 81.837 81.5029C82.5396 82.2859 83.4325 82.679 84.5131 82.679C85.5966 82.679 86.4835 82.289 87.1799 81.5122C87.8732 80.7325 88.2198 79.5656 88.2198 78.0091C88.2198 76.4711 87.8825 75.3231 87.2049 74.5682C86.5304 73.8101 85.6342 73.4325 84.5131 73.4325C83.3951 73.4325 82.4927 73.8163 81.8089 74.5805C81.1249 75.3481 80.7815 76.5023 80.7815 78.0465H80.7814ZM93.0318 84.7566V71.3549H95.7486V84.7566H93.0318ZM98.4059 84.7566V71.4672H101.123V82.4917H107.849V84.7566H98.4058H98.4059Z" fill="#F39406"/>
<path d="M110.612 75.3034V72.3824H111.856C112.168 72.3824 112.395 72.4089 112.537 72.4613C112.679 72.5137 112.792 72.6068 112.877 72.7407C112.962 72.8754 113.005 73.0283 113.005 73.201C113.005 73.4208 112.941 73.6016 112.813 73.7444C112.684 73.887 112.492 73.9767 112.236 74.0143C112.363 74.0884 112.468 74.17 112.551 74.2591C112.634 74.3481 112.745 74.5064 112.885 74.7337L113.242 75.3034H112.536L112.113 74.6656C111.961 74.4392 111.857 74.2964 111.801 74.2372C111.745 74.1788 111.686 74.1379 111.623 74.1162C111.56 74.0944 111.46 74.0835 111.324 74.0835H111.204V75.3034H110.612ZM111.204 73.6186H111.641C111.924 73.6186 112.101 73.6062 112.172 73.5826C112.242 73.5587 112.297 73.5171 112.337 73.4588C112.377 73.4002 112.397 73.3268 112.397 73.239C112.397 73.1404 112.37 73.0617 112.318 73.0005C112.265 72.9399 112.191 72.9019 112.096 72.8862C112.048 72.8793 111.904 72.876 111.665 72.876H111.204V73.6186V73.6186Z" fill="black"/>
<path fill-rule="evenodd" clip-rule="evenodd" d="M111.927 71.1117C113.437 71.1117 114.661 72.3344 114.661 73.843C114.661 75.3514 113.437 76.5741 111.927 76.5741C110.417 76.5741 109.193 75.3514 109.193 73.843C109.193 72.3344 110.417 71.1117 111.927 71.1117Z" stroke="black" stroke-width="1.15656" stroke-miterlimit="2.61313"/>
</svg>
