<?xml version="1.0" encoding="UTF-8"?>
<!DOCTYPE svg PUBLIC "-//W3C//DTD SVG 1.1//EN" "http://www.w3.org/Graphics/SVG/1.1/DTD/svg11.dtd">
<!-- Creator: CorelDRAW -->
<svg xmlns="http://www.w3.org/2000/svg" xml:space="preserve" width="1.6337in" height="1.6337in" version="1.1" style="shape-rendering:geometricPrecision; text-rendering:geometricPrecision; image-rendering:optimizeQuality; fill-rule:evenodd; clip-rule:evenodd"
viewBox="0 0 90.82 90.82"
 xmlns:xlink="http://www.w3.org/1999/xlink"
 xmlns:xodm="http://www.corel.com/coreldraw/odm/2003">
 <defs>
  <style type="text/css">
   <![CDATA[
    .fil1 {fill:black}
    .fil0 {fill:white}
   ]]>
  </style>
 </defs>
 <g id="Layer_x0020_1">
  <metadata id="CorelCorpID_0Corel-Layer"/>
  <path class="fil0" d="M45.41 28.3c9.45,0 17.11,7.66 17.11,17.11 0,9.45 -7.66,17.11 -17.11,17.11 -9.45,0 -17.11,-7.66 -17.11,-17.11 0,-9.45 7.66,-17.11 17.11,-17.11z"/>
  <path class="fil1" d="M65.27 26.91l12.92 -12.92c-8.27,-8.62 -19.9,-13.99 -32.79,-13.99 -25.08,0 -45.41,20.33 -45.41,45.41 0,25.08 20.33,45.41 45.41,45.41 12.87,0 24.48,-5.35 32.74,-13.95l-12.92 -12.92c-4.95,5.29 -12,8.6 -19.82,8.6 -14.99,0 -27.14,-12.15 -27.14,-27.14 0,-14.99 12.15,-27.14 27.14,-27.14 7.84,0 14.91,3.33 19.86,8.65z"/>
  <path class="fil0" d="M65.76 27.45c4.22,4.79 6.79,11.07 6.79,17.96 0,6.91 -2.58,13.21 -6.83,18l12.93 12.93c7.55,-8.11 12.16,-18.98 12.16,-30.93 0,-11.93 -4.6,-22.78 -12.12,-30.89l-12.93 12.93z"/>
 </g>
</svg>
