<?xml version="1.0" encoding="UTF-8"?>
<!DOCTYPE svg PUBLIC "-//W3C//DTD SVG 1.1//EN" "http://www.w3.org/Graphics/SVG/1.1/DTD/svg11.dtd">
<!-- Creator: CorelDRAW -->
<svg xmlns="http://www.w3.org/2000/svg" xml:space="preserve" width="2.89733in" height="2.14367in" version="1.1" style="shape-rendering:geometricPrecision; text-rendering:geometricPrecision; image-rendering:optimizeQuality; fill-rule:evenodd; clip-rule:evenodd"
viewBox="0 0 221.39 163.8"
 xmlns:xlink="http://www.w3.org/1999/xlink"
 xmlns:xodm="http://www.corel.com/coreldraw/odm/2003">
 <defs>
  <style type="text/css">
   <![CDATA[
    .str0 {stroke:white;stroke-width:1.3;stroke-miterlimit:2.61313}
    .fil4 {fill:none}
    .fil1 {fill:#F39406}
    .fil0 {fill:white}
    .fil2 {fill:#F39406;fill-rule:nonzero}
    .fil3 {fill:white;fill-rule:nonzero}
   ]]>
  </style>
 </defs>
 <g id="Layer_x0020_1">
  <metadata id="CorelCorpID_0Corel-Layer"/>
  <path class="fil0" d="M110.37 38.9c12.99,0 23.52,10.53 23.52,23.52 0,12.99 -10.53,23.52 -23.52,23.52 -12.99,0 -23.52,-10.53 -23.52,-23.52 0,-12.99 10.53,-23.52 23.52,-23.52z"/>
  <path class="fil1" d="M137.67 36.99l17.76 -17.76c-11.36,-11.85 -27.35,-19.23 -45.06,-19.23 -34.47,0 -62.42,27.95 -62.42,62.42 0,34.47 27.95,62.42 62.42,62.42 17.68,0 33.65,-7.35 45.01,-19.17l-17.76 -17.76c-6.81,7.28 -16.5,11.82 -27.25,11.82 -20.61,0 -37.31,-16.7 -37.31,-37.31 0,-20.61 16.7,-37.31 37.31,-37.31 10.78,0 20.49,4.57 27.3,11.88z"/>
  <path class="fil0" d="M138.35 37.73c5.81,6.58 9.33,15.22 9.33,24.68 0,9.49 -3.55,18.16 -9.38,24.74l17.77 17.77c10.37,-11.15 16.72,-26.09 16.72,-42.52 0,-16.4 -6.32,-31.32 -16.67,-42.46l-17.77 17.77z"/>
  <path class="fil2" d="M17.46 153.81l5.05 1.55c-0.78,2.84 -2.07,4.95 -3.87,6.34 -1.8,1.38 -4.09,2.07 -6.86,2.07 -3.43,0 -6.25,-1.17 -8.46,-3.52 -2.21,-2.34 -3.31,-5.55 -3.31,-9.62 0,-4.3 1.11,-7.64 3.33,-10.02 2.22,-2.38 5.14,-3.57 8.76,-3.57 3.16,0 5.73,0.94 7.7,2.81 1.18,1.11 2.06,2.69 2.65,4.77l-5.16 1.23c-0.31,-1.33 -0.94,-2.39 -1.91,-3.17 -0.97,-0.78 -2.15,-1.16 -3.53,-1.16 -1.92,0 -3.47,0.69 -4.67,2.06 -1.2,1.37 -1.79,3.59 -1.79,6.67 0,3.26 0.59,5.58 1.76,6.97 1.18,1.39 2.71,2.08 4.59,2.08 1.39,0 2.59,-0.44 3.58,-1.32 1,-0.88 1.72,-2.27 2.15,-4.16zm32.79 9.52l-5.63 0 -2.23 -5.88 -10.36 0 -2.15 5.88 -5.53 0 10.03 -25.83 5.52 0 10.35 25.83zm-9.56 -10.24l-3.59 -9.56 -3.49 9.56 7.08 0zm12.34 10.24l0 -25.83 10.98 0c2.76,0 4.77,0.23 6.02,0.7 1.26,0.46 2.25,1.29 3.01,2.47 0.75,1.19 1.13,2.54 1.13,4.07 0,1.94 -0.57,3.54 -1.7,4.8 -1.14,1.26 -2.83,2.06 -5.09,2.39 1.12,0.66 2.05,1.38 2.78,2.16 0.73,0.79 1.72,2.19 2.96,4.2l3.15 5.04 -6.23 0 -3.74 -5.64c-1.34,-2 -2.26,-3.26 -2.76,-3.79 -0.49,-0.52 -1.02,-0.88 -1.57,-1.07 -0.56,-0.19 -1.44,-0.29 -2.64,-0.29l-1.06 0 0 10.78 -5.23 0zm5.23 -14.9l3.86 0c2.5,0 4.06,-0.11 4.68,-0.32 0.62,-0.21 1.11,-0.58 1.46,-1.09 0.35,-0.52 0.53,-1.17 0.53,-1.94 0,-0.87 -0.23,-1.57 -0.7,-2.11 -0.46,-0.53 -1.12,-0.87 -1.96,-1.01 -0.43,-0.06 -1.7,-0.09 -3.81,-0.09l-4.07 0 0 6.56zm26.63 14.9l0 -21.46 -7.65 0 0 -4.36 20.49 0 0 4.36 -7.61 0 0 21.46 -5.23 0zm16.23 0l0 -25.83 19.12 0 0 4.36 -13.89 0 0 5.74 12.91 0 0 4.36 -12.91 0 0 7 14.39 0 0 4.36 -19.62 0zm24.06 0l0 -25.83 10.98 0c2.76,0 4.77,0.23 6.02,0.7 1.26,0.46 2.25,1.29 3.01,2.47 0.75,1.19 1.13,2.54 1.13,4.07 0,1.94 -0.57,3.54 -1.7,4.8 -1.14,1.26 -2.83,2.06 -5.09,2.39 1.12,0.66 2.05,1.38 2.78,2.16 0.73,0.79 1.72,2.19 2.96,4.2l3.15 5.04 -6.23 0 -3.74 -5.64c-1.34,-2 -2.26,-3.26 -2.76,-3.79 -0.49,-0.52 -1.02,-0.88 -1.57,-1.07 -0.56,-0.19 -1.44,-0.29 -2.64,-0.29l-1.06 0 0 10.78 -5.23 0zm5.23 -14.9l3.86 0c2.5,0 4.06,-0.11 4.68,-0.32 0.62,-0.21 1.11,-0.58 1.46,-1.09 0.35,-0.52 0.53,-1.17 0.53,-1.94 0,-0.87 -0.23,-1.57 -0.7,-2.11 -0.46,-0.53 -1.12,-0.87 -1.96,-1.01 -0.43,-0.06 -1.7,-0.09 -3.81,-0.09l-4.07 0 0 6.56zm19.74 2.14c0,-2.63 0.4,-4.84 1.18,-6.64 0.58,-1.32 1.39,-2.5 2.4,-3.55 1.02,-1.05 2.13,-1.82 3.34,-2.33 1.61,-0.68 3.47,-1.02 5.57,-1.02 3.81,0 6.85,1.18 9.14,3.55 2.28,2.37 3.43,5.66 3.43,9.87 0,4.18 -1.14,7.45 -3.4,9.8 -2.27,2.36 -5.3,3.54 -9.1,3.54 -3.84,0 -6.9,-1.17 -9.17,-3.52 -2.27,-2.34 -3.4,-5.58 -3.4,-9.7zm5.37 -0.17c0,2.93 0.68,5.15 2.03,6.66 1.35,1.51 3.07,2.27 5.15,2.27 2.09,0 3.79,-0.75 5.13,-2.25 1.33,-1.5 2,-3.75 2,-6.75 0,-2.96 -0.65,-5.18 -1.95,-6.63 -1.3,-1.46 -3.02,-2.19 -5.18,-2.19 -2.15,0 -3.89,0.74 -5.21,2.21 -1.32,1.48 -1.98,3.7 -1.98,6.68zm23.58 12.93l0 -25.83 5.23 0 0 25.83 -5.23 0zm10.35 0l0 -25.61 5.23 0 0 21.25 12.95 0 0 4.36 -18.18 0z"/>
  <path class="fil3" d="M212.94 145.12l0 -5.63 2.39 0c0.6,0 1.04,0.05 1.31,0.15 0.27,0.1 0.49,0.28 0.66,0.54 0.16,0.26 0.25,0.55 0.25,0.89 0,0.42 -0.12,0.77 -0.37,1.05 -0.25,0.27 -0.62,0.45 -1.11,0.52 0.25,0.14 0.45,0.3 0.61,0.47 0.16,0.17 0.37,0.48 0.64,0.91l0.69 1.1 -1.36 0 -0.81 -1.23c-0.29,-0.44 -0.49,-0.71 -0.6,-0.83 -0.11,-0.11 -0.22,-0.19 -0.34,-0.23 -0.12,-0.04 -0.31,-0.06 -0.58,-0.06l-0.23 0 0 2.35 -1.14 0zm1.14 -3.25l0.84 0c0.54,0 0.88,-0.02 1.02,-0.07 0.14,-0.05 0.24,-0.13 0.32,-0.24 0.08,-0.11 0.12,-0.25 0.12,-0.42 0,-0.19 -0.05,-0.34 -0.15,-0.46 -0.1,-0.12 -0.24,-0.19 -0.43,-0.22 -0.09,-0.01 -0.37,-0.02 -0.83,-0.02l-0.89 0 0 1.43z"/>
  <g>
   <path class="fil4 str0" d="M215.48 137.04c2.91,0 5.26,2.36 5.26,5.26 0,2.91 -2.36,5.26 -5.26,5.26 -2.91,0 -5.26,-2.36 -5.26,-5.26 0,-2.91 2.36,-5.26 5.26,-5.26z"/>
  </g>
 </g>
</svg>
