<svg width="24" height="24" viewBox="0 0 24 24" fill="none" xmlns="http://www.w3.org/2000/svg">
<path d="M23.878 10.2841C23.8379 10.0044 23.6342 9.77589 23.361 9.70403L22.1659 9.38955C21.92 8.42917 21.5402 7.51384 21.033 6.65889L21.6566 5.58967C21.7988 5.34564 21.7813 5.0402 21.612 4.81408C21.2711 4.35855 20.892 3.92134 20.4853 3.51447C20.0795 3.10853 19.6422 2.72941 19.1856 2.3875C18.9595 2.21819 18.654 2.20061 18.4099 2.34306L17.3408 2.96669C16.4859 2.45941 15.5706 2.07967 14.6102 1.83372L14.2958 0.638735C14.2238 0.365501 13.9954 0.161829 13.7157 0.121657C12.5876 -0.0403896 11.4123 -0.0403896 10.2842 0.121657C10.0045 0.161782 9.77611 0.365454 9.7042 0.638735L9.38972 1.83372C8.42939 2.07962 7.51416 2.45936 6.65911 2.96669L5.59008 2.34306C5.34605 2.2007 5.04047 2.21828 4.81434 2.3875C4.35783 2.72936 3.92053 3.10848 3.51464 3.51447C3.10795 3.9213 2.72888 4.3585 2.38791 4.81403C2.21864 5.04016 2.20111 5.34559 2.34338 5.58962L2.96691 6.65884C2.45967 7.51389 2.07994 8.42917 1.83403 9.3895L0.639 9.70398C0.365719 9.77584 0.162047 10.0044 0.121969 10.2841C0.0410625 10.8484 0 11.4256 0 11.9998C0 12.574 0.0410625 13.1512 0.122016 13.7155C0.162094 13.9952 0.365766 14.2237 0.639047 14.2956L1.83408 14.6101C2.08003 15.5705 2.45977 16.4858 2.96695 17.3407L2.34342 18.41C2.20116 18.654 2.21869 18.9594 2.38795 19.1856C2.72892 19.6411 3.108 20.0783 3.51473 20.4852C3.92053 20.8911 4.35783 21.2702 4.81439 21.6121C5.04052 21.7814 5.346 21.799 5.59012 21.6566L6.65916 21.0329C7.51411 21.5402 8.42944 21.92 9.38977 22.1659L9.70425 23.3609C9.77616 23.6341 10.0046 23.8378 10.2843 23.8779C10.8483 23.959 11.4256 24.0001 12 24.0001C12.5744 24.0001 13.1517 23.959 13.7158 23.878C13.9955 23.8379 14.2239 23.6342 14.2958 23.3609L14.6103 22.166C15.5706 21.9201 16.4858 21.5403 17.3409 21.033L18.4099 21.6567C18.654 21.7991 18.9596 21.7815 19.1857 21.6122C19.6422 21.2704 20.0795 20.8912 20.4854 20.4853C20.892 20.0784 21.2711 19.6412 21.6121 19.1857C21.7814 18.9596 21.7989 18.6541 21.6566 18.4101L21.0331 17.3409C21.5403 16.4858 21.9201 15.5706 22.166 14.6102L23.361 14.2957C23.6343 14.2239 23.838 13.9953 23.878 13.7156C23.959 13.1513 24 12.5741 24 11.9999C24 11.4258 23.9589 10.8484 23.878 10.2841ZM12 19.4813C7.87481 19.4813 4.51875 16.1253 4.51875 12.0001C4.51875 7.87492 7.87481 4.51886 12 4.51886C16.1252 4.51886 19.4813 7.87492 19.4813 12.0001C19.4813 16.1253 16.1252 19.4813 12 19.4813Z" fill="#FF9900"/>
<path d="M12.0008 5.92493C8.651 5.92493 5.92578 8.65015 5.92578 12C5.92578 15.3497 8.651 18.075 12.0008 18.075C15.3506 18.075 18.0758 15.3497 18.0758 12C18.0758 8.65015 15.3506 5.92493 12.0008 5.92493ZM15.5105 10.9909L11.7448 14.7565C11.613 14.8884 11.4342 14.9625 11.2477 14.9625C11.0612 14.9625 10.8823 14.8884 10.7505 14.7565L8.86766 12.8737C8.59306 12.5992 8.59306 12.1539 8.86766 11.8793C9.1422 11.6048 9.58742 11.6048 9.86202 11.8793L11.2477 13.265L14.5161 9.99649C14.7907 9.72194 15.2359 9.72194 15.5105 9.99649C15.785 10.2711 15.785 10.7163 15.5105 10.9909Z" fill="#FF9900"/>
</svg>
