<svg width="113" height="103" viewBox="0 0 113 103" fill="none" xmlns="http://www.w3.org/2000/svg">
<g clip-path="url(#clip0_345_21068)">
<path d="M62.9563 85.5267C64.1956 85.5267 65.378 85.5136 66.5648 85.5267C68.1807 85.5486 69.35 86.5427 69.604 88.1236C69.766 89.1396 69.3719 89.9935 68.6712 90.6986C66.4334 92.9495 64.1781 95.1873 61.9359 97.4295C60.7886 98.5769 59.6456 99.733 58.4939 100.876C56.9305 102.426 55.2488 102.439 53.703 100.898C50.3178 97.5258 46.937 94.1451 43.565 90.7555C42.3432 89.525 42.2074 88.001 43.1621 86.696C43.8015 85.8201 44.7211 85.5399 45.7502 85.5267C46.7181 85.5136 47.6859 85.4785 48.6493 85.5311C49.2142 85.5617 49.2668 85.3209 49.2624 84.8654C49.2493 81.2876 49.2493 77.7141 49.2493 74.1363C49.2493 73.2079 49.2361 72.2751 49.258 71.3467C49.2668 70.992 49.1792 70.8825 48.8026 70.8825C45.6451 70.9 42.4921 70.865 39.3346 70.8956C37.4297 70.9132 35.7875 70.357 34.4562 68.9644C33.265 67.7163 32.9103 66.1485 32.7789 64.5063C32.3716 59.4176 31.9687 54.3289 31.579 49.2359C31.1586 43.7093 30.7601 38.1783 30.3353 32.6517C30.0594 29.0694 29.7616 25.4916 29.4682 21.9094C29.4419 21.5634 29.3806 21.2262 29.3237 20.7927C28.5617 20.7927 27.7822 20.8102 27.0071 20.7883C26.0524 20.762 25.2422 20.4029 24.5941 19.6847C23.9941 19.0191 23.8365 18.2001 23.8277 17.3506C23.8014 15.6558 23.7883 13.9567 23.8058 12.2619C23.8277 10.335 25.2291 8.96869 27.156 8.96869C31.5702 8.96431 35.9845 8.96869 40.4032 8.96869C40.6178 8.96869 40.8323 8.96869 41.0601 8.96869C41.1389 8.18043 41.1564 7.43158 41.3009 6.709C42.0498 2.85526 45.4349 0.0437848 49.3763 0.0175094C53.7905 -0.00876614 58.2048 -0.00876614 62.6191 0.0175094C66.8144 0.0394056 70.1864 2.89468 70.9178 7.01555C71.0273 7.6374 71.0141 8.28115 71.0623 8.97745H71.8068C76.1685 8.97745 80.5259 8.97745 84.8876 8.97745C87.0159 8.97745 88.3647 10.3394 88.3603 12.4765C88.3603 14.1012 88.3603 15.7259 88.3603 17.3462C88.3603 19.4526 87.0115 20.8058 84.9139 20.8058C84.2219 20.8058 83.5344 20.8058 82.7855 20.8058C82.7155 21.6422 82.6498 22.4349 82.5885 23.2275C82.2162 28.1016 81.844 32.9714 81.4674 37.8455C81.1784 41.5897 80.885 45.334 80.5915 49.0782C80.1843 54.3114 79.7814 59.549 79.3785 64.7822C79.1332 67.9922 77.3159 70.1731 74.3467 70.773C73.8694 70.8694 73.3658 70.8781 72.8753 70.8825C69.7004 70.8913 66.5254 70.8956 63.3504 70.8869C63.0439 70.8869 62.895 70.9219 62.895 71.2985C62.9081 75.9318 62.895 80.565 62.895 85.1983C62.895 85.2859 62.9169 85.3734 62.9432 85.5267H62.9563ZM32.8884 20.8321C32.8884 21.0467 32.8796 21.1912 32.8884 21.3357C33.2475 25.8244 33.6066 30.3175 33.9657 34.8063C34.2065 37.8586 34.443 40.9153 34.6839 43.9676C34.951 47.3659 35.2181 50.7686 35.4897 54.1669C35.7787 57.8411 36.0633 61.5109 36.3699 65.1807C36.4706 66.385 37.3946 67.3222 38.5945 67.3353C42.006 67.3835 45.4174 67.3616 48.8289 67.3791C49.1836 67.3791 49.2493 67.2171 49.2449 66.9105C49.2317 66.2361 49.223 65.5617 49.2536 64.8873C49.3325 63.1838 50.5543 61.9226 52.2666 61.8919C54.7846 61.8437 57.3027 61.8437 59.8208 61.8919C61.717 61.9269 62.803 63.0568 62.8819 64.9618C62.9081 65.6011 62.9169 66.2405 62.8775 66.8755C62.8512 67.3266 63.0089 67.4404 63.438 67.4229C64.3139 67.3879 65.1897 67.3966 66.0656 67.3923C68.5661 67.3747 71.0667 67.3879 73.5628 67.3353C74.7102 67.3134 75.551 66.5514 75.7744 65.4216C75.8795 64.8873 75.8926 64.3355 75.9364 63.7925C76.2123 60.2278 76.4926 56.6675 76.7641 53.1028C77.0312 49.595 77.2896 46.0828 77.5611 42.575C77.872 38.5768 78.2005 34.5785 78.5158 30.5759C78.7523 27.5761 78.9712 24.5763 79.2033 21.5765C79.2603 20.8277 79.2778 20.8233 78.5202 20.8233C63.4862 20.8146 48.4479 20.8102 33.4139 20.8058C33.2519 20.8058 33.0942 20.8189 32.8928 20.8277L32.8884 20.8321ZM84.9051 12.5203H27.2742V17.2674H84.9051V12.5203ZM46.9896 89.0257C50.0726 92.0956 53.1205 95.1348 56.0634 98.0601C59.0281 95.0997 62.0498 92.0825 65.1197 89.017C64.1869 89.017 63.241 89.0433 62.2994 89.0126C60.7798 88.9644 59.6237 87.8696 59.4529 86.3544C59.4179 86.0478 59.4004 85.7369 59.4004 85.426C59.4004 78.8922 59.4004 72.3627 59.4135 65.8289C59.4135 65.4479 59.2821 65.3647 58.9449 65.3647C57.0487 65.3734 55.1481 65.3822 53.2519 65.3647C52.8402 65.3647 52.7264 65.4829 52.7264 65.8902C52.7439 71.6007 52.7439 77.3112 52.7483 83.0218C52.7483 83.9721 52.7658 84.9224 52.7176 85.8683C52.6213 87.874 51.4301 89.0038 49.4201 89.0257C48.6055 89.0345 47.7954 89.0257 46.9896 89.0257ZM67.6202 8.95555C67.5808 8.40815 67.5983 7.91329 67.502 7.44033C67.0027 5.02299 65.1109 3.50777 62.4439 3.49025C58.1041 3.4596 53.7599 3.49901 49.4201 3.51215C48.3252 3.51215 47.3487 3.88439 46.4772 4.53251C45.0846 5.56602 44.2744 7.51478 44.6598 8.95118H67.6246L67.6202 8.95555Z" fill="#F39406"/>
<path d="M105.413 43.7267C105.413 47.0812 105.417 50.4401 105.404 53.7946C105.404 54.1756 105.505 54.3113 105.895 54.3026C106.932 54.2807 107.975 54.2851 109.013 54.2894C110.37 54.2938 111.369 54.9025 111.903 56.155C112.437 57.4075 112.096 58.5242 111.167 59.457C107.743 62.8947 104.318 66.3324 100.872 69.7482C99.4396 71.1671 97.8193 71.1539 96.3873 69.7351C92.9276 66.3061 89.4899 62.8553 86.0435 59.4132C85.0756 58.4454 84.8217 57.3067 85.3428 56.0543C85.8464 54.85 86.8361 54.307 88.1192 54.2894C89.1571 54.2763 90.1994 54.2719 91.2373 54.307C91.6708 54.3201 91.7934 54.2019 91.7934 53.7596C91.7803 47.5761 91.7803 41.3926 91.789 35.2047C91.789 34.4952 91.789 33.777 91.8854 33.0764C92.0781 31.7057 93.1422 30.6941 94.5261 30.6678C97.2412 30.6152 99.9607 30.6109 102.68 30.6678C104.327 30.7028 105.435 32.0516 105.439 33.869C105.448 37.1534 105.439 40.4379 105.439 43.7179C105.43 43.7179 105.422 43.7179 105.413 43.7179V43.7267ZM95.2793 34.158C95.2705 34.3551 95.2618 34.4777 95.2574 34.6047C95.253 38.9621 95.2443 43.3238 95.2399 47.6812C95.2399 49.9978 95.2574 52.3144 95.2574 54.631C95.2574 56.3127 94.2327 57.5257 92.5598 57.7315C91.7847 57.8279 90.9964 57.7753 90.2125 57.7885C89.9541 57.7885 89.6958 57.7885 89.5425 57.7885C92.5598 60.8408 95.5902 63.9063 98.5769 66.9323C101.603 63.9107 104.638 60.8758 107.694 57.8191C107.563 57.8104 107.427 57.7885 107.292 57.7885C106.525 57.7885 105.759 57.806 104.992 57.7797C103.635 57.7359 102.514 57.0046 102.15 55.8528C101.984 55.3273 101.94 54.7449 101.94 54.1843C101.927 47.8388 101.931 41.4889 101.931 35.1434C101.931 34.8193 101.931 34.4996 101.931 34.1537H95.2705L95.2793 34.158Z" fill="#F39406"/>
<path d="M6.71801 54.2282C6.71801 53.8954 6.71801 53.5888 6.71801 53.2823C6.71801 46.8798 6.71801 40.4773 6.71801 34.0749C6.71801 32.24 7.53255 31.0795 9.07842 30.7291C9.37621 30.6591 9.69152 30.6459 10.0024 30.6459C12.3716 30.6372 14.7452 30.6109 17.1143 30.6635C17.745 30.6766 18.4325 30.8342 18.9843 31.132C20.0791 31.7189 20.3813 32.7874 20.3813 33.9654C20.3769 37.7754 20.3769 41.5897 20.3769 45.3996C20.3769 48.2067 20.39 51.0182 20.3769 53.8253C20.3769 54.2238 20.4995 54.3202 20.8761 54.3114C21.9534 54.2851 23.0307 54.2764 24.1036 54.2983C25.3824 54.3289 26.3502 54.8982 26.8494 56.1069C27.3486 57.3156 27.099 58.4148 26.1925 59.3256C22.7198 62.8159 19.247 66.3105 15.7393 69.7658C14.2897 71.1934 12.7088 71.154 11.2593 69.7132C7.8172 66.2974 4.38825 62.8597 0.963676 59.422C0.0440336 58.498 -0.253755 57.3944 0.258617 56.1638C0.775368 54.9332 1.74318 54.307 3.08323 54.2895C4.14301 54.2764 5.19841 54.2807 6.25819 54.2764C6.39832 54.2764 6.53846 54.2457 6.72677 54.2282H6.71801ZM22.7504 57.8148C22.6059 57.7973 22.4526 57.7622 22.2994 57.7666C21.533 57.7666 20.7666 57.806 20.0003 57.7885C18.288 57.7447 17.1231 56.6587 16.9567 54.9595C16.9173 54.5435 16.9217 54.1231 16.9217 53.7027C16.9217 48.1016 16.9217 42.5006 16.9173 36.9039C16.9173 35.9974 16.9173 35.0909 16.9173 34.1625H10.1951C10.1951 34.3376 10.1951 34.4646 10.1951 34.5916C10.1951 37.9461 10.1951 41.305 10.2039 44.6595C10.2083 47.9965 10.2258 51.3379 10.217 54.6749C10.2126 56.5142 8.96894 57.7535 7.12966 57.7929C6.36329 57.8104 5.59692 57.7929 4.83055 57.7929C4.69917 57.7929 4.57218 57.8192 4.34446 57.8411C7.48876 60.9547 10.5499 63.9895 13.6635 67.0769C16.6633 64.0158 19.6893 60.9372 22.7548 57.8148H22.7504Z" fill="#F39406"/>
<path d="M42.7021 44.1208C42.7021 40.5824 42.6933 37.0439 42.7021 33.5099C42.7021 32.4019 43.3064 31.7056 44.2699 31.6181C45.1632 31.5392 45.934 32.091 46.1091 32.9713C46.1748 33.2909 46.188 33.6238 46.188 33.9478C46.1923 40.8057 46.1967 47.6592 46.1967 54.5172C46.1967 55.7871 45.5836 56.571 44.537 56.6236C43.5385 56.6761 42.7765 56.0061 42.7065 55.0076C42.6846 54.7186 42.6846 54.4252 42.6846 54.1318C42.6846 50.7948 42.6846 47.4578 42.6846 44.1208C42.6889 44.1208 42.6933 44.1208 42.6977 44.1208H42.7021Z" fill="#F39406"/>
<path d="M69.4595 44.1384C69.4595 47.5323 69.4595 50.9218 69.4595 54.3157C69.4595 54.5522 69.4595 54.7887 69.4376 55.0252C69.3675 55.8967 68.6975 56.5667 67.8479 56.6148C66.9458 56.6674 66.1925 56.1112 66.0305 55.2266C65.9648 54.8719 65.9561 54.4997 65.9561 54.1362C65.9561 47.4447 65.9561 40.7488 65.9604 34.0573C65.9604 33.6939 65.9736 33.326 66.0393 32.9713C66.2013 32.1042 66.9633 31.5612 67.8873 31.6181C68.6712 31.6663 69.3456 32.3232 69.4244 33.1421C69.4595 33.488 69.4507 33.834 69.4507 34.18C69.4507 37.4994 69.4507 40.8189 69.4507 44.1384H69.4551H69.4595Z" fill="#F39406"/>
<path d="M54.3247 44.2349C54.3247 40.806 54.3247 37.377 54.3291 33.9481C54.3291 33.6065 54.3597 33.2518 54.4429 32.9233C54.6312 32.1613 55.2618 31.6621 56.0151 31.6314C56.7508 31.6052 57.4383 32.0694 57.6748 32.8094C57.7711 33.0985 57.8237 33.4138 57.8237 33.7203C57.8325 40.6702 57.8325 47.6201 57.8237 54.5699C57.8237 55.7085 57.2018 56.488 56.2384 56.6107C55.1743 56.742 54.3247 55.9582 54.3203 54.802C54.3115 52.03 54.3203 49.2579 54.3203 46.4858C54.3203 45.737 54.3203 44.9881 54.3203 44.2437L54.3247 44.2349Z" fill="#F39406"/>
</g>
<defs>
<clipPath id="clip0_345_21068">
<rect width="112.157" height="102.05" fill="white"/>
</clipPath>
</defs>
</svg>
