<svg xmlns="http://www.w3.org/2000/svg" xmlns:xlink="http://www.w3.org/1999/xlink" width="100" zoomAndPan="magnify" viewBox="0 0 75.119995 83.04" height="100" preserveAspectRatio="xMidYMid meet" version="1.0"><defs><clipPath id="e3f55bee17"><path d="M 0 0.0078125 L 74.132812 0.0078125 L 74.132812 74.136719 L 0 74.136719 Z M 0 0.0078125 " clip-rule="nonzero"/></clipPath><clipPath id="0ef98ba402"><path d="M 9.785156 6.546875 L 64.640625 6.546875 L 64.640625 67.335938 L 9.785156 67.335938 Z M 9.785156 6.546875 " clip-rule="nonzero"/></clipPath></defs><g clip-path="url(#e3f55bee17)"><path fill="#ffffff" d="M 0 0.0078125 L 74.132812 0.0078125 L 74.132812 74.136719 L 0 74.136719 Z M 0 0.0078125 " fill-opacity="1" fill-rule="nonzero"/><path fill="#ffffff" d="M 0 0.0078125 L 74.132812 0.0078125 L 74.132812 74.136719 L 0 74.136719 Z M 0 0.0078125 " fill-opacity="1" fill-rule="nonzero"/></g><g clip-path="url(#0ef98ba402)"><path fill="#f1940b" d="M 37.066406 17.023438 C 27.792969 17.023438 20.246094 24.570312 20.246094 33.847656 C 20.246094 39.207031 22.835938 44.296875 27.179688 47.457031 C 28.351562 48.3125 28.972656 49.53125 28.972656 50.984375 L 28.972656 51.449219 C 27.457031 51.699219 26.292969 53.015625 26.292969 54.605469 C 26.292969 55.582031 26.734375 56.457031 27.425781 57.042969 C 26.734375 57.628906 26.292969 58.503906 26.292969 59.480469 C 26.292969 61.246094 27.726562 62.679688 29.492188 62.679688 L 31.296875 62.679688 C 31.667969 65.433594 34.035156 67.566406 36.890625 67.566406 C 39.746094 67.566406 42.113281 65.433594 42.484375 62.679688 L 44.289062 62.679688 C 46.054688 62.679688 47.488281 61.246094 47.488281 59.480469 C 47.488281 58.503906 47.046875 57.628906 46.355469 57.042969 C 47.046875 56.457031 47.488281 55.582031 47.488281 54.605469 C 47.488281 53.144531 46.503906 51.910156 45.164062 51.527344 L 45.164062 50.984375 C 45.164062 49.53125 45.785156 48.3125 46.960938 47.457031 C 51.300781 44.296875 53.894531 39.207031 53.894531 33.847656 C 53.894531 24.570312 46.347656 17.023438 37.070312 17.023438 Z M 36.890625 66.046875 C 34.875 66.046875 33.191406 64.59375 32.832031 62.679688 L 40.945312 62.679688 C 40.585938 64.59375 38.90625 66.046875 36.890625 66.046875 Z M 44.289062 61.164062 L 29.492188 61.164062 C 28.566406 61.164062 27.8125 60.410156 27.8125 59.484375 C 27.8125 58.554688 28.566406 57.804688 29.492188 57.804688 L 44.289062 57.804688 C 45.214844 57.804688 45.96875 58.554688 45.96875 59.484375 C 45.96875 60.410156 45.214844 61.164062 44.289062 61.164062 Z M 45.96875 54.605469 C 45.96875 55.53125 45.214844 56.285156 44.289062 56.285156 L 29.492188 56.285156 C 28.566406 56.285156 27.8125 55.53125 27.8125 54.605469 C 27.8125 53.679688 28.566406 52.925781 29.492188 52.925781 L 44.289062 52.925781 C 45.214844 52.925781 45.96875 53.679688 45.96875 54.605469 Z M 46.066406 46.230469 C 44.503906 47.367188 43.644531 49.054688 43.644531 50.984375 L 43.644531 51.40625 L 30.492188 51.40625 L 30.492188 50.984375 C 30.492188 49.054688 29.632812 47.367188 28.070312 46.230469 C 24.121094 43.355469 21.761719 38.726562 21.761719 33.847656 C 21.761719 25.410156 28.628906 18.542969 37.066406 18.542969 C 45.503906 18.542969 52.371094 25.410156 52.371094 33.847656 C 52.371094 38.726562 50.015625 43.355469 46.066406 46.230469 Z M 36.308594 12.128906 L 36.308594 7.328125 C 36.308594 6.910156 36.648438 6.570312 37.066406 6.570312 C 37.488281 6.570312 37.828125 6.910156 37.828125 7.328125 L 37.828125 12.128906 C 37.828125 12.546875 37.488281 12.886719 37.066406 12.886719 C 36.648438 12.886719 36.308594 12.546875 36.308594 12.128906 Z M 23.152344 11.261719 C 22.941406 10.898438 23.066406 10.433594 23.429688 10.222656 C 23.792969 10.011719 24.257812 10.136719 24.46875 10.5 L 26.867188 14.65625 C 27.078125 15.019531 26.953125 15.484375 26.589844 15.695312 C 26.46875 15.765625 26.335938 15.796875 26.210938 15.796875 C 25.949219 15.796875 25.691406 15.660156 25.550781 15.417969 Z M 18.917969 23.367188 C 18.777344 23.609375 18.519531 23.746094 18.257812 23.746094 C 18.128906 23.746094 18 23.714844 17.878906 23.644531 L 13.722656 21.246094 C 13.359375 21.035156 13.238281 20.570312 13.445312 20.207031 C 13.65625 19.847656 14.121094 19.722656 14.484375 19.929688 L 18.640625 22.328125 C 19.003906 22.539062 19.128906 23.003906 18.917969 23.367188 Z M 15.347656 34.605469 L 10.550781 34.605469 C 10.128906 34.605469 9.789062 34.265625 9.789062 33.847656 C 9.789062 33.429688 10.128906 33.089844 10.550781 33.089844 L 15.347656 33.089844 C 15.769531 33.089844 16.109375 33.429688 16.109375 33.847656 C 16.109375 34.265625 15.769531 34.605469 15.347656 34.605469 Z M 18.917969 44.328125 C 19.128906 44.691406 19 45.15625 18.636719 45.363281 L 14.484375 47.765625 C 14.363281 47.832031 14.230469 47.867188 14.105469 47.867188 C 13.84375 47.867188 13.585938 47.730469 13.445312 47.484375 C 13.234375 47.121094 13.359375 46.65625 13.722656 46.449219 L 17.878906 44.046875 C 18.242188 43.839844 18.707031 43.964844 18.917969 44.328125 Z M 47.269531 14.660156 L 49.671875 10.503906 C 49.878906 10.140625 50.34375 10.015625 50.707031 10.222656 C 51.070312 10.433594 51.195312 10.898438 50.984375 11.261719 L 48.585938 15.417969 C 48.445312 15.660156 48.191406 15.796875 47.929688 15.796875 C 47.800781 15.796875 47.667969 15.765625 47.550781 15.695312 C 47.1875 15.484375 47.0625 15.023438 47.273438 14.660156 Z M 55.21875 23.367188 C 55.007812 23.003906 55.132812 22.539062 55.496094 22.328125 L 59.652344 19.929688 C 60.015625 19.71875 60.480469 19.847656 60.691406 20.207031 C 60.902344 20.570312 60.777344 21.035156 60.414062 21.246094 L 56.257812 23.644531 C 56.136719 23.714844 56.007812 23.746094 55.878906 23.746094 C 55.617188 23.746094 55.359375 23.609375 55.21875 23.367188 Z M 64.347656 33.847656 C 64.347656 34.265625 64.003906 34.605469 63.585938 34.605469 L 58.785156 34.605469 C 58.367188 34.605469 58.027344 34.265625 58.027344 33.847656 C 58.027344 33.429688 58.367188 33.089844 58.785156 33.089844 L 63.585938 33.089844 C 64.003906 33.089844 64.347656 33.429688 64.347656 33.847656 Z M 60.691406 47.484375 C 60.550781 47.730469 60.296875 47.867188 60.035156 47.867188 C 59.90625 47.867188 59.773438 47.832031 59.65625 47.765625 L 55.5 45.363281 C 55.136719 45.15625 55.011719 44.691406 55.21875 44.328125 C 55.429688 43.964844 55.894531 43.839844 56.257812 44.046875 L 60.414062 46.449219 C 60.777344 46.65625 60.902344 47.121094 60.691406 47.484375 Z M 46.566406 30.980469 L 40.355469 30.265625 L 37.757812 24.578125 C 37.632812 24.308594 37.363281 24.132812 37.066406 24.132812 C 36.769531 24.132812 36.5 24.308594 36.375 24.578125 L 33.777344 30.265625 L 27.566406 30.980469 C 27.269531 31.015625 27.023438 31.214844 26.929688 31.5 C 26.835938 31.785156 26.921875 32.09375 27.140625 32.292969 L 31.742188 36.523438 L 30.503906 42.648438 C 30.445312 42.941406 30.5625 43.238281 30.800781 43.414062 C 31.042969 43.589844 31.363281 43.609375 31.621094 43.460938 L 37.066406 40.390625 L 42.511719 43.460938 C 42.625 43.527344 42.753906 43.558594 42.882812 43.558594 C 43.039062 43.558594 43.195312 43.507812 43.328125 43.414062 C 43.570312 43.238281 43.6875 42.941406 43.628906 42.648438 L 42.386719 36.519531 L 46.992188 32.292969 C 47.210938 32.089844 47.292969 31.78125 47.199219 31.5 C 47.109375 31.214844 46.859375 31.011719 46.566406 30.976562 Z M 41.046875 35.695312 C 40.851562 35.875 40.765625 36.144531 40.816406 36.402344 L 41.8125 41.324219 L 37.441406 38.855469 C 37.324219 38.789062 37.195312 38.757812 37.066406 38.757812 C 36.9375 38.757812 36.8125 38.792969 36.695312 38.855469 L 32.324219 41.324219 L 33.320312 36.402344 C 33.371094 36.144531 33.285156 35.875 33.089844 35.695312 L 29.390625 32.296875 L 34.378906 31.726562 C 34.640625 31.695312 34.871094 31.527344 34.980469 31.285156 L 37.066406 26.722656 L 39.15625 31.285156 C 39.265625 31.527344 39.492188 31.695312 39.757812 31.726562 L 44.746094 32.296875 Z M 41.046875 35.695312 " fill-opacity="1" fill-rule="nonzero"/></g></svg>