<svg width="110" height="81" viewBox="0 0 110 81" fill="none" xmlns="http://www.w3.org/2000/svg">
<path fill-rule="evenodd" clip-rule="evenodd" d="M53.175 15.9147C43.8411 15.8539 34.4823 15.9116 25.1406 15.9116C13.2481 15.9116 9.54418 14.4001 4.12462 22.8021C-3.50142 34.6245 -0.141849 60.0145 12.3319 62.5997L12.3303 43.0468L23.9984 43.039L24.0545 62.8303L49.1485 62.8334L49.1391 43.0453L60.8072 43.039L60.8524 62.8334L65.8263 62.835L65.8107 15.9038L60.8805 15.9116L60.8742 12.3012L53.217 12.2949L53.1765 15.9147H53.175Z" fill="white"/>
<path fill-rule="evenodd" clip-rule="evenodd" d="M13.975 69.7812C10.6373 69.7968 7.29639 69.7828 3.95864 69.7828C-0.684926 69.7828 0.041215 69.1907 0.041215 75.7618C0.041215 81.4992 -0.616363 80.6235 5.17406 80.6235H104.831C110.574 80.6235 109.963 81.5086 109.963 75.7618C109.963 69.0707 110.675 69.7828 105.874 69.7828C102.592 69.7828 99.309 69.775 95.9479 69.7843L95.898 44.7559L87.658 44.7668L87.5833 69.7843L59.1407 69.789L59.0892 44.7559L50.8586 44.7636L50.7791 69.7843L22.3319 69.7859L22.282 44.7574L14.0529 44.7714L13.9735 69.7843L13.975 69.7812Z" fill="white"/>
<path fill-rule="evenodd" clip-rule="evenodd" d="M85.8044 15.9178L81.0455 15.9085L80.9863 62.8381L85.9493 62.8318L85.9431 43.0453L97.6034 43.039L97.6564 62.6028C110.203 59.9273 113.568 34.7211 105.737 22.5996C102.115 16.9899 99.6291 15.9677 93.5099 15.9069L93.5052 12.3058L85.8465 12.2949L85.8044 15.9194V15.9178Z" fill="white"/>
<path fill-rule="evenodd" clip-rule="evenodd" d="M48.6522 4.14563L98.1529 4.14095L98.2214 0.136268C96.5105 -0.105259 56.2673 0.0708221 51.1828 0.0645891C50.1606 0.0630309 48.7316 -0.309389 48.5665 0.751774C48.4667 1.38909 48.5088 3.54726 48.6522 4.14563Z" fill="white"/>
<path fill-rule="evenodd" clip-rule="evenodd" d="M15.3621 10.3092L15.3574 14.208L40.8705 14.2017C40.8471 11.1242 41.3988 8.53595 39.3824 8.45336C34.9149 8.27261 25.913 8.46116 20.9733 8.46116C16.3002 8.46116 15.3621 7.9111 15.3621 10.3077V10.3092Z" fill="white"/>
<path fill-rule="evenodd" clip-rule="evenodd" d="M68.1495 62.8142L78.6972 62.7831L78.6645 58.3047L68.0996 58.3343L68.1495 62.8142Z" fill="white"/>
<path fill-rule="evenodd" clip-rule="evenodd" d="M68.1035 20.2709L78.6731 20.3083L78.7011 15.967L68.1207 15.9141L68.1035 20.2709Z" fill="white"/>
<path fill-rule="evenodd" clip-rule="evenodd" d="M68.082 30.8714L78.7232 30.8543L78.7217 26.6953L68.0664 26.7125L68.082 30.8714Z" fill="white"/>
<path fill-rule="evenodd" clip-rule="evenodd" d="M68.0938 46.5538C68.9227 46.7393 77.9169 46.7361 78.7085 46.546L78.696 42.56L68.1452 42.5195L68.0953 46.5538H68.0938Z" fill="white"/>
<path fill-rule="evenodd" clip-rule="evenodd" d="M68.0992 50.5869L68.1179 51.8538L78.6563 51.8787L78.7093 47.8647C77.9224 47.673 68.9438 47.6715 68.0977 47.8522L68.0992 50.5869Z" fill="white"/>
<path fill-rule="evenodd" clip-rule="evenodd" d="M68.0996 41.3038L78.691 41.3614L78.7019 37.3116L68.1105 37.2539L68.0996 41.3038Z" fill="white"/>
<path fill-rule="evenodd" clip-rule="evenodd" d="M68.0996 57.0975L78.6816 57.1458L78.7019 53.1022L68.1214 53.0352L68.0996 57.0975Z" fill="white"/>
<path fill-rule="evenodd" clip-rule="evenodd" d="M68.0977 25.5093L78.6984 25.5778V21.5248L68.1226 21.4688L68.0977 25.5093Z" fill="white"/>
<path fill-rule="evenodd" clip-rule="evenodd" d="M68.1055 36.0619L78.6641 36.0931L78.7062 32.0775L68.1055 31.9902V36.0619Z" fill="white"/>
<path fill-rule="evenodd" clip-rule="evenodd" d="M95.0078 11.0857L98.2084 11.1372L98.2381 5.29688L95.0218 5.30622L95.0078 11.0857Z" fill="white"/>
<path fill-rule="evenodd" clip-rule="evenodd" d="M48.5645 11.1333L51.6529 11.127L51.6887 5.30699L48.5925 5.29297L48.5645 11.1333Z" fill="white"/>
<path fill-rule="evenodd" clip-rule="evenodd" d="M69.6914 11.1508L72.73 11.1336L72.7876 5.2793L69.7257 5.29176L69.6914 11.1508Z" fill="white"/>
<path fill-rule="evenodd" clip-rule="evenodd" d="M82.3418 11.1457L85.3882 11.1332L85.4334 5.28516L82.3792 5.29295L82.3418 11.1457Z" fill="white"/>
<path fill-rule="evenodd" clip-rule="evenodd" d="M52.83 11.1409L55.867 11.1331L55.9106 5.29282L52.8627 5.29126L52.83 11.1409Z" fill="white"/>
<path fill-rule="evenodd" clip-rule="evenodd" d="M57.0449 11.1379L60.1022 11.1177L60.1224 5.36618L57.0683 5.28516L57.0449 11.1379Z" fill="white"/>
<path fill-rule="evenodd" clip-rule="evenodd" d="M86.5625 11.1426L89.6151 11.1161L89.6385 5.3693L86.5859 5.28516L86.5625 11.1426Z" fill="white"/>
<path fill-rule="evenodd" clip-rule="evenodd" d="M61.2656 11.1146L64.3058 11.1255L64.3354 5.32258L61.2843 5.29297L61.2656 11.1146Z" fill="white"/>
<path fill-rule="evenodd" clip-rule="evenodd" d="M73.9141 11.1352L76.9573 11.1212L76.9838 5.34788L73.9343 5.28711L73.9141 11.1352Z" fill="white"/>
<path fill-rule="evenodd" clip-rule="evenodd" d="M90.793 11.1196L93.8238 11.1274L93.8487 5.32764L90.8086 5.29492L90.793 11.1196Z" fill="white"/>
<path fill-rule="evenodd" clip-rule="evenodd" d="M65.4961 11.0791L68.5128 11.1368L68.5565 5.29492L65.5008 5.30583L65.4961 11.0791Z" fill="white"/>
<path fill-rule="evenodd" clip-rule="evenodd" d="M78.1445 11.1056L81.1597 11.1321L81.2034 5.30897L78.1648 5.30273L78.1445 11.1056Z" fill="white"/>
</svg>
