<svg width="66" height="65" viewBox="0 0 66 65" fill="none" xmlns="http://www.w3.org/2000/svg">
<path fill-rule="evenodd" clip-rule="evenodd" d="M33.3289 20.1855C40.0754 20.1855 45.5447 25.6493 45.5447 32.389C45.5447 39.1287 40.0754 44.5923 33.3289 44.5923C26.5825 44.5923 21.1133 39.1287 21.1133 32.389C21.1133 25.6493 26.5825 20.1855 33.3289 20.1855Z" fill="black"/>
<path fill-rule="evenodd" clip-rule="evenodd" d="M47.5134 19.1953L56.7389 9.97907C50.8377 3.82893 42.5317 0 33.3303 0C15.4241 0 0.908203 14.5013 0.908203 32.3893C0.908203 50.2776 15.4241 64.7789 33.3303 64.7789C42.5166 64.7789 50.8104 60.9624 56.7099 54.8299L47.4848 45.6142C43.9481 49.3903 38.915 51.7502 33.3303 51.7502C22.627 51.7502 13.9501 43.0821 13.9501 32.3893C13.9501 21.6969 22.627 13.0288 33.3303 13.0288C38.9301 13.0288 43.9754 15.4015 47.5134 19.1953Z" fill="#F39406"/>
<path fill-rule="evenodd" clip-rule="evenodd" d="M47.8636 19.5816C50.88 22.9949 52.7108 27.4787 52.7108 32.3897C52.7108 37.3161 50.8692 41.8124 47.8359 45.2295L57.0676 54.4518C62.4561 48.6684 65.7527 40.9137 65.7527 32.3897C65.7527 23.8808 62.4678 16.1385 57.0961 10.3584L47.8636 19.5816Z" fill="black"/>
</svg>
