<svg width="64" height="84" viewBox="0 0 64 84" fill="none" xmlns="http://www.w3.org/2000/svg">
<g clip-path="url(#clip0_345_21029)">
<path d="M48.7033 15.3895C48.7033 17.6647 48.7261 19.8744 48.6837 22.0808C48.6771 22.5195 48.5072 22.9941 48.2851 23.3772C46.5306 26.3889 44.75 29.3843 42.9662 32.3796C42.1853 33.6891 41.3686 34.9756 40.5942 36.2916C40.444 36.5437 40.3525 36.871 40.3492 37.1656C40.3329 38.5013 40.3427 39.8402 40.3688 41.1758C40.3819 41.8371 40.2316 42.446 39.8983 43.0091C38.745 44.9536 37.5852 46.8949 36.4286 48.8361C35.8569 49.7953 35.0107 50.2863 33.8966 50.2634C33.5013 50.2536 33.3543 50.3485 33.3608 50.7774C33.3837 52.5353 33.3641 54.2965 33.3869 56.0544C33.3869 56.1919 33.547 56.4015 33.681 56.4538C36.5985 57.6127 39.5226 58.7486 42.4434 59.8977C45.642 61.1548 48.8405 62.4216 52.0358 63.6885C55.1297 64.9161 58.2205 66.1503 61.3112 67.3845C61.7653 67.5645 62.226 67.7347 62.6703 67.9377C63.4936 68.3109 64.0164 68.9394 64 69.8659C63.9837 70.7825 63.4904 71.4339 62.6442 71.7842C61.2752 72.3538 59.903 72.9038 58.5308 73.4603C52.222 76.017 45.9164 78.5802 39.6043 81.1271C37.6506 81.9161 35.6772 82.6526 33.7234 83.4318C32.5799 83.8868 31.4626 83.8999 30.3158 83.435C27.2708 82.2009 24.2095 80.9995 21.1613 79.7686C16.5873 77.9222 12.0198 76.0563 7.44911 74.2034C5.48556 73.4079 3.51547 72.6223 1.54865 71.8333C0.862554 71.5583 0.303873 71.1589 0.0882415 70.406C-0.202534 69.3945 0.281003 68.3927 1.32649 67.9541C2.75423 67.355 4.19177 66.7788 5.63258 66.2092C10.0171 64.4808 14.4114 62.7654 18.7959 61.0369C22.625 59.5278 26.4508 58.0023 30.2831 56.4997C30.5445 56.3982 30.6393 56.264 30.636 55.9955C30.6295 54.1296 30.6327 52.2603 30.6327 50.3583C30.2766 50.3223 29.927 50.306 29.584 50.2536C28.7541 50.1292 28.1105 49.7102 27.6792 48.99C26.5521 47.1109 25.438 45.222 24.2945 43.3528C23.824 42.5835 23.6051 41.7782 23.6345 40.8714C23.677 39.6045 23.6574 38.3343 23.6443 37.0674C23.6443 36.8481 23.5659 36.6091 23.4548 36.4193C21.8311 33.6792 20.191 30.949 18.5606 28.209C17.5936 26.582 16.6232 24.9583 15.7019 23.3051C15.4732 22.8959 15.3262 22.3852 15.3164 21.9171C15.2739 19.9693 15.2968 18.0182 15.2935 16.0672C15.2935 15.8642 15.2935 15.6612 15.2935 15.3895H14.872C13.6893 15.3895 12.5034 15.3928 11.3207 15.3895C9.53354 15.383 8.35737 14.2568 8.34104 12.4694C8.31817 9.30385 8.3345 6.14153 8.33123 2.97594C8.33123 2.08879 8.58934 1.31949 9.26564 0.707318C9.80472 0.219548 10.4614 0.0918768 11.1442 0.0165835C11.3043 -0.00305828 11.471 0.00348897 11.6343 0.00348897C25.3008 0.00348897 38.9705 0.00348897 52.6369 0.00348897C54.1463 0.00348897 55.2049 0.73678 55.5577 2.0626C55.6492 2.39978 55.6819 2.76315 55.6852 3.11343C55.6982 6.18081 55.6982 9.25147 55.695 12.3189C55.695 14.1815 54.4828 15.3895 52.6271 15.3928C51.4705 15.3928 50.314 15.3928 49.1574 15.3928C49.0235 15.3928 48.8895 15.3928 48.7098 15.3928L48.7033 15.3895ZM44.8905 23.7569C44.6912 23.7471 44.5965 23.734 44.505 23.734C40.0944 23.734 35.6837 23.734 31.2764 23.734C30.9529 23.734 30.6229 23.7143 30.3028 23.6521C29.7375 23.5408 29.3063 23.0138 29.2573 22.4343C29.2115 21.8877 29.5578 21.3017 30.1002 21.1151C30.4138 21.0071 30.7634 20.9579 31.0967 20.9547C35.8863 20.9449 40.6792 20.9481 45.4688 20.9481H45.9425V15.4157H18.064V20.9481C18.2503 20.9481 18.4104 20.9481 18.5705 20.9481C20.1485 20.9481 21.7298 20.9449 23.3078 20.9481C23.8534 20.9481 24.3762 21.0496 24.7257 21.5276C25.0361 21.9499 25.1374 22.4213 24.9054 22.9123C24.6539 23.4394 24.2226 23.7209 23.6411 23.7274C22.3081 23.7373 20.9718 23.7307 19.6388 23.734C19.4983 23.734 19.3546 23.7471 19.1683 23.7536C19.2467 23.914 19.2925 24.0253 19.3546 24.1268C20.4687 25.996 21.586 27.8653 22.7034 29.7345C23.6639 31.3484 24.631 32.959 25.5785 34.5795C25.7353 34.8512 25.9117 34.9429 26.2254 34.9429C30.0512 34.933 33.8737 34.933 37.6996 34.9429C38.0524 34.9429 38.2615 34.8479 38.4477 34.5304C40.3819 31.2633 42.3356 28.0061 44.2861 24.7488C44.4723 24.4378 44.6618 24.1301 44.8938 23.7503L44.8905 23.7569ZM60.1285 69.8266C51.1667 66.2878 42.3062 62.7883 33.4261 59.2822C33.3935 59.4001 33.3673 59.4525 33.3673 59.5016C33.3673 62.7752 33.351 66.0488 33.3935 69.3192C33.4065 70.2456 33.0831 70.825 32.2369 71.2113C29.4076 72.5077 26.5945 73.8433 23.7783 75.1626C22.7753 75.634 21.7722 76.1087 20.7072 76.6128C20.8705 76.6881 20.962 76.7372 21.0567 76.7765C24.2912 78.0925 27.5289 79.4019 30.7569 80.731C31.5835 81.0715 32.3839 81.0911 33.2105 80.7539C35.0107 80.0206 36.8109 79.2972 38.6144 78.5704C45.5799 75.7551 52.5454 72.9398 59.511 70.1245C59.6907 70.0525 59.8606 69.9575 60.1317 69.8266H60.1285ZM50.1245 2.80571C50.1245 2.96284 50.1245 3.08069 50.1245 3.20182C50.1245 3.97767 50.1441 4.75679 50.131 5.53264C50.1147 6.38705 49.556 6.96321 48.7719 6.96321C48.0041 6.96321 47.3801 6.32813 47.3638 5.50972C47.354 4.91065 47.3638 4.3083 47.3638 3.70923C47.3638 3.4146 47.3638 3.11998 47.3638 2.81226H44.554C44.554 2.97266 44.554 3.10688 44.554 3.2411C44.554 4.04641 44.59 4.85172 44.5377 5.65376C44.4821 6.48199 43.9071 6.98285 43.1524 6.96321C42.4271 6.94684 41.839 6.37723 41.8031 5.59156C41.7671 4.77643 41.7933 3.95475 41.7737 3.13962C41.7737 3.02504 41.6659 2.81226 41.6005 2.81226C40.7347 2.78934 39.8689 2.79589 38.9607 2.79589C38.9607 2.99231 38.9607 3.13962 38.9607 3.28693C38.9607 4.07915 38.9835 4.86809 38.9476 5.66031C38.9149 6.36086 38.3628 6.90101 37.6996 6.95666C37.0755 7.00904 36.4384 6.57692 36.2751 5.96148C36.2097 5.71596 36.1934 5.4508 36.1901 5.19218C36.1803 4.49817 36.1803 3.80089 36.1967 3.10688C36.1999 2.87446 36.1313 2.78934 35.8961 2.79262C35.4322 2.80244 34.9715 2.79262 34.5076 2.78607C33.3543 2.7697 33.3575 2.7697 33.3543 3.92529C33.3543 4.57674 33.3771 5.23801 33.3053 5.88291C33.2399 6.47871 32.6943 6.90101 32.0801 6.95339C31.5639 6.99595 30.9823 6.65549 30.7896 6.13171C30.6883 5.85673 30.6523 5.54901 30.6425 5.25438C30.6197 4.54728 30.6164 3.8369 30.6295 3.1298C30.636 2.84827 30.5249 2.78279 30.2701 2.78934C29.5611 2.80244 28.8554 2.80244 28.1464 2.78934C27.8949 2.78279 27.8165 2.87118 27.8165 3.11998C27.8165 3.91219 27.8067 4.70114 27.7903 5.49335C27.7707 6.34777 27.199 6.95994 26.4149 6.96976C25.6732 6.97958 25.0819 6.35759 25.0557 5.51954C25.0394 4.98922 25.0525 4.45562 25.0394 3.92529C25.0296 3.56192 25.1374 3.06105 24.9479 2.87773C24.7486 2.68786 24.2553 2.80571 23.8926 2.79916C23.3568 2.79262 22.8177 2.79916 22.246 2.79916C22.246 3.66995 22.2427 4.47198 22.246 5.27402C22.2525 6.29212 21.7036 6.95994 20.8378 6.9763C20.0113 6.99267 19.4754 6.37068 19.4591 5.34604C19.446 4.60948 19.4656 3.87291 19.4526 3.13635C19.4526 3.02504 19.3448 2.81553 19.2827 2.81553C18.4169 2.79589 17.5511 2.80244 16.6559 2.80244C16.6559 2.99231 16.6559 3.13962 16.6559 3.28693C16.6559 4.06278 16.6657 4.8419 16.6494 5.61775C16.6363 6.23647 16.2181 6.73406 15.5941 6.92393C15.0615 7.08433 14.4506 6.89774 14.1696 6.40669C14.0095 6.12516 13.918 5.77161 13.9017 5.44425C13.8658 4.6684 13.9017 3.88928 13.8854 3.11343C13.8854 3.0054 13.7612 2.81226 13.6893 2.80898C12.8366 2.78934 11.9872 2.79589 11.1312 2.79589V12.5971H52.882V2.80571H50.1245ZM30.6589 59.2691C21.6938 62.8145 12.8366 66.314 3.93693 69.8331C4.11989 69.9281 4.28652 70.0361 4.46621 70.1081C7.32822 71.2539 10.1935 72.3931 13.0523 73.5421C14.2872 74.0397 15.5059 74.5733 16.7441 75.0644C16.9336 75.1397 17.2081 75.1495 17.391 75.0644C21.6612 73.1035 25.9248 71.1164 30.1949 69.1555C30.5478 68.9918 30.6752 68.7954 30.6719 68.4189C30.6589 65.7346 30.6621 63.0469 30.6589 60.3625C30.6589 60.0286 30.6589 59.6947 30.6589 59.2691ZM26.4443 37.6927C26.4443 38.9661 26.4377 40.1938 26.4508 41.4181C26.4508 41.5818 26.539 41.7585 26.6272 41.9059C27.6923 43.6802 28.7639 45.4512 29.8486 47.2124C29.927 47.3401 30.1394 47.4546 30.2897 47.4579C31.4201 47.4776 32.5473 47.4579 33.6777 47.4743C33.9325 47.4743 34.0665 47.3859 34.1939 47.1764C35.1087 45.6607 36.0137 44.1385 36.9677 42.649C37.4022 41.9681 37.6636 41.2839 37.5656 40.4687C37.5231 40.1054 37.5591 39.7322 37.5591 39.3655C37.5591 38.8123 37.5591 38.259 37.5591 37.6894H26.4443V37.6927Z" fill="#F39406"/>
<path d="M46.4716 47.7327C46.4749 46.6753 46.1384 45.7063 45.7234 44.7504C44.8119 42.652 44.4003 40.498 45.0667 38.2326C45.6254 36.3339 46.8343 34.9328 48.4613 33.8918C49.2095 33.4138 50.0328 33.0341 50.8594 32.6969C51.637 32.3827 52.3949 32.7526 52.6694 33.4728C52.9406 34.1864 52.6334 34.8641 51.8559 35.2405C51.307 35.5057 50.7254 35.7185 50.206 36.036C47.7001 37.5713 46.8539 40.1051 47.9059 42.8943C48.2163 43.7192 48.6345 44.5082 48.9122 45.3429C50.1014 48.9406 48.4384 53.1276 45.0667 54.9837C44.4068 55.3471 43.6815 55.6057 42.9562 55.8251C42.2047 56.0509 41.548 55.6548 41.3095 54.9412C41.0841 54.2668 41.3847 53.563 42.0904 53.2651C43.0477 52.8624 43.9625 52.4009 44.7335 51.6839C45.8803 50.6135 46.4716 49.3007 46.4716 47.7327Z" fill="#F39406"/>
<path d="M56.9429 34.0424C56.956 32.9359 56.6424 31.9112 56.1523 30.9422C55.4597 29.564 55.1068 28.1204 55.1754 26.572C55.2669 24.467 56.1654 22.7255 57.5539 21.2032C58.5863 20.0738 59.867 19.37 61.334 18.9804C62.2324 18.7415 62.9577 19.0885 63.206 19.8709C63.4413 20.614 63.0558 21.2654 62.203 21.6124C61.6901 21.8219 61.1673 22.0314 60.6903 22.3163C58.2857 23.7534 57.384 26.1955 58.2661 28.8537C58.5308 29.6524 58.8967 30.4185 59.1679 31.2172C59.9977 33.6724 59.9487 36.0687 58.5536 38.3308C57.3579 40.2721 55.5413 41.3916 53.4406 42.102C52.6859 42.3574 51.9802 41.9744 51.7253 41.264C51.4705 40.5569 51.8103 39.876 52.5258 39.5191C53.3262 39.123 54.1593 38.7564 54.8748 38.2326C56.2666 37.2145 56.9397 35.7807 56.9429 34.0456V34.0424Z" fill="#F39406"/>
</g>
<defs>
<clipPath id="clip0_345_21029">
<rect width="64" height="83.7818" fill="white"/>
</clipPath>
</defs>
</svg>
