<svg xmlns="http://www.w3.org/2000/svg" xmlns:xlink="http://www.w3.org/1999/xlink" width="100" zoomAndPan="magnify" viewBox="0 0 75.119995 83.04" height="100" preserveAspectRatio="xMidYMid meet" version="1.0"><defs><clipPath id="13d24264bd"><path d="M 0 0.0078125 L 74.132812 0.0078125 L 74.132812 74.136719 L 0 74.136719 Z M 0 0.0078125 " clip-rule="nonzero"/></clipPath><clipPath id="23b7955010"><path d="M 6.925781 6.933594 L 66.972656 6.933594 L 66.972656 66.980469 L 6.925781 66.980469 Z M 6.925781 6.933594 " clip-rule="nonzero"/></clipPath></defs><g clip-path="url(#13d24264bd)"><path fill="#ffffff" d="M 0 0.0078125 L 74.132812 0.0078125 L 74.132812 74.136719 L 0 74.136719 Z M 0 0.0078125 " fill-opacity="1" fill-rule="nonzero"/><path fill="#ffffff" d="M 0 0.0078125 L 74.132812 0.0078125 L 74.132812 74.136719 L 0 74.136719 Z M 0 0.0078125 " fill-opacity="1" fill-rule="nonzero"/></g><path fill="#f1940b" d="M 39.058594 65.042969 C 38.917969 65.042969 38.742188 65.007812 38.601562 64.863281 C 38.457031 64.757812 38.386719 64.582031 38.351562 64.40625 C 38.316406 63.695312 37.75 63.164062 37.042969 63.164062 C 36.371094 63.164062 35.804688 63.695312 35.734375 64.40625 C 35.734375 64.582031 35.628906 64.757812 35.484375 64.863281 C 35.34375 65.007812 35.167969 65.078125 34.992188 65.042969 C 31.453125 64.792969 28.019531 63.875 24.832031 62.351562 C 24.691406 62.246094 24.550781 62.105469 24.480469 61.925781 C 24.445312 61.75 24.445312 61.574219 24.515625 61.394531 C 24.832031 60.757812 24.585938 60.015625 24.019531 59.664062 C 23.417969 59.34375 22.640625 59.519531 22.25 60.085938 C 22.144531 60.230469 22.003906 60.335938 21.789062 60.371094 C 21.613281 60.40625 21.4375 60.371094 21.257812 60.265625 C 18.359375 58.28125 15.84375 55.769531 13.863281 52.832031 C 13.757812 52.691406 13.6875 52.515625 13.722656 52.300781 C 13.792969 52.125 13.898438 51.984375 14.039062 51.875 C 14.605469 51.488281 14.785156 50.710938 14.464844 50.109375 C 14.109375 49.542969 13.332031 49.292969 12.730469 49.578125 C 12.554688 49.683594 12.378906 49.683594 12.199219 49.613281 C 11.988281 49.578125 11.847656 49.433594 11.777344 49.257812 C 10.21875 46.074219 9.332031 42.675781 9.050781 39.136719 C 9.050781 38.925781 9.121094 38.746094 9.226562 38.605469 C 9.367188 38.464844 9.546875 38.394531 9.722656 38.359375 C 10.429688 38.324219 10.960938 37.757812 10.960938 37.050781 C 10.960938 36.375 10.429688 35.8125 9.722656 35.738281 C 9.546875 35.738281 9.367188 35.632812 9.226562 35.492188 C 9.121094 35.351562 9.050781 35.171875 9.050781 34.996094 C 9.332031 31.457031 10.21875 28.023438 11.777344 24.839844 C 11.847656 24.699219 12.023438 24.558594 12.199219 24.484375 C 12.378906 24.414062 12.554688 24.449219 12.730469 24.523438 C 13.332031 24.839844 14.109375 24.59375 14.464844 24.027344 C 14.785156 23.425781 14.605469 22.644531 14.039062 22.257812 C 13.898438 22.152344 13.792969 22.007812 13.757812 21.796875 C 13.722656 21.621094 13.757812 21.441406 13.863281 21.265625 C 15.84375 18.363281 18.359375 15.851562 21.257812 13.871094 C 21.4375 13.761719 21.613281 13.691406 21.789062 13.726562 C 22.003906 13.800781 22.144531 13.90625 22.25 14.046875 C 22.640625 14.613281 23.417969 14.789062 24.019531 14.472656 C 24.621094 14.117188 24.832031 13.339844 24.515625 12.738281 C 24.445312 12.558594 24.445312 12.382812 24.480469 12.207031 C 24.550781 11.992188 24.691406 11.851562 24.832031 11.78125 C 28.019531 10.226562 31.453125 9.339844 34.992188 9.058594 C 35.167969 9.058594 35.34375 9.128906 35.484375 9.234375 C 35.628906 9.375 35.734375 9.550781 35.734375 9.730469 C 35.804688 10.4375 36.371094 10.96875 37.042969 10.96875 C 37.75 10.96875 38.316406 10.4375 38.351562 9.730469 C 38.386719 9.550781 38.457031 9.375 38.601562 9.234375 C 38.742188 9.128906 38.917969 9.058594 39.128906 9.058594 C 42.667969 9.339844 46.066406 10.226562 49.25 11.78125 C 49.429688 11.851562 49.570312 11.992188 49.605469 12.207031 C 49.675781 12.382812 49.675781 12.558594 49.570312 12.738281 C 49.289062 13.339844 49.5 14.117188 50.101562 14.472656 C 50.703125 14.789062 51.480469 14.613281 51.871094 14.046875 C 51.976562 13.90625 52.117188 13.800781 52.296875 13.726562 C 52.507812 13.691406 52.683594 13.761719 52.824219 13.871094 C 55.761719 15.851562 58.277344 18.328125 60.257812 21.265625 C 60.363281 21.441406 60.398438 21.621094 60.363281 21.796875 C 60.328125 22.007812 60.222656 22.152344 60.082031 22.257812 C 59.480469 22.644531 59.300781 23.425781 59.65625 24.027344 C 60.011719 24.59375 60.789062 24.839844 61.390625 24.523438 C 61.566406 24.449219 61.742188 24.414062 61.921875 24.484375 C 62.097656 24.558594 62.238281 24.699219 62.34375 24.839844 C 63.867188 28.023438 64.789062 31.457031 65.035156 34.996094 C 65.070312 35.171875 65 35.351562 64.859375 35.492188 C 64.753906 35.632812 64.574219 35.738281 64.398438 35.738281 C 63.691406 35.8125 63.160156 36.375 63.160156 37.050781 C 63.160156 37.757812 63.691406 38.324219 64.398438 38.359375 C 64.574219 38.394531 64.753906 38.464844 64.859375 38.605469 C 65 38.746094 65.070312 38.925781 65.035156 39.136719 C 64.789062 42.675781 63.867188 46.074219 62.34375 49.257812 C 62.238281 49.433594 62.097656 49.578125 61.921875 49.613281 C 61.742188 49.683594 61.566406 49.683594 61.390625 49.578125 C 60.789062 49.292969 60.011719 49.542969 59.65625 50.109375 C 59.300781 50.710938 59.480469 51.488281 60.082031 51.875 C 60.222656 51.984375 60.328125 52.125 60.363281 52.300781 C 60.398438 52.515625 60.363281 52.691406 60.257812 52.832031 C 58.277344 55.769531 55.761719 58.28125 52.824219 60.265625 C 52.683594 60.371094 52.507812 60.40625 52.296875 60.371094 C 52.117188 60.335938 51.976562 60.230469 51.871094 60.085938 C 51.480469 59.519531 50.703125 59.34375 50.101562 59.664062 C 49.5 60.015625 49.289062 60.757812 49.570312 61.394531 C 49.675781 61.574219 49.675781 61.75 49.605469 61.925781 C 49.570312 62.105469 49.429688 62.246094 49.25 62.351562 C 46.066406 63.875 42.667969 64.792969 39.128906 65.042969 C 39.09375 65.042969 39.09375 65.042969 39.058594 65.042969 Z M 37.042969 61.75 C 38.246094 61.75 39.273438 62.527344 39.625 63.589844 C 42.5625 63.308594 45.394531 62.5625 48.085938 61.324219 C 47.871094 60.230469 48.367188 59.027344 49.394531 58.460938 C 50.382812 57.859375 51.730469 58 52.542969 58.742188 C 54.949219 57.042969 57.039062 54.957031 58.734375 52.550781 C 57.992188 51.699219 57.851562 50.425781 58.417969 49.398438 C 59.019531 48.410156 60.1875 47.878906 61.320312 48.089844 C 62.558594 45.402344 63.300781 42.570312 63.585938 39.632812 C 62.523438 39.277344 61.742188 38.253906 61.742188 37.050781 C 61.742188 35.882812 62.523438 34.855469 63.585938 34.464844 C 63.300781 31.527344 62.558594 28.699219 61.320312 26.042969 C 60.1875 26.253906 59.019531 25.726562 58.453125 24.734375 C 57.851562 23.671875 57.992188 22.433594 58.734375 21.550781 C 57.039062 19.179688 54.949219 17.089844 52.542969 15.390625 C 52.046875 15.816406 51.445312 16.027344 50.773438 16.027344 C 50.277344 16.027344 49.816406 15.921875 49.394531 15.675781 C 48.367188 15.074219 47.871094 13.90625 48.085938 12.808594 C 45.394531 11.570312 42.5625 10.828125 39.625 10.542969 C 39.273438 11.605469 38.246094 12.382812 37.042969 12.382812 C 35.875 12.382812 34.847656 11.605469 34.460938 10.542969 C 31.523438 10.828125 28.691406 11.570312 26.035156 12.808594 C 26.25 13.90625 25.753906 15.074219 24.726562 15.675781 C 24.304688 15.921875 23.808594 16.027344 23.347656 16.027344 C 22.675781 16.027344 22.039062 15.816406 21.542969 15.390625 C 19.171875 17.089844 17.082031 19.179688 15.386719 21.550781 C 16.128906 22.433594 16.269531 23.671875 15.667969 24.734375 C 15.101562 25.726562 13.898438 26.253906 12.800781 26.042969 C 11.5625 28.699219 10.820312 31.527344 10.535156 34.464844 C 11.597656 34.855469 12.378906 35.882812 12.378906 37.050781 C 12.378906 38.253906 11.597656 39.277344 10.535156 39.632812 C 10.820312 42.570312 11.5625 45.402344 12.800781 48.089844 C 13.898438 47.878906 15.101562 48.410156 15.667969 49.398438 C 16.269531 50.425781 16.128906 51.699219 15.386719 52.550781 C 17.082031 54.957031 19.171875 57.042969 21.542969 58.742188 C 22.039062 58.316406 22.675781 58.070312 23.347656 58.070312 C 23.808594 58.070312 24.304688 58.210938 24.726562 58.460938 C 25.753906 59.027344 26.25 60.230469 26.035156 61.324219 C 28.691406 62.5625 31.523438 63.308594 34.460938 63.589844 C 34.847656 62.527344 35.875 61.75 37.042969 61.75 Z M 37.042969 61.75 " fill-opacity="1" fill-rule="evenodd"/><path fill="#f1940b" d="M 37.042969 60.441406 C 24.160156 60.441406 13.652344 49.964844 13.652344 37.050781 C 13.652344 24.167969 24.160156 13.65625 37.042969 13.65625 C 49.960938 13.65625 60.433594 24.167969 60.433594 37.050781 C 60.433594 49.964844 49.960938 60.441406 37.042969 60.441406 Z M 37.042969 15.074219 C 24.941406 15.074219 15.066406 24.945312 15.066406 37.050781 C 15.066406 49.1875 24.941406 59.0625 37.042969 59.0625 C 49.179688 59.0625 59.054688 49.1875 59.054688 37.050781 C 59.054688 24.945312 49.179688 15.074219 37.042969 15.074219 Z M 37.042969 15.074219 " fill-opacity="1" fill-rule="evenodd"/><path fill="#f1940b" d="M 37.042969 60.441406 C 28.40625 60.441406 21.332031 49.964844 21.332031 37.050781 C 21.332031 24.167969 28.40625 13.65625 37.042969 13.65625 C 45.714844 13.65625 52.753906 24.167969 52.753906 37.050781 C 52.753906 49.964844 45.714844 60.441406 37.042969 60.441406 Z M 37.042969 15.074219 C 29.1875 15.074219 22.746094 24.945312 22.746094 37.050781 C 22.746094 49.1875 29.1875 59.0625 37.042969 59.0625 C 44.933594 59.0625 51.339844 49.1875 51.339844 37.050781 C 51.339844 24.945312 44.933594 15.074219 37.042969 15.074219 Z M 37.042969 15.074219 " fill-opacity="1" fill-rule="evenodd"/><path fill="#f1940b" d="M 37.042969 51.132812 C 24.160156 51.132812 13.652344 44.835938 13.652344 37.050781 C 13.652344 29.300781 24.160156 23 37.042969 23 C 49.960938 23 60.433594 29.300781 60.433594 37.050781 C 60.433594 44.835938 49.960938 51.132812 37.042969 51.132812 Z M 37.042969 24.414062 C 24.941406 24.414062 15.066406 30.078125 15.066406 37.050781 C 15.066406 44.054688 24.941406 49.71875 37.042969 49.71875 C 49.179688 49.71875 59.054688 44.054688 59.054688 37.050781 C 59.054688 30.078125 49.179688 24.414062 37.042969 24.414062 Z M 37.042969 24.414062 " fill-opacity="1" fill-rule="evenodd"/><g clip-path="url(#23b7955010)"><path fill="#f1940b" d="M 37.042969 67.199219 C 35.554688 67.199219 34.316406 65.996094 34.316406 64.476562 C 34.316406 62.988281 35.554688 61.75 37.042969 61.75 C 38.566406 61.75 39.769531 62.988281 39.769531 64.476562 C 39.769531 65.996094 38.566406 67.199219 37.042969 67.199219 Z M 37.042969 12.382812 C 35.554688 12.382812 34.316406 11.144531 34.316406 9.660156 C 34.316406 8.136719 35.554688 6.933594 37.042969 6.933594 C 38.566406 6.933594 39.769531 8.136719 39.769531 9.660156 C 39.769531 11.144531 38.566406 12.382812 37.042969 12.382812 Z M 50.773438 63.519531 C 49.78125 63.519531 48.898438 63.023438 48.402344 62.175781 C 48.046875 61.539062 47.941406 60.792969 48.121094 60.085938 C 48.332031 59.378906 48.757812 58.8125 49.394531 58.460938 C 49.816406 58.210938 50.277344 58.070312 50.773438 58.070312 C 51.730469 58.070312 52.648438 58.601562 53.109375 59.449219 C 53.5 60.085938 53.570312 60.792969 53.390625 61.503906 C 53.214844 62.210938 52.753906 62.8125 52.117188 63.164062 C 51.695312 63.414062 51.234375 63.519531 50.773438 63.519531 Z M 60.789062 53.503906 C 60.328125 53.503906 59.832031 53.363281 59.445312 53.117188 C 58.808594 52.761719 58.347656 52.195312 58.167969 51.488281 C 57.957031 50.78125 58.0625 50.035156 58.453125 49.398438 C 58.914062 48.550781 59.832031 48.054688 60.789062 48.054688 C 61.285156 48.054688 61.742188 48.160156 62.167969 48.410156 C 62.804688 48.761719 63.230469 49.363281 63.441406 50.070312 C 63.621094 50.78125 63.511719 51.488281 63.160156 52.125 C 62.664062 52.972656 61.78125 53.503906 60.789062 53.503906 Z M 64.46875 39.773438 C 62.984375 39.773438 61.742188 38.570312 61.742188 37.050781 C 61.742188 35.5625 62.984375 34.324219 64.46875 34.324219 C 65.992188 34.324219 67.195312 35.5625 67.195312 37.050781 C 67.195312 38.570312 65.992188 39.773438 64.46875 39.773438 Z M 60.789062 26.078125 C 59.832031 26.078125 58.914062 25.546875 58.453125 24.734375 C 58.0625 24.097656 57.957031 23.355469 58.167969 22.644531 C 58.347656 21.9375 58.808594 21.371094 59.445312 20.984375 C 59.832031 20.734375 60.328125 20.628906 60.789062 20.628906 C 61.78125 20.628906 62.664062 21.160156 63.160156 21.972656 C 63.511719 22.609375 63.621094 23.355469 63.441406 24.0625 C 63.230469 24.769531 62.804688 25.335938 62.167969 25.726562 C 61.742188 25.9375 61.285156 26.078125 60.789062 26.078125 Z M 50.773438 16.027344 C 50.277344 16.027344 49.816406 15.921875 49.394531 15.675781 C 48.757812 15.320312 48.332031 14.71875 48.121094 14.011719 C 47.941406 13.304688 48.046875 12.59375 48.402344 11.957031 C 48.898438 11.109375 49.78125 10.578125 50.773438 10.578125 C 51.234375 10.578125 51.730469 10.71875 52.117188 10.96875 C 53.425781 11.710938 53.886719 13.375 53.109375 14.683594 C 52.648438 15.53125 51.730469 16.027344 50.773438 16.027344 Z M 23.347656 16.027344 C 22.390625 16.027344 21.472656 15.53125 20.976562 14.683594 C 20.621094 14.046875 20.515625 13.304688 20.730469 12.59375 C 20.90625 11.921875 21.367188 11.320312 21.96875 10.96875 C 22.390625 10.71875 22.851562 10.578125 23.347656 10.578125 C 24.304688 10.578125 25.222656 11.109375 25.71875 11.957031 C 26.074219 12.59375 26.179688 13.304688 25.964844 14.011719 C 25.789062 14.71875 25.328125 15.320312 24.691406 15.675781 C 24.304688 15.921875 23.808594 16.027344 23.347656 16.027344 Z M 13.296875 26.078125 C 12.835938 26.078125 12.378906 25.9375 11.953125 25.726562 C 10.644531 24.945312 10.183594 23.28125 10.960938 21.972656 C 11.421875 21.160156 12.339844 20.628906 13.296875 20.628906 C 13.792969 20.628906 14.253906 20.734375 14.675781 20.984375 C 15.3125 21.371094 15.773438 21.9375 15.953125 22.644531 C 16.128906 23.355469 16.023438 24.097656 15.667969 24.734375 C 15.171875 25.546875 14.289062 26.078125 13.296875 26.078125 Z M 9.652344 39.773438 C 8.128906 39.773438 6.925781 38.570312 6.925781 37.050781 C 6.925781 35.5625 8.128906 34.324219 9.652344 34.324219 C 11.136719 34.324219 12.378906 35.5625 12.378906 37.050781 C 12.378906 38.570312 11.136719 39.773438 9.652344 39.773438 Z M 13.296875 53.503906 C 12.339844 53.503906 11.421875 52.972656 10.960938 52.125 C 10.183594 50.816406 10.644531 49.152344 11.953125 48.410156 C 12.378906 48.160156 12.835938 48.054688 13.296875 48.054688 C 14.289062 48.054688 15.171875 48.550781 15.667969 49.398438 C 16.023438 50.035156 16.128906 50.78125 15.953125 51.488281 C 15.738281 52.195312 15.3125 52.761719 14.675781 53.117188 C 14.253906 53.363281 13.792969 53.503906 13.296875 53.503906 Z M 23.347656 63.519531 C 22.851562 63.519531 22.390625 63.414062 21.96875 63.164062 C 21.367188 62.8125 20.90625 62.210938 20.730469 61.503906 C 20.515625 60.792969 20.621094 60.085938 20.976562 59.449219 C 21.472656 58.601562 22.390625 58.070312 23.347656 58.070312 C 23.808594 58.070312 24.304688 58.210938 24.691406 58.460938 C 25.328125 58.8125 25.789062 59.378906 25.964844 60.085938 C 26.179688 60.792969 26.074219 61.539062 25.71875 62.175781 C 25.222656 63.023438 24.304688 63.519531 23.347656 63.519531 Z M 23.347656 63.519531 " fill-opacity="1" fill-rule="evenodd"/></g><path fill="#f1940b" d="M 37.042969 60.441406 C 36.652344 60.441406 36.335938 60.15625 36.335938 59.769531 L 36.335938 14.363281 C 36.335938 13.976562 36.652344 13.65625 37.042969 13.65625 C 37.433594 13.65625 37.75 13.976562 37.75 14.363281 L 37.75 59.769531 C 37.75 60.15625 37.433594 60.441406 37.042969 60.441406 Z M 37.042969 60.441406 " fill-opacity="1" fill-rule="evenodd"/><path fill="#f1940b" d="M 59.761719 37.757812 L 14.359375 37.757812 C 13.96875 37.757812 13.652344 37.4375 13.652344 37.050781 C 13.652344 36.660156 13.96875 36.339844 14.359375 36.339844 L 59.761719 36.339844 C 60.152344 36.339844 60.433594 36.660156 60.433594 37.050781 C 60.433594 37.4375 60.152344 37.757812 59.761719 37.757812 Z M 59.761719 37.757812 " fill-opacity="1" fill-rule="evenodd"/></svg>