<svg xmlns="http://www.w3.org/2000/svg" xmlns:xlink="http://www.w3.org/1999/xlink" width="100" zoomAndPan="magnify" viewBox="0 0 75.119995 83.04" height="100" preserveAspectRatio="xMidYMid meet" version="1.0"><defs><clipPath id="306e990836"><path d="M 7.414062 13.054688 L 66.71875 13.054688 L 66.71875 61.238281 L 7.414062 61.238281 Z M 7.414062 13.054688 " clip-rule="nonzero"/></clipPath></defs><g clip-path="url(#306e990836)"><path fill="#ffffff" d="M 66.585938 45.808594 C 66.558594 45.484375 66.429688 45.203125 66.042969 45.21875 C 65.496094 45.246094 65.453125 44.945312 65.53125 44.515625 C 65.582031 44.199219 65.601562 43.875 65.59375 43.546875 C 65.566406 41.261719 65.671875 38.976562 65.503906 36.695312 C 65.40625 35.308594 64.855469 34.253906 63.675781 33.546875 C 62.515625 32.84375 61.328125 32.175781 60.15625 31.492188 C 59.191406 30.925781 58.300781 30.179688 57.203125 29.917969 C 56.558594 29.765625 56.472656 29.414062 56.410156 28.878906 C 56.066406 25.535156 55.796875 22.183594 55.328125 18.871094 C 54.976562 16.371094 54.019531 15.484375 51.714844 15.042969 C 49.601562 14.628906 47.492188 14.191406 45.390625 13.722656 C 43.886719 13.398438 42.375 13.066406 40.851562 13.265625 C 37.5625 13.699219 34.316406 14.339844 31.054688 14.957031 C 30.5625 15.042969 30.121094 15.203125 30.050781 15.792969 C 29.980469 16.40625 30.203125 16.910156 30.746094 17.207031 C 31.027344 17.367188 31.34375 17.453125 31.652344 17.53125 C 32.011719 17.621094 32.144531 17.769531 32.039062 18.175781 C 30.921875 22.644531 29.8125 27.121094 28.714844 31.597656 C 28.601562 32.0625 28.328125 32.273438 27.878906 32.359375 C 27.097656 32.527344 26.332031 32.730469 25.558594 32.914062 C 23.410156 33.417969 21.765625 34.585938 20.683594 36.539062 C 19.453125 38.765625 18.152344 40.953125 16.921875 43.179688 C 16.65625 43.652344 16.367188 43.8125 15.855469 43.792969 C 14.695312 43.742188 13.527344 43.722656 12.363281 43.707031 C 11.882812 43.699219 11.457031 43.785156 11.292969 44.332031 C 10.613281 46.503906 9.578125 48.519531 8.617188 50.566406 C 7.605469 52.714844 7.710938 54.726562 8.953125 56.714844 C 9.144531 57.023438 9.058594 57.101562 8.777344 57.207031 C 8.414062 57.347656 8.046875 57.496094 7.765625 57.761719 C 7.414062 58.09375 7.476562 58.378906 7.941406 58.5 C 8.546875 58.667969 9.164062 58.71875 9.789062 58.527344 C 10.773438 58.210938 11.765625 57.917969 12.75 57.601562 C 13.078125 57.496094 13.367188 57.460938 13.691406 57.671875 C 13.007812 57.980469 12.339844 58.273438 11.679688 58.578125 C 11.527344 58.648438 11.328125 58.746094 11.363281 58.949219 C 11.40625 59.203125 11.644531 59.167969 11.835938 59.175781 C 12.46875 59.210938 13.078125 59.140625 13.675781 58.914062 C 14.378906 58.640625 15.101562 58.421875 15.804688 58.15625 C 16.207031 58.007812 16.585938 58.023438 17.0625 58.253906 C 16.65625 58.464844 16.289062 58.640625 15.953125 58.84375 C 15.6875 59 15.222656 59.097656 15.320312 59.46875 C 15.398438 59.757812 15.839844 59.660156 16.136719 59.695312 C 17.203125 59.828125 18.117188 59.34375 19.058594 58.992188 C 19.542969 58.808594 20.007812 58.695312 20.5 58.949219 C 20.09375 59.195312 19.699219 59.421875 19.332031 59.679688 C 19.164062 59.792969 18.960938 59.960938 19.03125 60.207031 C 19.101562 60.460938 19.355469 60.433594 19.566406 60.46875 C 21.019531 60.734375 22.496094 60.609375 23.957031 60.679688 C 27.898438 60.847656 31.847656 60.917969 35.792969 60.972656 C 37.949219 60.996094 40.105469 61.078125 42.257812 60.882812 C 44.019531 60.726562 45.785156 60.691406 47.546875 60.574219 C 50.507812 60.382812 53.472656 60.152344 56.4375 59.96875 C 59.085938 59.8125 61.730469 59.707031 64.378906 59.554688 C 64.914062 59.527344 65.441406 59.433594 65.980469 59.34375 C 66.183594 59.308594 66.480469 59.273438 66.488281 59.027344 C 66.5 58.738281 66.15625 58.789062 65.980469 58.753906 C 64.773438 58.519531 63.550781 58.429688 62.222656 58.4375 C 64.21875 55.78125 64.421875 55.273438 64.703125 51.824219 C 64.738281 51.394531 64.984375 51.183594 65.3125 50.980469 C 66.015625 50.558594 66.523438 49.960938 66.605469 49.140625 C 66.71875 48.007812 66.683594 46.898438 66.585938 45.808594 Z M 12.453125 47.648438 C 11.503906 49.34375 10.519531 51.023438 9.621094 52.765625 C 10.070312 50.496094 11.300781 48.542969 12.214844 46.390625 C 12.714844 46.820312 12.714844 47.179688 12.453125 47.648438 Z M 41.027344 15.148438 C 42.257812 14.929688 43.429688 15.324219 44.609375 15.535156 C 46.957031 15.96875 49.285156 16.496094 51.636719 16.917969 C 52.601562 17.09375 53.105469 17.648438 53.324219 18.542969 C 53.691406 20.058594 53.859375 21.597656 54 23.136719 C 54.183594 25.105469 54.386719 27.074219 54.582031 29.046875 C 54.644531 29.667969 54.730469 30.285156 54.765625 30.910156 C 54.820312 32.0625 54.660156 32.324219 53.605469 32.949219 C 53.894531 30.917969 53.367188 28.941406 53.253906 26.953125 C 53.140625 25.0625 52.953125 23.179688 52.785156 21.289062 C 52.726562 20.558594 52.671875 19.828125 52.523438 19.117188 C 52.363281 18.378906 51.871094 17.988281 51.082031 17.859375 C 49.039062 17.523438 47.007812 17.144531 44.984375 16.714844 C 42.136719 16.109375 39.261719 16.0625 36.394531 16.019531 C 37.941406 15.730469 39.488281 15.429688 41.027344 15.148438 Z M 30.871094 31.429688 C 31.601562 28.660156 32.3125 25.886719 33.035156 23.117188 C 33.402344 21.703125 33.78125 20.285156 34.125 18.859375 C 34.238281 18.378906 34.394531 18.175781 34.960938 18.296875 C 36.367188 18.605469 37.792969 18.824219 39.207031 19.089844 C 39.875 19.210938 40.414062 19.140625 40.964844 18.613281 C 42.574219 17.058594 45.59375 17.648438 46.691406 19.679688 C 46.910156 20.09375 47.097656 20.292969 47.625 20.199219 C 48.511719 20.039062 49.417969 20.003906 50.316406 19.90625 C 50.765625 19.863281 51.019531 19.953125 51.0625 20.496094 C 51.238281 22.660156 51.46875 24.824219 51.679688 26.988281 C 51.742188 27.628906 51.777344 28.269531 51.855469 28.914062 C 51.890625 29.246094 51.777344 29.40625 51.441406 29.398438 C 51.378906 29.398438 51.308594 29.398438 51.246094 29.398438 C 50.121094 29.414062 50.113281 29.421875 49.796875 28.359375 C 49.515625 27.417969 48.953125 26.722656 48.046875 26.328125 C 47.773438 26.203125 47.492188 26.089844 47.210938 25.976562 C 46.121094 25.527344 46.085938 25.449219 46.429688 24.367188 C 46.570312 23.917969 46.550781 23.425781 47.167969 23.214844 C 47.5 23.101562 47.359375 22.695312 47.140625 22.511719 C 46.761719 22.183594 46.675781 21.773438 46.578125 21.324219 C 46.277344 19.863281 44.925781 18.710938 43.480469 18.648438 C 41.828125 18.578125 40.535156 19.476562 40.09375 21.058594 C 39.980469 21.457031 39.804688 21.710938 39.445312 21.867188 C 39.144531 22 38.828125 22.167969 38.828125 22.546875 C 38.828125 22.933594 39.15625 23.109375 39.460938 23.195312 C 40.09375 23.371094 40.296875 23.734375 40.34375 24.402344 C 40.402344 25.246094 40.578125 26.117188 41.105469 26.835938 C 41.203125 26.96875 41.316406 27.121094 41.070312 27.179688 C 39.824219 27.496094 39.226562 28.535156 38.519531 29.449219 C 37.84375 30.328125 37.414062 30.382812 36.523438 29.652344 C 35.714844 28.984375 34.0625 28.941406 33.246094 29.574219 C 32.699219 29.996094 32.460938 31.042969 32.734375 31.914062 C 32.796875 32.113281 32.882812 32.308594 32.972656 32.546875 C 32.398438 32.546875 31.882812 32.394531 31.363281 32.28125 C 30.859375 32.167969 30.746094 31.914062 30.871094 31.429688 Z M 37.484375 33.160156 C 37.203125 32.695312 36.921875 33.265625 36.621094 33.328125 C 36.515625 33.355469 36.410156 33.425781 36.339844 33.292969 C 36.277344 33.179688 36.359375 33.074219 36.4375 33.011719 C 36.613281 32.863281 36.816406 32.730469 37 32.582031 C 37.140625 32.476562 37.300781 32.359375 37.175781 32.160156 C 37.042969 31.9375 36.859375 32.035156 36.664062 32.097656 C 36.4375 32.175781 36.277344 32.722656 36.03125 32.335938 C 35.867188 32.0625 36.277344 31.789062 36.550781 31.621094 C 37.378906 31.121094 38.144531 31.226562 38.707031 32.019531 C 39.15625 32.652344 39.671875 32.90625 40.449219 32.863281 C 41.589844 32.808594 42.734375 32.855469 43.878906 32.84375 C 44.246094 32.84375 44.609375 32.898438 44.960938 33.019531 C 45.496094 33.207031 45.734375 33.609375 45.707031 34.164062 C 45.652344 35.027344 45.292969 35.316406 44.449219 35.183594 C 42.480469 34.867188 40.5 34.550781 38.53125 34.226562 C 38.089844 34.15625 37.675781 34.207031 37.265625 34.375 C 37.097656 34.445312 36.921875 34.464844 36.804688 34.277344 C 36.691406 34.078125 36.859375 33.96875 36.964844 33.839844 C 37.15625 33.617188 37.722656 33.539062 37.484375 33.160156 Z M 43.746094 22.105469 C 43.824219 22.132812 43.921875 22.132812 43.9375 22.28125 C 43.058594 22.28125 42.1875 22.335938 41.316406 22.175781 C 40.976562 22.113281 40.957031 22.019531 41.054688 21.71875 C 41.484375 20.375 42.023438 19.941406 43.09375 20.109375 C 42.117188 21.527344 42.117188 21.527344 43.746094 22.105469 Z M 41.335938 24.101562 C 41.40625 23.910156 41.363281 23.511719 41.730469 23.664062 C 42.222656 23.863281 42.65625 23.671875 43.113281 23.582031 C 43.4375 23.511719 43.824219 23.347656 43.949219 23.945312 C 44.019531 24.277344 44.324219 24.226562 44.5625 24.023438 C 44.625 23.96875 44.667969 23.890625 44.722656 23.820312 C 44.898438 23.582031 45.011719 23.082031 45.40625 23.355469 C 45.8125 23.628906 45.699219 24.207031 45.398438 24.4375 C 44.695312 24.980469 44.925781 25.546875 45.222656 26.125 C 45.390625 26.460938 45.25 26.714844 45.082031 26.960938 C 44.617188 27.664062 43.914062 27.980469 43.007812 28.246094 C 43.359375 27.691406 43.648438 27.242188 43.921875 26.792969 C 44.0625 26.554688 44.167969 26.292969 44.273438 26.039062 C 44.335938 25.886719 44.457031 25.695312 44.273438 25.570312 C 44.125 25.464844 44.007812 25.652344 43.894531 25.738281 C 43.457031 26.125 42.925781 26.300781 42.347656 26.292969 C 42.117188 26.292969 41.828125 26.371094 41.722656 26.089844 C 41.609375 25.816406 42.039062 25.835938 42.058594 25.597656 C 42.003906 25.464844 41.882812 25.421875 41.757812 25.394531 C 41.636719 25.367188 41.484375 25.34375 41.476562 25.183594 C 41.46875 25.027344 41.617188 25 41.730469 24.929688 C 41.890625 24.839844 42.207031 24.886719 42.171875 24.65625 C 42.128906 24.375 41.820312 24.5 41.617188 24.480469 C 41.371094 24.453125 41.238281 24.347656 41.335938 24.101562 Z M 44.6875 31.703125 C 45.398438 31.296875 45.511719 30.609375 45.804688 30.039062 C 46.066406 29.539062 46.375 29.089844 47 28.765625 C 46.628906 29.300781 46.339844 29.742188 46.128906 30.234375 C 45.890625 30.785156 45.953125 31.21875 46.464844 31.585938 C 46.78125 31.816406 47.0625 32.078125 47.351562 32.335938 C 47.582031 32.546875 47.738281 32.792969 47.589844 33.171875 C 46.769531 32.476562 45.882812 31.929688 44.6875 31.703125 Z M 34.414062 31.957031 C 33.761719 31.492188 33.632812 31.121094 33.914062 30.707031 C 34.28125 30.171875 35.144531 30.136719 35.917969 30.664062 C 35.152344 30.8125 34.210938 30.734375 34.414062 31.957031 Z M 29.164062 33.917969 C 30.414062 33.785156 31.652344 33.996094 33.078125 34.136719 C 31.6875 34.394531 30.472656 34.585938 29.277344 34.839844 C 27.273438 35.261719 25.820312 36.425781 24.890625 38.246094 C 24.351562 39.300781 23.9375 40.410156 23.429688 41.472656 C 23.683594 39.554688 24.042969 37.671875 25.1875 36.0625 C 26.148438 34.710938 27.554688 34.085938 29.164062 33.917969 Z M 18.785156 43.074219 C 19.832031 41.164062 20.859375 39.246094 21.925781 37.355469 C 22.398438 36.511719 22.890625 35.667969 23.957031 35.226562 C 23.078125 37.226562 22.242188 39.132812 21.40625 41.050781 C 21.152344 41.640625 20.894531 42.238281 20.648438 42.835938 C 20.246094 43.8125 20.246094 43.8125 19.214844 43.804688 C 18.398438 43.777344 18.398438 43.777344 18.785156 43.074219 Z M 21.546875 54.289062 C 21.40625 54.894531 21.265625 55.5 21.167969 56.117188 C 21.105469 56.503906 20.914062 56.617188 20.554688 56.582031 C 18.847656 56.40625 17.132812 56.230469 15.425781 56.0625 C 15.292969 56.054688 15.152344 56.039062 15.109375 55.886719 C 15.066406 55.738281 15.171875 55.640625 15.265625 55.5625 C 15.953125 55.015625 16.464844 54.332031 17.007812 53.664062 C 17.21875 53.40625 17.457031 53.257812 17.792969 53.300781 C 18.933594 53.476562 20.085938 53.652344 21.230469 53.8125 C 21.5625 53.855469 21.609375 53.996094 21.546875 54.289062 Z M 22.882812 55.84375 C 23.457031 54.375 24.019531 52.90625 24.589844 51.445312 C 25.117188 50.101562 25.671875 48.765625 26.207031 47.425781 C 26.488281 46.730469 26.429688 46.652344 25.699219 46.617188 C 22.011719 46.449219 18.335938 46.265625 14.652344 46.117188 C 14.035156 46.089844 13.851562 45.640625 13.535156 45.253906 C 13.796875 45.097656 14.042969 45.15625 14.265625 45.167969 C 18.425781 45.289062 22.585938 45.421875 26.746094 45.554688 C 27.421875 45.570312 27.511719 45.703125 27.335938 46.335938 C 26.417969 49.757812 24.75 52.84375 22.882812 55.84375 Z M 25.160156 56.917969 C 26.382812 53.96875 27.597656 51.023438 28.820312 48.078125 C 28.273438 51.296875 27.148438 54.277344 25.160156 56.917969 Z M 29.496094 45.21875 C 29.226562 44.296875 29.050781 44.171875 28.082031 44.164062 C 27.210938 44.15625 27.191406 44.136719 27.535156 43.355469 C 28.320312 41.5625 29.121094 39.777344 29.882812 37.972656 C 30.296875 36.996094 31 36.441406 32.039062 36.230469 C 33.367188 35.957031 34.679688 35.640625 36.03125 35.492188 C 36.964844 35.386719 37.582031 35.667969 37.835938 36.371094 C 38.125 37.171875 37.835938 38.078125 37.105469 38.507812 C 35.734375 39.328125 34.359375 40.128906 32.972656 40.910156 C 32.425781 41.21875 32.023438 41.621094 31.714844 42.167969 C 31.046875 43.371094 30.351562 44.558594 29.65625 45.765625 C 29.601562 45.570312 29.550781 45.394531 29.496094 45.21875 Z M 32.410156 51.738281 C 33.234375 52.429688 33.234375 52.429688 34.195312 51.816406 C 34.539062 51.597656 34.878906 51.386719 35.285156 51.121094 C 35.441406 51.9375 35.3125 52.519531 34.609375 52.90625 C 34.175781 53.144531 33.78125 53.453125 33.394531 53.757812 C 32.960938 54.101562 32.769531 53.925781 32.601562 53.496094 C 32.382812 52.933594 32.328125 52.34375 32.234375 51.746094 C 32.328125 51.738281 32.382812 51.71875 32.410156 51.738281 Z M 30.105469 59.011719 C 30.816406 58.058594 31.273438 57.039062 31.566406 55.738281 C 32.09375 57.015625 32.480469 58.140625 33.527344 59.011719 C 32.320312 59.011719 31.257812 59.011719 30.105469 59.011719 Z M 35.355469 55.757812 C 35.074219 55.949219 34.792969 56.152344 34.503906 56.328125 C 34.335938 56.425781 34.140625 56.679688 33.957031 56.40625 C 33.796875 56.167969 33.621094 55.835938 33.929688 55.589844 C 34.335938 55.273438 34.75 54.9375 35.214844 54.746094 C 35.664062 54.558594 35.453125 55.105469 35.601562 55.210938 C 35.636719 55.5 35.523438 55.640625 35.355469 55.757812 Z M 34.738281 49.742188 C 34.546875 49.820312 34.378906 49.976562 34.183594 50.066406 C 33.796875 50.222656 33.464844 50.777344 32.972656 50.199219 C 32.347656 49.46875 32.171875 48.660156 32.566406 48.09375 C 32.742188 47.847656 32.832031 48.007812 32.953125 48.128906 C 33.210938 48.378906 33.253906 48.871094 33.667969 48.90625 C 34.097656 48.941406 34.476562 48.648438 34.871094 48.5 C 35.152344 48.394531 35.417969 48.273438 35.757812 48.128906 C 35.707031 48.941406 35.433594 49.476562 34.738281 49.742188 Z M 34.574219 47.390625 C 34.484375 47.425781 34.351562 47.425781 34.265625 47.382812 C 33.597656 47.03125 33.4375 45.90625 33.949219 45.332031 C 34.167969 45.085938 34.351562 44.992188 34.503906 45.367188 C 34.652344 45.746094 34.90625 45.773438 35.277344 45.695312 C 35.917969 45.5625 36.570312 45.378906 37.28125 45.429688 C 36.789062 46.742188 35.628906 46.980469 34.574219 47.390625 Z M 35.566406 44.242188 C 37.449219 43.441406 39.347656 43.347656 41.230469 44.261719 C 39.347656 43.945312 37.464844 44.347656 35.566406 44.242188 Z M 42.566406 55.332031 C 41.566406 56.722656 39.964844 56.742188 38.960938 55.359375 C 37.640625 53.546875 37.84375 49.933594 39.355469 48.28125 C 40.191406 47.375 41.230469 47.375 42.109375 48.28125 C 42.917969 49.117188 43.402344 50.550781 43.4375 52.421875 C 43.480469 53.355469 43.234375 54.402344 42.566406 55.332031 Z M 35.769531 41.859375 C 36.628906 40.910156 38.699219 40.601562 40.589844 41.148438 C 43.023438 41.851562 44.511719 43.488281 45.171875 45.941406 C 43.058594 42.21875 39.875 41.007812 35.769531 41.859375 Z M 44.667969 58.035156 C 45.214844 57.515625 45.6875 57.15625 46.058594 56.679688 C 46.472656 56.144531 46.816406 55.570312 46.964844 54.910156 C 47.0625 54.472656 47.289062 54.324219 47.730469 54.339844 C 48.609375 54.359375 49.496094 54.332031 50.378906 54.324219 C 50.675781 54.324219 50.914062 54.367188 51.0625 54.683594 C 51.574219 55.792969 52.101562 56.890625 52.980469 57.839844 C 50.210938 58.078125 47.519531 58 44.667969 58.035156 Z M 50.238281 46.25 C 49.789062 46.238281 49.339844 46.25 48.882812 46.25 C 48.882812 46.25 48.882812 46.238281 48.882812 46.238281 C 48.433594 46.238281 47.984375 46.230469 47.527344 46.238281 C 47.28125 46.238281 47.132812 46.160156 47.035156 45.921875 C 46.78125 45.324219 46.875 45.15625 47.527344 45.167969 C 48.425781 45.183594 49.332031 45.238281 50.226562 45.261719 C 50.589844 45.273438 50.78125 45.386719 50.773438 45.792969 C 50.765625 46.179688 50.5625 46.25 50.238281 46.25 Z M 50.148438 51.753906 C 49.207031 51.78125 48.257812 51.789062 47.316406 51.789062 C 46.972656 51.789062 46.964844 51.535156 46.980469 51.289062 C 47 50.960938 47 50.601562 47.449219 50.585938 C 47.921875 50.566406 48.398438 50.574219 48.863281 50.574219 C 48.863281 50.574219 48.863281 50.566406 48.863281 50.566406 C 49.269531 50.566406 49.683594 50.566406 50.085938 50.566406 C 50.402344 50.566406 50.632812 50.628906 50.632812 51.023438 C 50.648438 51.394531 50.632812 51.746094 50.148438 51.753906 Z M 55.574219 48.941406 C 55.136719 50.628906 55.207031 52.34375 55.546875 54.121094 C 55.277344 53.628906 55.125 53.152344 55.011719 52.679688 C 54.90625 52.203125 54.695312 52.183594 54.34375 52.449219 C 53.914062 52.773438 53.464844 53.074219 53.035156 53.390625 C 52.820312 53.546875 52.734375 53.558594 52.636719 53.265625 C 52.382812 52.519531 52.503906 52.132812 53.191406 51.71875 C 53.492188 51.542969 53.761719 51.324219 54.078125 51.191406 C 54.890625 50.875 55.046875 50.25 54.996094 49.476562 C 54.96875 49.117188 54.855469 49.019531 54.511719 49.152344 C 54.007812 49.351562 53.5 49.519531 53 49.714844 C 52.628906 49.855469 52.566406 49.75 52.628906 49.371094 C 52.707031 48.90625 52.917969 48.640625 53.367188 48.507812 C 53.886719 48.359375 54.378906 48.148438 54.890625 47.980469 C 55.300781 47.847656 55.617188 47.613281 55.742188 47.171875 C 55.792969 46.996094 56.03125 46.828125 55.867188 46.652344 C 55.734375 46.511719 55.488281 46.589844 55.300781 46.617188 C 54.75 46.714844 54.203125 46.835938 53.65625 46.933594 C 53.5625 46.953125 53.421875 46.980469 53.351562 46.925781 C 53.21875 46.828125 53.324219 46.695312 53.375 46.582031 C 53.570312 46.144531 53.859375 45.828125 54.378906 45.773438 C 54.738281 45.738281 55.101562 45.652344 55.46875 45.632812 C 56.417969 45.589844 57.15625 45.203125 57.703125 44.253906 C 56.894531 44.253906 56.171875 44.253906 55.460938 44.253906 C 57.0625 43.25 58.699219 43.320312 60.367188 44.03125 C 59.285156 44.078125 58.34375 44.453125 57.589844 45.210938 C 56.558594 46.265625 55.9375 47.542969 55.574219 48.941406 Z M 61.371094 55.015625 C 60.613281 55.738281 59.71875 55.765625 58.953125 55.050781 C 57.96875 54.136719 57.695312 52.941406 57.710938 51.648438 C 57.722656 50.445312 57.933594 49.292969 58.679688 48.308594 C 59.671875 46.996094 61.132812 47.058594 62.011719 48.449219 C 63.269531 50.425781 62.964844 53.496094 61.371094 55.015625 Z M 63.957031 43.558594 C 63.140625 42.273438 62.144531 41.191406 60.851562 40.417969 C 59.53125 39.625 58.082031 39.371094 56.558594 39.527344 C 55.003906 39.695312 53.964844 40.644531 53.261719 41.957031 C 52.902344 42.625 52.460938 42.828125 51.722656 42.800781 C 50 42.730469 48.273438 42.75 46.550781 42.75 C 46.15625 42.75 45.867188 42.660156 45.628906 42.308594 C 45.011719 41.429688 44.210938 40.75 43.296875 40.152344 C 45.953125 40.269531 48.601562 40.242188 51.257812 40.234375 C 52.425781 40.222656 52.363281 40.480469 52.691406 39.117188 C 52.980469 37.902344 53.28125 36.6875 53.550781 35.476562 C 53.675781 34.910156 53.984375 34.5 54.433594 34.164062 C 55.292969 33.523438 56.148438 32.855469 56.875 32.0625 C 57.210938 31.703125 57.511719 31.65625 57.949219 31.921875 C 59.648438 32.933594 61.371094 33.917969 63.085938 34.921875 C 63.578125 35.210938 63.9375 35.632812 63.964844 36.203125 C 64.097656 38.648438 63.992188 41.09375 63.957031 43.558594 Z M 63.957031 43.558594 " fill-opacity="1" fill-rule="nonzero"/></g><path fill="#ffffff" d="M 63.28125 38.914062 C 63.269531 38.914062 63.269531 38.914062 63.28125 38.914062 C 63.269531 38.246094 63.28125 37.578125 63.269531 36.910156 C 63.261719 36.371094 63.042969 35.984375 62.496094 35.773438 C 61.652344 35.457031 60.835938 35.070312 60 34.734375 C 59.410156 34.5 59.191406 34.648438 59.191406 35.273438 C 59.179688 36.179688 59.207031 37.085938 59.191406 37.980469 C 59.179688 38.34375 59.304688 38.578125 59.613281 38.78125 C 60.71875 39.519531 61.835938 40.257812 62.820312 41.164062 C 62.910156 41.253906 63.015625 41.367188 63.15625 41.304688 C 63.332031 41.226562 63.289062 41.050781 63.289062 40.910156 C 63.28125 40.25 63.28125 39.582031 63.28125 38.914062 Z M 63.28125 38.914062 " fill-opacity="1" fill-rule="nonzero"/><path fill="#ffffff" d="M 36.71875 38.128906 C 37.210938 38.105469 37.371094 37.671875 37.371094 37.242188 C 37.371094 36.800781 37.15625 36.398438 36.664062 36.425781 C 36.183594 36.449219 36.042969 36.875 36.007812 37.304688 C 36.050781 37.761719 36.207031 38.15625 36.71875 38.128906 Z M 36.71875 38.128906 " fill-opacity="1" fill-rule="nonzero"/><path fill="#ffffff" d="M 39.699219 48.878906 C 38.441406 49.828125 38.074219 52.617188 39.039062 53.847656 C 39.628906 54.59375 40.429688 54.570312 40.949219 53.769531 C 41.117188 53.511719 41.210938 53.230469 41.28125 52.933594 C 41.449219 52.300781 41.300781 51.675781 41.238281 51.058594 C 41.882812 52.359375 41.898438 53.644531 41.054688 54.886719 C 40.976562 55.007812 40.789062 55.132812 40.894531 55.273438 C 41.027344 55.457031 41.210938 55.308594 41.351562 55.226562 C 41.765625 55.007812 42.09375 54.683594 42.285156 54.269531 C 43.050781 52.632812 42.953125 50.996094 42.117188 49.433594 C 41.589844 48.449219 40.507812 48.261719 39.699219 48.878906 Z M 39.699219 48.878906 " fill-opacity="1" fill-rule="nonzero"/><path fill="#ffffff" d="M 58.988281 48.800781 C 58.074219 49.707031 57.738281 51.457031 58.265625 52.722656 C 58.46875 53.207031 58.734375 53.707031 59.347656 53.671875 C 59.972656 53.636719 60.246094 53.152344 60.429688 52.617188 C 60.632812 52.042969 60.527344 51.4375 60.597656 50.714844 C 61.105469 52.132812 60.824219 53.3125 60.042969 54.535156 C 60.695312 54.429688 61.011719 54.101562 61.300781 53.734375 C 62.1875 52.609375 61.953125 49.988281 61.246094 48.992188 C 60.660156 48.140625 59.726562 48.058594 58.988281 48.800781 Z M 58.988281 48.800781 " fill-opacity="1" fill-rule="nonzero"/></svg>