<svg width="135" height="93" viewBox="0 0 135 93" fill="none" xmlns="http://www.w3.org/2000/svg">
<g clip-path="url(#clip0_345_21123)">
<path d="M35.2865 78.9704C35.2865 79.417 35.2865 79.8479 35.2865 80.2788C35.2918 82.1389 35.3181 83.999 35.3023 85.8591C35.2602 89.7527 32.0738 92.8949 28.1303 92.9475C23.2666 93.0105 18.4029 93.0263 13.5392 92.9422C9.34328 92.8687 6.3567 89.6056 6.3199 85.2443C6.30412 83.1005 6.30938 80.9514 6.3199 78.8075C6.3199 78.4187 6.23051 78.2085 5.85719 77.9983C3.24919 76.5586 1.95571 74.3412 1.96623 71.3513C1.99252 63.7112 2.01881 56.0712 2.00829 48.4311C2.00829 46.5237 2.00829 44.632 2.47626 42.7614C3.06516 40.4021 4.264 38.4002 5.95183 36.6872C8.24434 34.3647 10.5737 32.079 12.8977 29.788C13.0607 29.6251 13.3236 29.5568 13.5392 29.4464C13.4708 29.3571 13.3972 29.2678 13.3289 29.1732C13.1449 29.1627 12.9608 29.1417 12.7715 29.1417C10.8418 29.1417 8.91738 29.1417 6.98767 29.1417C2.87061 29.1312 -0.179056 25.9417 0.00497597 21.8431C0.146943 18.7429 2.86536 15.8477 6.03596 15.6585C7.7238 15.5534 9.48524 15.5587 11.1152 15.9318C13.9441 16.5781 15.8002 19.1318 15.9211 22.027C15.9474 22.6944 15.9211 23.3669 15.9211 24.0395C15.9789 24.0605 16.0368 24.0763 16.0894 24.0973C16.163 23.9449 16.2524 23.7978 16.3102 23.6402C18.0401 18.7587 19.7227 13.8667 21.4946 9.0063C23.5821 3.32089 28.3301 0.0157901 34.3821 0.0105356C50.8819 -0.00522802 67.3764 0.0105356 83.8762 0.00528105C89.7284 0.00528105 95.5753 -0.00522802 101.428 0.00528105C104.635 0.0157901 107.495 1.03517 109.93 3.12647C111.917 4.8342 113.232 7.02008 114.094 9.47395C115.535 13.5515 116.949 17.6342 118.374 21.717C118.401 21.7906 118.464 21.8484 118.579 22.006C118.721 21.4648 118.832 21.0129 118.958 20.561C119.857 17.3768 122.36 15.4746 125.683 15.4799C127.124 15.4799 128.564 15.3695 129.979 15.8477C133.044 16.8881 135.074 20.0566 134.59 23.1147C134.049 26.5617 131.383 28.9578 127.991 29.0103C126.219 29.0418 124.442 29.0208 122.67 29.0261C122.433 29.0261 122.202 29.0261 121.787 29.0261C122.234 29.5253 122.57 29.9036 122.912 30.2819C125.425 33.0563 127.991 35.7834 130.447 38.6103C132.881 41.411 134.012 44.6898 133.975 48.4363C133.907 56.0344 133.928 63.6324 133.959 71.2252C133.975 74.5934 132.529 76.9632 129.416 78.2768C129.038 78.4397 128.885 78.6551 128.89 79.065C128.922 81.1668 128.943 83.2686 128.953 85.3704C128.964 87.5511 128.259 89.448 126.64 90.956C125.215 92.2854 123.506 92.9475 121.571 92.958C116.818 92.979 112.065 93 107.311 92.9527C103.163 92.9107 99.9448 89.6108 99.9185 85.4598C99.9027 83.3159 99.9185 81.1721 99.9185 78.9704H35.2865ZM67.9022 74.8614C87.0257 74.8614 106.155 74.8614 125.278 74.8614C125.715 74.8614 126.156 74.8614 126.593 74.8403C128.754 74.7195 129.895 73.5162 129.895 71.3461C129.895 63.5746 129.879 55.8032 129.905 48.0317C129.91 45.3414 129.027 43.0136 127.245 41.0327C124.673 38.1637 122.029 35.363 119.499 32.452C118.527 31.3328 117.533 30.8914 116.003 30.8967C89.1658 30.9597 62.3287 30.9492 35.4968 30.944C29.6026 30.944 23.7135 30.9072 17.8193 30.9125C17.5353 30.9125 17.183 31.0806 16.9727 31.2855C14.2911 33.9286 11.5937 36.5611 8.97521 39.2672C6.98241 41.3322 5.98338 43.8228 5.99916 46.7444C6.04122 54.6051 6.02019 62.4607 6.02545 70.3214C6.02545 70.8259 6.02545 71.3303 6.06225 71.8295C6.17267 73.3848 7.22428 74.5514 8.76489 74.7563C9.52205 74.8561 10.295 74.8614 11.0574 74.8614C30.0074 74.8666 48.9574 74.8614 67.9075 74.8614H67.9022ZM19.4387 26.8087H115.961C115.919 26.6563 115.892 26.5302 115.85 26.4146C115.177 24.5229 114.499 22.6313 113.826 20.7397C112.517 17.0773 111.255 13.3991 109.888 9.76295C108.584 6.29496 105.276 4.0828 101.585 4.0828C79.2175 4.0828 56.8498 4.0828 34.4768 4.08805C33.7564 4.08805 33.0256 4.12484 32.321 4.27196C28.7455 5.01285 26.4688 7.21976 25.2594 10.6142C24.0501 14.0086 22.8039 17.3925 21.584 20.7817C20.8742 22.7522 20.1801 24.7279 19.4387 26.8087ZM103.962 78.9074C103.962 80.221 103.978 81.4243 103.962 82.6223C103.946 83.5156 103.731 83.5734 104.83 83.5524C105.576 83.5419 106.27 83.6837 106.738 84.3563C107.595 85.5964 107.101 87.0256 105.655 87.4933C105.34 87.5931 105.019 87.6772 104.651 87.7875C105.629 88.6545 106.675 88.9278 107.869 88.9173C112.228 88.8752 116.587 88.8857 120.945 88.8647C121.403 88.8647 121.866 88.8489 122.323 88.7806C123.564 88.602 124.642 87.6246 124.868 86.4371C124.978 85.8591 124.963 85.2601 125.02 84.6768C125.063 84.2617 124.884 84.1461 124.489 84.1566C123.79 84.1724 123.08 84.1987 122.391 84.1199C121.461 84.0148 120.751 83.1478 120.719 82.2072C120.688 81.2719 121.287 80.3997 122.207 80.2315C122.886 80.1054 123.596 80.1212 124.295 80.1159C124.721 80.1159 125.02 80.0791 125.01 79.5327C124.999 79.023 124.805 78.8811 124.29 78.8811C117.785 78.9021 111.276 78.8969 104.772 78.9021C104.535 78.9021 104.298 78.9021 103.972 78.9021L103.962 78.9074ZM31.3167 81.0039C31.343 80.5258 31.343 80.0423 31.4113 79.5747C31.4955 78.9967 31.2588 78.8863 30.7225 78.8916C24.1552 78.9126 17.5826 78.9074 11.0153 78.9074C10.805 78.9074 10.5947 78.9284 10.3476 78.9389C10.3476 80.2368 10.3633 81.4611 10.3476 82.6854C10.3318 83.5786 10.316 83.5734 11.2099 83.5524C11.5622 83.5419 11.9092 83.5261 12.2615 83.5419C13.3867 83.5944 14.2543 84.4772 14.2701 85.5701C14.2806 86.6473 13.4025 87.5616 12.2878 87.6194C11.9145 87.6404 11.5359 87.6194 11.0048 87.6194C11.8303 88.5704 12.7189 88.9067 13.7443 88.9067C15.7371 88.9067 17.7299 88.8805 19.7227 88.8752C22.4148 88.87 25.1122 88.891 27.8043 88.8752C29.9286 88.8594 31.2378 87.6404 31.3693 85.6437C31.4008 85.1813 31.2588 85.0079 30.7856 85.0394C30.0232 85.0867 29.2555 85.1025 28.4878 85.1077C27.105 85.1235 26.2847 84.3353 26.2795 83.0006C26.2795 81.7763 27.1733 80.9882 28.5404 81.0092C29.4343 81.0197 30.3282 81.0092 31.3325 81.0092L31.3167 81.0039ZM122.759 24.9013C122.933 24.9118 123.101 24.938 123.27 24.938C124.826 24.9433 126.377 24.9538 127.933 24.9486C129.327 24.9486 130.431 23.9607 130.562 22.6155C130.704 21.16 129.847 19.8727 128.438 19.6993C127.276 19.5574 126.083 19.5837 124.91 19.673C123.732 19.7623 122.891 20.6136 122.781 21.8063C122.686 22.7994 122.759 23.8136 122.759 24.9013ZM11.8934 24.9118C11.8934 24.339 11.8987 23.8241 11.8934 23.3039C11.8882 22.8888 11.8829 22.4737 11.8514 22.0586C11.7567 20.8815 10.9312 19.8464 9.75341 19.6993C8.6387 19.5627 7.48719 19.5784 6.36196 19.673C5.02116 19.7886 4.15884 20.7607 4.07471 22.0323C3.99058 23.3774 4.76351 24.4704 6.057 24.833C6.14112 24.854 6.22525 24.9065 6.30938 24.9065C8.16022 24.9065 10.0111 24.9065 11.8987 24.9065L11.8934 24.9118Z" fill="white"/>
<path d="M67.4503 43.2237C75.1429 43.2237 82.8301 43.2237 90.5227 43.2237C91.8898 43.2237 93.1727 43.4654 94.3242 44.2588C96.7114 45.9035 97.2267 49.1666 95.3864 51.405C94.4452 52.5557 93.4041 53.6224 92.384 54.7101C91.0958 56.0868 89.7603 57.4109 88.5036 58.8139C87.7569 59.6494 86.8841 60.0014 85.7852 60.0014C73.8862 59.9909 61.9925 59.9962 50.0935 60.0014C49.147 60.0014 48.3688 59.7177 47.6748 59.0451C45.193 56.6648 42.7007 54.3002 40.1715 51.9672C37.4373 49.4451 38.3838 44.5373 42.4325 43.4234C43.0161 43.2657 43.6419 43.2237 44.2518 43.2184C48.1322 43.2027 52.0074 43.2184 55.8879 43.2184C59.742 43.2184 63.6014 43.2184 67.4556 43.2184L67.4503 43.2237ZM67.5082 47.2802C60.9146 47.2802 54.321 47.2802 47.7221 47.2802C46.4497 47.2802 45.1772 47.2434 43.91 47.296C43.5577 47.3117 43.1266 47.4851 42.89 47.7373C42.4325 48.226 42.5324 48.5991 43.1476 49.1928C45.3665 51.3367 47.5854 53.4858 49.8253 55.6086C50.0304 55.803 50.3985 55.9292 50.6929 55.9292C62.2186 55.9449 73.7442 55.9449 85.2646 55.9292C85.5275 55.9292 85.8588 55.782 86.0481 55.5929C86.6685 54.9781 87.2364 54.3108 87.8305 53.6644C89.245 52.1091 90.6594 50.5538 92.0843 49.0089C92.4313 48.6359 92.5102 48.2733 92.2368 47.8319C91.8898 47.2697 91.3271 47.2907 90.7803 47.2907C83.0247 47.2907 75.269 47.2907 67.5134 47.2907L67.5082 47.2802Z" fill="white"/>
<path d="M111.208 59.9911C108.495 59.9911 105.776 59.9964 103.063 59.9911C101.291 59.9911 99.9137 59.2923 99.1513 57.6318C98.4572 56.1238 98.7832 54.663 100.087 53.3231C102.9 50.4384 105.761 47.6009 108.516 44.6689C109.536 43.5865 110.603 43.1241 112.091 43.1924C114.473 43.2975 116.866 43.2186 119.253 43.2186C122.245 43.2186 124.143 44.9789 124.237 47.9477C124.316 50.3543 124.337 52.7609 124.29 55.1674C124.232 58.0837 122.266 59.9701 119.353 59.9911C116.64 60.0069 113.921 59.9911 111.208 59.9911ZM103.2 55.756C103.232 55.819 103.263 55.8768 103.3 55.9399C103.536 55.9399 103.768 55.9399 104.004 55.9399C109.063 55.9399 114.121 55.9399 119.179 55.9399C120.162 55.9399 120.215 55.9136 120.22 54.9257C120.231 52.6295 120.21 50.328 120.22 48.0318C120.22 47.4643 119.994 47.2541 119.437 47.2594C117.665 47.2804 115.877 47.396 114.121 47.2384C112.391 47.086 111.208 47.6692 110.041 48.9408C107.869 51.3106 105.498 53.4912 103.205 55.7507L103.2 55.756Z" fill="white"/>
<path d="M23.7559 60.0016C21.1058 60.0016 18.4558 60.0016 15.8057 60.0016C12.8086 60.0016 10.8632 58.1678 10.8264 55.1832C10.7895 52.5402 10.7633 49.8814 10.9368 47.2488C11.0893 44.9526 13.0663 43.2554 15.3746 43.2239C18.1981 43.1871 21.027 43.2239 23.8506 43.2239C24.6077 43.2239 25.2492 43.4708 25.7908 44.0226C28.851 47.149 31.9374 50.2544 34.9924 53.3914C36.7591 55.2042 36.6381 57.7106 34.7558 59.2029C33.9408 59.8492 32.9628 59.9911 31.969 59.9963C29.2295 60.0068 26.4954 59.9963 23.7559 59.9963V60.0016ZM31.8586 55.9398C31.7902 55.7927 31.7797 55.7454 31.7534 55.7191C29.0665 52.992 26.3849 50.2649 23.6876 47.5483C23.5351 47.396 23.2774 47.2593 23.0671 47.2593C20.5748 47.2488 18.0772 47.2699 15.5849 47.2804C15.1222 47.2804 14.8382 47.4748 14.8382 47.9845C14.8382 50.3648 14.8277 52.7503 14.8225 55.1306C14.8225 55.7769 15.1432 55.9609 15.7742 55.9556C20.8955 55.9346 26.0169 55.9451 31.1382 55.9398H31.8586Z" fill="white"/>
</g>
<defs>
<clipPath id="clip0_345_21123">
<rect width="134.664" height="93" fill="white"/>
</clipPath>
</defs>
</svg>
