<svg width="173" height="141" viewBox="0 0 173 141" fill="none" xmlns="http://www.w3.org/2000/svg">
<path d="M43.4894 20.9169C43.408 20.2814 43.4068 19.6197 43.4674 18.9186C43.7301 15.9995 45.383 13.1356 47.7591 11.0913C48.3711 12.094 48.7763 13.2465 48.9718 14.4775C49.1792 15.7206 49.1744 17.0387 48.9843 18.4178C48.9605 18.5816 48.9344 18.7449 48.9035 18.9052C48.8768 19.069 48.847 19.2322 48.815 19.3932C48.7502 19.7161 48.6747 20.0327 48.588 20.3447C48.4977 20.6532 48.4121 20.9703 48.3087 21.2747C48.2071 21.5803 48.093 21.8789 47.9724 22.174C47.8578 22.4737 47.7312 22.7671 47.5951 23.0541C47.5268 23.1975 47.4567 23.3393 47.3836 23.4805C47.3123 23.6228 47.2422 23.7645 47.1673 23.9045C47.0188 24.1845 46.8607 24.4587 46.692 24.7253C46.5268 24.9943 46.3605 25.2644 46.1792 25.5229C46.2131 25.2673 46.2398 25.0048 46.2618 24.737C46.2832 24.4668 46.3111 24.2014 46.3272 23.926C46.3646 23.3805 46.3717 22.813 46.3824 22.2652C46.3896 21.7151 46.37 21.1615 46.3397 20.6381C46.3111 20.1164 46.26 19.6145 46.1804 19.1538C46.0937 19.3972 46.0129 19.6493 45.9398 19.9078C45.8667 20.1669 45.7984 20.4307 45.7485 20.7054C45.6451 21.2532 45.5655 21.8115 45.531 22.3744C45.5007 22.9408 45.5013 23.5019 45.5352 24.0399C45.5791 24.5842 45.654 25.1076 45.7592 25.5903C44.9689 24.798 44.3266 23.8313 43.9166 22.709C43.7158 22.1507 43.5702 21.5518 43.4876 20.914L43.4894 20.9169ZM37.9773 29.8937C38.0807 30.1958 38.1978 30.4862 38.3285 30.7633C38.464 31.0433 38.6125 31.3111 38.7711 31.5656C39.4075 32.5845 40.2233 33.3972 41.1734 34.0199C40.9601 33.5639 40.7895 33.0725 40.6368 32.5491C40.5614 32.2871 40.4924 32.0187 40.4295 31.7445C40.3706 31.4726 40.3249 31.1967 40.2833 30.9179C40.2013 30.3608 40.146 29.7892 40.1472 29.239C40.1449 28.6872 40.1639 28.1376 40.2465 27.6322C40.3314 27.8501 40.4087 28.0772 40.4871 28.3154C40.5667 28.5547 40.6422 28.8016 40.7129 29.056C40.7842 29.3099 40.8501 29.5707 40.9119 29.8339C40.9702 30.0988 41.0302 30.3677 41.0896 30.6396C41.2066 31.1845 41.2969 31.7323 41.3783 32.276C41.4651 32.8221 41.5269 33.3565 41.5649 33.8677C42.5346 31.5482 43.0188 29.0084 42.8376 26.3536C42.7449 24.9699 42.4621 23.6687 42.0135 22.4993C41.5542 21.3235 40.9298 20.2814 40.1252 19.4228C39.6398 20.0327 39.2316 20.7025 38.862 21.3834C38.6814 21.7255 38.5246 22.0805 38.3748 22.4348C38.2275 22.7903 38.0902 23.147 37.9845 23.5153C37.8745 23.8813 37.7795 24.249 37.701 24.6173C37.6202 24.9839 37.5733 25.3614 37.5323 25.7315C37.4961 26.1033 37.4711 26.4704 37.4741 26.8404C37.4782 27.2111 37.5002 27.5794 37.5412 27.9424C37.6113 28.6331 37.7711 29.2896 37.9773 29.8937ZM33.6102 37.9591C33.8407 38.6266 34.1218 39.2348 34.4474 39.7849C34.7831 40.3368 35.1651 40.8305 35.5793 41.2639C35.7866 41.4806 36.0017 41.6827 36.2257 41.871C36.4527 42.0598 36.6886 42.234 36.9298 42.3932C37.4123 42.7133 37.9209 42.9758 38.4467 43.1856C38.2994 42.984 38.1538 42.7714 38.013 42.5489C37.9417 42.4373 37.8728 42.3229 37.8038 42.2061C37.7367 42.0894 37.6725 41.972 37.6101 41.8512C37.3576 41.3714 37.1217 40.8561 36.9203 40.3251C36.729 39.7971 36.5662 39.2522 36.4372 38.7096C36.3178 38.1688 36.2418 37.632 36.1996 37.1168C36.723 37.9027 37.2031 38.874 37.6583 39.8929C37.7688 40.1474 37.8745 40.4042 37.9773 40.6615C38.0849 40.9206 38.1889 41.1797 38.2857 41.4376C38.3831 41.6949 38.4729 41.9517 38.5566 42.205C38.6392 42.4588 38.7295 42.711 38.8026 42.9584C38.9054 42.3392 39.0076 41.7199 39.0433 41.0891C39.0599 40.773 39.0872 40.4605 39.0914 40.1433C39.0997 39.8279 39.0872 39.5078 39.0777 39.19C39.0367 37.9184 38.8329 36.6271 38.4723 35.3485C38.2827 34.6799 38.0397 34.0379 37.7795 33.4384C37.5151 32.836 37.1966 32.2638 36.8555 31.7364C36.1758 30.6826 35.3345 29.7799 34.3648 29.0973C34.1996 29.4487 34.0469 29.8066 33.9073 30.1697C33.8383 30.3515 33.7694 30.5321 33.71 30.7163C33.6512 30.901 33.5965 31.0875 33.5442 31.2734C33.442 31.6463 33.3511 32.0216 33.2775 32.3986C33.2127 32.7791 33.1616 33.159 33.1259 33.5384C33.1081 33.7277 33.0944 33.9177 33.0843 34.1059C33.0778 34.2959 33.0766 34.4858 33.079 34.6752C33.0843 35.0534 33.104 35.4281 33.1414 35.7981C33.2264 36.5417 33.3856 37.2684 33.6114 37.962L33.6102 37.9591ZM30.4611 44.3201C30.5104 44.6983 30.5793 45.0735 30.659 45.4412C30.7427 45.809 30.8295 46.1709 30.9548 46.527C31.0755 46.8813 31.2115 47.2287 31.3613 47.5662C31.4361 47.7347 31.5146 47.9014 31.5977 48.0652C31.6845 48.2285 31.7754 48.3899 31.8693 48.5485C32.0493 48.8512 32.24 49.1376 32.4385 49.4071C32.6363 49.6772 32.8437 49.9294 33.0671 50.1658C33.511 50.6387 33.9827 51.0447 34.4777 51.3869C34.7225 51.5588 34.9809 51.7133 35.2436 51.8533C35.5062 51.9933 35.773 52.1171 36.0415 52.2251C36.5816 52.443 37.133 52.6004 37.6915 52.7015C37.319 52.3663 36.9435 51.9817 36.5846 51.5617C36.2394 51.1417 35.9066 50.6851 35.5983 50.2053C34.9964 49.2485 34.5008 48.2011 34.2246 47.2107C34.5603 47.543 34.8954 47.9217 35.2275 48.3319C35.5698 48.742 35.9055 49.1823 36.2257 49.6348C36.385 49.8631 36.5442 50.0932 36.704 50.3238C36.8621 50.5562 37.016 50.7891 37.1621 51.0221C37.3119 51.255 37.445 51.4885 37.5881 51.7203C37.7302 51.9521 37.865 52.1821 37.991 52.4093C37.9185 49.905 37.3202 47.3873 36.0712 45.0265C35.751 44.4107 35.3891 43.8327 34.9916 43.2948C34.6084 42.7592 34.1889 42.2642 33.7379 41.8146C33.284 41.365 32.8134 40.963 32.3161 40.6139C31.8182 40.2642 31.2941 39.9679 30.7493 39.7303C30.659 40.1079 30.5764 40.4872 30.5175 40.8695C30.4635 41.2523 30.4237 41.638 30.3963 42.0232C30.3839 42.2154 30.3726 42.4077 30.369 42.6006C30.369 42.794 30.3714 42.9863 30.3773 43.178C30.3904 43.5626 30.4189 43.9425 30.4611 44.3201ZM30.637 56.6958C30.6792 56.7806 30.7231 56.8649 30.7677 56.9485C30.8568 57.1164 30.9489 57.2808 31.044 57.4423C31.2347 57.7664 31.4385 58.0801 31.6542 58.3816C31.7617 58.5321 31.8728 58.6802 31.9869 58.8243L32.1604 59.0381C32.221 59.1084 32.2846 59.1769 32.3476 59.2454C32.8318 59.7677 33.3392 60.2173 33.8627 60.5955C34.1241 60.7849 34.3885 60.9562 34.6589 61.1096C34.9358 61.2618 35.215 61.3971 35.4967 61.5157C36.6214 61.9897 37.7729 62.193 38.9042 62.1709C38.4741 61.9153 38.0356 61.6115 37.6006 61.2693C37.3832 61.0986 37.1663 60.9173 36.953 60.7285C36.7438 60.5391 36.5472 60.3399 36.3493 60.1348C35.9571 59.7247 35.5846 59.2873 35.2436 58.8394C35.0677 58.6157 34.9257 58.3869 34.7813 58.158C34.6387 57.9285 34.5068 57.6991 34.3868 57.4696C34.7831 57.7293 35.1901 58.0348 35.5971 58.3712C35.7967 58.5402 36.0136 58.7151 36.2227 58.8946C36.4331 59.0758 36.6422 59.2617 36.8484 59.4517C37.0546 59.6416 37.2572 59.8362 37.4551 60.0332L37.7492 60.33L37.8924 60.4793L38.0421 60.6274C38.4378 61.0236 38.808 61.4256 39.1407 61.8224C39.0718 61.5168 38.991 61.2118 38.8989 60.9115C38.808 60.61 38.6981 60.3126 38.603 60.0128C38.401 59.4162 38.1532 58.8295 37.8579 58.2562C37.5911 57.6781 37.2774 57.1141 36.9161 56.5663C36.8264 56.4292 36.7331 56.2933 36.6369 56.1573C36.5472 56.0214 36.4551 55.8866 36.36 55.7536C36.1681 55.4869 35.9655 55.2244 35.751 54.9659C34.8324 53.8883 33.874 52.985 32.7986 52.2838C31.7219 51.5832 30.6007 51.0848 29.435 50.8379C29.3963 51.6088 29.4665 52.3826 29.571 53.1453C29.6263 53.5264 29.6905 53.9045 29.7784 54.2769C29.8752 54.6498 29.9852 55.017 30.1099 55.3777C30.2329 55.7385 30.3702 56.0923 30.5211 56.4367L30.6358 56.6929L30.637 56.6958ZM35.0528 69.6438C36.1829 70.4878 37.4218 70.9938 38.6042 71.239C39.783 71.4876 40.9755 71.4469 42.0807 71.196C41.1021 70.8811 40.1116 70.3548 39.1478 69.717C39.0278 69.6374 38.9084 69.5555 38.7901 69.473C38.6731 69.3893 38.5632 69.301 38.4509 69.2133C38.2293 69.0367 38.013 68.8537 37.8038 68.6667C37.5941 68.4796 37.3927 68.2885 37.2002 68.0939C37.0082 67.8999 36.8199 67.7047 36.663 67.5014C36.7718 67.5449 36.8829 67.592 36.9946 67.6414C37.1087 67.6902 37.2251 67.7401 37.3422 67.7936C37.5757 67.8999 37.8127 68.0155 38.0528 68.138C38.5305 68.3832 39.0142 68.658 39.4889 68.9513C39.7224 69.1 39.9743 69.2441 40.2132 69.3963C40.4538 69.5473 40.6903 69.7019 40.9202 69.8581C41.3849 70.1701 41.8085 70.4989 42.2351 70.812C42.1674 70.6697 42.0919 70.5308 42.0206 70.3908C41.9529 70.2485 41.8816 70.1085 41.8085 69.9685C41.6612 69.6897 41.5037 69.4155 41.3344 69.1459C40.9862 68.6121 40.644 68.0788 40.2453 67.5728C40.0468 67.319 39.8371 67.0721 39.6178 66.8298C39.4075 66.5841 39.1918 66.343 38.9625 66.1089C38.7337 65.8748 38.4949 65.6471 38.2441 65.4252C38.1187 65.3148 37.991 65.2056 37.8609 65.0981C37.7313 64.9907 37.6078 64.8826 37.477 64.7769C36.934 64.3354 36.3671 63.945 35.7842 63.6046C35.6387 63.5198 35.4925 63.4379 35.3452 63.3595C35.1996 63.2805 35.057 63.2032 34.9126 63.1306C34.6232 62.9842 34.3303 62.8512 34.035 62.7321C32.8526 62.2534 31.631 61.9897 30.4349 61.9775C30.5847 62.7367 30.7879 63.4902 31.0428 64.2204C31.3191 64.9448 31.6601 65.6442 32.041 66.3053C32.2264 66.6376 32.451 66.9524 32.6773 67.2591C32.9055 67.5647 33.1438 67.8598 33.3927 68.1409C33.8793 68.7085 34.4587 69.2052 35.0552 69.6443L35.0528 69.6438ZM41.8032 79.9305C42.1211 80.0008 42.4318 80.056 42.7449 80.0897C43.0604 80.1217 43.3724 80.1356 43.6778 80.135C44.9018 80.1298 46.0402 79.8678 47.0675 79.4048C46.5696 79.3386 46.0432 79.2311 45.5054 79.0871C45.2369 79.0156 44.9647 78.9337 44.692 78.8448C44.4199 78.7548 44.1602 78.6479 43.8947 78.5375C43.367 78.3145 42.8465 78.06 42.3504 77.7829C41.8608 77.5018 41.4164 77.1852 41.004 76.8628C41.4734 76.9458 41.9737 77.0667 42.4841 77.2154C42.7414 77.2932 43.004 77.3722 43.2702 77.4518C43.537 77.5343 43.8043 77.6232 44.0711 77.7173C44.3379 77.8114 44.6041 77.9096 44.8655 78.013C45.1299 78.114 45.3813 78.2267 45.648 78.329C46.1721 78.5381 46.6754 78.7623 47.1418 78.9965C46.9534 78.7426 46.7562 78.4951 46.5488 78.2552C46.3426 78.0141 46.1186 77.7847 45.9095 77.5476C45.4805 77.0788 45.0099 76.6414 44.5096 76.2284C44.0272 75.8038 43.5084 75.4105 42.9517 75.0486C42.6683 74.8708 42.3997 74.689 42.1116 74.5194C41.8264 74.3497 41.531 74.1882 41.228 74.0366C40.9107 73.8775 40.5887 73.7334 40.2696 73.5992C39.9565 73.4621 39.6428 73.3384 39.3255 73.228C38.6927 73.0072 38.0546 72.8411 37.4194 72.7272C37.2608 72.6988 37.1015 72.6744 36.9435 72.6529C36.7878 72.6302 36.6327 72.6111 36.4782 72.5954C36.1681 72.564 35.8597 72.5466 35.5531 72.5437C34.9411 72.5373 34.3374 72.5896 33.7528 72.7028C33.899 73.0624 34.0582 73.4185 34.2287 73.7671C34.4099 74.1116 34.6096 74.4467 34.8163 74.7755C35.0249 75.1038 35.2447 75.425 35.4735 75.7346C35.5858 75.8909 35.7112 76.0402 35.8377 76.1866C35.9643 76.3324 36.0932 76.4765 36.2251 76.6176C37.2572 77.7562 38.518 78.663 39.8591 79.2887C40.5174 79.5779 41.1662 79.7911 41.8002 79.9335L41.8032 79.9305ZM48.6141 88.0041C49.2701 88.0128 49.8958 87.9541 50.4887 87.8368C51.0776 87.7235 51.6509 87.5312 52.1815 87.2971C52.7127 87.0607 53.2077 86.7737 53.6652 86.4443C53.1607 86.4803 52.6123 86.4908 52.0591 86.4524C51.5101 86.4106 50.9415 86.3339 50.3735 86.2271C50.0901 86.1725 49.8037 86.1126 49.5244 86.0406C49.2499 85.9639 48.9772 85.8803 48.7104 85.7891C48.1768 85.6072 47.6599 85.3987 47.1869 85.168C48.1495 85.1361 49.2594 85.2302 50.3693 85.3958C50.9367 85.4684 51.5024 85.5602 52.052 85.6705C52.3259 85.7257 52.5957 85.7861 52.8595 85.8489C53.1304 85.9046 53.3942 85.9662 53.6491 86.0313C51.7347 84.3652 49.4519 83.0663 46.8227 82.353C45.4722 81.9643 44.0985 81.8092 42.8329 81.8214C41.5554 81.8447 40.3279 82.0799 39.2263 82.5371C39.6731 83.1749 40.1656 83.7849 40.6962 84.353C41.2506 84.9049 41.8418 85.4161 42.4603 85.8733C43.0913 86.3206 43.7645 86.7022 44.4472 87.027C44.6184 87.1071 44.7883 87.1867 44.9648 87.2553C45.1424 87.3238 45.3218 87.3877 45.5007 87.447C45.8596 87.5666 46.2202 87.67 46.5833 87.7549C46.9309 87.8356 47.2719 87.8989 47.6064 87.9442C47.9487 87.982 48.2844 88.0023 48.6118 88.0064L48.6141 88.0041ZM57.8867 94.3436C58.1886 94.2518 58.4797 94.1455 58.7602 94.027C59.8808 93.5506 60.8136 92.8767 61.5736 92.0466C61.0857 92.1849 60.5635 92.2819 60.0121 92.3574C59.737 92.3946 59.4559 92.4242 59.1689 92.4463C58.8837 92.4678 58.5908 92.4864 58.3068 92.4811C57.1654 92.4719 55.9771 92.3586 54.9771 92.06C55.4417 91.9537 55.945 91.877 56.4774 91.8119C57.0151 91.7393 57.576 91.687 58.1399 91.6557C58.4221 91.6388 58.7043 91.629 58.9859 91.6226C59.2664 91.6197 59.5575 91.6022 59.8374 91.6011C60.4024 91.5929 60.9538 91.6063 61.4749 91.6429C59.2486 90.3992 56.7513 89.5644 54.0353 89.3779C52.6052 89.2954 51.2701 89.3669 50.0116 89.6533C49.6979 89.7236 49.3901 89.8072 49.0901 89.9025C48.7888 89.9983 48.503 90.0988 48.2208 90.215C47.6575 90.4474 47.1263 90.7285 46.6356 91.0597C46.7746 91.1968 46.9172 91.3315 47.0604 91.4634L47.2778 91.6597C47.3533 91.7231 47.43 91.7835 47.506 91.8445C47.8138 92.089 48.1287 92.322 48.4519 92.5439C48.7763 92.7635 49.1002 92.979 49.4424 93.1684C49.787 93.3543 50.137 93.5268 50.4911 93.6854C50.8446 93.844 51.2023 93.988 51.563 94.117C51.9284 94.2396 52.3015 94.3383 52.6735 94.4266C53.0449 94.5126 53.4168 94.5829 53.7893 94.6352C53.9759 94.6607 54.1601 94.6851 54.3485 94.6985C54.5374 94.7107 54.7258 94.7188 54.9141 94.7229C55.633 94.7363 56.314 94.684 56.9521 94.5707C57.2694 94.5172 57.5843 94.4359 57.8867 94.3436ZM68.1457 98.4611C69.1444 97.7657 69.924 96.9013 70.492 95.9434C70.0446 96.1734 69.5485 96.3872 69.022 96.5772C68.4992 96.7578 67.9502 96.9013 67.3839 97.0216C66.2479 97.2783 65.0875 97.3393 64.0287 97.2835C64.463 97.0843 64.9455 96.8978 65.4535 96.7282C65.7078 96.6434 65.9686 96.5626 66.233 96.4871C66.4998 96.4116 66.7707 96.3349 67.0441 96.2582C68.1445 95.9515 69.2627 95.7406 70.3114 95.5681C67.8765 94.7845 65.2473 94.4888 62.5474 94.8455C61.8433 94.9384 61.1707 95.0633 60.5189 95.2463C59.8689 95.4252 59.2432 95.657 58.6657 95.9068C57.5047 96.4186 56.475 97.1087 55.6497 97.9528C55.9836 98.1613 56.3247 98.3588 56.6717 98.5435C57.0204 98.7277 57.3698 98.9078 57.7382 99.0507C58.103 99.1988 58.4732 99.3336 58.8457 99.4544C59.0323 99.5148 59.2195 99.5718 59.4066 99.6252C59.5938 99.6781 59.7809 99.7303 59.9735 99.7669C60.7393 99.9267 61.5082 100.027 62.2658 100.061C63.0328 100.079 63.7934 100.021 64.5266 99.8988C65.2247 99.7908 65.8908 99.5799 66.4939 99.3377C67.0981 99.0925 67.6495 98.7974 68.1457 98.4611ZM77.9946 99.2981C77.7415 99.43 77.4806 99.5607 77.218 99.667C76.6922 99.8878 76.1467 100.083 75.6007 100.243C75.4646 100.283 75.328 100.322 75.1919 100.358C75.0558 100.395 74.9198 100.429 74.7855 100.452C74.5181 100.504 74.2519 100.548 73.9905 100.582C74.1824 100.444 74.385 100.307 74.5983 100.172C74.8122 100.035 75.0338 99.9104 75.2662 99.7681C75.7296 99.4922 76.2222 99.2255 76.7266 98.9757C76.9786 98.8514 77.2329 98.7306 77.4889 98.615L77.6809 98.5296L77.874 98.4384C78.0029 98.3803 78.1324 98.3211 78.2602 98.2624C78.7747 98.0335 79.2857 97.8302 79.7783 97.6594C79.1419 97.5775 78.4996 97.5432 77.852 97.5531C77.2097 97.5368 76.562 97.5647 75.9114 97.6408C75.5852 97.685 75.2626 97.7169 74.9388 97.7657C74.6144 97.8139 74.2899 97.8749 73.9655 97.9475C73.6411 98.0184 73.3149 98.1102 72.9935 98.1979C72.6726 98.2827 72.3512 98.3809 72.0309 98.4913C71.6964 98.6069 71.369 98.7335 71.0505 98.8706C70.7327 99.0077 70.4213 99.1587 70.1248 99.3034C69.5295 99.5996 68.9698 99.9366 68.4522 100.309C67.9353 100.681 67.4582 101.093 67.0346 101.528C66.6127 101.959 66.2396 102.423 65.9252 102.917C66.1094 102.989 66.2936 103.058 66.4802 103.125C66.6685 103.186 66.8587 103.241 67.0488 103.295C67.4309 103.401 67.8159 103.493 68.2033 103.572C68.9733 103.743 69.7648 103.805 70.5443 103.825C70.9347 103.832 71.3209 103.83 71.7059 103.804C72.0927 103.769 72.4748 103.719 72.8515 103.653C73.6049 103.52 74.3298 103.342 75.0273 103.05C75.6928 102.782 76.2947 102.468 76.833 102.116C77.1021 101.943 77.3576 101.745 77.5971 101.543C77.8365 101.339 78.0594 101.129 78.2673 100.91C79.0992 100.036 79.6797 99.0478 80.0344 97.9986C79.6446 98.3065 79.2061 98.6069 78.7308 98.8904C78.4937 99.0321 78.2477 99.1692 77.9946 99.3022V99.2981ZM48.3681 24.2083C48.2499 24.3106 48.1382 24.418 48.0259 24.5261C47.8019 24.7428 47.5868 24.9699 47.3806 25.2029C47.1762 25.4387 46.9915 25.6885 46.8102 25.9406C47.0396 25.8204 47.2767 25.7059 47.5185 25.5973C47.7579 25.4881 48.0164 25.3928 48.2695 25.301C48.7823 25.1198 49.2951 24.9606 49.8256 24.8514C50.3515 24.7399 50.8643 24.6562 51.3657 24.6179C51.869 24.5813 52.3491 24.5801 52.7894 24.6161C52.5873 24.712 52.3752 24.8043 52.1512 24.8932C51.9284 24.9821 51.6937 25.0658 51.462 25.1535C50.9938 25.3278 50.487 25.4829 49.976 25.6322C49.4697 25.7832 48.9469 25.9203 48.4234 26.0359C47.9106 26.1596 47.3985 26.263 46.9011 26.3397C47.954 26.7638 49.0794 27.0141 50.2356 27.1094C50.8173 27.1594 51.4044 27.1687 51.9878 27.1356C52.5731 27.1042 53.172 27.0426 53.7537 26.9305C54.0561 26.8701 54.3651 26.8108 54.658 26.7359C54.9521 26.6627 55.2361 26.5779 55.5124 26.4838C55.7953 26.3949 56.0692 26.2967 56.333 26.1881C56.4649 26.1341 56.5944 26.0765 56.7222 26.0173C56.8499 25.958 56.9806 25.9017 57.106 25.8395C57.3579 25.7181 57.6021 25.5851 57.835 25.4439C58.0703 25.3039 58.3062 25.1628 58.5278 25.0077C58.9651 24.6917 59.3971 24.3698 59.778 23.9946C58.8742 23.2585 57.8404 22.6794 56.6883 22.3233C55.5493 21.9788 54.2873 21.8574 52.9842 22.0555C52.8268 22.0781 52.6711 22.1049 52.5154 22.1356C52.3616 22.167 52.2106 22.2048 52.0603 22.2449C51.7591 22.3256 51.4596 22.4203 51.1655 22.5301C50.8672 22.6364 50.5903 22.7688 50.3099 22.9083C50.0318 23.0494 49.7573 23.2016 49.4929 23.3672C49.2333 23.538 48.979 23.7198 48.733 23.9109C48.61 24.0068 48.4882 24.1049 48.3693 24.206L48.3681 24.2083ZM45.31 33.2218C45.0759 33.3455 44.8328 33.464 44.5934 33.5813C44.3569 33.6999 44.1175 33.8155 43.8768 33.9258C43.3967 34.1466 42.9036 34.3447 42.4443 34.5236C43.5524 34.7252 44.7223 34.7519 45.872 34.6148C46.1596 34.5799 46.4454 34.5358 46.73 34.4806C47.0194 34.4289 47.307 34.3662 47.5928 34.2935C48.1643 34.1495 48.7163 33.9607 49.2784 33.7428C51.5986 32.8145 53.3336 31.4111 54.5671 29.684C53.5267 29.1403 52.3847 28.7691 51.1952 28.6564C49.9962 28.5373 48.749 28.675 47.5084 29.124C47.2143 29.2321 46.9255 29.3558 46.6427 29.4929C46.5025 29.5614 46.3605 29.6317 46.2256 29.7084C46.0913 29.7851 45.9588 29.8658 45.8281 29.9495C45.5666 30.1162 45.3112 30.2963 45.064 30.4874C44.8186 30.6785 44.5922 30.8882 44.3676 31.1026C43.4669 31.9635 42.7687 33.0179 42.2666 34.1506C42.6695 33.8259 43.1098 33.5169 43.5637 33.234C44.023 32.9528 44.5138 32.7042 44.9951 32.4857C45.1163 32.4311 45.2369 32.3783 45.3581 32.3295C45.4817 32.2801 45.6053 32.2342 45.7283 32.1901C45.9742 32.1023 46.2184 32.0233 46.4585 31.9542C46.6985 31.8845 46.935 31.8264 47.165 31.777C47.3973 31.7294 47.6284 31.6945 47.8494 31.669C47.4822 31.9298 47.096 32.2017 46.6629 32.459C46.2268 32.7158 45.7805 32.9755 45.31 33.2218ZM40.9547 39.6896C40.7788 39.9452 40.6285 40.213 40.4806 40.4849C40.3374 40.7579 40.1918 41.035 40.0813 41.322C39.8561 41.8965 39.6553 42.4873 39.5477 43.0944C39.7087 42.8951 39.8721 42.6959 40.0551 42.5024C40.2381 42.3095 40.4283 42.1213 40.6232 41.9372C40.8175 41.7536 41.0195 41.5753 41.2239 41.4051C41.4336 41.2349 41.6493 41.0728 41.8662 40.9183C42.723 40.2978 43.651 39.8267 44.4847 39.5473C44.1959 39.8808 43.8548 40.2183 43.4865 40.5564C43.1288 40.8979 42.7366 41.2401 42.3219 41.5735C41.9184 41.9099 41.4996 42.2398 41.0688 42.5506C40.8519 42.704 40.6386 42.855 40.4295 43.0043C40.2179 43.1507 40.007 43.2907 39.7967 43.4237C40.3635 43.4121 40.9327 43.354 41.4948 43.2529C41.7758 43.2018 42.0551 43.1403 42.3314 43.0688C42.613 42.9985 42.8923 42.9178 43.1674 42.8266C43.72 42.6459 44.2577 42.424 44.7794 42.1672C45.3123 41.9128 45.8269 41.6206 46.3147 41.2912C48.3848 39.9174 49.815 38.2118 50.6397 36.2704C49.5107 35.9457 48.3272 35.8149 47.1263 35.9352C46.5268 35.9956 45.9386 36.1252 45.3468 36.3209C44.7491 36.5138 44.181 36.7857 43.6196 37.1284C42.5447 37.7825 41.6546 38.6666 40.9547 39.6896ZM40.1199 51.5629C39.7747 51.9533 39.4217 52.3262 39.0641 52.6689C39.6178 52.5464 40.1615 52.3767 40.6909 52.1659C40.9559 52.0607 41.2161 51.9451 41.4728 51.8202C41.7277 51.6959 41.9791 51.5606 42.234 51.4165C42.7384 51.1295 43.2238 50.8054 43.6814 50.4487C43.9071 50.2698 44.1365 50.0839 44.3593 49.8899C44.5809 49.6953 44.7966 49.4931 45.0022 49.2834C45.1103 49.1742 45.2149 49.0626 45.3165 48.9511C45.4211 48.8402 45.5245 48.7275 45.6231 48.6148C45.8204 48.3894 46.0045 48.1593 46.1751 47.927C46.3408 47.694 46.5161 47.4599 46.6682 47.2229C46.8215 46.9859 46.96 46.7454 47.0883 46.502C47.2256 46.2609 47.348 46.0169 47.4579 45.7695C47.5125 45.6457 47.5636 45.522 47.6118 45.3971C47.6617 45.2728 47.714 45.149 47.7603 45.023C47.8536 44.7726 47.9326 44.5205 47.9998 44.2649C48.0711 44.0105 48.1388 43.756 48.1881 43.4963C47.6005 43.4499 47.0093 43.4534 46.4199 43.5138C45.8299 43.573 45.2422 43.6892 44.6772 43.8705C44.108 44.05 43.5494 44.2934 43.0076 44.6018C42.4787 44.9126 41.9707 45.2908 41.4871 45.7375C39.6618 47.4454 38.7076 49.9236 38.7527 52.3936C38.8662 52.1659 38.991 51.9387 39.1217 51.7139C39.2524 51.4891 39.4087 51.2666 39.5602 51.0476C39.7147 50.8292 39.8763 50.6154 40.0415 50.4069C40.1241 50.3023 40.209 50.2001 40.2934 50.099C40.3825 49.9979 40.4722 49.8997 40.5631 49.8027C40.9262 49.4141 41.3029 49.0574 41.682 48.7426C42.0711 48.4289 42.4645 48.157 42.8465 47.9374C42.4003 48.7042 41.8145 49.5349 41.1502 50.3546C40.8258 50.7647 40.4788 51.1714 40.1199 51.5606V51.5629ZM42.4687 57.8059C42.2803 58.2579 42.0605 58.7238 41.818 59.1903C41.6974 59.4232 41.5667 59.6573 41.4401 59.8885C41.3189 60.118 41.1924 60.3474 41.0617 60.5722C40.8008 61.023 40.5245 61.4605 40.2399 61.8671C41.2762 61.4059 42.2429 60.7703 43.0973 60.0128C43.3106 59.824 43.518 59.6254 43.7164 59.4209C43.922 59.2158 44.1234 59.002 44.3153 58.7813C44.6992 58.341 45.0503 57.8733 45.3623 57.383C45.4442 57.2529 45.5257 57.1245 45.6071 56.9956C45.6879 56.866 45.7651 56.7359 45.8394 56.6064C45.9867 56.3455 46.121 56.0847 46.241 55.8245C46.301 55.6932 46.3575 55.5625 46.411 55.4318L46.4882 55.2354L46.5708 55.0379C46.6777 54.7742 46.7692 54.5116 46.8483 54.2479C46.9267 53.9841 46.9915 53.7204 47.0426 53.4567C47.102 53.1923 47.1596 52.9274 47.1964 52.6626C47.2767 52.1333 47.2844 51.6047 47.2915 51.0755C46.1222 51.2184 44.9659 51.5606 43.9351 52.1403C42.9048 52.7189 41.9268 53.5374 41.2025 54.6016C41.0248 54.8561 40.8596 55.1198 40.7075 55.3905C40.6315 55.527 40.559 55.6635 40.4889 55.803C40.4265 55.9418 40.3665 56.0818 40.31 56.223C40.0842 56.7899 39.9107 57.383 39.7872 57.9889C39.6921 58.5913 39.6481 59.2077 39.6523 59.8258C39.6481 60.1366 39.6838 60.4421 39.7236 60.7477C39.764 61.0532 39.8175 61.3582 39.881 61.6609C40.0183 61.1677 40.1918 60.6693 40.3926 60.1836L40.4705 60.0018L40.5584 59.82C40.6166 59.6991 40.6784 59.5783 40.7402 59.4598C40.865 59.2228 40.9957 58.991 41.1306 58.765C41.2655 58.5402 41.4069 58.3212 41.5513 58.1115C41.6962 57.9024 41.84 57.702 42.004 57.5085C42.3231 57.1245 42.6528 56.7818 42.982 56.4908C42.9143 56.6999 42.8358 56.9148 42.7491 57.1344C42.6641 57.3546 42.5572 57.5806 42.4687 57.8059ZM44.6582 66.2123C44.6088 66.4534 44.5524 66.7009 44.49 66.9501C44.4573 67.075 44.4258 67.2004 44.3938 67.3265C44.3635 67.4508 44.332 67.5757 44.3005 67.7006C44.045 68.7004 43.6802 69.7367 43.3242 70.6342C44.2387 69.9766 45.0295 69.1715 45.7283 68.2496C46.4234 67.3283 46.9588 66.3198 47.4026 65.2219C48.2867 62.9342 48.4246 60.7419 47.9695 58.686C46.8572 59.0549 45.8156 59.6132 44.9083 60.3869C44.6813 60.5804 44.4639 60.7866 44.2547 61.0074C44.1507 61.1177 44.0462 61.2316 43.9487 61.3478C43.8537 61.4634 43.7616 61.583 43.6718 61.7056C43.313 62.1953 42.9992 62.7402 42.7354 63.3368C42.6736 63.4791 42.6107 63.6249 42.5607 63.7696C42.5114 63.9137 42.4645 64.0583 42.4223 64.2058C42.3379 64.4992 42.2666 64.7978 42.2102 65.0993C42.1549 65.4008 42.1098 65.7075 42.0836 66.0131C42.067 66.3163 42.0646 66.6219 42.0753 66.9286C42.0985 67.5409 42.1597 68.1624 42.3201 68.7561C42.3944 69.0559 42.4811 69.3521 42.5786 69.6467C42.6279 69.7936 42.679 69.9389 42.7331 70.0841C42.7907 70.2282 42.8566 70.367 42.9226 70.5082C42.9351 70.0074 43.023 69.4747 43.1246 68.9554C43.1769 68.6951 43.2363 68.4366 43.3035 68.1822C43.3724 67.9266 43.4383 67.678 43.5328 67.4264C43.7116 66.9286 43.9155 66.4534 44.1383 66.0171C44.25 65.7981 44.3664 65.5896 44.4864 65.3927C44.5476 65.2933 44.6071 65.1981 44.6706 65.1045C44.7366 65.0104 44.8025 64.9192 44.8697 64.8315C44.8382 65.0522 44.8174 65.2747 44.7829 65.5059C44.7491 65.7371 44.7063 65.973 44.657 66.2152L44.6582 66.2123ZM48.4602 76.3214C48.4424 76.5799 48.4204 76.8395 48.3919 77.0969C48.3367 77.6121 48.2624 78.121 48.1685 78.6055C48.929 77.7777 49.5553 76.818 50.0294 75.7887C50.1477 75.5313 50.2564 75.2693 50.3551 75.0038C50.4561 74.736 50.5547 74.4607 50.6403 74.1848C50.812 73.6311 50.9427 73.0659 51.0277 72.4931C51.2392 71.2761 51.2338 70.1352 51.1049 69.0425C51.0859 68.9066 51.0651 68.773 51.0401 68.64C51.0152 68.5069 50.9855 68.3762 50.9647 68.2414C50.9154 67.9742 50.8541 67.714 50.7805 67.4584C50.7074 67.2016 50.6177 66.9536 50.5232 66.7067C50.4376 66.4563 50.3402 66.2112 50.2303 65.9712C49.7229 66.2646 49.2404 66.5998 48.7942 66.9809C48.5702 67.1708 48.3557 67.3736 48.1507 67.5862C48.0479 67.6925 47.9475 67.8017 47.85 67.9144C47.7562 68.0248 47.6641 68.1392 47.5749 68.2554C47.2196 68.7219 46.9089 69.2325 46.651 69.789C46.5227 70.0667 46.4074 70.356 46.3058 70.6557C46.2119 70.952 46.1376 71.2564 46.077 71.5736C46.0194 71.8762 45.9766 72.1806 45.9493 72.4873C45.9231 72.7941 45.9041 73.1066 45.922 73.4069C45.9481 74.0145 46.0331 74.6245 46.1691 75.2287C46.3236 75.8206 46.5393 76.4009 46.7966 76.9662C46.9202 77.2525 47.0794 77.5169 47.2404 77.7829C47.4026 78.0478 47.5749 78.3063 47.7573 78.5579C47.6819 78.0519 47.6367 77.5273 47.6231 77.0022C47.613 76.7425 47.6284 76.4695 47.6433 76.2046C47.6599 75.9391 47.6837 75.6754 47.7163 75.4157C47.7478 75.156 47.7876 74.9016 47.8334 74.6518C47.8566 74.5275 47.8815 74.4049 47.9077 74.2841C47.935 74.1627 47.9695 74.0401 48.0027 73.921C48.1382 73.4447 48.298 73.0026 48.481 72.607C48.5315 73.0409 48.5428 73.5208 48.5494 74.0122C48.5624 74.4996 48.5512 75.0131 48.5197 75.5354C48.506 75.7956 48.4787 76.0617 48.4602 76.3214ZM53.9955 80.8699C54.0478 81.1121 54.0959 81.3602 54.1399 81.6152C54.188 81.8644 54.2362 82.1159 54.2783 82.3721C54.3615 82.8845 54.4275 83.4108 54.4726 83.9342C54.522 84.4535 54.5659 84.9554 54.576 85.4452C54.8618 84.9665 55.1066 84.4617 55.311 83.9412C55.516 83.4189 55.6735 82.8874 55.8089 82.3262C55.9396 81.7691 56.0294 81.2022 56.0775 80.6317C56.1018 80.3465 56.1143 80.0601 56.1161 79.7743C56.1256 79.4809 56.1238 79.1876 56.1108 78.8942C55.9842 76.4509 55.21 74.3794 53.9527 72.668C53.0847 73.4418 52.3574 74.3608 51.8423 75.4256C51.3134 76.4991 51.0556 77.6755 51.0568 78.9808C51.0556 79.1382 51.0639 79.2904 51.0776 79.442C51.09 79.5942 51.1073 79.7452 51.1281 79.8969C51.1691 80.1995 51.2255 80.501 51.2956 80.8013C51.4281 81.4072 51.6533 81.9748 51.9201 82.5319C52.0538 82.8096 52.1993 83.0837 52.3574 83.3515C52.5226 83.6124 52.7026 83.8645 52.891 84.1108C53.0793 84.3583 53.279 84.5988 53.4869 84.8306L53.645 85.0031L53.8137 85.1657C53.9266 85.2732 54.0419 85.3783 54.1601 85.4817C54.068 85.2447 53.9819 85.0013 53.9034 84.7539C53.8315 84.5006 53.7674 84.2409 53.7097 83.9813C53.5962 83.4608 53.5125 82.9344 53.4608 82.4192C53.3817 81.3666 53.4388 80.3569 53.6265 79.5187C53.7685 79.9317 53.8939 80.3854 53.9985 80.8699H53.9955ZM59.0109 78.4841C58.6639 78.9511 58.3585 79.4472 58.103 79.9712C57.9765 80.232 57.857 80.5051 57.7596 80.7758C57.6615 81.0476 57.5778 81.3247 57.5088 81.6088C57.2349 82.7404 57.1832 83.9911 57.4815 85.2383C58.0222 87.6468 59.6746 89.7555 61.857 91.0045C61.5848 90.5671 61.3317 90.1 61.1077 89.6196C60.9966 89.3773 60.8867 89.1421 60.797 88.8876C60.7049 88.6349 60.6211 88.3822 60.5456 88.1313C60.3953 87.6271 60.2789 87.1292 60.2016 86.65C60.1285 86.1643 60.1012 85.6891 60.1083 85.2558C60.5367 86.04 60.9705 86.9393 61.3317 87.9326C61.4214 88.1783 61.5123 88.4246 61.6027 88.6686C61.6906 88.9138 61.7744 89.1624 61.8528 89.411C62.0109 89.9054 62.1434 90.4102 62.2574 90.886C62.6163 89.838 62.807 88.7058 62.8255 87.5748C62.8308 87.2919 62.8255 87.009 62.8076 86.7255C62.7922 86.4414 62.7619 86.1643 62.7316 85.8721C62.6656 85.2947 62.5575 84.7225 62.406 84.1613C61.7827 81.7866 60.6027 79.905 59.0109 78.4818V78.4841ZM65.0601 90.1087C66.0916 92.3586 68.1581 94.0688 70.5508 94.867C69.8218 94.1548 69.1759 93.2334 68.6632 92.3278C68.5996 92.2145 68.5378 92.1001 68.4784 91.9868C68.4196 91.8712 68.3655 91.7515 68.312 91.6342C68.2063 91.3989 68.11 91.1648 68.0233 90.9348C67.8503 90.4741 67.7196 90.0251 67.6359 89.6027C68.2336 90.2481 68.8182 91.1067 69.3946 91.9682C69.6792 92.4056 69.9513 92.8709 70.2074 93.3275C70.4683 93.7743 70.7089 94.228 70.9192 94.6718C71.0529 93.5686 70.9965 92.4417 70.7766 91.3356C70.6709 90.7721 70.5235 90.2144 70.3364 89.6707C70.1498 89.1223 69.9157 88.6076 69.6596 88.068C68.5473 85.8872 67.0126 84.2624 65.1605 83.1877C64.6763 84.2357 64.3804 85.3644 64.3376 86.5448C64.3121 87.1408 64.3644 87.7241 64.4838 88.3189C64.605 88.9109 64.7904 89.5202 65.0601 90.1087ZM78.9874 92.6334C78.8567 92.3812 78.7153 92.1367 78.568 91.8811C78.2715 91.3786 77.9387 90.8947 77.5698 90.4398C77.1818 89.9763 76.7819 89.5098 76.3594 89.1153C76.1479 88.9161 75.9322 88.729 75.7106 88.5554C75.492 88.3735 75.2709 88.1946 75.044 88.0337C74.5912 87.7078 74.1164 87.4481 73.6393 87.1856C73.3987 87.0607 73.1539 86.9486 72.9049 86.8481C72.7802 86.7981 72.6536 86.7534 72.5282 86.7075C72.4035 86.6563 72.2781 86.6093 72.1515 86.5651C72.0226 87.1286 71.9442 87.7037 71.9222 88.2847C71.9026 88.8609 71.9424 89.4343 72.0458 90.0105C72.1492 90.5862 72.3179 91.1607 72.5562 91.7289C72.6732 92.017 72.8146 92.2848 72.9727 92.5549C73.1307 92.8239 73.3054 93.0894 73.4997 93.3514C73.6851 93.6017 73.8841 93.8428 74.0945 94.0746C74.3048 94.3046 74.5318 94.5079 74.7671 94.7107C75.0024 94.9111 75.2484 95.1022 75.5033 95.2817C75.7587 95.463 76.0214 95.6367 76.2976 95.7778C76.8467 96.07 77.4254 96.3216 78.0225 96.5272C78.6244 96.705 79.2447 96.8374 79.8692 96.9257C79.4402 96.6312 79.0177 96.3024 78.6161 95.9515C78.5157 95.8638 78.4159 95.7749 78.319 95.6837L78.1734 95.5478L78.032 95.4026C77.8449 95.2074 77.6648 95.0081 77.4925 94.8065C77.1479 94.404 76.8372 93.9921 76.5704 93.5843C76.4367 93.3839 76.3167 93.1649 76.2073 92.9587C76.0986 92.7501 76.0006 92.5445 75.9156 92.3435C76.0944 92.4771 76.2757 92.6223 76.4575 92.778C76.5484 92.8576 76.6405 92.9331 76.7338 93.0098C76.827 93.0876 76.9197 93.1672 77.013 93.2491C77.3867 93.5762 77.7611 93.9369 78.1306 94.3203C78.3137 94.5103 78.4979 94.7002 78.6809 94.8896C78.8621 95.0796 79.0409 95.2736 79.2144 95.4711C79.5614 95.8644 79.8912 96.2675 80.1895 96.6672C80.0902 95.5582 79.8003 94.4522 79.3546 93.4071C79.2423 93.1469 79.1211 92.8889 78.9904 92.6368L78.9874 92.6334ZM50.6266 20.0786C51.0003 19.6488 51.3919 19.216 51.8226 18.8308C52.0348 18.6356 52.2505 18.4457 52.4679 18.2633C52.6889 18.0844 52.9147 17.9171 53.1375 17.7567C53.3627 17.597 53.5826 17.4425 53.806 17.3065C54.0324 17.1717 54.2552 17.048 54.4738 16.9359C54.3312 17.1328 54.1779 17.3321 54.0145 17.5319C53.8523 17.7329 53.6872 17.9415 53.5101 18.1459C53.3342 18.3516 53.1482 18.5537 52.9599 18.7594C52.7745 18.9679 52.582 19.1742 52.3853 19.3775C51.9849 19.7783 51.5891 20.1925 51.1738 20.5724C50.967 20.7624 50.7609 20.9517 50.5589 21.1376C50.3539 21.3206 50.1489 21.4966 49.9427 21.6639C50.541 21.5396 51.1198 21.3665 51.6961 21.1673C51.986 21.0691 52.2712 20.9622 52.5529 20.8431C52.6931 20.7839 52.8321 20.7217 52.9712 20.6584C53.1126 20.5968 53.2528 20.5335 53.3918 20.4673C53.6693 20.3342 53.942 20.1913 54.2082 20.0368C54.478 19.8858 54.7477 19.7301 55.0092 19.5593C55.5261 19.2131 56.0502 18.8541 56.5356 18.4323C56.7952 18.2186 57.0472 18.0007 57.2848 17.7718C57.4043 17.6586 57.5195 17.5406 57.633 17.4244C57.7495 17.31 57.8636 17.1932 57.9735 17.0759C58.1951 16.8395 58.4031 16.592 58.6039 16.3428C58.8095 16.0988 59.0026 15.8449 59.1856 15.5853C59.2777 15.4557 59.3656 15.3227 59.4524 15.1908C59.5415 15.0613 59.6282 14.93 59.712 14.7964C59.8796 14.5303 60.0364 14.2579 60.1826 13.9785C60.4809 13.4289 60.7459 12.8655 60.9633 12.2776C60.3389 12.2143 59.6871 12.2032 59.0281 12.2625C58.7013 12.2962 58.371 12.3455 58.0394 12.4094C57.8731 12.4414 57.7067 12.4774 57.5403 12.5169C57.3752 12.5587 57.2118 12.6069 57.0472 12.6581C56.7192 12.7603 56.3894 12.8771 56.062 13.0095C55.7376 13.1466 55.4197 13.304 55.1013 13.4725C54.9426 13.5573 54.7846 13.6462 54.6277 13.7386C54.4726 13.8327 54.3211 13.9338 54.169 14.0372C53.8672 14.2445 53.5665 14.4641 53.2778 14.7011C52.7371 15.1693 52.2308 15.655 51.8078 16.1935C51.5933 16.4607 51.3895 16.7285 51.2053 17.005C51.0247 17.2862 50.8559 17.5703 50.702 17.8566C50.6248 17.9996 50.5517 18.1436 50.4822 18.2883C50.4157 18.4341 50.3527 18.5822 50.2933 18.7303C50.1738 19.026 50.0693 19.3223 49.9783 19.6191C49.8001 20.214 49.6955 20.821 49.6403 21.4095C49.7858 21.1888 49.9415 20.9663 50.1061 20.7432C50.2701 20.5201 50.4406 20.2947 50.629 20.081L50.6266 20.0786ZM120.798 22.5307C120.503 22.4226 120.204 22.3268 119.903 22.246C119.753 22.2059 119.601 22.1682 119.448 22.1362C119.292 22.106 119.137 22.0793 118.98 22.0566C117.676 21.8585 116.414 21.98 115.275 22.3244C114.122 22.68 113.089 23.2597 112.185 23.9957C112.566 24.3698 112.998 24.6928 113.436 25.0088C113.657 25.1639 113.892 25.3051 114.128 25.4451C114.361 25.5874 114.605 25.7193 114.857 25.8407C114.983 25.9017 115.115 25.958 115.241 26.0185C115.369 26.0777 115.499 26.1352 115.63 26.1892C115.895 26.2973 116.168 26.3966 116.451 26.4843C116.727 26.5785 117.011 26.6633 117.305 26.737C117.598 26.8114 117.907 26.8712 118.21 26.9311C118.791 27.0438 119.391 27.1042 119.976 27.1367C120.559 27.1692 121.146 27.1599 121.728 27.11C122.884 27.0153 124.009 26.7655 125.062 26.3403C124.566 26.2636 124.053 26.1608 123.54 26.037C123.017 25.9203 122.494 25.7843 121.987 25.6333C121.478 25.484 120.97 25.3283 120.503 25.1546C120.27 25.0669 120.035 24.9833 119.813 24.8944C119.591 24.8049 119.377 24.7131 119.175 24.6173C119.617 24.5824 120.096 24.5836 120.599 24.619C121.1 24.6568 121.613 24.741 122.139 24.852C122.67 24.9606 123.182 25.1198 123.694 25.3022C123.948 25.394 124.206 25.4892 124.446 25.5985C124.687 25.7065 124.924 25.8221 125.154 25.9418C124.973 25.6891 124.787 25.4387 124.584 25.204C124.377 24.9699 124.162 24.7439 123.939 24.5273C123.826 24.4186 123.714 24.3117 123.596 24.2095C123.477 24.1078 123.355 24.0102 123.232 23.9138C122.986 23.7215 122.732 23.5397 122.473 23.3701C122.208 23.2034 121.933 23.0523 121.656 22.9112C121.375 22.7723 121.098 22.6393 120.8 22.533L120.798 22.5307ZM125.505 31.9554C125.744 32.0245 125.989 32.1035 126.235 32.1912C126.358 32.2354 126.482 32.2813 126.605 32.3301C126.728 32.3794 126.847 32.4323 126.968 32.4869C127.451 32.7042 127.94 32.954 128.4 33.2345C128.854 33.518 129.294 33.8265 129.697 34.1518C129.196 33.019 128.498 31.9641 127.596 31.1038C127.371 30.8882 127.145 30.6797 126.899 30.4886C126.652 30.2975 126.397 30.1185 126.135 29.9506C126.005 29.867 125.872 29.7874 125.738 29.7096C125.603 29.6329 125.461 29.562 125.321 29.4941C125.038 29.357 124.749 29.2344 124.455 29.1246C123.213 28.6773 121.967 28.5379 120.768 28.6575C119.58 28.7702 118.437 29.1414 117.396 29.6852C118.63 31.4134 120.365 32.8169 122.685 33.744C123.247 33.9618 123.799 34.1495 124.371 34.2947C124.656 34.3673 124.944 34.4295 125.233 34.4818C125.517 34.5369 125.803 34.5811 126.091 34.616C127.24 34.7525 128.41 34.7263 129.518 34.5247C129.059 34.347 128.566 34.1489 128.085 33.927C127.845 33.8166 127.605 33.701 127.369 33.5825C127.128 33.4646 126.887 33.3455 126.652 33.2223C126.182 32.976 125.735 32.7158 125.299 32.459C124.866 32.2017 124.481 31.9298 124.113 31.669C124.334 31.6945 124.565 31.7294 124.797 31.777C125.028 31.8264 125.265 31.8868 125.505 31.9554ZM130.739 41.4068C130.943 41.5776 131.144 41.7554 131.339 41.9395C131.535 42.1237 131.724 42.3113 131.908 42.5047C132.091 42.697 132.253 42.8963 132.415 43.0967C132.306 42.4885 132.106 41.8977 131.882 41.3243C131.769 41.0368 131.625 40.7597 131.482 40.4872C131.334 40.2148 131.182 39.947 131.008 39.692C130.308 38.6684 129.416 37.7831 128.342 37.1301C127.78 36.788 127.212 36.5167 126.615 36.3227C126.021 36.1275 125.435 35.9985 124.835 35.9375C123.633 35.8167 122.45 35.9486 121.322 36.2727C122.147 38.2135 123.576 39.9197 125.647 41.2935C126.135 41.6223 126.649 41.9139 127.182 42.1695C127.704 42.4269 128.242 42.6476 128.794 42.8289C129.07 42.9195 129.349 43.0003 129.63 43.0711C129.907 43.1426 130.186 43.2036 130.467 43.2547C131.028 43.3563 131.598 43.4144 132.165 43.4255C131.955 43.2936 131.742 43.1536 131.532 43.0066C131.322 42.8573 131.109 42.7057 130.893 42.5529C130.461 42.2422 130.043 41.9116 129.639 41.5753C129.225 41.2412 128.833 40.8997 128.475 40.5587C128.107 40.2194 127.766 39.8819 127.477 39.5496C128.311 39.8285 129.24 40.3008 130.095 40.9206C130.312 41.0745 130.529 41.2372 130.739 41.4068ZM131.399 49.805C131.49 49.9021 131.58 50.0008 131.669 50.1013C131.754 50.2024 131.838 50.3046 131.921 50.4086C132.087 50.6172 132.248 50.8309 132.402 51.0499C132.555 51.2684 132.71 51.4914 132.841 51.7163C132.971 51.9411 133.096 52.1682 133.21 52.3959C133.254 49.9253 132.3 47.4465 130.475 45.7398C129.992 45.2931 129.483 44.9149 128.955 44.6041C128.413 44.2957 127.854 44.0523 127.285 43.8722C126.721 43.6915 126.132 43.5748 125.541 43.5155C124.952 43.4551 124.36 43.4522 123.773 43.4981C123.822 43.7566 123.891 44.0122 123.961 44.2666C124.027 44.5222 124.108 44.7749 124.201 45.0253C124.247 45.1508 124.299 45.2745 124.35 45.3994C124.398 45.5243 124.449 45.6475 124.503 45.7712C124.613 46.0175 124.735 46.2621 124.873 46.5043C125.002 46.7466 125.14 46.9876 125.293 47.2246C125.444 47.4622 125.62 47.6963 125.785 47.9293C125.955 48.1622 126.139 48.3911 126.337 48.6171C126.436 48.7304 126.539 48.8419 126.644 48.9534C126.746 49.065 126.85 49.1759 126.958 49.2857C127.164 49.496 127.38 49.6976 127.601 49.8916C127.824 50.0856 128.053 50.2721 128.279 50.451C128.737 50.8077 129.222 51.1313 129.726 51.4188C129.98 51.5629 130.233 51.6965 130.488 51.8226C130.744 51.9474 131.005 52.0625 131.269 52.1682C131.798 52.3785 132.343 52.5481 132.896 52.6707C132.538 52.3285 132.186 51.9544 131.841 51.5652C131.482 51.1743 131.134 50.7688 130.81 50.3587C130.145 49.539 129.56 48.7071 129.114 47.9415C129.496 48.1611 129.89 48.4329 130.278 48.7466C130.657 49.0615 131.034 49.4182 131.397 49.8068L131.399 49.805ZM129.958 57.5097C130.122 57.7031 130.266 57.903 130.412 58.1127C130.556 58.3224 130.696 58.5408 130.832 58.7662C130.967 58.991 131.098 59.2239 131.222 59.461C131.285 59.5795 131.344 59.6991 131.404 59.8205L131.492 60.003L131.57 60.1848C131.772 60.671 131.944 61.17 132.082 61.6615C132.146 61.36 132.199 61.0556 132.24 60.7488C132.28 60.4433 132.315 60.1377 132.311 59.8269C132.315 59.2083 132.272 58.5919 132.176 57.9901C132.053 57.3842 131.879 56.7911 131.653 56.2241C131.597 56.0818 131.537 55.9418 131.475 55.8035C131.405 55.6647 131.332 55.527 131.256 55.3917C131.104 55.121 130.939 54.8572 130.761 54.6028C130.037 53.5386 129.059 52.7201 128.028 52.1415C126.999 51.5617 125.842 51.2196 124.672 51.0761C124.679 51.6059 124.686 52.1345 124.767 52.6637C124.805 52.9286 124.861 53.1929 124.921 53.4578C124.972 53.7216 125.037 53.9853 125.116 54.249C125.194 54.5128 125.287 54.7765 125.393 55.0391L125.475 55.2366L125.553 55.4329C125.606 55.5636 125.662 55.6943 125.722 55.825C125.842 56.087 125.977 56.3473 126.124 56.6069C126.198 56.7371 126.276 56.8666 126.356 56.9967C126.438 57.1251 126.519 57.2541 126.601 57.3842C126.913 57.8745 127.264 58.3415 127.648 58.7825C127.84 59.002 128.041 59.2158 128.247 59.422C128.445 59.6265 128.652 59.824 128.866 60.014C129.721 60.7727 130.687 61.407 131.723 61.8683C131.439 61.461 131.163 61.0236 130.902 60.5728C130.771 60.348 130.644 60.1191 130.523 59.8891C130.398 59.6585 130.266 59.4244 130.145 59.1914C129.903 58.7238 129.683 58.2591 129.495 57.8071C129.406 57.5811 129.3 57.3563 129.215 57.1367C129.128 56.9172 129.05 56.7011 128.982 56.4925C129.312 56.783 129.642 57.1263 129.961 57.5108L129.958 57.5097ZM127.473 65.3903C127.594 65.5878 127.71 65.797 127.822 66.0148C128.045 66.4517 128.249 66.9268 128.428 67.4247C128.522 67.6751 128.588 67.9231 128.657 68.1799C128.724 68.4355 128.784 68.694 128.836 68.9536C128.937 69.473 129.025 70.0057 129.038 70.5064C129.104 70.3664 129.17 70.2264 129.227 70.0824C129.281 69.9371 129.334 69.7907 129.382 69.6443C129.479 69.351 129.566 69.0536 129.64 68.7544C129.8 68.1607 129.862 67.5391 129.885 66.9268C129.896 66.6201 129.893 66.3146 129.877 66.0107C129.851 65.704 129.806 65.3973 129.75 65.097C129.694 64.7955 129.622 64.4969 129.538 64.2035C129.495 64.0577 129.449 63.9113 129.4 63.7673C129.349 63.6232 129.287 63.478 129.225 63.3351C128.962 62.7379 128.647 62.193 128.289 61.7033C128.199 61.5807 128.107 61.4622 128.011 61.346C127.914 61.2293 127.81 61.116 127.706 61.0056C127.497 60.7854 127.279 60.5781 127.052 60.3852C126.145 59.6114 125.103 59.0532 123.991 58.6843C123.535 60.7396 123.674 62.9319 124.558 65.2195C125.002 66.3186 125.537 67.3271 126.232 68.2473C126.932 69.1692 127.722 69.9749 128.636 70.6319C128.281 69.7344 127.915 68.698 127.66 67.6983C127.628 67.574 127.598 67.4479 127.567 67.3242C127.534 67.1987 127.502 67.0727 127.47 66.9483C127.407 66.6985 127.351 66.4522 127.302 66.21C127.253 65.9689 127.211 65.7319 127.176 65.5007C127.142 65.2701 127.12 65.047 127.09 64.8263C127.157 64.914 127.223 65.0052 127.289 65.0993C127.352 65.1922 127.412 65.2881 127.473 65.3874L127.473 65.3903ZM124.723 77.7806C124.884 77.5151 125.043 77.2502 125.167 76.9644C125.423 76.3992 125.639 75.8194 125.794 75.2263C125.93 74.6233 126.015 74.0134 126.041 73.4052C126.059 73.1048 126.04 72.7906 126.014 72.485C125.987 72.1783 125.944 71.8727 125.886 71.5712C125.825 71.2552 125.751 70.9508 125.658 70.6534C125.556 70.3542 125.441 70.0649 125.312 69.7867C125.055 69.2307 124.744 68.7195 124.388 68.2536C124.299 68.1369 124.207 68.0236 124.113 67.9121C124.016 67.7994 123.916 67.6902 123.813 67.5839C123.608 67.3712 123.393 67.1691 123.169 66.9791C122.723 66.5975 122.241 66.2623 121.733 65.9689C121.623 66.2094 121.525 66.4546 121.44 66.7049C121.345 66.9512 121.255 67.2004 121.182 67.4561C121.107 67.7117 121.046 67.9736 120.998 68.2391C120.976 68.3739 120.948 68.5052 120.922 68.6376C120.897 68.7707 120.876 68.9048 120.857 69.0408C120.729 70.1341 120.724 71.275 120.935 72.4914C121.02 73.0636 121.15 73.6288 121.322 74.183C121.407 74.4589 121.505 74.7349 121.608 75.0015C121.706 75.2676 121.815 75.529 121.933 75.7869C122.407 76.8157 123.034 77.7765 123.794 78.6038C123.7 78.1193 123.626 77.6104 123.57 77.0951C123.543 76.8372 123.52 76.5775 123.502 76.319C123.484 76.0594 123.457 75.7927 123.444 75.5319C123.412 75.0096 123.402 74.4967 123.414 74.0093C123.421 73.5173 123.432 73.038 123.482 72.6035C123.665 72.9979 123.825 73.4406 123.961 73.9181C123.994 74.0366 124.027 74.1592 124.055 74.2812C124.082 74.4014 124.106 74.5246 124.129 74.6489C124.175 74.8975 124.215 75.1531 124.246 75.4128C124.277 75.6719 124.302 75.9356 124.32 76.2017C124.334 76.4666 124.35 76.739 124.339 76.9987C124.325 77.5244 124.28 78.0484 124.205 78.5544C124.387 78.3034 124.561 78.0443 124.723 77.7806ZM118.254 83.9813C118.196 84.2409 118.132 84.5006 118.06 84.7539C117.982 85.0013 117.895 85.2447 117.803 85.4817C117.921 85.3783 118.036 85.2732 118.15 85.1657L118.318 85.0031L118.477 84.8306C118.684 84.5976 118.884 84.3571 119.071 84.1108C119.26 83.8639 119.44 83.6112 119.605 83.3515C119.762 83.0826 119.908 82.8096 120.042 82.5319C120.309 81.9748 120.534 81.4084 120.667 80.8013C120.737 80.5016 120.794 80.2001 120.834 79.8969C120.856 79.7452 120.872 79.593 120.885 79.442C120.898 79.2904 120.907 79.1382 120.905 78.9808C120.907 77.6755 120.649 76.4991 120.12 75.4256C119.604 74.3619 118.878 73.4418 118.009 72.668C116.752 74.3794 115.978 76.4509 115.851 78.8942C115.839 79.1876 115.837 79.4809 115.846 79.7743C115.848 80.0601 115.861 80.3465 115.885 80.6317C115.932 81.2022 116.023 81.7703 116.154 82.3262C116.289 82.8874 116.447 83.4189 116.652 83.9412C116.856 84.4628 117.1 84.9665 117.386 85.4452C117.396 84.9543 117.44 84.4524 117.49 83.9342C117.535 83.4108 117.601 82.8845 117.684 82.3721C117.725 82.1159 117.774 81.8644 117.822 81.6152C117.866 81.3602 117.914 81.1121 117.967 80.8699C118.072 80.3866 118.197 79.9323 118.339 79.5187C118.525 80.3575 118.584 81.3666 118.504 82.4192C118.453 82.9344 118.368 83.4608 118.254 83.9813ZM110.108 89.4128C110.186 89.1647 110.27 88.9161 110.358 88.6709C110.448 88.4252 110.539 88.1801 110.629 87.9349C110.989 86.9416 111.424 86.0406 111.852 85.2581C111.859 85.6914 111.832 86.1666 111.759 86.6523C111.681 87.1304 111.565 87.6294 111.414 88.133C111.339 88.3846 111.256 88.6378 111.163 88.8894C111.073 89.1438 110.963 89.3791 110.853 89.6213C110.629 90.1006 110.376 90.5676 110.103 91.0062C112.286 89.7561 113.938 87.6485 114.479 85.2407C114.778 83.9934 114.726 82.7422 114.452 81.6105C114.383 81.3265 114.299 81.0488 114.2 80.7775C114.103 80.5068 113.984 80.2338 113.857 79.9735C113.601 79.449 113.295 78.9535 112.949 78.4864C111.357 79.9091 110.178 81.7906 109.553 84.1654C109.401 84.7266 109.294 85.2988 109.228 85.8762C109.197 86.1684 109.167 86.4455 109.152 86.7295C109.135 87.013 109.13 87.2959 109.134 87.5788C109.152 88.7099 109.343 89.8432 109.702 90.89C109.816 90.4154 109.948 89.9106 110.106 89.4151L110.108 89.4128ZM102.301 88.068C102.045 88.6076 101.81 89.1223 101.624 89.6707C101.437 90.2144 101.289 90.7715 101.184 91.3356C100.964 92.4417 100.908 93.5686 101.041 94.6718C101.252 94.2274 101.492 93.7743 101.752 93.3275C102.01 92.8709 102.281 92.4056 102.566 91.9682C103.142 91.1067 103.727 90.2481 104.324 89.6027C104.24 90.0251 104.109 90.4741 103.937 90.9348C103.852 91.166 103.755 91.3989 103.648 91.6342C103.595 91.7515 103.541 91.8712 103.482 91.9868C103.423 92.1001 103.361 92.2145 103.297 92.3278C102.785 93.2334 102.14 94.1548 101.41 94.867C103.802 94.0688 105.868 92.3586 106.9 90.1087C107.171 89.5202 107.356 88.9109 107.477 88.3189C107.595 87.7241 107.648 87.1408 107.623 86.5448C107.579 85.3644 107.284 84.2369 106.799 83.1877C104.948 84.2624 103.413 85.8872 102.301 88.068ZM93.2825 94.8855C93.4655 94.6962 93.6486 94.5062 93.8328 94.3163C94.2023 93.934 94.5767 93.5727 94.9504 93.245C95.0437 93.1631 95.1364 93.0836 95.2296 93.0057C95.3229 92.929 95.415 92.8535 95.5059 92.7739C95.6877 92.6182 95.869 92.473 96.0478 92.3394C95.9628 92.5404 95.866 92.746 95.7561 92.9546C95.6462 93.1608 95.5267 93.3798 95.393 93.5802C95.1263 93.988 94.8155 94.3999 94.4709 94.8025C94.2998 95.0041 94.1185 95.2033 93.9314 95.3985L93.79 95.5437L93.6444 95.6796C93.5476 95.7697 93.4477 95.8597 93.3473 95.9474C92.9457 96.2989 92.5232 96.6271 92.0942 96.9216C92.7199 96.8345 93.339 96.7009 93.9409 96.5231C94.538 96.3175 95.1179 96.0671 95.6658 95.7738C95.9409 95.6326 96.2047 95.4589 96.459 95.2777C96.7145 95.097 96.9599 94.907 97.1957 94.7066C97.4298 94.5039 97.6568 94.3006 97.8684 94.0705C98.0787 93.8387 98.2759 93.5977 98.4625 93.3473C98.6562 93.0853 98.8315 92.8198 98.9895 92.5509C99.1476 92.2819 99.2878 92.0129 99.4061 91.7248C99.6443 91.1578 99.8131 90.5822 99.9165 90.0065C100.02 89.4302 100.061 88.8568 100.041 88.2806C100.019 87.6985 99.9408 87.1246 99.8119 86.5611C99.6853 86.6052 99.5599 86.6529 99.4352 86.7034C99.3086 86.7493 99.1832 86.794 99.0585 86.844C98.8095 86.9445 98.5641 87.0566 98.3241 87.1815C97.847 87.4441 97.371 87.7037 96.9195 88.0296C96.6925 88.1905 96.4715 88.3695 96.2528 88.5513C96.0324 88.725 95.8155 88.912 95.604 89.1113C95.1815 89.5069 94.7816 89.9722 94.3936 90.4358C94.0247 90.8906 93.6925 91.3745 93.3954 91.877C93.2481 92.1326 93.1067 92.3772 92.976 92.6293C92.8452 92.882 92.724 93.1393 92.6123 93.4002C92.1661 94.4446 91.8767 95.5495 91.7769 96.6597C92.0752 96.26 92.405 95.8574 92.752 95.4641C92.926 95.2678 93.1049 95.0726 93.2855 94.8821L93.2825 94.8855ZM123.058 18.9064C123.085 19.0702 123.114 19.2334 123.147 19.3937C123.211 19.7167 123.287 20.0339 123.374 20.3459C123.463 20.6543 123.55 20.9709 123.653 21.2759C123.755 21.5815 123.869 21.88 123.989 22.1751C124.104 22.4749 124.23 22.7683 124.366 23.0552C124.434 23.1981 124.506 23.3405 124.577 23.4816C124.649 23.6234 124.719 23.7657 124.794 23.9057C124.943 24.1857 125.101 24.4599 125.269 24.7265C125.435 24.9955 125.601 25.265 125.782 25.5235C125.749 25.2685 125.721 25.0053 125.699 24.7375C125.678 24.468 125.65 24.2019 125.634 23.9272C125.596 23.3811 125.589 22.8141 125.579 22.2663C125.571 21.7162 125.592 21.162 125.622 20.6392C125.65 20.1176 125.702 19.6156 125.781 19.155C125.868 19.3978 125.948 19.6505 126.021 19.909C126.095 20.1675 126.163 20.4312 126.213 20.7066C126.317 21.2544 126.396 21.8127 126.431 22.3756C126.461 22.9419 126.46 23.5031 126.426 24.0405C126.383 24.5853 126.307 25.1087 126.202 25.5915C126.992 24.7991 127.634 23.8319 128.045 22.7096C128.246 22.1519 128.391 21.553 128.474 20.9151C128.555 20.279 128.557 19.618 128.496 18.9168C128.233 15.9971 126.58 13.1333 124.204 11.089C123.592 12.0917 123.187 13.2448 122.992 14.4752C122.784 15.7183 122.789 17.037 122.979 18.4161C123.003 18.5793 123.03 18.7431 123.059 18.9034L123.058 18.9064ZM130.585 32.2749C130.666 31.7311 130.757 31.1833 130.874 30.6384C130.933 30.3677 130.993 30.0988 131.051 29.8333C131.113 29.5696 131.179 29.3087 131.251 29.0555C131.322 28.8016 131.396 28.5536 131.476 28.3142C131.555 28.076 131.632 27.8489 131.717 27.6316C131.798 28.1365 131.817 28.686 131.816 29.2384C131.817 29.7892 131.762 30.3596 131.68 30.9167C131.639 31.1955 131.593 31.4709 131.534 31.7433C131.472 32.0175 131.403 32.2865 131.327 32.5479C131.174 33.0725 131.003 33.5628 130.79 34.0188C131.739 33.3966 132.556 32.5839 133.192 31.5644C133.351 31.31 133.499 31.0422 133.635 30.7622C133.764 30.4845 133.882 30.1952 133.986 29.8926C134.192 29.2884 134.353 28.6302 134.423 27.939C134.463 27.5765 134.485 27.2082 134.491 26.837C134.494 26.4675 134.467 26.1004 134.432 25.728C134.392 25.358 134.345 24.9809 134.265 24.6138C134.186 24.2461 134.091 23.8784 133.981 23.5124C133.874 23.1441 133.738 22.7874 133.591 22.4319C133.441 22.077 133.284 21.7226 133.103 21.3799C132.734 20.7002 132.326 20.031 131.841 19.4193C131.036 20.279 130.412 21.3206 129.952 22.4964C129.504 23.6658 129.221 24.9664 129.128 26.3507C128.947 29.0061 129.431 31.5452 130.401 33.8643C130.438 33.3536 130.5 32.8186 130.587 32.2731L130.585 32.2749ZM133.494 35.3473C133.132 36.6265 132.927 37.9173 132.887 39.1889C132.879 39.5066 132.867 39.8267 132.874 40.1427C132.877 40.4593 132.905 40.7719 132.921 41.0879C132.957 41.7188 133.059 42.338 133.162 42.9573C133.235 42.711 133.325 42.4577 133.408 42.2044C133.491 41.9505 133.581 41.6944 133.679 41.4364C133.776 41.1791 133.879 40.9194 133.987 40.6609C134.09 40.403 134.195 40.1468 134.306 39.8918C134.761 38.8729 135.242 37.9022 135.765 37.1162C135.723 37.6309 135.647 38.1676 135.527 38.7085C135.398 39.2522 135.236 39.7971 135.044 40.3246C134.842 40.8549 134.606 41.3702 134.353 41.8506C134.29 41.9709 134.227 42.0888 134.16 42.205C134.091 42.3217 134.021 42.4362 133.95 42.5477C133.81 42.7702 133.664 42.984 133.517 43.1844C134.043 42.9747 134.55 42.7121 135.034 42.392C135.275 42.2329 135.511 42.058 135.738 41.8698C135.962 41.6816 136.177 41.4794 136.384 41.2627C136.798 40.8294 137.18 40.3356 137.516 39.7837C137.842 39.2336 138.122 38.6254 138.353 37.9579C138.579 37.2649 138.738 36.5376 138.823 35.794C138.859 35.424 138.88 35.0493 138.886 34.6711C138.887 34.4818 138.887 34.2918 138.88 34.1018C138.87 33.9125 138.856 33.7237 138.839 33.5343C138.803 33.155 138.753 32.775 138.687 32.3945C138.615 32.0175 138.524 31.6423 138.42 31.2693C138.369 31.0834 138.313 30.897 138.255 30.7122C138.195 30.5269 138.126 30.3462 138.057 30.1656C137.917 29.8037 137.764 29.4447 137.6 29.0932C136.63 29.7758 135.79 30.6774 135.11 31.7323C134.769 32.2598 134.452 32.8331 134.186 33.4344C133.925 34.0339 133.683 34.6758 133.494 35.3444V35.3473ZM136.97 43.2936C136.574 43.8315 136.211 44.4101 135.89 45.0253C134.641 47.3873 134.043 49.905 133.971 52.4081C134.096 52.1816 134.231 51.9515 134.373 51.7192C134.517 51.4874 134.65 51.2544 134.799 51.0209C134.947 50.788 135.1 50.5538 135.258 50.3232C135.419 50.0932 135.578 49.8631 135.736 49.6343C136.057 49.1812 136.392 48.7408 136.735 48.3307C137.067 47.9212 137.402 47.5418 137.738 47.2095C137.462 48.2 136.966 49.248 136.364 50.2047C136.056 50.684 135.723 51.1406 135.378 51.5606C135.019 51.9811 134.643 52.3651 134.271 52.7003C134.829 52.5992 135.382 52.4418 135.921 52.224C136.19 52.1159 136.456 51.991 136.719 51.8522C136.982 51.7122 137.241 51.5577 137.485 51.3863C137.978 51.0436 138.451 50.6369 138.895 50.1646C139.12 49.9282 139.327 49.6749 139.525 49.406C139.723 49.1364 139.913 48.85 140.094 48.5474C140.188 48.3894 140.279 48.2279 140.366 48.0641C140.449 47.9008 140.527 47.7341 140.602 47.5651C140.752 47.2281 140.888 46.8813 141.009 46.5258C141.134 46.1703 141.222 45.809 141.304 45.4401C141.385 45.0724 141.454 44.6971 141.502 44.3189C141.544 43.9419 141.57 43.5597 141.584 43.1763C141.59 42.984 141.593 42.7917 141.592 42.5988C141.589 42.4066 141.577 42.2143 141.564 42.0214C141.538 41.6357 141.497 41.2505 141.442 40.8671C141.384 40.4837 141.301 40.1044 141.211 39.7286C140.666 39.9656 140.142 40.2618 139.644 40.6115C139.147 40.9613 138.676 41.3627 138.223 41.8129C137.772 42.2625 137.354 42.758 136.97 43.2936ZM139.164 52.2855C138.088 52.9867 137.131 53.89 136.211 54.9676C135.997 55.225 135.794 55.4881 135.603 55.7559C135.507 55.8895 135.414 56.0237 135.325 56.1596C135.229 56.2944 135.136 56.4303 135.046 56.5686C134.685 57.117 134.371 57.6816 134.104 58.2579C133.81 58.8313 133.561 59.4168 133.36 60.0152C133.265 60.3143 133.155 60.6117 133.063 60.9132C132.971 61.2147 132.891 61.5186 132.822 61.8241C133.154 61.4274 133.525 61.0259 133.92 60.6292L134.07 60.481L134.213 60.3318L134.507 60.0355C134.705 59.838 134.908 59.644 135.114 59.454C135.32 59.2635 135.529 59.0776 135.739 58.8969C135.95 58.7157 136.165 58.542 136.365 58.3735C136.772 58.0372 137.179 57.7304 137.575 57.4719C137.455 57.7008 137.322 57.9308 137.182 58.1597C137.037 58.3886 136.895 58.6186 136.719 58.8417C136.378 59.2902 136.004 59.7264 135.613 60.1366C135.415 60.341 135.22 60.5415 135.009 60.7303C134.796 60.9196 134.58 61.0997 134.362 61.2711C133.927 61.6138 133.488 61.9171 133.058 62.1727C134.19 62.1953 135.341 61.992 136.467 61.5174C136.748 61.3989 137.028 61.2641 137.305 61.1119C137.575 60.9586 137.839 60.7866 138.101 60.5978C138.624 60.2196 139.132 59.7694 139.616 59.2472C139.679 59.1786 139.742 59.1101 139.803 59.0398L139.976 58.826C140.091 58.682 140.202 58.535 140.309 58.3834C140.525 58.0819 140.729 57.7693 140.919 57.444C141.014 57.282 141.107 57.117 141.196 56.9508C141.24 56.8666 141.284 56.783 141.326 56.6982L141.442 56.4414C141.592 56.0969 141.729 55.7431 141.853 55.3824C141.976 55.0216 142.087 54.6539 142.184 54.2816C142.272 53.9086 142.336 53.5304 142.391 53.1505C142.497 52.3878 142.567 51.614 142.527 50.8431C141.362 51.0906 140.24 51.5885 139.164 52.2884V52.2855ZM137.051 63.1306C136.906 63.2032 136.764 63.2805 136.619 63.3595C136.472 63.4379 136.325 63.5198 136.18 63.6046C135.597 63.945 135.03 64.3354 134.488 64.7769C134.357 64.8826 134.233 64.9907 134.103 65.0981C133.972 65.2056 133.845 65.3148 133.72 65.4252C133.47 65.6471 133.231 65.8748 133.002 66.1089C132.773 66.343 132.557 66.5841 132.347 66.8298C132.127 67.0721 131.918 67.319 131.719 67.5728C131.321 68.0788 130.978 68.6121 130.63 69.1459C130.461 69.4149 130.303 69.6897 130.156 69.9685C130.083 70.1085 130.012 70.2485 129.944 70.3908C129.873 70.532 129.798 70.6708 129.729 70.812C130.157 70.4989 130.58 70.1701 131.044 69.8581C131.274 69.7019 131.511 69.5473 131.751 69.3963C131.99 69.2441 132.242 69.1 132.476 68.9513C132.95 68.658 133.434 68.3832 133.912 68.138C134.151 68.0155 134.388 67.8999 134.622 67.7936C134.738 67.7401 134.855 67.6902 134.969 67.6414C135.082 67.592 135.192 67.5449 135.302 67.5014C135.144 67.7035 134.956 67.8987 134.763 68.0939C134.571 68.2879 134.369 68.4796 134.16 68.6667C133.95 68.8537 133.734 69.0361 133.513 69.2133C133.4 69.301 133.292 69.3893 133.173 69.473C133.055 69.5555 132.936 69.6374 132.816 69.717C131.851 70.3548 130.86 70.8811 129.883 71.196C130.989 71.4463 132.18 71.4864 133.359 71.239C134.542 70.9938 135.78 70.4867 136.911 69.6438C137.507 69.2052 138.086 68.7073 138.572 68.1398C138.822 67.8586 139.06 67.5635 139.288 67.258C139.514 66.9512 139.739 66.6364 139.924 66.3041C140.304 65.6419 140.646 64.9436 140.922 64.2192C141.177 63.489 141.381 62.7367 141.53 61.9763C140.335 61.9885 139.111 62.2522 137.93 62.7309C137.635 62.8506 137.341 62.9842 137.051 63.1306ZM135.485 72.5936C135.329 72.6087 135.174 72.6285 135.019 72.6506C134.861 72.6721 134.702 72.6965 134.543 72.7255C133.906 72.8376 133.268 73.0055 132.637 73.2262C132.321 73.3366 132.006 73.4604 131.693 73.5975C131.374 73.7311 131.05 73.8751 130.735 74.0349C130.431 74.1871 130.136 74.3474 129.851 74.517C129.564 74.6861 129.294 74.8685 129.011 75.0468C128.454 75.4076 127.934 75.802 127.453 76.2261C126.952 76.6391 126.481 77.0765 126.053 77.5459C125.844 77.7841 125.62 78.0118 125.413 78.2529C125.207 78.4934 125.009 78.7408 124.82 78.9941C125.287 78.76 125.79 78.5364 126.314 78.3267C126.58 78.2244 126.832 78.1129 127.097 78.0106C127.359 77.9078 127.626 77.8096 127.891 77.7155C128.158 77.6214 128.426 77.5325 128.693 77.4495C128.959 77.3699 129.222 77.2903 129.478 77.2136C129.99 77.0643 130.489 76.9435 130.959 76.861C130.546 77.184 130.101 77.5 129.612 77.7806C129.116 78.0577 128.595 78.3121 128.068 78.5352C127.803 78.6456 127.543 78.753 127.271 78.8431C126.997 78.9325 126.725 79.0133 126.457 79.0853C125.919 79.2294 125.393 79.3363 124.895 79.4031C125.923 79.8661 127.06 80.1275 128.284 80.1327C128.59 80.1339 128.902 80.1193 129.218 80.088C129.53 80.0543 129.841 79.9991 130.159 79.9282C130.793 79.7865 131.442 79.5727 132.1 79.2834C133.442 78.6589 134.703 77.751 135.734 76.6124C135.866 76.4712 135.995 76.3272 136.122 76.1814C136.248 76.035 136.373 75.8857 136.486 75.7294C136.716 75.4186 136.934 75.0985 137.143 74.7709C137.35 74.4415 137.549 74.1063 137.731 73.7618C137.902 73.4133 138.06 73.0578 138.206 72.6976C137.622 72.5843 137.019 72.5332 136.406 72.5385C136.1 72.5414 135.791 72.5588 135.481 72.5902L135.485 72.5936ZM125.141 82.3518C122.512 83.0663 120.229 84.3647 118.314 86.0307C118.569 85.9651 118.834 85.9041 119.104 85.8477C119.369 85.785 119.638 85.724 119.911 85.67C120.46 85.5596 121.027 85.4672 121.594 85.3946C122.704 85.2285 123.814 85.1349 124.776 85.1669C124.304 85.3987 123.788 85.6066 123.253 85.7885C122.986 85.8791 122.715 85.9633 122.439 86.04C122.16 86.1115 121.875 86.1719 121.59 86.2259C121.022 86.3339 120.453 86.41 119.904 86.4519C119.351 86.4896 118.803 86.4792 118.298 86.4437C118.756 86.7737 119.251 87.0601 119.782 87.2959C120.312 87.5312 120.886 87.7223 121.475 87.8356C122.068 87.9535 122.693 88.0116 123.349 88.0035C123.677 87.9994 124.013 87.9791 124.355 87.9408C124.69 87.896 125.031 87.8339 125.378 87.7519C125.741 87.6671 126.102 87.5649 126.461 87.4441C126.64 87.3837 126.819 87.3203 126.996 87.2518C127.175 87.1838 127.343 87.1036 127.514 87.0241C128.197 86.6993 128.87 86.3177 129.501 85.8704C130.119 85.412 130.71 84.902 131.265 84.3501C131.795 83.782 132.289 83.1715 132.735 82.5336C131.634 82.077 130.407 81.8418 129.129 81.8185C127.864 81.8063 126.49 81.9632 125.141 82.3518ZM122.875 89.9025C122.574 89.8072 122.267 89.7236 121.953 89.6533C120.694 89.3657 119.36 89.2954 117.929 89.3779C115.213 89.565 112.717 90.3992 110.49 91.6429C111.011 91.6063 111.562 91.5929 112.127 91.6011C112.407 91.6034 112.698 91.6197 112.979 91.6226C113.26 91.629 113.544 91.6388 113.825 91.6557C114.389 91.687 114.95 91.7393 115.487 91.8119C116.02 91.877 116.523 91.9537 116.988 92.06C115.988 92.3586 114.799 92.4713 113.657 92.4811C113.374 92.4864 113.081 92.4678 112.796 92.4463C112.51 92.4242 112.227 92.3946 111.952 92.3574C111.4 92.2819 110.879 92.1849 110.391 92.0466C111.151 92.8767 112.084 93.5506 113.204 94.027C113.484 94.1455 113.775 94.2518 114.078 94.3436C114.379 94.4348 114.696 94.5184 115.012 94.5719C115.651 94.684 116.33 94.7374 117.049 94.7241C117.238 94.7206 117.426 94.7124 117.615 94.6997C117.803 94.6863 117.987 94.6613 118.174 94.6357C118.545 94.5841 118.918 94.5132 119.291 94.4272C119.662 94.3407 120.035 94.2402 120.4 94.1176C120.76 93.9892 121.118 93.8451 121.472 93.6865C121.826 93.528 122.176 93.3554 122.521 93.169C122.863 92.9802 123.187 92.7646 123.511 92.5445C123.834 92.3231 124.15 92.0896 124.457 91.8456C124.534 91.7841 124.611 91.7231 124.686 91.6603L124.903 91.4646C125.047 91.3327 125.189 91.1973 125.328 91.0608C124.838 90.7303 124.306 90.4485 123.744 90.2162C123.462 90.0988 123.175 89.9983 122.875 89.9025ZM111.447 95.2463C110.795 95.0645 110.124 94.9384 109.418 94.8455C106.717 94.4888 104.089 94.7845 101.654 95.5681C102.704 95.7401 103.822 95.9504 104.922 96.2582C105.194 96.3361 105.465 96.4128 105.732 96.4871C105.997 96.5638 106.257 96.6445 106.512 96.7282C107.02 96.8978 107.502 97.0843 107.937 97.2835C106.878 97.3393 105.718 97.2783 104.582 97.0216C104.016 96.9002 103.467 96.7567 102.943 96.5772C102.416 96.3872 101.921 96.1734 101.473 95.9434C102.041 96.9019 102.821 97.7669 103.821 98.4611C104.317 98.798 104.867 99.0925 105.472 99.3377C106.076 99.5799 106.741 99.7908 107.439 99.8988C108.172 100.021 108.933 100.079 109.699 100.061C110.457 100.027 111.226 99.9267 111.992 99.7669C112.184 99.7303 112.371 99.6781 112.559 99.6252C112.746 99.5718 112.934 99.5148 113.119 99.4544C113.492 99.3336 113.863 99.1977 114.228 99.0507C114.597 98.9084 114.947 98.7289 115.294 98.5435C115.641 98.3588 115.982 98.1601 116.316 97.9528C115.491 97.1087 114.462 96.4197 113.3 95.9068C112.722 95.6558 112.096 95.4252 111.447 95.2463ZM103.514 100.307C102.995 99.9337 102.436 99.5967 101.84 99.3011C101.544 99.157 101.233 99.0054 100.915 98.8689C100.597 98.7318 100.269 98.6051 99.9343 98.4895C99.614 98.3792 99.2932 98.2821 98.9717 98.1962C98.6497 98.1084 98.3235 98.0172 98.0003 97.9458C97.6758 97.8732 97.3514 97.8128 97.027 97.764C96.7026 97.7146 96.3805 97.6832 96.0537 97.6391C95.4031 97.5624 94.7555 97.5351 94.1132 97.5514C93.4656 97.5409 92.8233 97.5758 92.1875 97.6577C92.6801 97.8279 93.1905 98.0323 93.7056 98.2606C93.8339 98.3187 93.9629 98.378 94.0912 98.4361L94.2849 98.5273L94.4762 98.6133C94.7317 98.7289 94.9872 98.8491 95.2392 98.974C95.7436 99.2232 96.2362 99.4904 96.6996 99.7664C96.9319 99.9081 97.1536 100.033 97.3669 100.17C97.5802 100.305 97.7834 100.442 97.9747 100.58C97.7144 100.546 97.4489 100.503 97.1797 100.45C97.046 100.426 96.91 100.393 96.7739 100.356C96.6378 100.32 96.5018 100.281 96.3645 100.242C95.8185 100.08 95.2736 99.8855 94.7472 99.6647C94.4846 99.5584 94.2243 99.4289 93.9724 99.2958C93.7187 99.164 93.4733 99.0263 93.2356 98.884C92.7609 98.6011 92.3224 98.3001 91.932 97.9928C92.2879 99.0414 92.8672 100.031 93.6991 100.904C93.907 101.123 94.1298 101.333 94.3699 101.536C94.6093 101.739 94.8642 101.938 95.1334 102.11C95.6723 102.462 96.2748 102.776 96.9391 103.044C97.6372 103.337 98.3621 103.512 99.1155 103.647C99.4916 103.712 99.8737 103.762 100.261 103.797C100.646 103.824 101.032 103.826 101.422 103.819C102.2 103.8 102.994 103.737 103.764 103.567C104.15 103.487 104.536 103.395 104.918 103.288C105.108 103.236 105.298 103.18 105.487 103.119C105.673 103.053 105.858 102.983 106.041 102.91C105.726 102.416 105.354 101.952 104.932 101.522C104.508 101.087 104.032 100.675 103.515 100.303L103.514 100.307ZM112.253 14.7935C112.337 14.9259 112.424 15.0578 112.513 15.1879C112.6 15.3198 112.689 15.4528 112.78 15.5824C112.963 15.842 113.156 16.0947 113.361 16.3399C113.563 16.5891 113.771 16.8366 113.992 17.0724C114.103 17.1915 114.216 17.3077 114.332 17.4215C114.447 17.5377 114.562 17.6551 114.68 17.7689C114.918 17.9978 115.169 18.2157 115.43 18.4288C115.915 18.8512 116.439 19.2102 116.956 19.5564C117.217 19.7272 117.488 19.8829 117.758 20.0339C118.024 20.1884 118.296 20.3313 118.573 20.4644C118.713 20.5306 118.853 20.5939 118.994 20.6555C119.133 20.7188 119.271 20.781 119.412 20.8402C119.694 20.9587 119.98 21.0662 120.27 21.1644C120.846 21.3624 121.424 21.5356 122.023 21.661C121.817 21.4943 121.611 21.3189 121.407 21.1347C121.205 20.9488 120.999 20.7606 120.791 20.5707C120.375 20.1902 119.981 19.7766 119.58 19.3757C119.382 19.1724 119.191 18.9656 119.006 18.7571C118.818 18.552 118.63 18.3493 118.455 18.1442C118.277 17.9397 118.112 17.7312 117.95 17.5296C117.787 17.3303 117.633 17.1311 117.491 16.9336C117.709 17.0463 117.932 17.17 118.157 17.3036C118.381 17.4396 118.602 17.5941 118.826 17.7532C119.049 17.9142 119.274 18.0815 119.496 18.2604C119.712 18.4434 119.929 18.6327 120.141 18.8279C120.572 19.2131 120.963 19.6453 121.337 20.0757C121.526 20.2895 121.696 20.5155 121.86 20.738C122.024 20.961 122.18 21.1835 122.326 21.4043C122.27 20.817 122.165 20.2099 121.987 19.6139C121.897 19.3171 121.792 19.0208 121.673 18.7257C121.613 18.5781 121.55 18.4288 121.483 18.283C121.413 18.139 121.34 17.9949 121.263 17.8514C121.109 17.5656 120.942 17.2804 120.76 17.0004C120.575 16.7233 120.371 16.4543 120.157 16.1883C119.735 15.6498 119.228 15.1653 118.687 14.6965C118.399 14.4583 118.099 14.2393 117.796 14.0319C117.645 13.9285 117.493 13.8274 117.338 13.7333C117.181 13.6416 117.023 13.5527 116.864 13.4679C116.546 13.2988 116.228 13.1408 115.904 13.0043C115.576 12.873 115.247 12.7551 114.918 12.6528C114.754 12.6017 114.589 12.5541 114.425 12.5117C114.259 12.4722 114.092 12.4362 113.926 12.4048C113.595 12.3403 113.264 12.2909 112.938 12.2572C112.279 12.198 111.627 12.2084 111.002 12.2729C111.22 12.8602 111.483 13.4237 111.783 13.9738C111.929 14.2527 112.086 14.5257 112.253 14.7912V14.7935ZM69.0108 11.5845L70.8147 9.87782L73.2763 10.3611L72.1711 8.15774L73.4028 6.01941L70.9169 6.36447L69.2157 4.55958L68.7838 6.97617L66.501 7.99799L68.7196 9.14587L69.0108 11.5845ZM87.5696 3.14796L85.982 0.00522813L84.395 3.14796L80.8454 3.65219L83.414 6.09783L82.8068 9.55193L85.982 7.92015L89.1572 9.55193L88.5506 6.09783L91.1192 3.65219L87.5696 3.14796ZM98.6895 10.3623L101.151 9.87898L102.955 11.5857L103.244 9.14878L105.464 8.0009L103.181 6.97907L102.749 4.56248L101.048 6.36795L98.5617 6.02231L99.7934 8.16065L98.6895 10.3623Z" fill="#F39406"/>
<path d="M66.2631 48.8803C65.3326 48.8803 64.4984 48.7334 63.7604 48.4388C63.0237 48.1432 62.4348 47.7063 61.9946 47.1283C61.5537 46.5491 61.3208 45.8515 61.2958 45.0347H64.5946C64.6434 45.4965 64.8068 45.848 65.0843 46.0896C65.3629 46.3313 65.7259 46.4521 66.1728 46.4521C66.6321 46.4521 66.9939 46.3493 67.2589 46.1431C67.5251 45.9374 67.6582 45.6505 67.6582 45.2833C67.6582 44.9766 67.5518 44.7228 67.3397 44.5212C67.1288 44.3202 66.8691 44.1552 66.5602 44.0262C66.2524 43.8961 65.8151 43.7486 65.2482 43.5824C64.4259 43.3349 63.7545 43.0869 63.2352 42.8389C62.7153 42.5896 62.2685 42.2231 61.8947 41.7398C61.5204 41.2553 61.3339 40.6233 61.3339 39.8437C61.3339 38.6853 61.7622 37.7779 62.6196 37.1227C63.4782 36.4674 64.5958 36.1398 65.9731 36.1398C67.3754 36.1398 68.5049 36.4674 69.3623 37.1227C70.2208 37.7779 70.6801 38.6906 70.7407 39.8599H67.3872C67.3635 39.4591 67.212 39.1431 66.9333 38.9119C66.6558 38.6813 66.2993 38.5657 65.8638 38.5657C65.4895 38.5657 65.1876 38.6633 64.9583 38.8584C64.7283 39.0536 64.6137 39.3348 64.6137 39.7019C64.6137 40.1033 64.8068 40.4165 65.1936 40.6407C65.5798 40.8655 66.1846 41.1077 67.007 41.368C67.8275 41.6393 68.4948 41.8989 69.0081 42.1464C69.5227 42.3945 69.9671 42.7546 70.3415 43.2269C70.717 43.6998 70.9047 44.3086 70.9047 45.0533C70.9047 45.7632 70.7199 46.4074 70.351 46.9866C69.9814 47.5646 69.4466 48.0247 68.7467 48.3668C68.0462 48.7095 67.2185 48.8803 66.2631 48.8803Z" fill="#F39406"/>
<path d="M74.3662 37.8407C73.8226 37.8407 73.3781 37.6844 73.0329 37.3713C72.6889 37.0588 72.5172 36.6713 72.5172 36.2095C72.5172 35.7372 72.6889 35.3445 73.0329 35.0314C73.3781 34.7189 73.8226 34.562 74.3662 34.562C74.8968 34.562 75.3341 34.7189 75.6781 35.0314C76.0234 35.3445 76.1963 35.7372 76.1963 36.2095C76.1963 36.6713 76.0234 37.0588 75.6781 37.3713C75.3341 37.6844 74.8968 37.8407 74.3662 37.8407ZM75.9063 38.8677V48.7572H72.8071V38.8677H75.9063Z" fill="#F39406"/>
<path d="M84.3171 38.7609C85.5007 38.7609 86.4454 39.1367 87.1525 39.8878C87.8607 40.6378 88.2149 41.6689 88.2149 42.9806V48.7572H85.1323V43.3872C85.1323 42.7262 84.957 42.2126 84.6071 41.8467C84.2565 41.4795 83.7853 41.296 83.193 41.296C82.6 41.296 82.1288 41.4795 81.7788 41.8467C81.4283 42.2126 81.2536 42.7262 81.2536 43.3872V48.7572H78.1544V38.8677H81.2536V40.1806C81.5673 39.7426 81.9903 39.3964 82.5227 39.1419C83.0551 38.8881 83.6528 38.7609 84.3171 38.7609Z" fill="#F39406"/>
<path d="M89.756 43.8125C89.756 42.7854 89.9699 41.8879 90.3977 41.1194C90.8267 40.3514 91.425 39.76 92.1921 39.3464C92.9603 38.9328 93.8397 38.726 94.8302 38.726C96.0993 38.726 97.1593 39.0513 98.0102 39.7019C98.8622 40.3514 99.4219 41.2669 99.6881 42.4485H96.3893C96.1118 41.6927 95.5741 41.3145 94.7755 41.3145C94.2081 41.3145 93.7547 41.5301 93.4161 41.9605C93.0786 42.3916 92.9098 43.0085 92.9098 43.8125C92.9098 44.6164 93.0786 45.234 93.4161 45.6644C93.7547 46.0954 94.2081 46.3104 94.7755 46.3104C95.5741 46.3104 96.1118 45.9328 96.3893 45.1764H99.6881C99.4219 46.3354 98.8592 47.2456 98.0007 47.9067C97.1433 48.5684 96.0862 48.8989 94.8302 48.8989C93.8397 48.8989 92.9603 48.6921 92.1921 48.2785C91.425 47.8649 90.8267 47.2747 90.3977 46.5079C89.9699 45.7399 89.756 44.8413 89.756 43.8125Z" fill="#F39406"/>
<path d="M110.873 43.6521C110.873 43.9356 110.855 44.2319 110.819 44.5398H103.803C103.851 45.1532 104.054 45.6226 104.411 45.9479C104.768 46.2732 105.205 46.4359 105.725 46.4359C106.498 46.4359 107.035 46.1169 107.337 45.4785H110.638C110.468 46.128 110.163 46.7124 109.72 47.2329C109.28 47.7534 108.727 48.1618 108.062 48.4574C107.397 48.752 106.655 48.8989 105.832 48.8989C104.842 48.8989 103.96 48.6921 103.187 48.2785C102.413 47.8649 101.809 47.2747 101.374 46.5079C100.939 45.7399 100.722 44.8413 100.722 43.8125C100.722 42.7854 100.936 41.8879 101.364 41.1194C101.793 40.3514 102.394 39.76 103.168 39.3464C103.941 38.9328 104.829 38.726 105.832 38.726C106.811 38.726 107.681 38.9276 108.442 39.3301C109.204 39.7316 109.8 40.3049 110.229 41.0496C110.658 41.7932 110.873 42.6611 110.873 43.6521ZM107.7 42.8551C107.7 42.3364 107.518 41.9233 107.156 41.6166C106.793 41.3087 106.34 41.1542 105.797 41.1542C105.277 41.1542 104.839 41.3023 104.482 41.598C104.126 41.8925 103.905 42.3114 103.822 42.8551H107.7Z" fill="#F39406"/>
<path d="M66.1104 57.1525V54.3339H71.1323V67.272H67.9048V57.1525H66.1104Z" fill="#F39406"/>
<path d="M75.4261 60.3243C74.2913 59.7341 73.7244 58.8069 73.7244 57.5429C73.7244 56.905 73.8932 56.323 74.2306 55.7978C74.5693 55.2715 75.0827 54.8515 75.7707 54.5384C76.46 54.2259 77.3061 54.069 78.309 54.069C79.312 54.069 80.1545 54.2259 80.8378 54.5384C81.5205 54.8515 82.0309 55.2715 82.3684 55.7978C82.7071 56.323 82.877 56.905 82.877 57.5429C82.877 58.1813 82.7225 58.7367 82.4135 59.2089C82.1058 59.6818 81.6922 60.0536 81.1729 60.3243C81.8253 60.6328 82.3268 61.0557 82.6774 61.593C83.0273 62.1309 83.2026 62.7595 83.2026 63.4798C83.2026 64.3181 82.9845 65.0413 82.549 65.6501C82.1147 66.2589 81.5259 66.723 80.7831 67.042C80.0398 67.3609 79.2151 67.5206 78.309 67.5206C77.4023 67.5206 76.5776 67.3609 75.8349 67.042C75.0916 66.723 74.5022 66.2589 74.0667 65.6501C73.6323 65.0413 73.4155 64.3181 73.4155 63.4798C73.4155 62.7473 73.5901 62.1123 73.9407 61.5744C74.2907 61.0371 74.7856 60.6206 75.4261 60.3243ZM79.8681 58.003C79.8681 57.5185 79.7261 57.1432 79.4427 56.8783C79.1587 56.6123 78.7808 56.4787 78.309 56.4787C77.8384 56.4787 77.4606 56.6152 77.1754 56.8876C76.8913 57.1589 76.7499 57.5371 76.7499 58.0216C76.7499 58.4816 76.8949 58.8453 77.1849 59.1114C77.4748 59.3762 77.8491 59.5087 78.309 59.5087C78.7683 59.5087 79.1432 59.3733 79.4332 59.1021C79.7231 58.8313 79.8681 58.4648 79.8681 58.003ZM78.309 61.6372C77.7416 61.6372 77.2823 61.7882 76.9305 62.0903C76.58 62.3912 76.4053 62.8071 76.4053 63.3381C76.4053 63.8342 76.577 64.2414 76.921 64.5603C77.2663 64.8798 77.7291 65.039 78.309 65.039C78.8889 65.039 79.3453 64.8798 79.678 64.5603C80.0107 64.2414 80.1771 63.8342 80.1771 63.3381C80.1771 62.8176 80.0042 62.404 79.659 62.0972C79.3149 61.7905 78.8652 61.6372 78.309 61.6372Z" fill="#F39406"/>
<path d="M88.3342 63.4798C88.5148 64.4128 89.0698 64.8786 90.0002 64.8786C90.6401 64.8786 91.0935 64.6015 91.3597 64.0468C91.6259 63.4908 91.759 62.5869 91.759 61.3351C91.4928 61.701 91.1297 61.9845 90.6704 62.1855C90.2123 62.3871 89.699 62.4876 89.1304 62.4876C88.3568 62.4876 87.6675 62.3313 87.0627 62.0182C86.459 61.704 85.9848 61.2369 85.6414 60.6171C85.2974 59.9978 85.1257 59.245 85.1257 58.3585C85.1257 57.4836 85.3093 56.7215 85.677 56.072C86.046 55.4214 86.5719 54.9195 87.2552 54.5663C87.9379 54.2119 88.7442 54.0342 89.6746 54.0342C91.4631 54.0342 92.7144 54.5779 93.4274 55.6654C94.1404 56.7517 94.4969 58.3515 94.4969 60.466C94.4969 62.0031 94.3543 63.2707 94.0691 64.2698C93.7851 65.2678 93.3086 66.0265 92.6383 66.547C91.9681 67.0664 91.0531 67.3254 89.8933 67.3254C88.9741 67.3254 88.1916 67.1483 87.5451 66.7933C86.8987 66.439 86.4025 65.9725 86.0573 65.3945C85.7133 64.8153 85.5178 64.1769 85.4703 63.4798H88.3342ZM89.8386 60.0943C90.3454 60.0943 90.7495 59.9444 91.0507 59.6435C91.3531 59.3414 91.5047 58.9313 91.5047 58.4119C91.5047 57.8438 91.3478 57.4058 91.0341 57.0991C90.7204 56.7923 90.2973 56.639 89.7649 56.639C89.2337 56.639 88.8143 56.7958 88.5053 57.1084C88.1975 57.4215 88.0442 57.8496 88.0442 58.3933C88.0442 58.9016 88.1975 59.3123 88.5053 59.6249C88.8143 59.938 89.2587 60.0943 89.8386 60.0943Z" fill="#F39406"/>
<path d="M96.2543 57.9844C96.3019 56.7203 96.7237 55.7461 97.5211 55.0612C98.3197 54.3769 99.4016 54.0342 100.768 54.0342C101.674 54.0342 102.45 54.1875 103.097 54.4943C103.743 54.801 104.233 55.221 104.566 55.7537C104.898 56.2852 105.065 56.8818 105.065 57.5429C105.065 58.3225 104.865 58.9574 104.466 59.4483C104.066 59.938 103.601 60.272 103.071 60.4498V60.5195C103.758 60.7443 104.302 61.1167 104.701 61.6372C105.1 62.1565 105.3 62.8234 105.3 63.6378C105.3 64.3709 105.127 65.0181 104.782 65.5804C104.438 66.1415 103.936 66.5813 103.277 66.9002C102.62 67.2197 101.838 67.3789 100.932 67.3789C99.4819 67.3789 98.3244 67.0303 97.4593 66.3332C96.5954 65.6361 96.1391 64.5847 96.0903 63.1777H99.0992C99.1117 63.6982 99.2632 64.1095 99.5532 64.4116C99.8431 64.7125 100.266 64.8624 100.822 64.8624C101.293 64.8624 101.658 64.7299 101.918 64.465C102.178 64.199 102.308 63.8464 102.308 63.4078C102.308 62.8408 102.123 62.4307 101.754 62.1762C101.386 61.9224 100.797 61.7952 99.9881 61.7952H99.4082V59.3321H99.9881C100.604 59.3321 101.103 59.2293 101.483 59.023C101.864 58.8157 102.056 58.4462 102.056 57.9147C102.056 57.4889 101.935 57.1583 101.692 56.9225C101.451 56.6855 101.119 56.5669 100.696 56.5669C100.236 56.5669 99.8954 56.7035 99.672 56.9759C99.4486 57.2472 99.3185 57.5835 99.2822 57.9844H96.2543Z" fill="#F39406"/>
<path d="M11.9259 127.197V140.864H8.57176V135.238H3.35417V140.864H0V127.197H3.35417V132.551H8.57176V127.197H11.9259Z" fill="black"/>
<path d="M17.7015 127.197V140.864H14.3473V127.197H17.7015Z" fill="black"/>
<path d="M25.1144 141C24.1075 141 23.2052 140.838 22.4076 140.513C21.6099 140.189 20.9691 139.709 20.4853 139.073C20.0145 138.437 19.7661 137.671 19.7399 136.775H23.3098C23.3622 137.282 23.5387 137.671 23.8394 137.944C24.1402 138.203 24.5325 138.333 25.0164 138.333C25.5133 138.333 25.9056 138.223 26.1933 138.002C26.4809 137.768 26.6248 137.45 26.6248 137.048C26.6248 136.711 26.5071 136.432 26.2717 136.211C26.0494 135.99 25.7683 135.809 25.4283 135.666C25.1013 135.523 24.6306 135.361 24.016 135.179C23.1268 134.907 22.401 134.634 21.8387 134.361C21.2764 134.089 20.7926 133.687 20.3872 133.154C19.9818 132.622 19.7791 131.928 19.7791 131.071C19.7791 129.799 20.2434 128.807 21.1718 128.093C22.1002 127.366 23.3098 127.003 24.8006 127.003C26.3175 127.003 27.5401 127.366 28.4686 128.093C29.397 128.807 29.894 129.806 29.9593 131.091H26.3306C26.3044 130.65 26.1409 130.306 25.8402 130.059C25.5394 129.799 25.1537 129.67 24.6829 129.67C24.2775 129.67 23.9506 129.78 23.7021 130.001C23.4537 130.208 23.3295 130.513 23.3295 130.916C23.3295 131.357 23.5387 131.701 23.9571 131.947C24.3756 132.194 25.0294 132.46 25.9186 132.746C26.8079 133.044 27.5271 133.33 28.0763 133.602C28.6386 133.875 29.1224 134.271 29.5278 134.79C29.9332 135.309 30.1359 135.977 30.1359 136.795C30.1359 137.574 29.9332 138.281 29.5278 138.917C29.1355 139.553 28.5601 140.059 27.8017 140.435C27.0432 140.812 26.1475 141 25.1144 141Z" fill="black"/>
<path d="M42.1056 127.197V129.864H38.4572V140.864H35.1031V129.864H31.4547V127.197H42.1056Z" fill="black"/>
<path d="M50.3012 141C49.0066 141 47.8166 140.702 46.7312 140.104C45.659 139.507 44.8024 138.677 44.1617 137.613C43.534 136.535 43.2202 135.328 43.2202 133.992C43.2202 132.655 43.534 131.454 44.1617 130.39C44.8024 129.326 45.659 128.495 46.7312 127.898C47.8166 127.301 49.0066 127.003 50.3012 127.003C51.5958 127.003 52.7792 127.301 53.8515 127.898C54.9369 128.495 55.7868 129.326 56.4014 130.39C57.0291 131.454 57.343 132.655 57.343 133.992C57.343 135.328 57.0291 136.535 56.4014 137.613C55.7738 138.677 54.9238 139.507 53.8515 140.104C52.7792 140.702 51.5958 141 50.3012 141ZM50.3012 137.963C51.3996 137.963 52.2758 137.6 52.9296 136.873C53.5965 136.146 53.93 135.186 53.93 133.992C53.93 132.785 53.5965 131.824 52.9296 131.11C52.2758 130.383 51.3996 130.02 50.3012 130.02C49.1897 130.02 48.3004 130.377 47.6335 131.091C46.9797 131.805 46.6528 132.772 46.6528 133.992C46.6528 135.199 46.9797 136.165 47.6335 136.892C48.3004 137.606 49.1897 137.963 50.3012 137.963Z" fill="black"/>
<path d="M66.2312 140.864L63.3674 135.705H62.5632V140.864H59.209V127.197H64.8385C65.9239 127.197 66.8458 127.385 67.6042 127.762C68.3758 128.138 68.9511 128.657 69.3304 129.319C69.7096 129.968 69.8992 130.695 69.8992 131.5C69.8992 132.408 69.6376 133.219 69.1146 133.933C68.6046 134.647 67.8461 135.153 66.8392 135.452L70.0169 140.864H66.2312ZM62.5632 133.349H64.6424C65.257 133.349 65.7146 133.2 66.0154 132.901C66.3293 132.603 66.4862 132.181 66.4862 131.636C66.4862 131.117 66.3293 130.708 66.0154 130.409C65.7146 130.111 65.257 129.962 64.6424 129.962H62.5632V133.349Z" fill="black"/>
<path d="M75.3589 127.197V140.864H72.0047V127.197H75.3589Z" fill="black"/>
<path d="M77.2208 134.011C77.2208 132.661 77.515 131.461 78.1035 130.409C78.6919 129.345 79.5092 128.521 80.5554 127.937C81.6146 127.34 82.8111 127.042 84.1449 127.042C85.7795 127.042 87.1787 127.47 88.3425 128.326C89.5063 129.183 90.2844 130.351 90.6767 131.831H86.9891C86.7145 131.26 86.3222 130.825 85.8122 130.526C85.3153 130.228 84.7464 130.078 84.1057 130.078C83.0726 130.078 82.2357 130.435 81.5949 131.149C80.9542 131.863 80.6338 132.817 80.6338 134.011C80.6338 135.205 80.9542 136.159 81.5949 136.873C82.2357 137.587 83.0726 137.944 84.1057 137.944C84.7464 137.944 85.3153 137.794 85.8122 137.496C86.3222 137.197 86.7145 136.762 86.9891 136.191H90.6767C90.2844 137.671 89.5063 138.839 88.3425 139.696C87.1787 140.539 85.7795 140.961 84.1449 140.961C82.8111 140.961 81.6146 140.669 80.5554 140.085C79.5092 139.488 78.6919 138.664 78.1035 137.613C77.515 136.561 77.2208 135.361 77.2208 134.011Z" fill="black"/>
<path d="M100.242 138.294H104.635V140.864H96.8875V127.197H100.242V138.294Z" fill="#F39406"/>
<path d="M109.589 129.864V132.629H114.081V135.199H109.589V138.197H114.67V140.864H106.235V127.197H114.67V129.864H109.589Z" fill="#F39406"/>
<path d="M125.988 131.519C125.739 131.065 125.38 130.721 124.909 130.487C124.451 130.241 123.909 130.117 123.281 130.117C122.196 130.117 121.326 130.474 120.672 131.188C120.018 131.889 119.691 132.83 119.691 134.011C119.691 135.27 120.031 136.256 120.711 136.97C121.404 137.671 122.353 138.021 123.556 138.021C124.379 138.021 125.072 137.814 125.635 137.398C126.21 136.983 126.629 136.386 126.89 135.607H122.634V133.154H129.93V136.25C129.682 137.08 129.257 137.853 128.656 138.567C128.067 139.28 127.315 139.858 126.4 140.299C125.484 140.74 124.451 140.961 123.301 140.961C121.941 140.961 120.725 140.669 119.652 140.085C118.593 139.488 117.763 138.664 117.161 137.613C116.573 136.561 116.278 135.361 116.278 134.011C116.278 132.661 116.573 131.461 117.161 130.409C117.763 129.345 118.593 128.521 119.652 127.937C120.711 127.34 121.921 127.042 123.281 127.042C124.929 127.042 126.315 127.437 127.439 128.229C128.577 129.021 129.329 130.117 129.695 131.519H125.988Z" fill="#F39406"/>
<path d="M140.36 138.45H135.221L134.397 140.864H130.886L135.868 127.197H139.752L144.734 140.864H141.184L140.36 138.45ZM139.497 135.88L137.791 130.877L136.104 135.88H139.497Z" fill="#F39406"/>
<path d="M145.682 134.011C145.682 132.661 145.976 131.461 146.564 130.409C147.153 129.345 147.97 128.521 149.016 127.937C150.076 127.34 151.272 127.042 152.606 127.042C154.24 127.042 155.64 127.47 156.804 128.326C157.967 129.183 158.745 130.351 159.138 131.831H155.45C155.175 131.26 154.783 130.825 154.273 130.526C153.776 130.228 153.207 130.078 152.567 130.078C151.534 130.078 150.697 130.435 150.056 131.149C149.415 131.863 149.095 132.817 149.095 134.011C149.095 135.205 149.415 136.159 150.056 136.873C150.697 137.587 151.534 137.944 152.567 137.944C153.207 137.944 153.776 137.794 154.273 137.496C154.783 137.197 155.175 136.762 155.45 136.191H159.138C158.745 137.671 157.967 138.839 156.804 139.696C155.64 140.539 154.24 140.961 152.606 140.961C151.272 140.961 150.076 140.669 149.016 140.085C147.97 139.488 147.153 138.664 146.564 137.613C145.976 136.561 145.682 135.361 145.682 134.011Z" fill="#F39406"/>
<path d="M173 127.197L168.234 136.347V140.864H164.879V136.347L160.113 127.197H163.918L166.586 132.921L169.234 127.197H173Z" fill="#F39406"/>
</svg>
