<svg xmlns="http://www.w3.org/2000/svg" xmlns:xlink="http://www.w3.org/1999/xlink" width="100" zoomAndPan="magnify" viewBox="0 0 75.119995 83.04" height="100" preserveAspectRatio="xMidYMid meet" version="1.0"><defs><clipPath id="dc7026ce18"><path d="M 7.414062 10.347656 L 66.71875 10.347656 L 66.71875 63.722656 L 7.414062 63.722656 Z M 7.414062 10.347656 " clip-rule="nonzero"/></clipPath></defs><g clip-path="url(#dc7026ce18)"><path fill="#ffffff" d="M 54.898438 33.949219 C 54.5625 33.949219 54.226562 33.9375 53.894531 33.90625 C 53.46875 33.871094 53.132812 33.566406 53.054688 33.148438 L 52.867188 32.128906 C 52.800781 31.765625 52.546875 31.492188 52.1875 31.394531 C 51.359375 31.175781 50.570312 30.847656 49.84375 30.425781 C 49.523438 30.238281 49.152344 30.25 48.847656 30.460938 L 48.121094 30.960938 C 47.757812 31.207031 47.289062 31.175781 46.964844 30.882812 C 46.589844 30.539062 46.234375 30.175781 45.90625 29.789062 C 45.628906 29.460938 45.605469 29.007812 45.847656 28.65625 L 46.332031 27.949219 C 46.542969 27.644531 46.558594 27.269531 46.371094 26.949219 C 45.949219 26.222656 45.621094 25.4375 45.398438 24.605469 C 45.304688 24.25 45.03125 23.996094 44.667969 23.925781 L 43.886719 23.78125 C 43.460938 23.703125 43.152344 23.359375 43.125 22.925781 C 43.109375 22.671875 43.101562 22.410156 43.101562 22.152344 C 43.101562 21.890625 43.109375 21.632812 43.125 21.375 C 43.152344 20.945312 43.460938 20.597656 43.886719 20.519531 L 44.667969 20.375 C 45.03125 20.308594 45.304688 20.054688 45.398438 19.695312 C 45.621094 18.863281 45.949219 18.078125 46.371094 17.351562 C 46.558594 17.03125 46.542969 16.65625 46.332031 16.351562 L 45.847656 15.648438 C 45.605469 15.292969 45.628906 14.839844 45.90625 14.511719 C 46.234375 14.125 46.589844 13.761719 46.964844 13.421875 C 47.289062 13.125 47.757812 13.09375 48.121094 13.339844 L 48.847656 13.839844 C 49.152344 14.050781 49.523438 14.0625 49.84375 13.878906 C 50.570312 13.457031 51.359375 13.125 52.1875 12.90625 C 52.546875 12.8125 52.800781 12.539062 52.867188 12.175781 L 53.054688 11.152344 C 53.132812 10.734375 53.46875 10.429688 53.894531 10.394531 C 54.226562 10.367188 54.5625 10.351562 54.898438 10.351562 C 55.238281 10.351562 55.574219 10.367188 55.90625 10.394531 C 56.328125 10.429688 56.664062 10.734375 56.742188 11.152344 L 56.933594 12.175781 C 57 12.539062 57.253906 12.8125 57.609375 12.90625 C 58.441406 13.125 59.230469 13.457031 59.957031 13.878906 C 60.273438 14.0625 60.648438 14.050781 60.953125 13.839844 L 61.679688 13.339844 C 62.039062 13.09375 62.511719 13.125 62.835938 13.421875 C 63.210938 13.761719 63.566406 14.128906 63.894531 14.511719 C 64.171875 14.839844 64.195312 15.292969 63.953125 15.648438 L 63.464844 16.351562 C 63.257812 16.65625 63.242188 17.03125 63.429688 17.351562 C 63.851562 18.078125 64.179688 18.863281 64.398438 19.695312 C 64.496094 20.054688 64.769531 20.308594 65.132812 20.375 L 65.914062 20.519531 C 66.339844 20.597656 66.644531 20.945312 66.675781 21.375 C 66.691406 21.632812 66.699219 21.890625 66.699219 22.152344 C 66.699219 22.410156 66.691406 22.671875 66.675781 22.925781 C 66.648438 23.359375 66.339844 23.703125 65.914062 23.78125 L 65.132812 23.925781 C 64.769531 23.996094 64.496094 24.25 64.398438 24.605469 C 64.179688 25.4375 63.851562 26.226562 63.429688 26.949219 C 63.242188 27.269531 63.257812 27.644531 63.464844 27.949219 L 63.953125 28.65625 C 64.195312 29.007812 64.171875 29.460938 63.894531 29.789062 C 63.566406 30.175781 63.210938 30.539062 62.835938 30.882812 C 62.511719 31.175781 62.039062 31.207031 61.679688 30.960938 L 60.953125 30.460938 C 60.648438 30.253906 60.273438 30.238281 59.957031 30.425781 C 59.230469 30.847656 58.441406 31.175781 57.609375 31.394531 C 57.253906 31.492188 57 31.765625 56.933594 32.128906 L 56.742188 33.148438 C 56.664062 33.566406 56.328125 33.871094 55.90625 33.90625 C 55.574219 33.9375 55.238281 33.949219 54.898438 33.949219 Z M 31.035156 63.328125 L 33.363281 63.328125 L 33.363281 37.578125 L 27.394531 37.578125 C 27.34375 37.578125 27.292969 37.574219 27.246094 37.5625 L 25.679688 45.222656 L 29.070312 45.222656 C 30.195312 45.222656 31.113281 46.136719 31.113281 47.265625 L 31.113281 62.761719 C 31.113281 62.957031 31.085938 63.148438 31.035156 63.328125 Z M 33.363281 36.097656 L 33.363281 34.359375 L 28.054688 34.359375 C 28.003906 34.359375 27.953125 34.355469 27.90625 34.34375 L 27.546875 36.097656 Z M 33.363281 32.878906 L 33.363281 30.042969 L 28.789062 30.011719 L 28.203125 32.878906 Z M 47.898438 59.484375 C 47.488281 59.496094 47.148438 59.175781 47.136719 58.769531 C 47.125 58.359375 47.445312 58.019531 47.851562 58.007812 C 48.328125 57.992188 48.730469 57.523438 49.109375 57.082031 C 49.710938 56.378906 50.28125 55.714844 51.332031 55.839844 C 52.386719 55.96875 53.082031 56.773438 53.65625 57.449219 C 53.769531 57.582031 53.921875 57.652344 54.101562 57.648438 C 54.277344 57.640625 54.429688 57.5625 54.535156 57.421875 C 54.550781 57.402344 54.566406 57.382812 54.582031 57.359375 C 55.140625 56.613281 55.753906 55.796875 56.886719 55.859375 C 56.90625 55.863281 56.925781 55.863281 56.949219 55.859375 C 58.078125 55.796875 58.695312 56.613281 59.253906 57.359375 C 59.269531 57.382812 59.285156 57.402344 59.300781 57.425781 C 59.410156 57.566406 59.558594 57.644531 59.738281 57.648438 C 59.914062 57.652344 60.070312 57.585938 60.183594 57.449219 C 60.789062 56.730469 61.53125 55.867188 62.667969 55.832031 C 63.628906 55.800781 64.164062 56.421875 64.726562 57.082031 C 65.105469 57.523438 65.507812 57.992188 65.984375 58.007812 C 66.390625 58.019531 66.710938 58.359375 66.699219 58.769531 C 66.6875 59.175781 66.34375 59.496094 65.9375 59.484375 C 64.808594 59.449219 64.191406 58.722656 63.605469 58.042969 C 63.277344 57.660156 62.964844 57.300781 62.714844 57.308594 L 62.710938 57.308594 C 62.226562 57.320312 61.714844 57.929688 61.292969 58.425781 C 60.824219 58.984375 60.421875 59.457031 59.824219 59.484375 L 59.808594 59.484375 C 59.792969 59.484375 59.777344 59.484375 59.761719 59.484375 C 58.984375 59.457031 58.546875 58.875 58.074219 58.246094 C 57.738281 57.796875 57.367188 57.304688 56.996094 57.339844 C 56.945312 57.34375 56.894531 57.34375 56.84375 57.339844 C 56.472656 57.300781 56.101562 57.796875 55.761719 58.246094 C 55.292969 58.871094 54.859375 59.449219 54.089844 59.484375 L 54.085938 59.484375 C 54.078125 59.484375 54.070312 59.484375 54.058594 59.484375 L 54.039062 59.484375 C 54.027344 59.484375 54.019531 59.484375 54.011719 59.484375 C 53.417969 59.457031 53.023438 58.988281 52.554688 58.4375 C 52.148438 57.957031 51.648438 57.371094 51.15625 57.3125 C 50.886719 57.277344 50.566406 57.648438 50.230469 58.042969 C 49.644531 58.722656 49.023438 59.449219 47.898438 59.484375 Z M 61.074219 54.734375 C 60.925781 50.785156 58.167969 47.46875 54.484375 46.472656 L 54.484375 52.242188 C 55.167969 52.804688 55.648438 53.601562 55.792969 54.503906 C 56.125 54.410156 56.488281 54.363281 56.894531 54.378906 C 56.910156 54.378906 56.925781 54.378906 56.941406 54.378906 C 58 54.335938 58.773438 54.71875 59.433594 55.320312 C 59.640625 55.511719 59.957031 55.515625 60.175781 55.335938 C 60.453125 55.101562 60.75 54.894531 61.074219 54.734375 Z M 47.898438 63.800781 C 47.488281 63.8125 47.148438 63.492188 47.136719 63.085938 C 47.125 62.679688 47.445312 62.339844 47.851562 62.324219 C 48.328125 62.308594 48.730469 61.839844 49.109375 61.398438 C 49.710938 60.695312 50.28125 60.03125 51.332031 60.160156 C 52.386719 60.289062 53.082031 61.09375 53.65625 61.765625 C 53.769531 61.902344 53.921875 61.972656 54.101562 61.964844 C 54.277344 61.960938 54.429688 61.882812 54.535156 61.742188 C 54.550781 61.71875 54.566406 61.699219 54.582031 61.679688 C 55.140625 60.929688 55.753906 60.113281 56.886719 60.179688 C 56.90625 60.179688 56.925781 60.179688 56.949219 60.179688 C 58.078125 60.113281 58.695312 60.929688 59.253906 61.679688 C 59.269531 61.699219 59.285156 61.722656 59.300781 61.742188 C 59.410156 61.882812 59.558594 61.960938 59.738281 61.96875 C 59.914062 61.972656 60.070312 61.902344 60.183594 61.769531 C 60.789062 61.046875 61.53125 60.183594 62.667969 60.148438 C 63.628906 60.117188 64.164062 60.742188 64.726562 61.398438 C 65.105469 61.839844 65.507812 62.308594 65.984375 62.324219 C 66.390625 62.339844 66.710938 62.679688 66.699219 63.085938 C 66.6875 63.492188 66.34375 63.8125 65.9375 63.800781 C 64.808594 63.765625 64.191406 63.042969 63.605469 62.359375 C 63.277344 61.976562 62.964844 61.617188 62.714844 61.625 C 62.226562 61.640625 61.714844 62.246094 61.292969 62.746094 C 60.824219 63.300781 60.421875 63.773438 59.824219 63.800781 L 59.808594 63.800781 C 59.792969 63.800781 59.777344 63.800781 59.761719 63.800781 C 58.984375 63.777344 58.546875 63.195312 58.074219 62.566406 C 57.738281 62.113281 57.367188 61.621094 56.996094 61.65625 C 56.945312 61.664062 56.894531 61.664062 56.84375 61.65625 C 56.472656 61.621094 56.101562 62.113281 55.761719 62.566406 C 55.292969 63.1875 54.859375 63.765625 54.089844 63.800781 L 54.085938 63.800781 C 54.078125 63.800781 54.070312 63.800781 54.058594 63.800781 L 54.039062 63.800781 C 54.027344 63.800781 54.019531 63.800781 54.011719 63.800781 C 53.417969 63.773438 53.023438 63.308594 52.554688 62.757812 C 52.148438 62.273438 51.652344 61.6875 51.15625 61.628906 C 50.886719 61.597656 50.566406 61.96875 50.230469 62.359375 C 49.644531 63.042969 49.023438 63.765625 47.898438 63.800781 Z M 50.816406 53.351562 L 52.5625 53.351562 C 52.804688 53.351562 53.003906 53.097656 53.003906 52.789062 L 53.003906 44.828125 C 53.003906 44.519531 52.804688 44.265625 52.5625 44.265625 L 50.816406 44.265625 C 50.574219 44.265625 50.375 44.519531 50.375 44.828125 L 50.375 52.789062 C 50.375 53.097656 50.574219 53.351562 50.816406 53.351562 Z M 47.167969 52.066406 L 48.894531 52.066406 L 48.894531 45.550781 L 47.167969 45.550781 Z M 7.996094 46.703125 L 29.070312 46.703125 C 29.378906 46.703125 29.632812 46.957031 29.632812 47.265625 L 29.632812 62.761719 C 29.632812 63.074219 29.378906 63.328125 29.070312 63.328125 L 20.074219 63.328125 L 20.074219 54.742188 C 20.074219 54.433594 19.820312 54.179688 19.511719 54.179688 L 16.570312 54.179688 L 16.570312 63.328125 L 15.085938 63.328125 L 15.085938 54.179688 L 12.144531 54.179688 C 11.835938 54.179688 11.582031 54.433594 11.582031 54.742188 L 11.582031 63.328125 L 7.996094 63.328125 C 7.683594 63.328125 7.433594 63.074219 7.433594 62.761719 L 7.433594 47.265625 C 7.433594 46.957031 7.683594 46.703125 7.996094 46.703125 Z M 24.019531 56.765625 C 23.710938 56.765625 23.457031 56.511719 23.457031 56.203125 L 23.457031 55.363281 C 23.457031 55.054688 23.710938 54.800781 24.019531 54.800781 L 25.535156 54.800781 C 25.84375 54.800781 26.097656 55.054688 26.097656 55.363281 L 26.097656 56.203125 C 26.097656 56.511719 25.84375 56.765625 25.535156 56.765625 Z M 24.019531 52.222656 C 23.710938 52.222656 23.457031 51.96875 23.457031 51.660156 L 23.457031 50.820312 C 23.457031 50.511719 23.710938 50.257812 24.019531 50.257812 L 25.535156 50.257812 C 25.84375 50.257812 26.097656 50.511719 26.097656 50.820312 L 26.097656 51.660156 C 26.097656 51.96875 25.84375 52.222656 25.535156 52.222656 Z M 34.847656 37.347656 L 45.6875 34.445312 L 45.6875 63.328125 L 34.847656 63.328125 Z M 38.871094 58.34375 L 41.660156 58.34375 C 41.96875 58.34375 42.222656 58.089844 42.222656 57.78125 L 42.222656 55.992188 C 42.222656 55.683594 41.96875 55.429688 41.660156 55.429688 L 38.871094 55.429688 C 38.5625 55.429688 38.308594 55.683594 38.308594 55.992188 L 38.308594 57.78125 C 38.308594 58.089844 38.5625 58.34375 38.871094 58.34375 Z M 38.871094 51.605469 L 41.660156 51.605469 C 41.96875 51.605469 42.222656 51.355469 42.222656 51.042969 L 42.222656 49.257812 C 42.222656 48.949219 41.96875 48.695312 41.660156 48.695312 L 38.871094 48.695312 C 38.5625 48.695312 38.308594 48.949219 38.308594 49.257812 L 38.308594 51.042969 C 38.308594 51.355469 38.5625 51.605469 38.871094 51.605469 Z M 38.871094 44.871094 L 41.660156 44.871094 C 41.96875 44.871094 42.222656 44.617188 42.222656 44.308594 L 42.222656 42.523438 C 42.222656 42.210938 41.96875 41.957031 41.660156 41.957031 L 38.871094 41.957031 C 38.5625 41.957031 38.308594 42.210938 38.308594 42.523438 L 38.308594 44.308594 C 38.308594 44.617188 38.5625 44.871094 38.871094 44.871094 Z M 11.324219 45.222656 L 12.886719 37.5625 C 12.9375 37.574219 12.984375 37.578125 13.035156 37.578125 L 20.402344 37.578125 C 20.453125 37.578125 20.5 37.574219 20.550781 37.5625 L 22.117188 45.222656 Z M 13.1875 36.097656 L 13.546875 34.34375 C 13.59375 34.355469 13.644531 34.359375 13.695312 34.359375 L 19.742188 34.359375 C 19.792969 34.359375 19.84375 34.355469 19.890625 34.34375 L 20.25 36.097656 Z M 13.847656 32.878906 L 14.433594 30.011719 L 19.003906 30.011719 L 19.589844 32.878906 Z M 32.660156 27.992188 C 32.660156 28.402344 32.328125 28.734375 31.921875 28.734375 C 31.511719 28.734375 31.179688 28.402344 31.179688 27.992188 L 31.179688 27.726562 C 31.179688 26.683594 31.605469 25.730469 32.292969 25.042969 C 32.308594 25.027344 32.324219 25.015625 32.339844 25 C 33.027344 24.339844 33.957031 23.929688 34.976562 23.929688 L 37.472656 23.929688 C 37.882812 23.929688 38.214844 24.261719 38.214844 24.667969 C 38.214844 25.078125 37.882812 25.410156 37.472656 25.410156 L 34.976562 25.410156 C 34.355469 25.410156 33.789062 25.65625 33.375 26.058594 L 33.34375 26.089844 C 32.9375 26.496094 32.679688 27.050781 32.664062 27.660156 L 32.660156 27.726562 Z M 37.472656 21.925781 L 34.976562 21.925781 C 33.382812 21.925781 31.933594 22.578125 30.882812 23.632812 L 30.878906 23.628906 C 29.828125 24.679688 29.175781 26.132812 29.175781 27.726562 L 29.175781 27.992188 C 29.175781 28.402344 29.507812 28.734375 29.917969 28.734375 C 30.328125 28.734375 30.660156 28.402344 30.660156 27.992188 L 30.660156 27.726562 C 30.660156 26.539062 31.144531 25.460938 31.929688 24.675781 L 31.925781 24.675781 L 31.929688 24.675781 C 32.710938 23.894531 33.789062 23.410156 34.976562 23.410156 L 37.472656 23.410156 C 37.882812 23.410156 38.214844 23.078125 38.214844 22.667969 C 38.214844 22.257812 37.882812 21.925781 37.472656 21.925781 Z M 18.425781 27.992188 C 18.425781 28.402344 18.09375 28.734375 17.683594 28.734375 C 17.273438 28.734375 16.941406 28.402344 16.941406 27.992188 L 16.941406 27.726562 C 16.941406 26.683594 17.371094 25.734375 18.058594 25.046875 L 18.058594 25.042969 C 18.746094 24.355469 19.695312 23.929688 20.742188 23.929688 L 23.234375 23.929688 C 23.644531 23.929688 23.976562 24.261719 23.976562 24.667969 C 23.976562 25.078125 23.644531 25.410156 23.234375 25.410156 L 20.742188 25.410156 C 20.105469 25.410156 19.523438 25.671875 19.105469 26.089844 L 19.101562 26.089844 C 18.699219 26.496094 18.441406 27.046875 18.425781 27.660156 Z M 23.234375 21.925781 L 20.742188 21.925781 C 19.148438 21.925781 17.699219 22.578125 16.644531 23.632812 L 16.644531 23.628906 C 15.59375 24.679688 14.941406 26.132812 14.941406 27.726562 L 14.941406 27.992188 C 14.941406 28.402344 15.273438 28.734375 15.679688 28.734375 C 16.089844 28.734375 16.421875 28.402344 16.421875 27.992188 L 16.421875 27.726562 C 16.421875 26.539062 16.910156 25.460938 17.691406 24.675781 C 18.472656 23.894531 19.550781 23.410156 20.742188 23.410156 L 23.234375 23.410156 C 23.644531 23.410156 23.976562 23.078125 23.976562 22.667969 C 23.976562 22.257812 23.644531 21.925781 23.234375 21.925781 Z M 54.898438 15.925781 C 51.464844 15.925781 48.675781 18.714844 48.675781 22.152344 C 48.675781 25.589844 51.464844 28.375 54.898438 28.375 C 58.335938 28.375 61.125 25.589844 61.125 22.152344 C 61.125 18.714844 58.335938 15.925781 54.898438 15.925781 Z M 54.898438 15.925781 " fill-opacity="1" fill-rule="evenodd"/></g></svg>