<svg width="124" height="87" viewBox="0 0 124 87" fill="none" xmlns="http://www.w3.org/2000/svg">
<path d="M110.841 60.2715H52.2895C45.0547 60.2715 39.166 66.1602 39.166 73.3949C39.166 80.6484 45.0547 86.5372 52.2895 86.5372H110.841C118.075 86.5372 123.964 80.6484 123.964 73.3949C123.964 66.1042 118.094 60.2715 110.841 60.2715ZM64.2353 76.5543C64.0296 76.8535 63.8053 77.1338 63.5436 77.3768C62.5154 78.405 61.132 79.022 59.5803 79.022C58.0099 79.022 56.6079 78.405 55.5984 77.3768C55.4675 77.246 55.3554 77.1151 55.2245 76.9843C54.888 76.573 54.6077 76.1056 54.3832 75.6009C54.3272 75.4327 54.2525 75.2644 54.1963 75.0775C54.1216 74.8157 54.0655 74.554 54.0094 74.2549C53.972 73.9932 53.9533 73.6941 53.9533 73.3949C53.9533 73.0959 53.972 72.8154 54.0094 72.5351C54.0467 72.2733 54.1216 71.9928 54.1963 71.7312C54.2525 71.5442 54.3272 71.376 54.3832 71.2077C54.589 70.7029 54.8693 70.2356 55.2245 69.8243C55.3554 69.6747 55.4675 69.5439 55.5984 69.413C56.6079 68.4035 58.01 67.7679 59.5803 67.7679C61.132 67.7679 62.5154 68.3848 63.5436 69.413C63.8053 69.656 64.0296 69.9365 64.2353 70.2356C64.3474 70.4039 64.4409 70.5534 64.5157 70.7216C64.9457 71.5068 65.1887 72.4229 65.1887 73.3949C65.1887 74.3671 64.9457 75.2831 64.5157 76.0869C64.4223 76.2552 64.3287 76.4048 64.2353 76.5543ZM81.5651 79.022C78.4617 79.022 75.938 76.517 75.938 73.3949C75.938 70.2917 78.4617 67.7679 81.5651 67.7679C84.6683 67.7679 87.1921 70.2917 87.1921 73.3949C87.1921 76.517 84.6683 79.022 81.5651 79.022ZM109.102 74.4418C109.083 74.498 109.083 74.5354 109.065 74.5914C109.027 74.7597 108.99 74.9279 108.934 75.0775C108.803 75.5261 108.597 75.9561 108.354 76.3487C108.279 76.4796 108.205 76.6104 108.111 76.7226C107.513 77.5452 106.709 78.1807 105.756 78.592C105.587 78.6481 105.419 78.7229 105.232 78.779C105.064 78.8351 104.877 78.8724 104.709 78.9098C104.541 78.9473 104.391 78.966 104.223 78.9846C103.998 79.0033 103.793 79.022 103.568 79.022C103.381 79.022 103.176 79.0033 102.989 78.9846C102.802 78.966 102.615 78.9473 102.428 78.9098C102.017 78.8351 101.643 78.7042 101.269 78.5359C101.119 78.4612 100.951 78.3864 100.802 78.2929C100.484 78.1247 100.185 77.9191 99.923 77.6947C99.7921 77.5639 99.6613 77.4517 99.5304 77.3209C99.3995 77.19 99.2687 77.0591 99.1752 76.9282C99.063 76.7974 98.9509 76.6478 98.8574 76.4983C98.7078 76.274 98.577 76.0309 98.4648 75.7879C98.4275 75.7318 98.4088 75.6757 98.3901 75.6009C98.3526 75.5262 98.3152 75.4514 98.2966 75.3579C98.2592 75.2644 98.2218 75.1522 98.1845 75.0401C98.0723 74.7036 98.0161 74.3484 97.9601 73.9745V73.9557C97.9414 73.8623 97.9414 73.7688 97.9414 73.6754V73.3949C97.9414 73.208 97.9601 73.0024 97.9787 72.8154V72.6845C97.9974 72.4602 98.0349 72.2172 98.1096 71.9928C98.147 71.8994 98.1657 71.8059 98.2031 71.7312C98.2405 71.6003 98.2779 71.4695 98.3339 71.3386C98.3714 71.2264 98.4275 71.1142 98.4648 71.0208C98.521 70.9086 98.577 70.8151 98.6144 70.7216C98.6144 70.7216 98.5957 70.7216 98.6144 70.7029C98.7079 70.5347 98.8013 70.4039 98.8949 70.2543C98.8949 70.2543 98.8949 70.2543 98.8949 70.2356C99.1192 69.9365 99.3435 69.656 99.5866 69.413C100.615 68.3848 102.017 67.7679 103.568 67.7679C106.672 67.7679 109.195 70.2917 109.195 73.3949C109.195 73.7501 109.158 74.1053 109.102 74.4418Z" fill="white"/>
<path d="M55.2234 69.8239C54.8869 70.2351 54.6066 70.7025 54.3822 71.2073C54.5879 70.7025 54.8682 70.2351 55.2234 69.8239ZM107.101 0H73.8057C70.8521 0 68.3095 2.01904 67.6179 4.89806C67.2465 6.45911 49.4902 56.9637 49.4531 57.1864C49.641 57.3149 47.7955 57.328 110.26 56.8874C111.363 56.8874 112.429 56.9995 113.475 57.1864V6.37487C113.475 2.86031 110.615 0 107.101 0ZM85.5085 31.7993C85.5085 32.005 85.3403 32.1919 85.1346 32.1919H64.982L69.45 13.404H85.1346C85.3403 13.404 85.5085 13.5722 85.5085 13.7779L85.5085 31.7993ZM109.737 32.1919H100.894C100.67 32.1919 100.52 32.0236 100.52 31.7993V13.7779C100.52 13.5722 100.67 13.404 100.894 13.404H109.737V32.1919ZM76.1425 44.4742V44.4555C76.1425 44.6437 76.1425 44.6624 76.1425 44.4742ZM53.7092 33.6875C42.156 25.8171 20.9751 11.385 11.0484 4.59888L0 20.8069C0.280454 20.994 2.22464 22.3399 6.95429 25.5554V45.2593C6.95429 46.2875 7.79556 47.1288 8.82373 47.1288C11.6279 47.1288 13.9087 49.4096 13.9087 52.195C13.9087 54.9992 11.6279 57.2799 8.82373 57.2799C6.01956 57.2799 3.75761 54.9992 3.75761 52.195C3.75761 51.1669 2.91634 50.3256 1.88816 50.3256C0.84127 50.3256 0.0187131 51.1669 0.0187131 52.195C0.0187131 57.0743 3.96323 61.0188 8.82373 61.0188C13.6844 61.0188 17.6476 57.0742 17.6476 52.195C17.6476 47.9888 14.6564 44.4555 10.6932 43.5955V28.1165C17.8906 33.0332 29.369 40.8662 46.9979 52.8493C47.3344 51.9146 47.7456 50.7181 48.2691 49.2038L44.3059 46.4932L49.9515 44.3993C50.0637 44.0816 50.1946 43.7451 50.3067 43.4086C50.6994 42.2682 51.1293 41.0531 51.5779 39.7819L42.0999 43.3339L41.8756 30.1542L52.4379 37.3329C52.8493 36.1552 53.2792 34.9214 53.7092 33.6875ZM6.89826 17.3298L12.0205 9.796L17.3484 13.4227L6.89826 17.3298ZM7.21605 21.1996L19.5731 16.6007L19.7974 29.7804L7.21605 21.1996ZM23.3119 17.4981L35.9121 26.0788L23.5363 30.6964L23.3119 17.4981ZM25.7609 33.8558L38.1181 29.2382L38.3424 42.4365L25.7609 33.8558Z" fill="white"/>
</svg>
