<svg width="108" height="108" viewBox="0 0 108 108" fill="none" xmlns="http://www.w3.org/2000/svg">
<g clip-path="url(#clip0_345_21107)">
<path d="M45.0249 9.00144V5.39184H50.3752V0.0179443H53.984V5.34683H59.3568V8.95643H54.029V14.3303H50.4202V9.00144H45.0294H45.0249Z" fill="white"/>
<path d="M107.973 8.9745H102.609V14.3484H99.0183V8.9835H93.623V5.3919H98.9868V0H102.578V5.36489H107.973V8.9745Z" fill="white"/>
<path d="M16.2217 12.5886V8.97901H19.7855V5.40991H23.3944V8.9565H26.9627V12.5661H23.4169V16.1352H19.808V12.5886H16.2217Z" fill="white"/>
<path d="M49.0163 45.3C51.2887 43.0272 53.5566 40.7543 55.901 38.4049C57.089 39.5931 58.2589 40.7633 59.4919 41.992C61.8273 39.6516 64.1762 37.3022 66.6016 34.8763V37.7388H70.1564V28.8003H61.2288V32.3919H63.9647C62.4078 33.9627 60.8778 35.5019 59.2624 37.1357C58.1329 35.9745 56.972 34.7818 55.7705 33.5486C52.7017 36.6856 49.6598 39.7956 46.6494 42.8741C47.3649 43.6078 48.1569 44.4179 49.0163 45.2955V45.3Z" fill="white"/>
<path d="M49.0163 45.2999C48.1569 44.4223 47.3649 43.6122 46.6494 42.8785C49.6598 39.8 52.7062 36.6855 55.7705 33.553C56.972 34.7862 58.1284 35.9789 59.2624 37.1401C60.8778 35.5108 62.4078 33.967 63.9647 32.3963H61.2288V28.8047H70.1564V37.7432H66.6016V34.8807C64.1762 37.3066 61.8273 39.656 59.4919 41.9964C58.2634 40.7677 57.089 39.5975 55.901 38.4093C53.5566 40.7587 51.2887 43.0271 49.0163 45.3044V45.2999Z" fill="white"/>
<path d="M21.5991 86.356C21.5991 82.4493 24.866 79.1773 28.7493 79.1863C32.7317 79.1953 35.976 82.4493 36.012 86.383C36.048 90.1591 32.6462 93.6517 28.7538 93.5977C24.848 93.5437 21.5991 90.2986 21.5991 86.3515V86.356ZM28.8078 90.0061C30.7247 90.0241 32.3717 88.4038 32.3852 86.4865C32.3987 84.4612 30.8237 82.7959 28.8708 82.7779C26.8639 82.7599 25.2305 84.3442 25.208 86.329C25.1855 88.3543 26.7874 89.9926 28.8078 90.0106V90.0061Z" fill="white"/>
<path d="M21.626 100.754V97.2163H35.9579V100.754H21.626Z" fill="white"/>
<path d="M46.7979 95.3439C46.7979 92.4635 49.2637 89.9925 52.1436 89.988C55.1225 89.9835 57.6019 92.4139 57.6019 95.3484C57.6019 98.3504 55.163 100.794 52.1751 100.794C49.2592 100.794 46.7979 98.2964 46.7979 95.3484V95.3439ZM54.0021 95.4114C54.0021 94.3313 53.2866 93.5706 52.2516 93.5616C51.1672 93.5526 50.3932 94.2953 50.3842 95.3619C50.3752 96.4241 51.1087 97.1937 52.1436 97.2027C53.2551 97.2162 53.9976 96.4961 54.0021 95.4114Z" fill="white"/>
<path d="M55.7616 86.3649H48.6294V82.8318H55.7616V86.3649Z" fill="white"/>
<path d="M87.7869 7.03465C88.5384 7.82678 89.3079 8.64142 90.1044 9.48306C90.0234 9.58208 89.9559 9.68559 89.8704 9.77111C86.527 13.1107 83.1926 16.4592 79.8268 19.7763C79.3093 20.2894 79.0528 20.7979 79.2643 21.5811H79.8808C86.104 21.5811 92.3318 21.5811 98.555 21.5811C100.773 21.5811 102.578 22.3732 103.712 24.3805C104.225 25.2897 104.387 26.2934 104.391 27.306C104.405 39.062 104.4 50.8224 104.391 62.5784C104.391 63.1905 104.333 63.8341 104.144 64.4102C103.973 64.9233 104.144 65.0358 104.562 65.1933C106.124 65.7964 107.213 66.8901 107.672 68.5059C107.87 69.199 107.982 69.9416 107.987 70.6663C108.005 81.1845 108.005 91.7073 107.996 102.226C107.996 105.183 106.385 107.271 103.707 107.824C103.163 107.937 102.591 107.991 102.033 107.991C83.1701 108 64.3114 108 45.4482 107.995C43.9408 107.995 42.5593 107.613 41.4074 106.551C40.1204 107.703 38.595 108 36.9571 108C26.5895 107.995 16.2219 107.986 5.85436 108C3.53246 108 1.75953 107.104 0.60758 105.065C0.1306 104.224 0.00460512 103.292 0.00460512 102.352C0.000105308 82.8858 -0.00889432 63.42 0.031604 43.9543C0.031604 43.0767 0.351091 42.136 0.738075 41.3349C2.04302 38.6209 3.43346 35.943 4.81941 33.2695C5.21539 32.5044 5.44038 31.7438 5.42238 30.8616C5.39088 29.2729 5.34588 27.6661 5.52138 26.0908C5.78236 23.7864 7.63179 22.0357 9.92669 21.7026C10.4442 21.6261 10.9706 21.5811 11.4926 21.5811C15.9159 21.5721 20.3438 21.5676 24.7671 21.5811C26.306 21.5856 27.7234 21.9411 28.8934 23.0483C30.1398 24.232 30.5763 25.7173 30.5988 27.3645C30.6168 28.7148 30.5808 30.065 30.6168 31.4152C30.6258 31.8293 30.7158 32.2794 30.9003 32.6484C32.2908 35.4479 33.6992 38.2383 35.1391 41.0153C35.7511 42.1945 36.0166 43.4277 36.0076 44.7464C35.9896 48.2885 36.0076 51.8351 35.9941 55.3772C35.9941 55.7598 36.0976 55.9173 36.4756 56.0343C39.7155 57.0425 40.6379 60.7286 38.2755 63.159C37.623 63.8296 36.9346 64.4687 36.2956 65.1528C36.1381 65.3194 36.0211 65.5984 36.0166 65.8235C35.9941 67.3987 36.0346 68.974 35.9941 70.5492C35.9581 72.075 36.4441 73.4027 37.452 74.5054C38.523 75.6801 39.6615 76.8008 40.7909 77.926C41.2814 78.4165 41.8214 78.8531 42.4108 79.3842C43.1263 78.6191 43.9453 77.7594 44.7417 76.8728C44.8812 76.7198 44.9802 76.4677 44.9802 76.2562C45.0027 74.852 44.9892 73.4522 44.9892 72.0075H43.3243C43.2613 71.9355 43.2163 71.9085 43.2163 71.8815C43.2343 69.9326 43.1983 67.9838 43.2973 66.0395C43.4053 63.9646 44.6337 62.6009 46.4247 61.7098C46.7037 61.5702 46.8027 61.4307 46.7982 61.1247C46.7847 59.0813 46.7982 57.038 46.7757 54.9946C46.7757 54.7696 46.6407 54.4951 46.4787 54.3285C44.0533 51.8756 41.6099 49.4362 39.1755 46.9923C38.334 46.1507 37.731 45.1695 37.5645 43.9723C37.3306 42.2665 37.839 40.7813 39.0135 39.5436C39.8909 38.6164 40.8089 37.7343 41.7089 36.8296C47.1671 31.3612 52.6344 25.9063 58.0747 20.4199C59.0511 19.4387 59.9916 18.4441 61.418 18.183C62.057 18.066 62.7185 17.985 63.3665 17.9805C67.6233 17.9625 71.8801 17.967 76.1324 17.9805C76.5824 17.9805 76.8929 17.841 77.2079 17.5259C80.4478 14.2674 83.6966 11.0223 86.95 7.77728C87.175 7.55224 87.418 7.3497 87.7735 7.03015L87.7869 7.03465ZM79.1968 25.1952C79.1968 25.4382 79.1968 25.6408 79.1968 25.8433C79.1968 28.5977 79.2013 31.3567 79.1968 34.1112C79.1923 35.6684 78.7513 37.0637 77.6264 38.1933C74.661 41.1638 71.6866 44.1298 68.7347 47.1138C68.5502 47.2984 68.4153 47.6179 68.4153 47.879C68.3973 52.8478 68.4018 57.8166 68.4018 62.7854C68.4018 64.1492 69.0407 64.7928 70.3862 64.7928C79.8538 64.7928 89.3169 64.7928 98.7845 64.7928C99.0455 64.7928 99.3155 64.7838 99.563 64.7163C100.418 64.4777 100.796 63.8611 100.796 62.7584C100.796 50.9485 100.796 39.134 100.796 27.324C100.796 27.045 100.764 26.7614 100.715 26.4869C100.589 25.8028 100.143 25.3347 99.4955 25.2447C98.753 25.1412 97.9835 25.2222 97.1871 25.2222V39.5526H82.7832V25.1997H79.2058L79.1968 25.1952ZM14.6695 104.39C14.575 103.607 14.413 102.869 14.413 102.131C14.395 95.6049 14.404 89.0833 14.3995 82.5572C14.3995 81.144 14.8765 79.9108 15.8574 78.8981C17.3019 77.4039 18.7823 75.9411 20.2178 74.4334C21.1132 73.4882 21.5677 72.318 21.5902 71.0173C21.6217 69.2755 21.6082 67.5292 21.5902 65.7874C21.5902 65.5759 21.4687 65.3194 21.3202 65.1618C20.6407 64.4372 19.9118 63.7576 19.2323 63.033C18.2693 62.0068 17.7834 60.8051 18.0714 59.3829C18.4628 57.4566 19.6598 56.3044 21.5587 55.8993V45.0075H3.60446V45.5836C3.60446 64.5002 3.60446 83.4169 3.60446 102.334C3.60446 103.769 4.23443 104.395 5.65187 104.395C8.44625 104.395 11.2361 104.39 14.0305 104.386C14.251 104.386 14.476 104.386 14.6695 104.386V104.39ZM82.8102 82.7508H68.3838V68.4249H61.1751V72.0075H59.3976C59.3976 73.2452 59.4336 74.4424 59.3841 75.6351C59.3526 76.3912 59.6136 76.9808 60.1356 77.4939C60.9726 78.3265 61.769 79.2042 62.651 79.9873C64.2259 81.387 64.8289 83.1243 64.8109 85.1947C64.7704 90.069 64.8109 94.9433 64.7929 99.8176C64.7884 101.325 64.7029 102.833 64.6534 104.354H71.1016C71.1061 104.3 71.1151 104.278 71.1061 104.264C71.0296 104.161 70.9531 104.053 70.8722 103.949C68.9192 101.496 68.0913 98.7014 68.5188 95.6004C69.1667 90.9376 73.0996 86.8104 78.1124 86.5134C80.9157 86.3469 83.7326 86.3829 86.5405 86.4099C89.1369 86.4369 91.4318 87.3055 93.4162 89.0338C97.493 92.5849 98.384 98.3009 95.5041 102.865C95.1891 103.364 94.8157 103.823 94.4557 104.323C94.5367 104.35 94.5862 104.377 94.6357 104.377C97.3355 104.377 100.035 104.399 102.735 104.363C103.109 104.359 103.532 104.152 103.847 103.918C104.378 103.526 104.405 102.901 104.4 102.284C104.4 91.7298 104.4 81.171 104.4 70.6167C104.4 70.4862 104.4 70.3557 104.4 70.2252C104.346 69.01 103.685 68.3799 102.47 68.3799C96.1161 68.3799 89.7624 68.3799 83.4041 68.3799C83.2241 68.3799 83.0396 68.3799 82.8192 68.3799V82.7418L82.8102 82.7508ZM73.0591 21.5811C72.7711 21.5811 72.5731 21.5811 72.3751 21.5811C69.3377 21.5811 66.3003 21.6216 63.263 21.5586C62.2235 21.5361 61.49 21.9006 60.7881 22.6072C55.9643 27.4636 51.118 32.2929 46.2807 37.1357C44.7417 38.6749 43.1983 40.2052 41.6819 41.7624C40.8269 42.6401 40.8269 43.5807 41.6099 44.5214C41.7674 44.7104 41.9384 44.8815 42.1094 45.057C45.3942 48.347 48.6836 51.6371 51.9729 54.9226C52.2654 55.2152 52.5669 55.4987 52.8954 55.7463C53.6334 56.3044 54.5693 56.2594 55.2668 55.6473C55.6043 55.3502 55.9193 55.0306 56.2388 54.7111C62.102 48.8511 67.9608 42.9911 73.8195 37.1312C74.229 36.7216 74.6475 36.312 75.039 35.8845C75.4215 35.4704 75.606 34.9933 75.6015 34.4082C75.5835 31.1632 75.5925 27.9181 75.5925 24.6776C75.5925 24.5021 75.5745 24.3265 75.552 24.016C74.733 24.8531 74.004 25.5957 73.2616 26.3519C72.4291 25.5102 71.6326 24.7091 70.8272 23.8945C71.5381 23.1563 72.2491 22.4182 73.0546 21.5811H73.0591ZM25.2036 66.6156C25.2036 66.8991 25.2036 67.1377 25.2036 67.3807C25.1766 68.7849 25.1811 70.1937 25.1136 71.5934C25.0101 73.7718 24.1101 75.5856 22.5487 77.1023C21.2032 78.4075 19.8803 79.7353 18.5933 81.099C18.2963 81.4095 18.0354 81.9046 18.0309 82.3187C17.9949 89.0653 18.0039 95.8165 18.0084 102.563C18.0084 103.706 18.6968 104.395 19.8263 104.395C25.8065 104.399 31.7823 104.399 37.7625 104.395C38.9415 104.395 39.5985 103.72 39.5985 102.532C39.5985 95.857 39.6075 89.1823 39.5805 82.5122C39.5805 82.0847 39.4005 81.5581 39.117 81.252C37.821 79.8478 36.4396 78.5246 35.1301 77.1338C34.5722 76.5397 34.0592 75.8781 33.6272 75.185C32.6912 73.6773 32.4213 71.976 32.3988 70.2297C32.3853 69.037 32.3988 67.8398 32.3988 66.6201H25.2036V66.6156ZM48.6026 72.012C48.6026 73.2317 48.6161 74.3884 48.6026 75.5496C48.5801 77.1923 48.0626 78.6236 46.8522 79.7893C45.7857 80.8199 44.7642 81.8866 43.7248 82.9443C43.3693 83.3044 43.1983 83.7229 43.1983 84.254C43.2118 90.312 43.2073 96.3655 43.2073 102.424C43.2073 103.742 43.8643 104.395 45.1737 104.395C49.8625 104.395 54.5468 104.395 59.2356 104.395C60.5631 104.395 61.2021 103.76 61.2021 102.428C61.2021 96.388 61.2111 90.3525 61.1841 84.3125C61.1841 83.885 61.0041 83.3629 60.7251 83.0478C59.8071 82.0126 58.8442 81.009 57.8272 80.0683C56.3468 78.7001 55.6763 77.0573 55.7978 75.05C55.8563 74.0463 55.8068 73.0382 55.8068 72.0075H48.6116L48.6026 72.012ZM86.419 104.408C90.3518 104.408 93.5782 101.154 93.6007 97.2072C93.6232 92.972 90.1583 89.97 86.4775 89.9835C82.4547 89.997 79.2553 93.188 79.1878 97.1352C79.1203 101.019 82.6032 104.534 86.4235 104.408H86.419ZM4.68891 41.3304C4.79691 41.3529 4.81491 41.3619 4.8329 41.3619C10.5702 41.3664 16.3074 41.3754 22.0402 41.3619C22.2112 41.3619 22.4497 41.1548 22.5397 40.9838C23.2866 39.5166 24.0021 38.0313 24.7356 36.5596C25.1136 35.7944 25.514 35.0428 25.9325 34.2237C25.7525 34.2012 25.667 34.1832 25.577 34.1832C19.9343 34.1832 14.2915 34.1832 8.64875 34.1742C8.33826 34.1742 8.19426 34.2867 8.06377 34.5657C7.52829 35.7224 6.97031 36.8656 6.40334 38.0043C5.85436 39.1025 5.27839 40.1917 4.68441 41.3304H4.68891ZM26.9855 30.5511C26.9855 29.2774 27.035 28.0442 26.972 26.8154C26.9135 25.7443 26.2205 25.1772 25.1496 25.1772C22.0987 25.1772 19.0433 25.1772 15.9924 25.1772C14.251 25.1772 12.5096 25.1727 10.7682 25.1772C9.8367 25.1817 9.07623 25.7623 9.03573 26.6084C8.97723 27.9091 9.02223 29.2189 9.02223 30.5466H26.9945L26.9855 30.5511ZM50.4295 61.1787C50.6545 61.1787 50.839 61.1787 51.0235 61.1787C52.4859 61.1787 53.9439 61.1652 55.4063 61.1787C57.5302 61.2057 59.3346 61.9078 60.3606 63.8746C60.7656 64.6442 61.2426 64.8423 62.0435 64.7928C63.0605 64.7253 64.0819 64.7748 64.9819 64.7748C64.9189 63.5146 64.8154 62.3264 64.8064 61.1382C64.7839 58.0101 64.7974 54.8821 64.7974 51.7541V51.052C64.5994 51.232 64.4914 51.322 64.3924 51.421C63.092 52.7173 61.796 54.018 60.5001 55.3142C59.5326 56.2819 58.5877 57.272 57.5977 58.2127C55.7978 59.914 53.4804 60.157 51.3475 58.9058C51.0505 58.7303 50.767 58.5277 50.4295 58.3072V61.1787ZM32.3628 55.7508V45.0255H25.2351V55.7508H32.3628ZM72.0466 68.4069V79.1547H79.1698V68.4069H72.0466ZM93.5647 35.9475V25.2222H86.437V35.9475H93.5647ZM28.8034 59.3829C26.7245 59.3829 24.6456 59.3829 22.5667 59.3829C22.2067 59.3829 21.8557 59.3379 21.6712 59.7744C21.4912 60.202 21.6262 60.5396 21.9232 60.8411C22.5532 61.4802 23.1741 62.1328 23.8266 62.7494C23.9796 62.8935 24.2541 62.9745 24.4746 62.9745C27.359 62.988 30.2433 62.988 33.1277 62.9745C33.3212 62.9745 33.5777 62.9475 33.6992 62.8259C34.4147 62.1373 35.1256 61.4442 35.7736 60.6926C35.9491 60.4856 36.0121 60.031 35.9086 59.7834C35.8231 59.5809 35.4136 59.4054 35.1481 59.4009C33.0332 59.3694 30.9138 59.3829 28.7989 59.3829H28.8034ZM57.5887 68.3574C57.5887 67.6553 57.6292 67.0026 57.5797 66.3545C57.5122 65.4724 56.8507 64.7973 56.0273 64.7928C53.4804 64.7748 50.938 64.7748 48.3911 64.7928C47.6126 64.7973 46.9106 65.4094 46.8387 66.1655C46.7712 66.8811 46.8252 67.6102 46.8252 68.3529H57.5932L57.5887 68.3574ZM72.2491 95.3619H75.8084C76.1684 93.3996 76.9064 91.6172 78.3508 90.087C75.6915 90.1455 72.5146 92.936 72.2491 95.3619ZM72.2491 99.0165C72.5776 101.456 76.2449 104.642 78.3238 104.282C76.9424 102.766 76.1774 100.983 75.795 99.0165H72.2446H72.2491ZM31.3278 41.3484C30.4728 39.6741 29.6539 38.0763 28.8079 36.42C27.9484 38.1033 27.1295 39.7011 26.2835 41.3484H31.3278Z" fill="white"/>
</g>
<defs>
<clipPath id="clip0_345_21107">
<rect width="108" height="108" fill="white"/>
</clipPath>
</defs>
</svg>
