<svg width="97" height="113" viewBox="0 0 97 113" fill="none" xmlns="http://www.w3.org/2000/svg">
<g clip-path="url(#clip0_345_21087)">
<path d="M62.0799 27.1841C56.711 26.8494 54.4169 22.8579 54.3345 19.7539C54.2181 15.2434 57.0941 12.2364 62.0799 11.5962V10.956C62.0799 8.12843 62.0799 5.30088 62.0799 2.47333C62.0799 0.804931 62.9384 -0.0583692 64.5874 -0.000169169C70.097 0.203531 75.3301 1.45968 80.1365 4.22418C87.1593 8.26423 92.1257 14.0891 94.9629 21.6648C96.2627 25.1374 96.9466 28.77 96.9999 32.4997C97.0193 34.0614 96.1851 34.9053 94.6186 34.9101C90.9229 34.9198 87.2272 34.915 83.5266 34.9101C81.8485 34.9101 80.9416 33.8189 81.315 32.1893C81.8534 29.8176 80.8009 27.897 78.7591 27.2423C75.9364 26.3402 73.201 28.7846 73.783 31.6849C73.8218 31.8837 73.8557 32.0826 73.8994 32.2766C74.234 33.8189 73.4435 34.8762 71.8575 34.8956C69.3549 34.9295 66.8475 34.9247 64.3449 34.8956C62.8996 34.8762 62.0896 34.0032 62.0848 32.5385C62.0799 30.7634 62.0848 28.9883 62.0848 27.1744L62.0799 27.1841ZM65.9648 30.9865H69.8593C69.9709 28.9058 70.5868 27.0725 72.0758 25.5981C73.5647 24.1237 75.3495 23.3186 77.4399 23.2798C81.7127 23.2022 84.4675 25.8843 85.423 30.9962H93.0908C92.1111 15.5004 78.8415 4.41818 65.9599 3.96228C65.9599 4.18053 65.9599 4.40363 65.9599 4.62188C65.9599 7.59008 65.9648 10.5631 65.9599 13.5313C65.9551 15.1949 64.9317 16.0194 63.3215 15.6896C63.1421 15.6556 62.9626 15.6314 62.7832 15.5974C61.2021 15.287 59.8974 15.7623 58.942 17.0476C58.0108 18.3086 57.8895 19.7151 58.5685 21.107C59.2621 22.5184 60.4115 23.338 62.0508 23.2701C62.5504 23.2507 63.0451 23.1343 63.5446 23.0519C64.7523 22.8482 65.6059 23.4059 65.8678 24.6039C65.9357 24.9143 65.9551 25.2441 65.9551 25.5642C65.9648 27.3587 65.9551 29.1532 65.9551 30.9913L65.9648 30.9865Z" fill="#F39406"/>
<path d="M6.29038 71.7897C6.27098 71.0767 6.59108 70.5238 7.18278 70.1795C9.44288 68.8554 11.7078 67.5411 13.997 66.2655C14.9622 65.7272 16.0437 66.0715 16.5627 66.9688C17.1204 67.9291 16.8682 68.9767 15.8546 69.5732C13.6284 70.8779 11.3926 72.168 9.13248 73.4047C7.77448 74.1468 6.30008 73.2738 6.29038 71.7897Z" fill="#F39406"/>
<path d="M5.7812 50.44C4.68995 50.44 3.60355 50.4497 2.5123 50.4352C2.1534 50.4303 1.7848 50.3915 1.4356 50.3042C0.6305 50.0957 0 49.2809 0 48.4855C0 47.7046 0.582 46.9383 1.3968 46.7104C1.72175 46.6182 2.07095 46.5649 2.41045 46.5649C4.70935 46.5503 7.00825 46.5503 9.30715 46.5649C9.6806 46.5649 10.0734 46.6522 10.4226 46.788C11.1453 47.0644 11.6303 47.8259 11.606 48.534C11.577 49.3245 11.0192 50.0666 10.2432 50.28C9.89885 50.377 9.53025 50.4255 9.17135 50.4303C8.0413 50.4497 6.91125 50.4352 5.7812 50.4352V50.44Z" fill="#F39406"/>
<path d="M91.1701 46.5551C92.2371 46.5551 93.309 46.5551 94.376 46.5551C94.4972 46.5551 94.6185 46.5551 94.7397 46.5551C96.0153 46.5987 96.9659 47.4232 96.961 48.4854C96.961 49.5863 96.0201 50.4157 94.6912 50.4302C92.6348 50.4496 90.5784 50.4448 88.5172 50.4302C87.974 50.4302 87.4259 50.4157 86.8973 50.3138C86.0049 50.1392 85.355 49.3099 85.355 48.466C85.355 47.6366 85.9806 46.7976 86.8827 46.6909C88.037 46.5551 89.2107 46.589 90.3796 46.5502C90.6415 46.5405 90.9034 46.5502 91.1653 46.5502L91.1701 46.5551Z" fill="#F39406"/>
<path d="M50.4447 5.87802C50.4447 7.04687 50.4544 8.22057 50.4447 9.38942C50.4301 10.4516 49.8966 11.2373 49.0382 11.4992C47.7384 11.8969 46.6132 10.9899 46.5744 9.47672C46.5453 8.32727 46.5695 7.17297 46.5695 6.02352C46.5695 4.77222 46.5598 3.52092 46.5695 2.26962C46.5841 1.18807 47.1612 0.349018 48.0148 0.121068C49.2807 -0.218432 50.4107 0.751568 50.4447 2.24052C50.4689 3.45302 50.4495 4.66552 50.4495 5.87317L50.4447 5.87802Z" fill="#F39406"/>
<path d="M16.8053 29.2455C16.8247 30.5113 15.4327 31.4377 14.1669 30.8508C13.3666 30.4774 12.61 30.0021 11.8437 29.5559C10.2966 28.6489 8.73489 27.7614 7.22169 26.7962C6.05284 26.0493 5.95584 24.6234 6.94524 23.765C7.54664 23.2412 8.34204 23.1684 9.20049 23.6437C10.704 24.4682 12.1929 25.317 13.677 26.1754C14.4288 26.6071 15.166 27.0678 15.8983 27.5286C16.49 27.902 16.7616 28.4695 16.8053 29.2503V29.2455Z" fill="#F39406"/>
<path d="M90.7096 71.4743C90.7096 73.1912 89.2449 74.0788 87.9208 73.3998C86.7035 72.7741 85.5201 72.0757 84.3318 71.3967C83.2842 70.7953 82.2366 70.1842 81.2084 69.5537C80.2384 68.9572 79.9329 67.9241 80.4179 67.0026C80.9077 66.0763 82.0135 65.7222 83.0223 66.28C85.2921 67.541 87.5377 68.8553 89.7832 70.1648C90.3749 70.5092 90.7047 71.0572 90.7096 71.4743Z" fill="#F39406"/>
<path d="M25.1182 6.27585C25.836 6.30495 26.3986 6.5426 26.7284 7.10035C28.0863 9.40895 29.4444 11.7224 30.749 14.0601C31.2631 14.9816 30.909 16.0146 30.0409 16.519C29.1485 17.0428 28.1688 16.8585 27.5626 15.9176C26.6944 14.5596 25.899 13.1531 25.0939 11.7563C24.5507 10.8154 23.9929 9.87455 23.5273 8.89485C23.0375 7.85695 23.5274 6.7948 24.5992 6.3971C24.7835 6.3292 24.9872 6.30495 25.1133 6.271L25.1182 6.27585Z" fill="#F39406"/>
<path d="M69.8982 46.5551C72.9489 46.5551 75.9607 46.5406 78.9677 46.5697C79.4576 46.5697 79.9862 46.6715 80.4227 46.8801C81.2181 47.2584 81.4752 48.0101 81.4752 48.8492C81.48 52.2539 80.8253 55.5519 79.7922 58.7771C77.3139 66.5323 72.4784 72.4396 65.5817 76.6882C64.5875 77.2993 63.5059 77.76 62.4729 78.3129C62.3128 78.4002 62.1043 78.5942 62.0946 78.7494C62.0606 79.6321 62.0752 80.5197 62.0752 81.4363C62.9191 81.4751 63.7242 81.48 64.5196 81.5479C67.4635 81.7952 69.68 84.0165 69.8012 87.2466C69.8594 88.818 69.8352 90.3991 69.7042 91.9657C69.486 94.5362 67.449 96.5635 64.8736 96.869C63.9764 96.9757 63.0646 96.9951 62.0752 97.0582C62.0752 97.2425 62.0752 97.4559 62.0752 97.6693C62.0364 99.7499 62.0752 101.835 61.9442 103.906C61.7793 106.55 60.528 108.674 58.4668 110.308C56.7062 111.71 54.6595 112.457 52.4188 112.486C49.4312 112.525 46.4339 112.568 43.456 112.384C39.3723 112.127 35.7251 108.727 35.1868 104.678C34.9103 102.607 34.9879 100.492 34.9152 98.3919C34.9006 97.9506 34.9152 97.5092 34.9152 97.0582C33.9306 97 32.9849 96.9806 32.0488 96.8787C29.6723 96.6217 27.451 94.4634 27.291 92.0918C27.1649 90.1857 27.0921 88.2457 27.291 86.3542C27.5529 83.774 29.6141 81.8971 32.1992 81.5964C33.077 81.4945 33.9646 81.48 34.9152 81.4169C34.9152 80.5245 34.9394 79.6224 34.8958 78.7203C34.8861 78.5603 34.6339 78.3517 34.4447 78.2644C31.1176 76.7512 28.1252 74.7385 25.5644 72.1437C21.5486 68.0746 18.4882 63.3895 16.9314 57.8362C16.039 54.6595 15.4327 51.4197 15.5297 48.1023C15.748 40.6284 18.0808 33.9112 22.7465 28.0184C27.1115 22.4991 32.6696 18.7792 39.4063 16.8392C42.2047 16.0341 45.0759 15.5491 48.0005 15.52C49.601 15.5054 50.44 16.3445 50.4449 17.9401C50.4497 21.6358 50.4497 25.3364 50.4449 29.0321C50.4449 30.7247 49.4264 31.5589 47.7677 31.1952C46.2254 30.8557 44.8383 31.0109 43.7034 32.2234C42.5588 33.4504 42.3163 35.3225 43.1117 36.7824C43.9701 38.3538 45.5318 39.0764 47.2972 38.7272C47.4573 38.6981 47.6173 38.6739 47.7725 38.6399C49.407 38.3101 50.4158 39.0958 50.4352 40.7642C50.4594 42.6606 50.44 44.5618 50.44 46.5066H54.3346C54.4316 43.9458 55.4258 41.8021 57.555 40.2647C58.9954 39.2268 60.6153 38.7175 62.3904 38.8097C66.5129 39.0182 69.1077 41.6954 69.8982 46.5551ZM58.2 81.4751C58.2 80.219 58.2243 79.0501 58.1952 77.8813C58.1612 76.6009 58.685 75.7521 59.9024 75.2574C64.1316 73.5357 67.7254 70.9215 70.6694 67.4295C74.1371 63.3119 76.4118 58.6316 77.2266 53.2821C77.3672 52.3557 77.4885 51.4294 77.6243 50.44C76.6106 50.44 75.7037 50.44 74.8016 50.44C72.5172 50.44 70.2377 50.4497 67.9534 50.4351C66.3238 50.4254 65.3732 49.3196 65.8048 47.7822C65.8582 47.5882 65.8776 47.3845 65.9067 47.1856C66.188 45.4833 65.5478 44.1689 64.1558 43.2232C62.8172 42.3162 61.401 42.3841 60.0382 43.1698C58.4522 44.0816 57.8508 45.6336 58.3843 47.7385C58.7723 49.276 57.9139 50.4109 56.2164 50.4303C54.7226 50.4497 53.2288 50.4303 51.7301 50.4303C51.313 50.4303 50.8959 50.4303 50.4691 50.4303V54.3006C52.5546 54.4461 54.4461 55.0378 55.9157 56.5946C57.3707 58.1418 58.1952 59.9605 58.2 62.1042C58.2 63.9036 57.6229 65.5138 56.4977 66.9154C54.9602 68.836 52.899 69.7042 50.4788 69.8109V81.4654C50.668 81.4654 50.828 81.4654 50.9832 81.4654C53.3646 81.4654 55.7411 81.4654 58.2 81.4654V81.4751ZM42.6897 50.4642C42.5491 52.5788 41.9186 54.4752 40.3569 55.9641C38.7952 57.4579 36.9279 58.2048 34.7697 58.1951C30.7151 58.1757 27.9506 55.3918 27.1018 50.4788H19.3709C19.5649 51.7834 19.7007 53.0493 19.9529 54.2957C21.2673 60.8432 24.5362 66.2607 29.5414 70.6451C31.8548 72.6724 34.4738 74.2195 37.3062 75.3981C38.3684 75.8394 38.8049 76.6154 38.8049 77.7115C38.8049 78.3178 38.8049 78.924 38.8049 79.5303C38.8049 80.1705 38.8049 80.8058 38.8049 81.4412H46.56C46.56 81.1938 46.56 80.9756 46.56 80.7573C46.56 76.596 46.56 72.4299 46.56 68.2686C46.56 67.9873 46.56 67.7011 46.6134 67.4247C46.8607 66.0715 47.7822 65.4653 49.116 65.7514C49.3536 65.8048 49.5864 65.863 49.8241 65.9018C51.2936 66.12 52.5595 65.7514 53.4907 64.5486C54.4025 63.3749 54.611 62.0557 54.0775 60.6686C53.3112 58.6704 51.5895 57.8508 49.3003 58.3455C47.5785 58.7189 46.5649 57.9041 46.5552 56.1387C46.5455 54.5431 46.5552 52.9474 46.5552 51.3518C46.5552 51.0559 46.5552 50.7649 46.5552 50.4642H42.6849H42.6897ZM46.5309 42.7139C41.2444 42.3308 39.0522 38.5526 38.8146 35.468C38.6642 33.5474 39.1977 31.7917 40.3714 30.2494C41.9137 28.2221 44.0283 27.2861 46.5164 27.1551V19.4242C29.7548 20.6707 19.8996 34.7842 19.4825 46.5551C20.2051 46.5551 20.9326 46.5551 21.6553 46.5551C24.0997 46.5551 26.5441 46.5454 28.9885 46.5551C30.7442 46.5648 31.5396 47.5494 31.2049 49.2566C31.1661 49.4554 31.1322 49.6543 31.0934 49.8531C30.8024 51.3954 31.428 52.8407 32.7618 53.7234C34.1489 54.6401 35.8076 54.6449 37.1462 53.738C38.4266 52.8698 39.028 51.3712 38.7321 49.824C38.6545 49.4069 38.5818 48.9898 38.5575 48.5679C38.5042 47.6027 39.0474 46.8801 39.9883 46.6812C40.3811 46.5988 40.7885 46.56 41.1862 46.56C42.9565 46.5454 44.7267 46.5551 46.5261 46.5551V42.7139H46.5309ZM48.5243 85.36C43.3542 85.36 38.1841 85.36 33.014 85.36C31.7869 85.36 31.0497 86.102 31.0449 87.3145C31.0449 88.527 31.0449 89.7395 31.0449 90.9472C31.0449 92.441 31.7384 93.1248 33.2371 93.12C36.7921 93.12 40.3472 93.1103 43.8974 93.1103C50.5419 93.1103 57.1864 93.1151 63.8309 93.12C65.2616 93.12 65.9552 92.4361 65.96 91.0102C65.9649 89.8171 65.9746 88.6289 65.96 87.4358C65.9406 86.0487 65.2228 85.3551 63.8551 85.3551C58.7481 85.3551 53.6362 85.3551 48.5291 85.3551L48.5243 85.36ZM38.8049 97.0291C38.8049 99.0758 38.8049 101.074 38.8049 103.072C38.8146 105.905 41.4918 108.611 44.3242 108.635C47.0499 108.655 49.7804 108.655 52.5061 108.635C55.6004 108.611 58.1903 105.977 58.2 102.878C58.2 101.122 58.2 99.3619 58.2 97.6062V97.0339H54.3249C54.3249 97.2813 54.3249 97.4995 54.3249 97.7178C54.3249 99.3134 54.3394 100.909 54.3249 102.505C54.3055 104.008 53.1366 105.007 51.8514 104.653C51.0463 104.43 50.4546 103.528 50.4449 102.466C50.4352 100.87 50.4449 99.2746 50.4449 97.679C50.4449 97.4656 50.4449 97.2522 50.4449 97.0339H46.5697V97.6499C46.5697 99.2067 46.5794 100.764 46.5649 102.316C46.5649 102.655 46.5212 103.004 46.4339 103.329C46.2157 104.134 45.4154 104.721 44.5812 104.736C43.7907 104.745 43.0438 104.173 42.8207 103.329C42.7285 102.985 42.6946 102.611 42.6946 102.253C42.68 100.521 42.6897 98.7896 42.6897 97.0291H38.8146H38.8049Z" fill="#F39406"/>
</g>
<defs>
<clipPath id="clip0_345_21087">
<rect width="97" height="112.52" fill="white"/>
</clipPath>
</defs>
</svg>
