<svg width="90" height="114" viewBox="0 0 90 114" fill="none" xmlns="http://www.w3.org/2000/svg">
<path d="M84.375 62.7H73.125C69.75 62.7 67.5 64.98 67.5 68.4C67.5 71.82 69.75 74.1 73.125 74.1H78.1875C75.9375 88.35 64.6875 99.75 50.625 102.03V51.3H56.25C59.625 51.3 61.875 49.02 61.875 45.6C61.875 42.18 59.625 39.9 56.25 39.9H50.625V33.06C57.375 30.78 61.875 24.51 61.875 17.1C61.875 7.41 54.5625 0 45 0C35.4375 0 28.125 7.41 28.125 17.1C28.125 24.51 32.625 30.78 39.375 33.06V39.9H33.75C30.375 39.9 28.125 42.18 28.125 45.6C28.125 49.02 30.375 51.3 33.75 51.3H39.375V102.03C25.3125 99.75 14.0625 88.35 11.8125 74.1H16.875C20.25 74.1 22.5 71.82 22.5 68.4C22.5 64.98 20.25 62.7 16.875 62.7H5.625C2.25 62.7 0 64.98 0 68.4C0 93.48 20.25 114 45 114C69.75 114 90 93.48 90 68.4C90 64.98 87.75 62.7 84.375 62.7ZM45 11.4C48.375 11.4 50.625 13.68 50.625 17.1C50.625 20.52 48.375 22.8 45 22.8C41.625 22.8 39.375 20.52 39.375 17.1C39.375 13.68 41.625 11.4 45 11.4Z" fill="white"/>
</svg>
