<svg width="128" height="128" viewBox="0 0 128 128" fill="none" xmlns="http://www.w3.org/2000/svg">
<g clip-path="url(#clip0_345_21132)">
<path d="M73.7077 48.2437C73.8321 49.2025 73.8839 50.1095 74.0809 50.9803C74.3763 52.302 74.7857 53.5977 75.1175 54.9142C75.2367 55.3859 75.4958 55.4999 75.9571 55.4895C76.9937 55.4688 78.0355 55.4377 79.0617 55.5517C81.5185 55.8264 83.1823 57.9359 83.0216 60.46C82.8816 62.6939 80.8654 64.5132 78.5175 64.5132C68.8875 64.5132 59.2574 64.5132 49.6222 64.5132C47.0255 64.5132 44.973 62.554 44.9419 60.0609C44.9108 57.4694 46.8544 55.5258 49.5392 55.4843C50.3582 55.4688 51.1823 55.4792 52.0012 55.5206C52.4676 55.5465 52.7009 55.3755 52.846 54.9298C53.5146 52.8876 53.9137 50.7989 54.0485 48.6635C54.0588 48.5287 53.8722 48.3007 53.7323 48.2592C53.5146 48.1918 53.2606 48.2437 53.0274 48.2437C47.9325 48.2437 42.8324 48.2281 37.7375 48.2437C36.1981 48.2488 34.7832 47.9223 33.5548 46.9583C31.9429 45.6936 31.1084 44.0299 31.0928 41.9774C31.0773 40.0545 31.0928 38.1316 31.0928 36.2138C31.0928 26.4076 31.0928 16.6065 31.0928 6.80018C31.0928 5.14161 31.4401 3.60226 32.5389 2.28058C33.7725 0.793056 35.3585 0.0622498 37.271 0.0156026C38.2402 -0.0103126 39.2146 0.00523652 40.1839 0.00523652C57.0909 0.00523652 74.0031 0.00523652 90.9101 0.0156026C91.6409 0.0156026 92.3925 0.0104195 93.0922 0.181459C95.4297 0.772324 96.8084 2.67449 96.8499 5.28674C96.8758 7.23037 96.8499 9.17401 96.8551 11.1176C96.8603 21.3541 96.8706 31.5906 96.881 41.8271C96.881 45.3515 94.362 48.1141 90.8272 48.197C86.0796 48.3058 81.3267 48.2385 76.5739 48.2437C75.6721 48.2437 74.765 48.2437 73.7025 48.2437H73.7077ZM58.2623 35.7526C65.731 35.7526 73.2049 35.7526 80.6737 35.7474C81.902 35.7474 81.8917 35.737 81.8917 34.4983C81.8917 24.4587 81.8865 14.4192 81.9072 4.37971C81.9072 3.76293 81.7673 3.58671 81.1401 3.58671C71.2717 3.60226 61.4084 3.58671 51.5399 3.58671C46.8752 3.58671 42.2156 3.58671 37.5509 3.61262C35.7057 3.62299 34.7624 4.56112 34.6847 6.39072C34.6588 7.0386 34.664 7.68648 34.664 8.33436C34.664 17.2751 34.6691 26.2106 34.6588 35.1513C34.6588 35.6437 34.7935 35.7629 35.2755 35.7629C42.9412 35.7474 50.6069 35.7526 58.2674 35.7526H58.2623ZM34.6951 39.3599C34.6951 40.3758 34.6484 41.2621 34.7054 42.1432C34.7935 43.5789 35.7368 44.4808 37.1622 44.5793C37.4421 44.6 37.7219 44.6052 38.0018 44.6052C55.365 44.6052 72.7229 44.6052 90.086 44.5948C90.3659 44.5948 90.6458 44.5948 90.9257 44.5637C92.0711 44.4549 92.9523 43.7603 93.1388 42.6304C93.2892 41.7234 93.227 40.7853 93.2892 39.8627C93.3203 39.417 93.1337 39.3185 92.719 39.3288C91.5321 39.3599 90.3452 39.3548 89.1583 39.3548C71.4945 39.3548 53.8308 39.3548 36.167 39.3548C35.7006 39.3548 35.2289 39.3548 34.6951 39.3548V39.3599ZM85.5146 19.7474C85.5146 19.7474 85.5043 19.7474 85.4991 19.7474C85.4991 24.8838 85.5094 30.0201 85.4887 35.1565C85.4887 35.6748 85.6701 35.7629 86.1262 35.7577C88.3083 35.737 90.4851 35.7318 92.6672 35.7629C93.2062 35.7733 93.2995 35.5919 93.2995 35.0995C93.284 25.9255 93.2892 16.7516 93.2892 7.58282C93.2892 6.7639 93.2995 5.9398 93.2736 5.12088C93.2425 4.08428 92.7812 3.60744 91.7653 3.59707C89.9098 3.58152 88.0543 3.61781 86.1988 3.59707C85.6701 3.59189 85.5042 3.72147 85.5042 4.27605C85.525 9.43316 85.5198 14.5955 85.5198 19.7526L85.5146 19.7474ZM71.5153 55.474C71.4842 55.3133 71.4686 55.2148 71.4479 55.1163C71.0332 53.095 70.5512 51.0839 70.2402 49.047C70.1314 48.3214 69.9344 48.2074 69.2762 48.2177C65.6325 48.254 61.9837 48.254 58.34 48.2177C57.8165 48.2177 57.7129 48.3836 57.6351 48.8501C57.2827 50.9025 56.8784 52.9498 56.5 55.0023C56.4741 55.1423 56.4741 55.2874 56.4586 55.474H71.5153ZM64.0517 60.885C68.8616 60.885 73.6766 60.885 78.4864 60.8954C79.0928 60.8954 79.3675 60.6311 79.3935 60.0609C79.4194 59.4856 79.1291 59.1695 78.5486 59.1487C78.1392 59.1332 77.7297 59.1228 77.3202 59.1228C68.2811 59.1228 59.2419 59.1228 50.1975 59.1228C49.8761 59.1228 49.5392 59.1125 49.2334 59.2057C49.0209 59.2679 48.7721 59.4545 48.684 59.6515C48.3523 60.3667 48.7773 60.885 49.6844 60.885C54.4735 60.885 59.2626 60.885 64.0517 60.885Z" fill="white"/>
<path d="M110.596 117.453V115.338C110.098 115.338 109.611 115.353 109.124 115.338C107.677 115.286 106.988 114.581 106.988 113.151C106.988 111.637 106.983 110.129 106.988 108.615C106.993 107.04 107.672 106.371 109.243 106.371C114.685 106.371 120.127 106.371 125.564 106.371C127.233 106.371 127.845 106.983 127.839 108.631C127.839 110.098 127.839 111.57 127.845 113.037C127.855 114.643 127.238 115.291 125.657 115.333C125.227 115.343 124.797 115.333 124.263 115.333C124.263 115.96 124.237 116.561 124.284 117.152C124.294 117.256 124.579 117.406 124.75 117.421C125.263 117.468 125.787 117.421 126.3 117.478C127.311 117.587 127.938 118.214 127.953 119.22C127.985 121.532 127.99 123.843 127.953 126.15C127.933 127.269 127.176 127.959 126.02 127.99C125.051 128.016 124.077 127.99 123.107 127.99C112.721 127.99 102.334 127.99 91.947 127.99C90.5217 127.99 89.0963 128.005 87.671 127.99C86.2975 127.974 85.5978 127.373 85.5563 126.005C85.4941 123.781 85.4941 121.557 85.546 119.334C85.5719 118.126 86.1524 117.587 87.3497 117.463C87.9042 117.406 88.4692 117.406 89.0704 117.375C88.6713 116.421 88.2671 115.504 87.9042 114.576C84.8877 106.822 85.2557 99.172 88.6817 91.6462C90.5476 87.5465 93.1495 83.9287 96.0986 80.5442C96.394 80.2021 96.6791 79.8445 97.0056 79.5335C97.3944 79.1655 97.4773 78.7664 97.3892 78.2481C97.0575 76.263 97.6535 74.5371 98.9389 73.034C99.2499 72.6712 99.2706 72.4172 99.0166 72.0233C98.6227 71.4065 98.2651 70.7586 97.9489 70.1004C97.6069 69.3903 97.6639 68.701 98.3014 68.162C98.7057 67.8199 98.6538 67.5452 98.3947 67.1202C97.6172 65.8296 96.8761 64.5131 96.166 63.1811C95.5596 62.0408 95.7669 61.2944 96.8761 60.6103C98.5657 59.5737 100.276 58.563 101.992 57.573C103.008 56.9874 103.941 57.231 104.542 58.2416C105.345 59.5944 106.112 60.9679 106.864 62.3518C107.035 62.6628 107.18 62.782 107.558 62.7094C108.823 62.4762 109.3 62.699 109.953 63.8238C113.12 69.2659 116.281 74.7133 119.443 80.1607C119.961 81.0573 120.495 81.9436 120.982 82.8558C121.475 83.7836 121.371 84.4626 120.599 85.183C120.262 85.4992 120.288 85.6961 120.531 86.0382C120.879 86.5306 121.164 87.0644 121.459 87.5931C122.06 88.6712 121.889 89.5523 120.837 90.2105C119.505 91.045 118.121 91.8017 116.758 92.5844C116.328 92.8332 115.893 93.0716 115.442 93.2789C114.545 93.6884 113.933 93.5795 113.327 92.7917C112.871 92.1956 112.513 91.5218 112.15 90.8636C111.959 90.5112 111.788 90.3764 111.347 90.5008C110.383 90.7703 109.761 90.5163 109.201 89.6197C108.315 88.1892 107.491 86.7224 106.636 85.2763C106.47 84.9964 106.325 84.7062 106.143 84.4418C105.651 83.7266 105.127 83.7473 104.765 84.5559C104.277 85.6339 103.852 86.7431 103.453 87.8574C102.256 91.2212 101.318 94.6524 101.126 98.2339C100.893 102.557 101.468 106.744 103.422 110.689C104.542 112.943 105.827 115.079 107.491 116.965C107.703 117.204 108.082 117.39 108.403 117.421C109.103 117.489 109.818 117.442 110.59 117.442L110.596 117.453ZM103.313 117.416C103.168 117.188 103.106 117.085 103.039 116.986C99.7682 112.327 97.8453 107.18 97.5447 101.473C97.3011 96.8707 98.1148 92.4133 99.6334 88.0803C100.157 86.5824 100.732 85.1053 101.282 83.6229C100.613 83.1513 99.96 82.7003 99.2395 82.1924C99.1825 82.2857 99.1359 82.3842 99.0633 82.4619C96.4925 85.3126 94.2949 88.412 92.6104 91.8743C91.4183 94.3259 90.3921 96.8344 89.9101 99.5244C88.7957 105.718 89.9101 111.528 93.0303 116.965C93.1546 117.183 93.5226 117.375 93.7818 117.38C95.5077 117.421 97.2337 117.406 98.9596 117.411C100.359 117.411 101.764 117.411 103.313 117.411V117.416ZM124.372 121.101C124.139 121.075 124.009 121.055 123.885 121.055C121.293 121.055 118.702 121.065 116.11 121.07C107.325 121.07 98.5346 121.081 89.7494 121.07C89.2622 121.07 89.0963 121.184 89.1326 121.682C89.1741 122.283 89.1482 122.89 89.1326 123.496C89.1119 124.403 89.1067 124.408 90.0086 124.408C100.784 124.408 111.554 124.408 122.33 124.408C122.869 124.408 123.413 124.434 123.947 124.382C124.097 124.367 124.351 124.139 124.356 123.999C124.393 123.055 124.377 122.107 124.377 121.107L124.372 121.101ZM107.579 66.8195C106.791 67.2757 106.034 67.7266 105.273 68.1568C104.314 68.6958 103.344 69.2089 102.401 69.7791C102.24 69.8775 102.075 70.2196 102.132 70.3699C102.194 70.5358 102.494 70.6343 102.712 70.7172C102.816 70.7587 102.961 70.6809 103.091 70.6602C105.532 70.344 107.636 71.0333 109.263 72.8992C111.518 75.4752 111.544 78.9737 109.372 81.6689C109.046 82.0784 109.01 82.3583 109.289 82.7988C109.828 83.6281 110.3 84.504 110.808 85.3592C111.404 86.3596 111.414 86.3699 112.441 85.7842C113.954 84.929 115.457 84.0479 116.981 83.172C113.83 77.6935 110.715 72.2773 107.579 66.8247V66.8195ZM104.132 80.596C105.941 80.596 107.32 79.2692 107.335 77.5069C107.351 75.6825 105.92 74.1743 104.179 74.1794C102.303 74.1846 100.903 75.5944 100.924 77.4655C100.94 79.1914 102.38 80.596 104.132 80.596ZM124.201 110.005H110.653V111.642H124.201V110.005ZM114.265 117.375H120.583V115.353H114.265V117.375ZM101.836 66.0369C102.671 65.5445 103.407 65.1195 104.179 64.6634C103.541 63.5698 102.945 62.5591 102.329 61.5018C101.52 61.9682 100.789 62.3984 99.9962 62.8597C100.618 63.9326 101.209 64.9485 101.841 66.0369H101.836ZM115.452 89.2258C116.147 88.8111 116.794 88.438 117.416 88.0233C117.473 87.9818 117.406 87.6449 117.308 87.5154C117.245 87.4273 116.981 87.391 116.872 87.4532C116.302 87.7538 115.737 88.0751 115.198 88.4224C115.089 88.4898 114.991 88.7334 115.032 88.837C115.094 88.9873 115.286 89.0806 115.452 89.2258Z" fill="white"/>
<path d="M2.39437 98.6693C2.39437 92.3201 2.39437 85.9761 2.39437 79.6269C2.39437 79.2381 2.34772 78.9375 1.96418 78.7095C0.808364 78.0253 0.108655 76.9835 0.0568252 75.6567C-0.0157371 73.8063 -0.0468353 71.9404 0.0879234 70.0953C0.227865 68.1983 1.8346 66.7419 3.73677 66.5864C4.46758 66.5242 5.20357 66.5345 5.93438 66.5345C11.3558 66.5293 16.7773 66.5242 22.1935 66.5242C25.1012 66.5242 26.8375 68.2294 26.8738 71.1319C26.8893 72.3862 26.8738 73.6353 26.8997 74.8896C26.936 76.4704 26.257 77.6936 25.0131 78.5903C24.5829 78.9012 24.4637 79.2278 24.4637 79.7201C24.4689 91.9417 24.4481 104.168 24.4741 116.39C24.4741 118.743 24.0024 120.92 22.7326 122.915C18.7105 129.218 9.76982 129.767 4.99625 124.009C3.29103 121.951 2.38919 119.619 2.38919 116.939C2.38919 113.897 2.37364 110.849 2.37364 107.807C2.37364 104.765 2.37364 101.717 2.37364 98.6745H2.39437V98.6693ZM6.03804 79.4299C6.02767 79.6476 6.01212 79.7979 6.01212 79.9482C6.00176 91.3664 5.99139 102.785 5.98621 114.203C5.98621 115.39 5.90846 116.587 6.06914 117.758C6.46823 120.739 8.08015 122.884 10.9256 123.921C13.6934 124.926 16.2486 124.356 18.4462 122.397C20.3017 120.744 20.8822 118.577 20.877 116.157C20.8511 104.438 20.8615 92.7192 20.8615 80.9952C20.8615 80.4872 20.8615 79.9741 20.8615 79.4299H6.04322H6.03804ZM13.4705 70.173C13.4705 70.173 13.4705 70.1834 13.4705 70.1886C10.4695 70.1886 7.47373 70.2093 4.47276 70.173C3.77305 70.1678 3.57092 70.4633 3.5761 71.0904C3.58647 72.1892 3.56055 73.2932 3.56055 74.392C3.56055 75.7655 3.56055 75.7603 4.90814 75.7603C10.086 75.7551 15.2638 75.7499 20.4417 75.7499C21.1517 75.7499 21.867 75.7603 22.5771 75.7603C23.0746 75.7603 23.3131 75.5374 23.3079 75.0088C23.2871 73.713 23.3079 72.4224 23.2923 71.1267C23.282 70.2145 23.2353 70.1782 22.3386 70.1782C19.3843 70.1782 16.43 70.1782 13.4705 70.1782V70.173Z" fill="white"/>
<path d="M64.3008 112.679C60.1752 112.622 56.376 112.29 52.6598 111.316C44.4395 109.165 37.09 105.392 30.8755 99.5349C29.7612 98.4879 28.6883 97.3891 27.6569 96.254C26.7239 95.2278 27.0297 93.8802 28.2374 93.3826C28.8334 93.139 29.3932 93.2375 29.8907 93.6055C30.2173 93.8491 30.5127 94.1393 30.7874 94.4451C37.3232 101.608 45.3517 106.164 54.8418 108.097C62.7615 109.714 70.5827 109.284 78.2743 106.76C79.1554 106.47 80.0054 106.102 80.8814 105.801C81.8247 105.475 82.7265 105.786 83.1412 106.532C83.6802 107.501 83.364 108.538 82.2704 108.984C80.7777 109.59 79.2591 110.165 77.7145 110.621C73.2416 111.938 68.665 112.617 64.3008 112.674V112.679Z" fill="white"/>
<path d="M15.4092 61.4136C15.6839 56.0958 16.8811 50.9802 18.7833 46.0148C20.3382 41.9565 22.5099 38.2507 25.1325 34.7988C25.8011 33.9177 26.589 33.6844 27.382 34.068C28.3875 34.5552 28.7036 35.6488 28.0868 36.6284C27.0295 38.3025 25.8737 39.9248 24.8889 41.6456C21.3696 47.7823 19.2757 54.3595 19.0062 61.4654C18.9958 61.7661 18.9595 62.0667 18.8973 62.3621C18.7159 63.3002 17.9592 63.917 17.0833 63.86C16.1659 63.803 15.5025 63.1499 15.4143 62.1911C15.3884 61.9319 15.4143 61.6728 15.4143 61.4136H15.4092Z" fill="white"/>
<path d="M111.943 55.7641C111.959 56.9251 111.399 57.6404 110.564 57.7907C109.611 57.9669 108.781 57.5108 108.512 56.5468C108.216 55.4894 108.056 54.3958 107.781 53.3385C106.325 47.6942 103.93 42.4749 100.597 37.6857C100.312 37.2815 100.012 36.8824 99.768 36.4522C99.3379 35.6955 99.5193 34.8765 100.203 34.3064C100.841 33.7726 101.686 33.7466 102.334 34.296C102.624 34.5448 102.867 34.8558 103.101 35.1668C107.387 40.9044 110.212 47.2951 111.658 54.3025C111.777 54.8727 111.886 55.4428 111.948 55.759L111.943 55.7641Z" fill="white"/>
<path d="M87.6604 29.7765C87.65 30.725 88.4949 31.5802 89.4174 31.5646C90.3711 31.5491 91.19 30.7198 91.19 29.7713C91.19 28.8539 90.3711 27.9987 89.4848 27.9883C88.4689 27.978 87.6656 28.7606 87.6604 29.7765ZM91.1952 9.52123C91.1848 8.59865 90.3607 7.759 89.4693 7.76418C88.4378 7.76937 87.6604 8.54682 87.6604 9.56269C87.6604 10.5216 88.4948 11.3457 89.4382 11.3197C90.4022 11.2938 91.2056 10.4697 91.1952 9.51605V9.52123ZM91.1848 19.7629C91.2004 18.7937 90.3556 17.9177 89.4071 17.9125C88.4482 17.9125 87.6448 18.7159 87.6396 19.68C87.6396 20.5974 88.4327 21.4215 89.3449 21.4526C90.3141 21.4837 91.1693 20.6958 91.1848 19.7629Z" fill="white"/>
<path d="M50.6952 20.784C49.7311 22.5203 48.8708 24.0389 48.0415 25.5731C47.6217 26.3505 47.0049 26.7548 46.1186 26.7548C43.5944 26.7548 41.0651 26.7652 38.541 26.7393C37.4215 26.7289 36.6906 25.9929 36.6803 24.9874C36.6699 23.9819 37.4266 23.2252 38.5825 23.2044C40.5676 23.163 42.5527 23.1682 44.5429 23.1889C45.0405 23.1941 45.3204 23.0282 45.5692 22.598C46.8079 20.4471 48.0726 18.3169 49.3269 16.1814C49.3683 16.1089 49.415 16.0311 49.4564 15.9586C49.8763 15.2278 50.4568 14.7665 51.3482 14.8753C52.1827 14.979 52.6025 15.5439 52.8669 16.2851C53.4111 17.8296 53.9709 19.369 54.5254 20.9084C54.5773 21.0483 54.6395 21.1882 54.7587 21.4889C55.137 20.0791 55.4739 18.8196 55.8108 17.5601C56.6816 14.3156 57.5471 11.071 58.4179 7.82123C58.4594 7.6761 58.4956 7.53098 58.5423 7.38585C58.8325 6.49437 59.5582 5.91906 60.3356 5.97089C61.1908 6.02272 61.8542 6.62913 62.0201 7.58281C62.2119 8.70752 62.3622 9.84261 62.5332 10.9725C62.9893 13.9994 63.4506 17.0263 63.9119 20.0532C64.1089 21.3541 64.3162 22.6499 64.5339 24.0545C64.6479 23.9042 64.7205 23.8368 64.7515 23.759C65.7104 21.0794 66.6537 18.3998 67.6178 15.7253C68.0998 14.3933 68.5974 14.0305 70.0227 14.0201C72.6142 13.9994 75.2057 13.9994 77.7972 14.0201C79.321 14.0357 80.2384 15.0982 79.8704 16.3732C79.6476 17.1559 79.036 17.6223 78.1186 17.6275C75.8743 17.6431 73.6301 17.6431 71.3806 17.6068C70.8727 17.5964 70.6343 17.7208 70.4529 18.2287C68.8772 22.6965 67.2653 27.1539 65.6638 31.6165C65.5549 31.9171 65.4409 32.2281 65.275 32.5028C64.9019 33.1351 64.3214 33.4617 63.5957 33.3684C62.8597 33.2751 62.2792 32.8656 62.1341 32.0985C61.8957 30.8494 61.7039 29.5951 61.5173 28.3356C60.9783 24.7127 60.4548 21.0846 59.921 17.4565C59.8899 17.2491 59.8329 17.047 59.6774 16.819C59.553 17.2181 59.4182 17.6171 59.3146 18.0214C58.4956 21.1053 57.6819 24.184 56.863 27.2679C56.7956 27.5167 56.7334 27.7707 56.6401 28.0091C56.355 28.7555 55.6864 29.2841 54.9867 29.2582C54.2041 29.2271 53.6184 28.8384 53.3437 28.0972C52.7166 26.4024 52.1257 24.692 51.5141 22.9868C51.2705 22.3078 51.0113 21.6392 50.6952 20.7995V20.784Z" fill="white"/>
<path d="M87.6607 29.7765C87.6711 28.7607 88.4693 27.978 89.4852 27.9884C90.3715 27.9987 91.1956 28.8591 91.1904 29.7713C91.1904 30.7198 90.3663 31.5491 89.4178 31.5647C88.49 31.5802 87.6504 30.725 87.6607 29.7765Z" fill="white"/>
<path d="M91.1955 9.52117C91.2058 10.4697 90.3973 11.299 89.4384 11.3249C88.4951 11.3508 87.6606 10.5267 87.6606 9.56782C87.6606 8.54676 88.4381 7.77449 89.4695 7.76931C90.361 7.76413 91.1851 8.60378 91.1955 9.52636V9.52117Z" fill="white"/>
<path d="M91.18 19.7628C91.1644 20.701 90.3092 21.4888 89.34 21.4525C88.4226 21.4214 87.6296 20.5973 87.6348 19.6799C87.6348 18.7159 88.4433 17.9073 89.4022 17.9125C90.3507 17.9125 91.1955 18.7884 91.18 19.7628Z" fill="white"/>
</g>
<defs>
<clipPath id="clip0_345_21132">
<rect width="127.984" height="128" fill="white"/>
</clipPath>
</defs>
</svg>
