<?xml version="1.0" encoding="UTF-8"?>
<!DOCTYPE svg PUBLIC "-//W3C//DTD SVG 1.1//EN" "http://www.w3.org/Graphics/SVG/1.1/DTD/svg11.dtd">
<!-- Creator: CorelDRAW -->
<svg xmlns="http://www.w3.org/2000/svg" xml:space="preserve" width="3.4285in" height="3.02772in" version="1.1" style="shape-rendering:geometricPrecision; text-rendering:geometricPrecision; image-rendering:optimizeQuality; fill-rule:evenodd; clip-rule:evenodd"
viewBox="0 0 192.75 170.22"
 xmlns:xlink="http://www.w3.org/1999/xlink"
 xmlns:xodm="http://www.corel.com/coreldraw/odm/2003">
 <defs>
  <style type="text/css">
   <![CDATA[
    .fil0 {fill:white}
   ]]>
  </style>
 </defs>
 <g id="Layer_x0020_1">
  <metadata id="CorelCorpID_0Corel-Layer"/>
  <path class="fil0" d="M141.64 109.74c-0.78,-1.63 -2.52,-1.43 -3.22,-4.47 -0.6,-2.6 0.35,-4.43 1.64,-5.73 5.45,-5.5 13.55,2.25 9.16,7.91 -2.15,2.77 -2.22,-0.09 -2.19,5.06 0.03,4.99 0.04,10.01 -0,14.99 2.92,0.07 5.91,-4.05 6.37,-7.31 0.31,-2.14 0.52,-3.96 3.02,-3.8 5.85,0.37 1.13,17.07 -12,17.15 -13.31,0.08 -18.05,-17.02 -12,-17.15 2.41,-0.05 2.56,1.88 2.88,4.06 0.46,3.06 3.21,6.72 6.35,7.12l-0 -17.83zm-57.59 -41.66c-0.55,-3.3 0.45,-9.77 -0.37,-12.44 -2.11,-0.42 -22.36,-0.44 -23.74,0.11 -0.51,3.27 0.51,9.68 -0.38,12.38 -4.59,0.05 -19.65,-0.56 -22.91,0.38 -2.56,0.74 -5.26,3.04 -7.3,4.38 -5.6,3.68 -11.11,6.3 -11.7,11.66l0.03 34.58c4.4,-0.5 18.57,-6.45 23.33,-8.38 12.85,-5.2 30.46,-15.3 43.34,-20.75 3.56,-1.5 7.42,-3.42 11.21,-4.78l11.57 -4.41c1.97,-17.93 -6.28,-11.25 -23.07,-12.72zm-24.09 -18.3l23.68 0.03c-0.03,-4.07 0.73,-8.14 -1.73,-10.58 -2.53,-2.5 -5.92,-1.8 -10.16,-1.8 -11.9,0 -11.68,0.7 -11.78,12.35zm-9.15 -26.15c3.49,2.55 3.42,4.21 10.16,3.48 1.19,2.38 0.55,3.96 3.34,5.39 7.22,3.7 12.06,-7.97 4.59,-10.41l-1.78 -0.71c1.48,-7.51 -2.04,-11.98 -9.13,-12.47 -1.2,-1.98 -0.96,-3.16 -3.55,-5.62 -5.98,-5.66 -15.64,-3.56 -19.05,2.96 -4.33,8.28 1.13,21.02 15.43,17.38zm-50.8 111.25l0 7.09c0.15,0.27 0.05,-0.08 0.3,0.72 0.13,0.42 0.06,0.18 0.13,0.5l1.52 7.42c2.69,8.91 12.69,7.57 22.68,8.38 12.71,1.03 25.74,2.27 38.49,2.97 12.46,0.69 25.59,2.11 38.28,3.04l57.78 4.55c6.13,0.46 14.52,2.57 15.29,-4.11 0.34,-2.99 -1.84,-5.34 -3.1,-7.22 -4.21,-6.25 -7.34,-8.95 -4.49,-13.66 12.07,-19.97 15.16,-28.09 22.04,-50 0.96,-3.04 3.08,-15.65 3.82,-16.9l0 -2.73c-1.58,-2.04 -1.51,-3.25 -5.22,-3.04 -15.77,0.89 -35.03,3.26 -49.97,6.37 -42.17,8.78 -57.06,21.07 -92.67,36.65 -14.85,6.5 -21.24,8.29 -36.28,12.36 -4.71,1.28 -6.6,2.23 -7.97,6.15l-0.64 1.45z"/>
 </g>
</svg>
