<svg width="69" height="107" viewBox="0 0 69 107" fill="none" xmlns="http://www.w3.org/2000/svg">
<path fill-rule="evenodd" clip-rule="evenodd" d="M48.4316 0V3.42394H55.3279V0H48.4316ZM1.63995 3.45154C1.18269 3.47443 0.753386 3.67819 0.446225 4.01802C0.139063 4.35785 -0.0207075 4.80588 0.00215527 5.26358C0.025018 5.72128 0.228586 6.15117 0.56808 6.45863C0.907575 6.76609 1.35506 6.92597 1.81232 6.90308H6.957V18.9835H62.1277V6.90308H67.2723C67.7296 6.90308 68.1682 6.72123 68.4915 6.39759C68.8149 6.07395 68.9964 5.63501 68.9964 5.17731C68.9964 4.71961 68.8149 4.28068 68.4915 3.95703C68.1682 3.63339 67.7296 3.45154 67.2723 3.45154H1.81232C1.75488 3.44866 1.69738 3.44866 1.63995 3.45154ZM1.63995 20.7092C1.18269 20.7321 0.753386 20.9359 0.446225 21.2757C0.139063 21.6155 -0.0207075 22.0636 0.00215527 22.5213C0.025018 22.979 0.228586 23.4089 0.56808 23.7163C0.907575 24.0238 1.35506 24.1837 1.81232 24.1608H67.2723C67.7296 24.1608 68.1682 23.9789 68.4915 23.6553C68.8149 23.3316 68.9964 22.8927 68.9964 22.435C68.9964 21.9773 68.8149 21.5384 68.4915 21.2147C68.1682 20.8911 67.7296 20.7092 67.2723 20.7092H1.81232C1.75488 20.7064 1.69738 20.7064 1.63995 20.7092ZM6.957 25.8866V84.5627H62.1277V25.8866H6.957ZM34.4045 37.9393C34.6638 37.9191 34.9242 37.9576 35.1665 38.0521C35.4089 38.1465 35.627 38.2943 35.8045 38.4847C35.8045 38.4847 38.8732 41.7809 41.9593 45.9055C43.5007 47.973 45.0524 50.2475 46.2489 52.4876C47.4454 54.7311 48.335 56.8952 48.335 59.0455C48.335 66.4628 42.111 72.4548 34.5423 72.4548C26.977 72.4548 20.7497 66.4628 20.7497 59.0455C20.7497 56.8952 21.6428 54.7311 22.8393 52.4876C24.0358 50.2475 25.5876 47.9729 27.1289 45.9089C30.2116 41.7809 33.2838 38.4881 33.2838 38.4881C33.5749 38.1724 33.9768 37.9767 34.4045 37.9393ZM34.5423 42.3607C33.6561 43.341 32.2114 44.8597 29.8874 47.9695C28.415 49.9472 26.9495 52.1113 25.884 54.1132C24.8151 56.1117 24.1978 57.9721 24.1978 59.049C24.1978 64.5335 28.7804 69.0032 34.5423 69.0032C40.3077 69.0032 44.8868 64.5334 44.8868 59.0455C44.8868 57.9755 44.2697 56.1117 43.2042 54.1098C42.1353 52.1148 40.6733 49.9472 39.1975 47.9695C36.8734 44.8631 35.4285 43.3444 34.5423 42.3607ZM1.81232 86.2885C1.35415 86.2885 0.914785 86.4704 0.59081 86.794C0.266835 87.1177 0.0848658 87.5566 0.0848658 88.0143C0.0848658 88.472 0.266835 88.9109 0.59081 89.2346C0.914785 89.5582 1.35415 89.7401 1.81232 89.7401H67.2723C67.7305 89.7401 68.1701 89.5582 68.4941 89.2346C68.818 88.9109 69 88.472 69 88.0143C69 87.5566 68.818 87.1177 68.4941 86.794C68.1701 86.4704 67.7305 86.2885 67.2723 86.2885H1.81232ZM6.957 91.4658V103.519H62.1277V91.4658H6.957ZM1.77107 103.546C1.54466 103.558 1.32277 103.614 1.11801 103.711C0.913254 103.809 0.729693 103.945 0.577762 104.114C0.425831 104.282 0.308373 104.479 0.232398 104.693C0.156422 104.907 0.123408 105.133 0.134955 105.36C0.146502 105.587 0.202434 105.809 0.299745 106.014C0.397056 106.219 0.533672 106.402 0.701933 106.555C0.870193 106.707 1.06689 106.824 1.28049 106.9C1.49408 106.976 1.72039 107.009 1.9468 106.998H67.2723C67.7296 106.998 68.1682 106.816 68.4915 106.492C68.8149 106.169 68.9964 105.73 68.9964 105.272C68.9964 104.814 68.8149 104.375 68.4915 104.052C68.1682 103.728 67.7296 103.546 67.2723 103.546H1.9468C1.88937 103.543 1.8285 103.543 1.77107 103.546Z" fill="#F39406"/>
</svg>
