<svg width="131" height="80" viewBox="0 0 131 80" fill="none" xmlns="http://www.w3.org/2000/svg">
<path fill-rule="evenodd" clip-rule="evenodd" d="M18.3681 23.8739L26.6068 32.1125L39.846 18.8733L48.0847 27.1119L34.8454 40.3512L26.6068 32.1125L14.1614 44.6053L5.8978 36.3442L18.3681 23.8739ZM91.6347 18.8733L104.874 32.1125L113.113 23.8739L124.739 35.5004L116.5 43.739L104.874 32.1125L96.6353 40.3512L83.396 27.1094L91.6347 18.8733ZM20.4453 57.9519C20.7026 58.2097 21.0083 58.4142 21.3448 58.5538C21.6813 58.6933 22.042 58.7651 22.4063 58.7651C22.7706 58.7651 23.1313 58.6933 23.4678 58.5538C23.8043 58.4142 24.11 58.2097 24.3674 57.9519L38.3755 43.8813L51.6148 30.642L60.4451 39.4699L27.0661 72.8514C26.7085 73.1968 26.4232 73.6101 26.2269 74.067C26.0306 74.5238 25.9273 75.0152 25.923 75.5125C25.9187 76.0097 26.0135 76.5028 26.2017 76.9631C26.39 77.4233 26.6681 77.8414 27.0197 78.193C27.3713 78.5446 27.7894 78.8227 28.2497 79.011C28.7099 79.1993 29.203 79.294 29.7003 79.2897C30.1975 79.2854 30.6889 79.1821 31.1458 78.9858C31.6027 78.7896 32.0159 78.5043 32.3613 78.1466L65.7403 44.7676L99.1194 78.1466C99.8508 78.8781 100.81 79.2426 101.768 79.2426C102.508 79.2419 103.232 79.0219 103.847 78.6104C104.462 78.1989 104.942 77.6143 105.225 76.9304C105.508 76.2465 105.582 75.4941 105.438 74.7681C105.294 74.0421 104.938 73.3751 104.415 72.8514L71.0355 39.4699L79.8659 30.642L106.299 57.0756C106.557 57.3338 106.863 57.5386 107.199 57.6784C107.536 57.8181 107.897 57.8901 108.262 57.8901C108.626 57.8901 108.987 57.8181 109.324 57.6784C109.661 57.5386 109.967 57.3338 110.224 57.0756L129.84 37.4602C130.097 37.2028 130.302 36.8971 130.441 36.5606C130.581 36.2241 130.653 35.8634 130.653 35.4991C130.653 35.1348 130.581 34.7741 130.441 34.4376C130.302 34.1011 130.097 33.7954 129.84 33.5381L103.403 7.10448C103.761 6.75903 104.046 6.3458 104.243 5.88892C104.439 5.43203 104.542 4.94063 104.547 4.4434C104.551 3.94616 104.456 3.45304 104.268 2.99282C104.08 2.53259 103.801 2.11447 103.45 1.76285C103.098 1.41124 102.68 1.13317 102.22 0.94488C101.76 0.756586 101.267 0.661836 100.769 0.666157C100.272 0.670478 99.7807 0.773783 99.3238 0.970046C98.8669 1.16631 98.4537 1.4516 98.1083 1.80927L65.7403 34.1747L33.3724 1.80927C33.027 1.4516 32.6138 1.16631 32.1569 0.970046C31.7 0.773783 31.2086 0.670478 30.7114 0.666157C30.2141 0.661836 29.721 0.756586 29.2608 0.94488C28.8006 1.13317 28.3824 1.41124 28.0308 1.76285C27.6792 2.11447 27.4011 2.53259 27.2129 2.99282C27.0246 3.45304 26.9298 3.94616 26.9341 4.4434C26.9384 4.94063 27.0418 5.43203 27.238 5.88892C27.4343 6.3458 27.7196 6.75903 28.0772 7.10448L1.64117 33.5381C0.560156 34.6216 -0.253723 37.2529 0.829784 38.3364L20.4453 57.9519Z" fill="white"/>
</svg>
