<svg width="97" height="97" viewBox="0 0 97 97" fill="none" xmlns="http://www.w3.org/2000/svg">
<g clip-path="url(#clip0_345_21055)">
<path d="M96.9822 61.2139C96.9822 65.2521 96.9594 69.2942 96.9973 73.3324C97.0049 74.3969 96.5882 75.0826 95.6676 75.5675C92.781 77.0866 89.9095 78.6359 87.0343 80.1702C81.4618 83.1439 75.8856 86.1177 70.3093 89.0914C70.2676 89.1142 70.2222 89.1331 70.1843 89.1596C69.2145 89.8604 68.3697 89.7241 67.3469 89.0687C59.8727 84.3107 52.3569 79.6247 44.8524 74.9121C43.7046 74.1924 42.5644 73.4537 41.4127 72.7453C40.9468 72.4573 40.7384 72.0558 40.7309 71.533C40.7195 70.8549 40.7119 70.1768 40.7119 69.4987C40.7157 62.5549 40.7346 55.6111 40.7195 48.6673C40.7195 47.6331 41.1059 46.9702 42.0264 46.4777C50.5575 41.9129 59.081 37.3367 67.5818 32.7189C68.419 32.2643 69.0402 32.3098 69.8433 32.7492C77.6774 37.0413 85.5342 41.2992 93.3833 45.5685C94.2546 46.0421 95.107 46.5535 95.9821 47.027C96.7208 47.4286 96.9973 48.0536 96.9935 48.8605C96.986 52.9783 96.9935 57.0961 96.9935 61.2177L96.9822 61.2139ZM67.1651 85.5419C67.1802 85.3411 67.1954 85.2047 67.1954 85.0683C67.1916 81.5832 67.1802 78.0942 67.1802 74.6091C67.1802 71.1694 67.1802 67.7296 67.1916 64.2899C67.1916 63.9149 67.1045 63.6725 66.737 63.5134C66.3203 63.3353 65.9225 63.1004 65.5248 62.8769C58.9522 59.1645 52.3834 55.4482 45.8109 51.732C45.0759 51.3153 44.3372 50.9062 43.5493 50.4629C43.5266 50.6486 43.5 50.766 43.5 50.8872C43.5 57.2628 43.5 63.6346 43.4887 70.0102C43.4887 70.4269 43.644 70.6617 43.9925 70.8814C48.3262 73.609 52.6562 76.3554 56.9823 79.0943C60.3501 81.2271 63.7216 83.3599 67.1651 85.5419ZM70.2222 85.6782C70.3926 85.6138 70.4836 85.5911 70.5631 85.5494C73.1732 84.1895 75.7871 82.8295 78.3934 81.462C83.515 78.7761 88.6291 76.0827 93.7508 73.4006C93.9743 73.2832 94.069 73.1657 94.069 72.9006C94.0614 65.7825 94.0614 58.6682 94.0577 51.5502C94.0577 51.3873 94.0387 51.2282 94.0236 51.0274C93.9023 51.0842 93.8417 51.1031 93.7887 51.1334C91.8681 52.1525 89.9512 53.1829 88.0268 54.1905C87.7313 54.3459 87.6897 54.558 87.6897 54.8459C87.701 57.3234 87.6972 59.8009 87.7124 62.2784C87.7162 62.9944 87.4548 63.5323 86.8259 63.8808C84.7235 65.0286 82.6286 66.1916 80.5148 67.3167C79.5677 67.8206 78.5676 67.2864 78.3934 66.2181C78.3327 65.8469 78.3441 65.4643 78.3441 65.0855C78.3441 63.555 78.3593 62.0246 78.363 60.4941C78.363 60.1911 78.3252 59.888 78.3024 59.513C78.0789 59.6266 77.9388 59.691 77.8062 59.7668C75.5143 61.0283 73.2376 62.3163 70.9268 63.5437C70.3851 63.8316 70.2146 64.1536 70.2146 64.7521C70.2297 71.4573 70.2184 78.1662 70.2146 84.8714C70.2146 85.1176 70.2146 85.3638 70.2146 85.682L70.2222 85.6782ZM76.647 57.0772C76.4803 56.9597 76.3439 56.8461 76.1886 56.759C74.7112 55.9483 73.23 55.1376 71.7526 54.3307C65.5854 50.963 59.4144 47.599 53.2509 44.2199C52.891 44.023 52.6259 44.0154 52.2584 44.2199C50.6257 45.1102 48.974 45.9625 47.3337 46.8338C46.5837 47.2316 45.8412 47.6369 45.057 48.065C45.2123 48.1559 45.307 48.2127 45.4017 48.2658C49.2771 50.4402 53.1524 52.6109 57.024 54.7929C60.7857 56.9143 64.5398 59.047 68.2977 61.1722C68.5553 61.32 68.7789 61.4526 69.1198 61.2632C71.6011 59.8653 74.0937 58.494 76.6508 57.0772H76.647ZM62.623 38.6702C62.8427 38.7952 62.9753 38.8748 63.1079 38.9505C67.7333 41.4924 72.3625 44.0305 76.9879 46.5724C79.9693 48.2127 82.9506 49.8568 85.9243 51.5161C86.2729 51.713 86.5305 51.7055 86.8714 51.5047C87.6707 51.0312 88.4928 50.5993 89.311 50.1523C90.3717 49.5727 91.4324 49.0007 92.5537 48.3908C92.4098 48.2923 92.3037 48.2089 92.1901 48.1445C86.8032 45.22 81.4126 42.3031 76.0295 39.3748C73.7452 38.1323 71.4761 36.8594 69.1918 35.6207C68.9948 35.5146 68.6576 35.4691 68.472 35.5639C66.9416 36.3404 65.4301 37.1549 63.9148 37.9618C63.5132 38.1739 63.1155 38.3974 62.6268 38.6664L62.623 38.6702ZM55.7815 42.3675C56.4065 42.6857 56.971 42.9622 57.524 43.2615C65.0247 47.3149 72.514 51.3873 80.0299 55.4141C80.9239 55.8952 81.2686 56.5089 81.2535 57.4787C81.2232 59.3236 81.2535 61.1722 81.261 63.0171C81.261 63.1611 81.28 63.305 81.2913 63.4982C82.3748 62.9072 83.3749 62.3428 84.3939 61.82C84.7159 61.6533 84.8068 61.4526 84.803 61.1154C84.7917 59.191 84.7576 57.2628 84.8106 55.3384C84.8295 54.6338 84.6174 54.2701 83.981 53.9254C75.878 49.4931 67.7939 45.0268 59.7098 40.5605C59.4522 40.4204 59.2628 40.4279 59.0166 40.5681C58.2059 41.0265 57.3839 41.4583 56.5694 41.9015C56.3118 42.0417 56.0618 42.197 55.7777 42.3637L55.7815 42.3675Z" fill="#F39406"/>
<path d="M54.5465 18.3994C54.6866 19.0964 54.876 19.7366 54.9291 20.3882C55.0313 21.5815 55.0844 22.7786 55.0957 23.9757C55.1033 24.9076 54.5768 25.4038 53.6449 25.4114C52.4629 25.4265 51.2772 25.4114 50.0953 25.4114C39.7421 25.4114 29.3889 25.4114 19.0357 25.4152C18.8766 25.4152 18.7212 25.4152 18.5621 25.4076C17.759 25.3508 17.2704 24.9 17.2173 24.0969C17.1037 22.3581 17.1567 20.6269 17.6605 18.9411C17.7098 18.7782 17.7477 18.6115 17.8045 18.3956C17.6037 18.388 17.4522 18.3729 17.3007 18.3729C12.6752 18.3767 8.05361 18.388 3.42819 18.3729C2.99633 18.3729 2.91678 18.4979 2.91678 18.907C2.92814 43.6062 2.92436 68.3092 2.92436 93.0084C2.92436 94.0729 2.92436 94.0729 3.98506 94.0729C25.3885 94.0729 46.7882 94.0729 68.1916 94.0729C68.8836 94.0729 69.2283 93.7206 69.2258 93.016C69.2258 92.8114 69.2258 92.6069 69.2334 92.4023C69.2788 91.5613 69.7372 91.0613 70.5328 90.9855C71.1919 90.9249 71.9041 91.4363 72.067 92.1371C72.139 92.4402 72.139 92.7622 72.1427 93.0766C72.1541 93.8191 72.1655 94.5616 72.1503 95.3003C72.1314 96.4216 71.5707 96.9709 70.4418 97.0012C70.3168 97.0012 70.188 97.0012 70.063 97.0012C47.3981 97.0012 24.7331 97.0012 2.06822 97.0012C1.8485 97.0012 1.625 97.0088 1.40907 96.9747C0.473376 96.8307 0.0339426 96.3231 0.00363678 95.3723C-0.000151443 95.2321 0.00363678 95.0882 0.00363678 94.948C0.00363678 69.1578 0.00363678 43.3676 0.00363678 17.5774C0.00363678 17.4978 0.00363678 17.4182 0.00363678 17.3425C0.0112132 15.9749 0.541564 15.4597 1.90154 15.4597C7.47401 15.4673 13.0427 15.4597 18.6152 15.4749C18.994 15.4749 19.1986 15.3423 19.4069 15.0241C20.9563 12.6527 22.9754 10.7889 25.5135 9.51223C25.7749 9.37964 25.934 9.24326 25.953 8.91747C26.0742 6.85289 26.919 5.06864 28.26 3.54199C30.3094 1.21602 32.8589 0 36.0372 0C38.9238 0 41.4127 0.844774 43.4356 2.89041C45.057 4.5345 46.1707 6.47028 46.3412 8.83792C46.3677 9.19401 46.5306 9.39479 46.8412 9.55768C49.1861 10.8116 51.2355 12.4216 52.6523 14.7059C53.016 15.2931 53.3873 15.5014 54.0616 15.4976C59.3158 15.4673 64.5739 15.4749 69.8281 15.4787C70.2676 15.4787 70.7146 15.4749 71.1464 15.5431C71.8094 15.6454 72.1958 16.0962 72.264 16.7629C72.2905 17.0281 72.2981 17.297 72.2981 17.566C72.2981 21.1004 72.3056 24.6386 72.2981 28.173C72.2981 28.4685 72.2867 28.7791 72.2034 29.0595C72.0102 29.6807 71.4798 29.9989 70.7676 29.9762C70.0933 29.9573 69.6046 29.6163 69.4266 28.9913C69.3546 28.7375 69.3319 28.4647 69.3319 28.1995C69.3243 25.1045 69.3281 22.0134 69.3281 18.9184V18.3956H54.5502L54.5465 18.3994ZM52.1106 22.4755C51.9477 21.5057 51.8682 20.6041 51.6447 19.7442C50.6446 15.9446 48.2163 13.3611 44.6743 11.7889C43.7879 11.395 43.3182 10.8608 43.3523 9.85695C43.3901 8.68639 43.0757 7.57266 42.4961 6.55362C40.4278 2.92451 35.1924 1.80698 31.7073 4.25796C29.8056 5.5952 28.6237 7.37946 28.6577 9.76982C28.6729 10.8267 28.2524 11.4594 27.3167 11.8533C24.9074 12.8724 23.1307 14.6074 21.748 16.797C20.657 18.5206 20.1418 20.3996 20.1191 22.4717H52.1144L52.1106 22.4755Z" fill="#F39406"/>
<path d="M8.6938 79.1322C8.6938 77.4275 8.68622 75.7266 8.6938 74.0219C8.70137 72.7831 9.17111 72.3172 10.4174 72.3134C13.4935 72.3096 16.5657 72.3096 19.6418 72.3134C21.0169 72.3134 21.5927 72.9044 21.5927 74.2795C21.5927 77.5601 21.5927 80.8407 21.5927 84.1213C21.5927 85.4472 21.0623 86.0078 19.7403 86.0154C16.6339 86.0268 13.5276 86.0154 10.4212 86.0116C10.2015 86.0116 9.98179 85.9813 9.76586 85.9358C9.12187 85.7957 8.71653 85.3259 8.71274 84.6668C8.70137 82.8219 8.70895 80.9771 8.70895 79.1322C8.70516 79.1322 8.69759 79.1322 8.6938 79.1322ZM11.6372 75.2871C11.6297 75.4122 11.6145 75.5069 11.6145 75.5978C11.6145 77.9162 11.6221 80.2383 11.6069 82.5567C11.6069 82.9621 11.7357 83.0568 12.1183 83.053C14.1223 83.0378 16.1263 83.053 18.1303 83.053C18.2969 83.053 18.4636 83.0265 18.6379 83.0151V75.2834H11.6335L11.6372 75.2871Z" fill="#F39406"/>
<path d="M8.6977 39.6209C8.6977 37.8556 8.69013 36.0865 8.6977 34.3212C8.70528 33.3287 9.1826 32.8211 10.1789 32.8135C13.4595 32.7946 16.7401 32.7908 20.0207 32.8135C21.0359 32.8211 21.5852 33.412 21.589 34.4349C21.5966 37.8897 21.5966 41.3408 21.589 44.7957C21.589 45.8715 21.0322 46.436 19.9525 46.4397C16.7022 46.4511 13.4557 46.4511 10.2054 46.4397C9.20154 46.4397 8.71664 45.9586 8.70907 44.9623C8.69013 43.1819 8.70528 41.3976 8.70528 39.6172H8.6977V39.6209ZM11.6071 39.4959H11.5805C11.5805 40.6627 11.5881 41.8295 11.5768 42.9963C11.5768 43.2614 11.6222 43.4016 11.9328 43.4016C14.077 43.394 16.2211 43.3978 18.3652 43.4016C18.6001 43.4016 18.7024 43.3258 18.6986 43.072C18.6872 40.7233 18.6835 38.3746 18.6872 36.0221C18.6872 35.6963 18.5888 35.5865 18.2554 35.5865C16.1757 35.6016 14.0921 35.6016 12.0124 35.5865C11.6601 35.5865 11.5957 35.7304 11.5995 36.0373C11.6108 37.1889 11.6033 38.3405 11.6033 39.4921L11.6071 39.4959Z" fill="#F39406"/>
<path d="M8.6977 59.2969C8.6977 57.5468 8.69013 55.7928 8.6977 54.0427C8.70528 53.0312 9.19775 52.5122 10.2054 52.5084C13.4709 52.4933 16.7363 52.4895 20.0018 52.5084C21.0246 52.5122 21.5852 53.0918 21.589 54.1108C21.6004 57.5809 21.6004 61.0547 21.589 64.5247C21.589 65.5778 21.0246 66.1195 19.9108 66.1309C17.8766 66.1498 15.8423 66.1385 13.8042 66.1385C12.6375 66.1385 11.4707 66.146 10.3001 66.1385C9.2129 66.1309 8.71664 65.6687 8.70528 64.6004C8.68634 62.8351 8.70149 61.066 8.70149 59.3007H8.6977V59.2969ZM18.6872 55.4064C16.3651 55.4064 14.13 55.4064 11.8988 55.4064C11.6374 55.4064 11.5995 55.5428 11.5995 55.7701C11.6108 58.0241 11.6146 60.2781 11.6184 62.5321C11.6184 62.748 11.6184 62.9601 11.6184 63.2139C11.7965 63.2139 11.9177 63.2139 12.0427 63.2139C14.0921 63.2177 16.1416 63.2064 18.191 63.2405C18.5925 63.248 18.71 63.1685 18.7024 62.7631C18.6797 61.138 18.691 59.5166 18.6872 57.8915C18.6872 57.0732 18.6872 56.255 18.6872 55.4102V55.4064Z" fill="#F39406"/>
<path d="M36.2269 38.0981C39.6325 38.0981 43.0381 38.0981 46.4475 38.0981C47.512 38.0981 48.0272 38.4883 48.1446 39.352C48.2469 40.1324 47.7204 40.837 46.9438 40.9431C46.6938 40.9772 46.4399 40.9886 46.1899 40.9886C39.5037 40.9886 32.8175 40.9886 26.1313 40.9886C25.9419 40.9886 25.7525 40.9848 25.5668 40.962C24.741 40.8635 24.2599 40.3256 24.2637 39.5036C24.2713 38.7421 24.741 38.2269 25.5403 38.1247C25.7411 38.0981 25.9495 38.0981 26.154 38.0981C29.5142 38.0981 32.8705 38.0981 36.2307 38.0981H36.2269Z" fill="#F39406"/>
<path d="M34.3363 80.5453C31.2905 80.5453 28.2448 80.5453 25.1991 80.5453C25.0096 80.5453 24.8202 80.5453 24.6308 80.5339C23.8012 80.4885 23.2974 80.0111 23.233 79.2156C23.1761 78.5375 23.7368 77.8215 24.4528 77.6852C24.699 77.6397 24.9528 77.6132 25.2028 77.6132C31.3246 77.6094 37.4464 77.6094 43.5719 77.6132C44.197 77.6132 44.8107 77.6549 45.1857 78.2837C45.807 79.3293 45.1744 80.5225 43.947 80.5377C41.6589 80.5642 39.3708 80.5491 37.0827 80.5529C36.166 80.5529 35.253 80.5529 34.3363 80.5529V80.5453Z" fill="#F39406"/>
<path d="M31.6961 60.8464C29.8967 60.8464 28.0973 60.8464 26.2979 60.8464C25.9986 60.8464 25.6956 60.8464 25.4001 60.8123C24.6387 60.7214 24.1576 60.1645 24.15 59.3955C24.1424 58.6113 24.597 58.081 25.3774 57.9749C25.6122 57.9446 25.8471 57.9219 26.0858 57.9219C29.7641 57.9181 33.4387 57.9143 37.1171 57.9219C37.4315 57.9219 37.7535 57.9332 38.0566 58.0014C38.8028 58.1605 39.2688 58.8235 39.2082 59.5697C39.1476 60.2933 38.5907 60.8274 37.8027 60.835C35.7685 60.8539 33.7304 60.8426 31.6961 60.8426V60.8502V60.8464Z" fill="#F39406"/>
<path d="M41.7081 11.5806C41.7574 14.6377 39.0829 17.1682 35.9993 17.2137C33.2036 17.2553 30.0972 14.8081 30.2828 11.1108C30.4268 8.23558 33.052 5.70884 36.0826 5.75051C39.3064 5.79597 41.7422 8.31892 41.7081 11.5806ZM36.0864 8.73184C34.4612 8.72047 33.1695 9.92513 33.1732 11.4556C33.177 13.058 34.3779 14.2475 35.9993 14.2626C37.6699 14.2778 38.8063 13.1603 38.8215 11.4972C38.8329 9.93271 37.6585 8.74699 36.0826 8.73563L36.0864 8.73184Z" fill="#F39406"/>
</g>
<defs>
<clipPath id="clip0_345_21055">
<rect width="96.9974" height="97.0088" fill="white"/>
</clipPath>
</defs>
</svg>
