<svg xmlns="http://www.w3.org/2000/svg" xmlns:xlink="http://www.w3.org/1999/xlink" width="100" zoomAndPan="magnify" viewBox="0 0 75.119995 83.04" height="100" preserveAspectRatio="xMidYMid meet" version="1.0"><defs><clipPath id="8777c3c0f3"><path d="M 0 0.0078125 L 74.132812 0.0078125 L 74.132812 74.136719 L 0 74.136719 Z M 0 0.0078125 " clip-rule="nonzero"/></clipPath><clipPath id="3914e8bc06"><path d="M 58 48 L 66.988281 48 L 66.988281 57 L 58 57 Z M 58 48 " clip-rule="nonzero"/></clipPath><clipPath id="6f4df2a5de"><path d="M 32 59 L 41 59 L 41 68.246094 L 32 68.246094 Z M 32 59 " clip-rule="nonzero"/></clipPath><clipPath id="c4c49e4fe4"><path d="M 58 17 L 66.988281 17 L 66.988281 27 L 58 27 Z M 58 17 " clip-rule="nonzero"/></clipPath></defs><g clip-path="url(#8777c3c0f3)"><path fill="#ffffff" d="M 0 0.0078125 L 74.132812 0.0078125 L 74.132812 74.136719 L 0 74.136719 Z M 0 0.0078125 " fill-opacity="1" fill-rule="nonzero"/><path fill="#ffffff" d="M 0 0.0078125 L 74.132812 0.0078125 L 74.132812 74.136719 L 0 74.136719 Z M 0 0.0078125 " fill-opacity="1" fill-rule="nonzero"/></g><path fill="#f1940b" d="M 16.433594 49.808594 L 24.277344 45.253906 L 33.1875 59.492188 C 33.578125 59.203125 33.964844 58.910156 34.449219 58.71875 L 25.539062 44.480469 L 30.671875 41.476562 C 30.378906 41.089844 30.1875 40.703125 29.992188 40.21875 L 24.761719 43.222656 L 20.886719 37.117188 L 24.664062 31.015625 L 29.894531 34.019531 C 30.089844 33.535156 30.285156 33.148438 30.574219 32.761719 L 25.441406 29.757812 L 34.351562 15.519531 C 33.867188 15.328125 33.480469 15.035156 33.09375 14.746094 L 24.179688 29.082031 L 16.144531 24.429688 C 15.949219 24.914062 15.660156 25.304688 15.367188 25.691406 L 23.40625 30.339844 L 20.015625 35.859375 L 14.300781 26.753906 C 13.914062 27.046875 13.429688 27.238281 12.945312 27.433594 L 19.242188 37.117188 L 13.238281 46.707031 C 13.722656 46.902344 14.109375 47.09375 14.496094 47.386719 L 20.015625 38.476562 L 23.40625 43.996094 L 15.5625 48.546875 C 15.949219 48.933594 16.238281 49.324219 16.433594 49.808594 Z M 16.433594 49.808594 " fill-opacity="1" fill-rule="nonzero"/><path fill="#f1940b" d="M 58.082031 19.007812 L 42.195312 11.9375 C 42.097656 12.421875 41.808594 12.90625 41.617188 13.292969 L 57.5 20.363281 C 57.691406 19.878906 57.886719 19.394531 58.082031 19.007812 Z M 58.082031 19.007812 " fill-opacity="1" fill-rule="nonzero"/><path fill="#f1940b" d="M 15.660156 55.328125 L 31.347656 62.300781 C 31.445312 61.816406 31.734375 61.332031 31.929688 60.945312 L 16.433594 54.070312 C 16.238281 54.554688 15.949219 54.941406 15.660156 55.328125 Z M 15.660156 55.328125 " fill-opacity="1" fill-rule="nonzero"/><path fill="#f1940b" d="M 31.929688 13.292969 C 31.734375 12.90625 31.445312 12.421875 31.347656 11.9375 L 15.851562 18.8125 C 16.144531 19.199219 16.335938 19.683594 16.53125 20.074219 Z M 31.929688 13.292969 " fill-opacity="1" fill-rule="nonzero"/><path fill="#f1940b" d="M 41.617188 60.945312 C 41.90625 61.332031 42.097656 61.816406 42.195312 62.300781 L 58.082031 55.230469 C 57.789062 54.84375 57.597656 54.359375 57.5 53.875 Z M 41.617188 60.945312 " fill-opacity="1" fill-rule="nonzero"/><path fill="#f1940b" d="M 53.527344 38.476562 L 59.4375 47.871094 C 59.824219 47.578125 60.210938 47.289062 60.695312 47.09375 L 54.304688 37.117188 L 60.597656 27.046875 C 60.113281 26.851562 59.726562 26.5625 59.339844 26.269531 L 53.527344 35.761719 L 50.136719 30.242188 L 58.566406 25.398438 C 58.273438 25.011719 57.984375 24.625 57.789062 24.140625 L 49.363281 29.082031 L 40.355469 14.746094 C 39.96875 15.035156 39.582031 15.328125 39.097656 15.519531 L 48.007812 29.757812 L 43.261719 32.566406 C 43.550781 32.953125 43.84375 33.339844 44.035156 33.824219 L 48.78125 31.015625 L 52.65625 37.117188 L 48.78125 43.222656 L 44.035156 40.414062 C 43.84375 40.894531 43.550781 41.285156 43.261719 41.671875 L 48.007812 44.480469 L 39.097656 58.71875 C 39.582031 58.910156 39.96875 59.203125 40.355469 59.492188 L 49.265625 45.15625 L 57.691406 50.097656 C 57.886719 49.613281 58.082031 49.226562 58.46875 48.839844 L 50.042969 43.996094 Z M 53.527344 38.476562 " fill-opacity="1" fill-rule="nonzero"/><path fill="#f1940b" d="M 11.203125 47.773438 C 8.878906 47.773438 7.039062 49.710938 7.039062 51.9375 C 7.039062 54.261719 8.878906 56.101562 11.203125 56.101562 C 13.527344 56.101562 15.367188 54.164062 15.367188 51.9375 C 15.367188 49.613281 13.527344 47.773438 11.203125 47.773438 Z M 11.203125 47.773438 " fill-opacity="1" fill-rule="nonzero"/><path fill="#f1940b" d="M 36.773438 14.550781 C 39.097656 14.550781 40.9375 12.710938 40.9375 10.386719 C 40.9375 8.0625 39.097656 6.125 36.773438 6.125 C 34.449219 6.125 32.609375 8.0625 32.609375 10.289062 C 32.609375 12.613281 34.449219 14.550781 36.773438 14.550781 Z M 36.773438 14.550781 " fill-opacity="1" fill-rule="nonzero"/><g clip-path="url(#3914e8bc06)"><path fill="#f1940b" d="M 62.921875 48.0625 C 60.597656 48.0625 58.757812 49.902344 58.757812 52.226562 C 58.757812 54.554688 60.597656 56.394531 62.921875 56.394531 C 65.246094 56.394531 67.089844 54.554688 67.089844 52.226562 C 67.183594 50 65.246094 48.0625 62.921875 48.0625 Z M 62.921875 48.0625 " fill-opacity="1" fill-rule="nonzero"/></g><g clip-path="url(#6f4df2a5de)"><path fill="#f1940b" d="M 36.773438 59.6875 C 34.449219 59.6875 32.511719 61.527344 32.511719 63.851562 C 32.511719 66.175781 34.449219 68.015625 36.773438 68.015625 C 39.097656 68.015625 40.9375 66.175781 40.9375 63.851562 C 40.9375 61.625 39.097656 59.6875 36.773438 59.6875 Z M 36.773438 59.6875 " fill-opacity="1" fill-rule="nonzero"/></g><g clip-path="url(#c4c49e4fe4)"><path fill="#f1940b" d="M 62.921875 26.175781 C 65.246094 26.175781 67.089844 24.238281 67.089844 22.011719 C 67.089844 19.683594 65.152344 17.75 62.921875 17.75 C 60.597656 17.75 58.757812 19.589844 58.757812 22.011719 C 58.757812 24.238281 60.597656 26.175781 62.921875 26.175781 Z M 62.921875 26.175781 " fill-opacity="1" fill-rule="nonzero"/></g><path fill="#f1940b" d="M 11.203125 26.175781 C 13.527344 26.175781 15.367188 24.238281 15.367188 22.011719 C 15.367188 19.683594 13.527344 17.75 11.203125 17.75 C 8.878906 17.75 7.039062 19.589844 7.039062 22.011719 C 6.941406 24.238281 8.878906 26.175781 11.203125 26.175781 Z M 11.203125 26.175781 " fill-opacity="1" fill-rule="nonzero"/><path fill="#f1940b" d="M 30.769531 37.117188 C 30.769531 40.605469 33.578125 43.414062 37.0625 43.414062 C 40.550781 43.414062 43.359375 40.605469 43.359375 37.117188 C 43.359375 33.632812 40.550781 30.824219 37.0625 30.824219 C 33.578125 30.824219 30.769531 33.632812 30.769531 37.117188 Z M 30.769531 37.117188 " fill-opacity="1" fill-rule="nonzero"/></svg>