<svg width="102" height="103" viewBox="0 0 102 103" fill="none" xmlns="http://www.w3.org/2000/svg">
<g clip-path="url(#clip0_345_21035)">
<path d="M30.6106 85.0803C30.6106 89.9859 30.6106 94.8914 30.6106 99.7969C30.6106 101.374 29.9262 102.058 28.3407 102.058C22.1939 102.058 16.0513 102.058 9.90456 102.063C9.22867 102.063 8.65905 101.859 8.1787 101.387C5.67068 98.9085 3.16266 96.4345 0.654636 93.9562C0.204043 93.5099 0 92.9657 0 92.3324C0 84.9486 0 77.5605 0 70.1767C0 68.7995 0.714149 68.0555 2.08718 68.0513C10.9078 68.0428 19.7284 68.0428 28.5489 68.0513C29.8965 68.0513 30.6064 68.8122 30.6106 70.2022C30.6106 75.163 30.6106 80.1196 30.6106 85.0803ZM27.1674 98.6322V71.4775H3.43472V90.5512C4.21688 90.3982 4.96078 90.2537 5.70469 90.1006C7.4178 89.7436 9.12665 89.3737 10.844 89.0294C12.3403 88.7276 13.2968 89.6628 13.012 91.1336C12.7399 92.5407 12.4423 93.9392 12.1618 95.342C11.945 96.426 11.7324 97.5099 11.5114 98.6279H27.1674V98.6322ZM8.35724 96.9148C8.41675 96.8936 8.47627 96.8723 8.53578 96.851C8.79083 95.5205 9.04588 94.19 9.31794 92.7659C7.83863 93.0593 6.50386 93.3271 5.24984 93.5779C6.28281 94.6873 7.32002 95.8011 8.36149 96.9148H8.35724Z" fill="#F39406"/>
<path d="M51.0997 0.122282C52.1581 0.122282 53.2336 0.0160097 54.2793 0.143536C56.0817 0.364582 57.2209 1.68236 57.1699 3.48473C57.1444 4.33916 57.3952 4.76425 58.1816 5.09582C58.9893 5.43589 59.7205 5.95875 60.4559 6.45185C60.7747 6.66439 61.017 6.66865 61.3273 6.49011C61.6674 6.29882 62.0117 6.12028 62.373 5.9715C63.8141 5.37638 65.4507 5.76321 66.2796 7.07248C67.3933 8.83235 68.4178 10.656 69.3785 12.5094C70.2372 14.163 69.3105 16.0376 67.8184 16.7858C67.1468 17.1216 66.998 17.5127 67.0575 18.2183C67.1383 19.1833 67.0957 20.161 67.049 21.1302C67.032 21.5085 67.1043 21.7083 67.4613 21.8613C68.6218 22.3587 69.3912 23.1961 69.6675 24.4629C69.8248 25.1813 69.7058 25.8571 69.3742 26.4693C68.4178 28.2206 67.4783 29.989 66.4071 31.6724C65.3911 33.2707 63.559 33.6618 61.8969 32.6543C61.136 32.191 60.6557 32.2335 59.9755 32.7776C59.2954 33.3217 58.4665 33.683 57.68 34.0911C57.408 34.2314 57.272 34.3759 57.289 34.6947C57.3102 35.0986 57.3145 35.5109 57.2677 35.9147C57.0722 37.5088 55.7204 38.7883 54.105 38.8266C52.2134 38.8734 50.3133 38.8734 48.4216 38.8266C46.5215 38.7756 45.0464 37.2368 45.0932 35.3324C45.1144 34.563 44.8849 34.1974 44.1707 33.8871C43.3376 33.5257 42.5851 32.9689 41.8285 32.4503C41.5224 32.242 41.2929 32.191 40.9698 32.3993C40.6765 32.5905 40.3407 32.7181 40.0219 32.8711C38.3598 33.6618 36.6934 32.8839 35.9793 31.7616C34.8825 30.0315 33.8241 28.2674 32.8634 26.4565C32.0982 25.0197 32.5786 23.4214 33.8836 22.4522C34.0239 22.3459 34.1641 22.2099 34.3257 22.1589C35.2014 21.8868 35.2651 21.2832 35.1801 20.4755C35.0866 19.5701 35.1376 18.6349 35.2184 17.7252C35.2566 17.2916 35.1291 17.1471 34.7678 16.994C33.1524 16.2927 32.3703 14.9536 32.6423 13.317C32.7146 12.8749 32.8931 12.4286 33.1099 12.029C33.9091 10.571 34.7168 9.11716 35.5669 7.68886C36.8549 5.52091 38.6913 5.07456 40.8083 6.43485C41.2504 6.71966 41.5054 6.66014 41.9092 6.39659C42.7934 5.81422 43.7371 5.32112 44.6341 4.75575C44.7999 4.64948 44.9826 4.38167 44.9699 4.20313C44.7701 1.33804 46.5045 -0.0775098 49.1868 0.0287624C49.8244 0.0542677 50.462 0.0287624 51.0997 0.0287624C51.0997 0.0585186 51.0997 0.0882748 51.0997 0.118031V0.122282ZM35.7965 13.7676C36.1578 13.9844 36.4936 14.1757 36.8167 14.384C38.0367 15.1704 38.6063 16.2586 38.517 17.7422C38.4448 18.9027 38.466 20.0759 38.5255 21.2407C38.6021 22.6477 38.1217 23.7275 36.906 24.4629C36.5446 24.6797 36.1876 24.9007 35.8007 25.1387C36.7444 26.7583 37.6669 28.3312 38.5936 29.921C38.7806 29.8105 38.8996 29.734 39.0186 29.6617C40.8338 28.548 41.922 28.6075 43.6649 29.802C44.5235 30.3886 45.4375 30.8944 46.3599 31.3833C47.4397 31.9572 48.1028 32.8073 48.2941 34.0103C48.3536 34.3929 48.3578 34.784 48.3578 35.1751C48.3578 35.4471 48.4514 35.5619 48.7234 35.5619C50.3983 35.5619 52.0731 35.5619 53.7352 35.5619C53.7692 35.5067 53.799 35.4769 53.799 35.4429C53.8075 35.2303 53.8117 35.0178 53.8117 34.8095C53.799 33.1092 54.5684 31.9359 56.0987 31.1878C56.9701 30.7627 57.8161 30.2696 58.6025 29.7042C60.0308 28.6797 61.4506 28.565 62.9426 29.5172C63.1764 29.6659 63.4272 29.7807 63.6143 29.8827C64.541 28.2674 65.4337 26.7116 66.3391 25.126C65.948 24.9007 65.5952 24.7094 65.2509 24.4969C64.1286 23.804 63.6058 22.7923 63.627 21.4787C63.6525 20.1185 63.6823 18.7582 63.6738 17.3979C63.6653 16.0546 64.2051 15.0429 65.3699 14.3713C65.6717 14.197 65.9778 14.0269 66.3136 13.8356C66.2073 13.6358 66.1265 13.4616 66.033 13.2958C65.3401 12.0843 64.6217 10.8855 63.9586 9.65702C63.7078 9.19367 63.5293 9.11291 63.0574 9.41897C61.4973 10.4349 60.1796 10.3712 58.7725 9.40622C57.8288 8.76008 56.8426 8.16496 55.8352 7.62084C54.5514 6.92795 53.8202 5.93324 53.8542 4.44118C53.8627 4.12662 53.8542 3.81205 53.8542 3.43372C53.6119 3.43372 53.4207 3.43372 53.2336 3.43372C51.8351 3.43372 50.4365 3.43372 49.038 3.43372C48.3323 3.43372 48.3238 3.43372 48.3493 4.16062C48.4004 5.51666 47.9625 6.62614 46.7553 7.35304C45.5012 8.10545 44.2387 8.84935 42.989 9.61026C42.2748 10.0438 41.5054 10.2606 40.7105 10.0311C39.9921 9.8228 39.3162 9.47423 38.5766 9.16817C37.6839 10.6475 36.7657 12.1735 35.8007 13.7676H35.7965Z" fill="#F39406"/>
<path d="M96.9157 76.3235C96.8562 79.3417 95.8998 82.0495 94.0124 84.4087C91.9082 87.04 90.6202 89.9731 90.5181 93.3866C90.4884 94.4791 90.4544 95.597 90.2206 96.6555C89.3024 100.813 84.9282 103.176 80.9196 101.748C77.8675 100.66 76.0439 98.1518 76.0991 94.9169C76.1672 90.9296 74.9982 87.3971 72.5071 84.2897C70.6708 81.9985 69.7483 79.3587 69.6548 76.451C69.5698 73.9515 70.2244 71.5965 71.5635 69.4881C73.6464 66.2064 76.571 63.9832 80.4138 63.235C85.1365 62.3169 89.3747 63.4348 92.9156 66.7888C95.2239 68.9737 96.3844 71.7368 96.8137 74.84C96.852 75.1035 96.8902 75.3671 96.9072 75.6306C96.9242 75.8602 96.9072 76.0897 96.9072 76.3193L96.9157 76.3235ZM87.534 90.1389C87.568 90.0624 87.6105 90.0029 87.6233 89.9349C88.2312 87.023 89.6977 84.5447 91.4959 82.2365C93.9231 79.1249 94.5267 74.0918 91.3938 70.2363C88.8561 67.1118 85.4893 65.9854 81.5615 66.4615C76.9323 67.0226 72.2776 71.6348 73.1745 77.603C73.4593 79.4819 74.2245 81.1355 75.4105 82.6233C76.8388 84.4215 77.9993 86.3769 78.6199 88.6128C78.7602 89.1229 78.909 89.6288 79.0493 90.1219H81.6083C81.6083 88.1112 81.6168 86.1303 81.5955 84.1537C81.5955 83.9921 81.4468 83.8093 81.3235 83.6776C80.5116 82.8146 79.6869 81.9644 78.9047 81.1483C79.6061 80.4256 80.3628 79.6477 81.1577 78.8315C81.8633 79.5372 82.586 80.2556 83.3086 80.9825C84.044 80.2641 84.7752 79.5542 85.5149 78.8358C86.2843 79.6095 87.0409 80.3704 87.8061 81.1398C86.9602 81.9942 86.1185 82.8274 85.3066 83.6818C85.1578 83.8391 85.0303 84.0984 85.0303 84.3109C85.009 86.1346 85.0175 87.9582 85.0217 89.7818C85.0217 89.8966 85.0515 90.0156 85.0643 90.1389H87.534ZM79.4999 93.5821C79.4999 94.122 79.4786 94.6151 79.4999 95.1082C79.5891 96.7533 80.6391 98.1093 82.2034 98.6322C83.5977 99.0955 85.2343 98.6024 86.229 97.4164C87.1685 96.2942 87.1855 94.9637 87.1174 93.5821H79.4999Z" fill="#F39406"/>
<path d="M19.0736 28.5308C11.9278 39.0007 10.2105 50.2954 13.5092 62.4401C12.5442 62.742 11.6048 63.031 10.6696 63.3328C10.372 63.4306 10.2827 63.2691 10.236 63.0353C9.80239 60.9608 9.30504 58.8991 8.94796 56.812C8.32733 53.1732 8.34009 49.5132 8.83744 45.8617C9.75563 39.0943 12.0469 32.8455 15.9874 27.23C16.0682 27.1153 16.1532 27.0005 16.2467 26.8942C16.4635 26.6519 16.4125 26.4861 16.1532 26.2906C14.9757 25.3852 13.8025 24.4712 12.6462 23.5403C11.8046 22.8644 11.575 21.9717 12.1446 21.2235C12.4209 20.858 12.8843 20.5519 13.3264 20.3989C16.5315 19.2894 19.7495 18.2224 22.9631 17.1469C23.4817 16.9727 24.0046 16.8111 24.5317 16.6581C25.8367 16.2798 26.8952 17.1087 26.8144 18.4732C26.7124 20.2203 26.5721 21.9675 26.4404 23.7146C26.2746 25.8868 26.1045 28.0547 25.9345 30.2227C25.8877 30.8433 25.722 31.4044 25.1693 31.7827C24.4977 32.2461 23.8558 32.2631 23.1587 31.7317C21.8919 30.7625 20.6592 29.7593 19.4094 28.7689C19.3286 28.7051 19.2394 28.6456 19.0736 28.5266V28.5308ZM22.6826 27.128C22.8526 24.8751 23.0141 22.7709 23.1799 20.5817C21.0757 21.2788 19.0736 21.9462 16.9779 22.6391C18.895 24.1482 20.7442 25.602 22.6826 27.128Z" fill="#F39406"/>
<path d="M89.8339 45.9425C88.2398 34.7839 82.8157 25.9974 73.9229 19.2555C74.501 18.4478 75.0578 17.6784 75.602 16.9005C75.789 16.6327 75.9675 16.7049 76.1801 16.8622C79.1089 18.9834 81.7445 21.4192 83.989 24.2503C87.2791 28.4034 89.8722 32.9646 91.4238 38.0401C92.1634 40.4631 92.563 42.9924 93.0816 45.4834C93.1539 45.8405 93.2559 45.951 93.613 45.951C95.1178 45.934 96.6226 45.9383 98.1274 45.951C98.442 45.951 98.7693 45.9893 99.0668 46.0786C100.036 46.3676 100.504 47.4048 100.1 48.3273C100.023 48.5058 99.9298 48.6801 99.8235 48.8416C97.6385 52.1276 95.4621 55.4177 93.2644 58.6909C92.529 59.7834 91.2792 59.8047 90.4886 58.7079C89.3791 57.1734 88.3291 55.6005 87.2664 54.0277C86.1101 52.3104 84.9667 50.5845 83.8274 48.8586C83.5043 48.3698 83.1898 47.8724 83.4066 47.2305C83.6786 46.4229 84.3673 45.951 85.3917 45.9425C86.667 45.9298 87.9423 45.9425 89.2175 45.9425C89.3918 45.9425 89.5661 45.9425 89.8382 45.9425H89.8339ZM95.4833 49.39H88.1676C89.4046 51.2391 90.5948 53.0202 91.8233 54.8609C93.0688 52.999 94.2548 51.2264 95.4833 49.39Z" fill="#F39406"/>
<path d="M67.2662 86.717C67.7168 87.6649 68.1717 88.5831 68.5755 89.5183C68.6095 89.5991 68.3672 89.8924 68.2057 89.9519C66.2673 90.6575 64.3416 91.4269 62.365 92.0051C57.876 93.3143 53.2766 93.7607 48.6091 93.4971C48.1883 93.4716 48.1415 93.7139 48.065 93.9817C47.5974 95.6311 47.151 97.2847 46.6579 98.9255C46.3349 100.001 45.3869 100.52 44.4432 100.107C44.0436 99.933 43.6908 99.5801 43.3975 99.2401C41.4123 96.9318 39.4484 94.6066 37.476 92.2856C37.0169 91.7457 36.5621 91.2059 36.1115 90.6575C34.934 89.2165 35.2868 88.056 37.0552 87.4949C39.4952 86.7212 41.9352 85.9433 44.3752 85.1569C45.5867 84.7658 46.7897 84.362 47.997 83.9581C48.7069 83.7201 49.3615 83.7626 49.9184 84.3067C50.4625 84.8381 50.488 85.4842 50.2839 86.1771C49.9396 87.3461 49.6123 88.5193 49.2807 89.6926C49.2425 89.8243 49.2212 89.9604 49.183 90.1262C55.487 90.3727 61.502 89.3312 67.2662 86.7212V86.717ZM40.001 90.1262C41.4378 91.7968 42.7896 93.3696 44.2137 95.0232C44.9108 92.6639 45.574 90.411 46.2881 88.005C44.1159 88.7404 42.1052 89.4205 40.0053 90.1304L40.001 90.1262Z" fill="#F39406"/>
<path d="M84.9839 61.2244H81.647V57.8875H84.9839V61.2244Z" fill="#F39406"/>
<path d="M67.9971 73.1865V76.5235H64.6602V73.1865H67.9971Z" fill="#F39406"/>
<path d="M102 73.178V76.5149H98.6548V73.178H102Z" fill="#F39406"/>
<path d="M69.2171 64.5996C69.8888 63.945 70.6454 63.2096 71.4106 62.4614C72.0865 63.1883 72.8134 63.9705 73.5105 64.7229C72.8814 65.3478 72.1375 66.0917 71.4106 66.8143C70.7135 66.1129 69.961 65.352 69.2129 64.5954L69.2171 64.5996Z" fill="#F39406"/>
<path d="M97.0054 64.1575C97.677 64.8546 98.3996 65.5985 99.0883 66.3127C98.3614 67.0481 97.5962 67.8217 96.8098 68.6167C96.1127 67.911 95.3688 67.1628 94.6206 66.4147C95.407 65.6708 96.1807 64.9354 97.0011 64.1617L97.0054 64.1575Z" fill="#F39406"/>
<path d="M6.82715 78.2152V74.874H23.7669V78.2152H6.82715Z" fill="#F39406"/>
<path d="M23.7835 83.3884V86.7296H6.84375V83.3884H23.7835Z" fill="#F39406"/>
<path d="M23.7836 91.8904V95.2273H17.0459V91.8904H23.7836Z" fill="#F39406"/>
<path d="M51.0745 10.877C56.4476 10.945 59.453 15.3829 59.5083 19.1917C59.572 23.9442 55.7845 27.8465 51.1723 27.8677C46.3135 27.889 42.526 24.1057 42.5132 19.2214C42.4962 14.6815 46.3815 10.8982 51.0788 10.8812L51.0745 10.877ZM45.9139 19.3745C45.9139 22.1673 48.2222 24.467 51.0193 24.4585C53.8163 24.45 56.0778 22.1971 56.0948 19.4042C56.1118 16.5561 53.8418 14.2819 50.9853 14.2777C48.1839 14.2777 45.9139 16.5561 45.9097 19.3787L45.9139 19.3745Z" fill="#F39406"/>
</g>
<defs>
<clipPath id="clip0_345_21035">
<rect width="102" height="102.145" fill="white" transform="translate(0 0.0244141)"/>
</clipPath>
</defs>
</svg>
