<svg xmlns="http://www.w3.org/2000/svg" xmlns:xlink="http://www.w3.org/1999/xlink" width="100" zoomAndPan="magnify" viewBox="0 0 75.119995 83.04" height="100" preserveAspectRatio="xMidYMid meet" version="1.0"><defs><clipPath id="4a5b17ae0a"><path d="M 0 0.0078125 L 74.132812 0.0078125 L 74.132812 74.136719 L 0 74.136719 Z M 0 0.0078125 " clip-rule="nonzero"/></clipPath><clipPath id="db992762c1"><path d="M 8.179688 8.1875 L 66 8.1875 L 66 66 L 8.179688 66 Z M 8.179688 8.1875 " clip-rule="nonzero"/></clipPath></defs><g clip-path="url(#4a5b17ae0a)"><path fill="#ffffff" d="M 0 0.0078125 L 74.132812 0.0078125 L 74.132812 74.136719 L 0 74.136719 Z M 0 0.0078125 " fill-opacity="1" fill-rule="nonzero"/><path fill="#ffffff" d="M 0 0.0078125 L 74.132812 0.0078125 L 74.132812 74.136719 L 0 74.136719 Z M 0 0.0078125 " fill-opacity="1" fill-rule="nonzero"/></g><path fill="#f1940b" d="M 30.902344 35.839844 C 30.394531 35.839844 29.898438 35.691406 29.46875 35.410156 C 28.882812 35.015625 28.476562 34.394531 28.351562 33.695312 C 28.226562 32.996094 28.410156 32.273438 28.835938 31.710938 L 31.535156 28.132812 C 32.1875 27.265625 33.113281 26.621094 34.152344 26.328125 C 36.53125 25.640625 39.78125 25.1875 41.753906 26.949219 C 42.25 27.386719 43.007812 27.523438 43.796875 27.671875 C 44.40625 27.78125 45.050781 27.894531 45.648438 28.15625 C 45.941406 28.289062 46.234375 28.425781 46.515625 28.5625 C 46.527344 28.5625 46.527344 28.574219 46.539062 28.574219 C 46.910156 28.753906 47.296875 28.957031 47.667969 29.171875 C 48.1875 29.464844 48.816406 29.53125 49.394531 29.375 C 49.40625 29.375 49.40625 29.375 49.414062 29.375 C 49.507812 29.351562 49.597656 29.316406 49.6875 29.273438 L 51.34375 28.539062 C 51.683594 28.390625 52.089844 28.539062 52.238281 28.878906 C 52.382812 29.214844 52.238281 29.621094 51.898438 29.769531 L 50.238281 30.503906 C 50.082031 30.570312 49.921875 30.625 49.765625 30.671875 C 49.753906 30.671875 49.753906 30.671875 49.742188 30.671875 C 48.828125 30.929688 47.824219 30.808594 47 30.34375 C 46.652344 30.152344 46.300781 29.960938 45.964844 29.792969 C 45.953125 29.792969 45.953125 29.78125 45.941406 29.78125 C 45.671875 29.644531 45.386719 29.519531 45.105469 29.394531 C 44.65625 29.195312 44.125 29.101562 43.5625 29 C 42.613281 28.832031 41.632812 28.652344 40.851562 27.953125 C 39.261719 26.53125 36.203125 27.128906 34.523438 27.625 C 33.769531 27.839844 33.089844 28.3125 32.605469 28.945312 L 29.910156 32.523438 C 29.707031 32.792969 29.628906 33.121094 29.683594 33.457031 C 29.738281 33.796875 29.933594 34.078125 30.214844 34.269531 C 30.417969 34.40625 30.652344 34.472656 30.902344 34.472656 C 31.195312 34.472656 31.476562 34.371094 31.703125 34.179688 L 32.628906 33.402344 C 34.195312 32.070312 36.089844 31.101562 38.132812 30.582031 L 38.179688 30.570312 C 38.203125 30.558594 38.222656 30.558594 38.246094 30.546875 C 38.246094 30.546875 38.257812 30.546875 38.257812 30.546875 C 39.996094 30.097656 40.527344 29.597656 40.558594 29.40625 C 40.628906 29.035156 40.976562 28.796875 41.339844 28.855469 C 41.710938 28.921875 41.945312 29.273438 41.890625 29.632812 C 41.722656 30.59375 40.636719 31.324219 38.585938 31.855469 C 38.574219 31.855469 38.574219 31.855469 38.5625 31.855469 L 38.527344 31.878906 C 38.507812 31.890625 38.484375 31.890625 38.460938 31.902344 C 36.632812 32.363281 34.917969 33.242188 33.507812 34.441406 L 32.582031 35.21875 C 32.109375 35.613281 31.523438 35.839844 30.902344 35.839844 Z M 30.902344 35.839844 " fill-opacity="1" fill-rule="nonzero"/><path fill="#f1940b" d="M 48.964844 46.375 C 48.355469 46.375 47.78125 46.140625 47.339844 45.722656 C 47.339844 45.722656 47.339844 45.722656 47.328125 45.710938 C 47.316406 45.699219 47.316406 45.699219 47.304688 45.6875 L 40.773438 39.1875 C 40.515625 38.929688 40.503906 38.5 40.773438 38.230469 C 41.035156 37.960938 41.460938 37.960938 41.734375 38.230469 L 48.253906 44.71875 C 48.253906 44.71875 48.253906 44.71875 48.265625 44.730469 C 48.265625 44.730469 48.277344 44.738281 48.277344 44.738281 C 48.457031 44.921875 48.707031 45.023438 48.964844 45.023438 C 49.179688 45.023438 49.382812 44.953125 49.5625 44.832031 C 49.789062 44.660156 49.933594 44.402344 49.957031 44.121094 C 49.980469 43.835938 49.878906 43.566406 49.675781 43.351562 L 42.195312 35.917969 C 42.183594 35.90625 42.171875 35.90625 42.171875 35.894531 L 37.953125 31.699219 C 37.683594 31.4375 37.683594 31.011719 37.953125 30.738281 C 38.210938 30.46875 38.640625 30.46875 38.914062 30.738281 L 43.109375 34.914062 C 43.121094 34.925781 43.132812 34.925781 43.132812 34.9375 L 50.632812 42.40625 C 51.121094 42.890625 51.367188 43.542969 51.3125 44.222656 C 51.265625 44.898438 50.929688 45.519531 50.375 45.925781 C 49.957031 46.21875 49.472656 46.375 48.964844 46.375 Z M 48.964844 46.375 " fill-opacity="1" fill-rule="nonzero"/><path fill="#f1940b" d="M 46.019531 48.710938 C 45.457031 48.710938 44.878906 48.519531 44.429688 48.179688 C 44.339844 48.113281 44.238281 48.035156 44.160156 47.945312 L 38.574219 42.394531 C 38.3125 42.132812 38.304688 41.707031 38.574219 41.433594 C 38.832031 41.164062 39.261719 41.164062 39.53125 41.433594 L 45.105469 46.972656 C 45.152344 47.019531 45.195312 47.054688 45.242188 47.097656 C 45.46875 47.265625 45.738281 47.359375 46.019531 47.359375 C 46.335938 47.359375 46.652344 47.246094 46.890625 47.03125 C 47.304688 46.65625 47.429688 46.039062 47.195312 45.53125 C 47.035156 45.191406 47.171875 44.785156 47.507812 44.628906 C 47.847656 44.46875 48.253906 44.605469 48.410156 44.941406 C 48.910156 45.980469 48.660156 47.257812 47.792969 48.035156 C 47.304688 48.464844 46.675781 48.710938 46.019531 48.710938 Z M 46.019531 48.710938 " fill-opacity="1" fill-rule="nonzero"/><path fill="#f1940b" d="M 43.3125 50.675781 C 42.726562 50.675781 42.160156 50.460938 41.722656 50.066406 C 41.710938 50.054688 41.710938 50.054688 41.699219 50.042969 L 37.683594 46.410156 C 37.671875 46.398438 37.671875 46.398438 37.660156 46.386719 C 37.402344 46.128906 37.402344 45.699219 37.660156 45.429688 C 37.917969 45.167969 38.335938 45.167969 38.597656 45.417969 L 42.578125 49.015625 C 42.601562 49.027344 42.613281 49.050781 42.625 49.0625 L 42.636719 49.074219 C 42.816406 49.230469 43.054688 49.320312 43.300781 49.320312 C 43.550781 49.320312 43.785156 49.230469 43.976562 49.0625 C 44.304688 48.769531 44.394531 48.304688 44.214844 47.910156 C 44.058594 47.570312 44.203125 47.164062 44.542969 47.007812 C 44.878906 46.851562 45.285156 46.996094 45.445312 47.335938 C 45.875 48.273438 45.648438 49.367188 44.878906 50.066406 C 44.453125 50.472656 43.886719 50.675781 43.3125 50.675781 Z M 43.3125 50.675781 " fill-opacity="1" fill-rule="nonzero"/><path fill="#f1940b" d="M 40.570312 52.445312 C 39.984375 52.445312 39.421875 52.230469 38.980469 51.835938 L 35.933594 49.082031 C 35.652344 48.835938 35.640625 48.40625 35.890625 48.125 C 36.136719 47.84375 36.566406 47.832031 36.847656 48.078125 L 39.894531 50.832031 C 40.074219 51 40.324219 51.09375 40.570312 51.09375 C 40.820312 51.09375 41.054688 51 41.246094 50.832031 C 41.542969 50.574219 41.644531 50.167969 41.53125 49.792969 C 41.496094 49.714844 41.484375 49.636719 41.484375 49.546875 C 41.484375 49.175781 41.789062 48.871094 42.160156 48.871094 C 42.453125 48.871094 42.703125 49.050781 42.804688 49.320312 C 43.121094 50.210938 42.859375 51.203125 42.160156 51.835938 C 41.710938 52.230469 41.144531 52.445312 40.570312 52.445312 Z M 40.570312 52.445312 " fill-opacity="1" fill-rule="nonzero"/><path fill="#f1940b" d="M 25.40625 30.207031 C 24.121094 30.207031 22.835938 29.972656 21.628906 29.507812 C 21.277344 29.375 21.097656 28.992188 21.234375 28.640625 C 21.367188 28.289062 21.753906 28.109375 22.101562 28.246094 C 23.523438 28.789062 25.058594 28.96875 26.558594 28.777344 C 26.558594 28.777344 26.570312 28.777344 26.570312 28.777344 C 27.089844 28.707031 27.597656 28.59375 28.09375 28.449219 C 28.160156 28.425781 28.226562 28.414062 28.296875 28.414062 C 28.667969 28.414062 28.972656 28.71875 28.972656 29.09375 C 28.972656 29.40625 28.757812 29.667969 28.464844 29.746094 C 27.902344 29.914062 27.324219 30.039062 26.726562 30.117188 C 26.726562 30.117188 26.714844 30.117188 26.714844 30.117188 C 26.289062 30.1875 25.847656 30.207031 25.40625 30.207031 Z M 25.40625 30.207031 " fill-opacity="1" fill-rule="nonzero"/><path fill="#f1940b" d="M 50.25 43.65625 C 49.96875 43.65625 49.710938 43.488281 49.617188 43.207031 C 49.496094 42.855469 49.675781 42.460938 50.023438 42.335938 C 50.070312 42.324219 54.367188 40.757812 56.601562 38.152344 C 56.851562 37.871094 57.269531 37.835938 57.5625 38.082031 C 57.84375 38.332031 57.878906 38.75 57.628906 39.042969 C 55.160156 41.917969 50.679688 43.542969 50.488281 43.613281 C 50.398438 43.644531 50.328125 43.65625 50.25 43.65625 Z M 50.25 43.65625 " fill-opacity="1" fill-rule="nonzero"/><path fill="#f1940b" d="M 60.132812 39.382812 C 58.125 39.382812 56.175781 38.34375 55.101562 36.492188 L 51.527344 30.332031 C 50.746094 28.992188 50.53125 27.421875 50.9375 25.910156 C 51.34375 24.410156 52.304688 23.144531 53.65625 22.378906 C 53.984375 22.199219 54.390625 22.300781 54.582031 22.628906 L 63.316406 37.667969 C 63.40625 37.824219 63.429688 38.003906 63.382812 38.183594 C 63.339844 38.355469 63.226562 38.511719 63.066406 38.601562 L 63.023438 38.625 C 62.109375 39.132812 61.117188 39.382812 60.132812 39.382812 Z M 53.769531 23.925781 C 53.027344 24.511719 52.496094 25.324219 52.246094 26.261719 C 51.941406 27.410156 52.101562 28.617188 52.699219 29.644531 L 56.277344 35.804688 C 57.390625 37.734375 59.761719 38.511719 61.78125 37.710938 Z M 53.769531 23.925781 " fill-opacity="1" fill-rule="nonzero"/><path fill="#f1940b" d="M 14.859375 41.117188 C 14.40625 41.117188 13.957031 41.027344 13.527344 40.824219 L 11.113281 39.707031 C 10.957031 39.628906 10.820312 39.492188 10.761719 39.324219 C 10.707031 39.15625 10.707031 38.964844 10.785156 38.804688 L 18.140625 23.054688 C 18.300781 22.71875 18.707031 22.570312 19.042969 22.730469 L 21.4375 23.835938 C 22.214844 24.195312 22.800781 24.828125 23.09375 25.628906 C 23.386719 26.429688 23.355469 27.296875 22.992188 28.078125 L 17.769531 39.28125 C 17.214844 40.441406 16.066406 41.117188 14.859375 41.117188 Z M 12.308594 38.773438 L 14.101562 39.59375 C 15.015625 40.011719 16.109375 39.617188 16.539062 38.703125 L 21.761719 27.5 C 21.964844 27.0625 21.988281 26.554688 21.820312 26.089844 C 21.652344 25.628906 21.3125 25.257812 20.859375 25.054688 L 19.078125 24.230469 Z M 12.308594 38.773438 " fill-opacity="1" fill-rule="nonzero"/><path fill="#f1940b" d="M 23.273438 45.429688 C 22.8125 45.429688 22.351562 45.304688 21.945312 45.035156 L 21.503906 44.75 C 20.433594 44.050781 20.070312 42.6875 20.65625 41.558594 C 20.691406 41.503906 20.726562 41.433594 20.769531 41.355469 L 24.121094 36.222656 C 24.855469 35.09375 26.390625 34.765625 27.527344 35.5 C 28.386719 36.054688 28.894531 36.988281 28.894531 37.992188 C 28.894531 38.570312 28.722656 39.132812 28.410156 39.617188 L 25.339844 44.3125 C 24.867188 45.035156 24.078125 45.429688 23.273438 45.429688 Z M 26.1875 36.46875 C 25.824219 36.46875 25.464844 36.652344 25.25 36.96875 L 21.898438 42.101562 C 21.875 42.132812 21.863281 42.15625 21.84375 42.191406 C 21.570312 42.699219 21.742188 43.308594 22.214844 43.625 L 22.65625 43.90625 C 23.171875 44.234375 23.863281 44.097656 24.1875 43.589844 L 27.257812 38.894531 C 27.425781 38.636719 27.515625 38.332031 27.515625 38.015625 C 27.515625 37.464844 27.234375 36.957031 26.773438 36.652344 C 26.601562 36.527344 26.390625 36.46875 26.1875 36.46875 Z M 26.1875 36.46875 " fill-opacity="1" fill-rule="nonzero"/><path fill="#f1940b" d="M 25.25 49.648438 C 24.742188 49.648438 24.234375 49.511719 23.773438 49.207031 C 23.164062 48.8125 22.746094 48.203125 22.585938 47.492188 C 22.441406 46.78125 22.574219 46.058594 22.96875 45.449219 L 27.414062 38.648438 C 28.226562 37.394531 29.921875 37.035156 31.183594 37.859375 C 31.546875 38.082031 31.828125 38.386719 32.042969 38.75 C 32.289062 39.167969 32.425781 39.640625 32.425781 40.136719 C 32.425781 40.65625 32.265625 41.175781 31.984375 41.613281 L 27.527344 48.429688 C 27 49.21875 26.128906 49.648438 25.25 49.648438 Z M 29.695312 38.785156 C 29.242188 38.785156 28.804688 38.996094 28.542969 39.402344 L 28.398438 39.628906 L 24.097656 46.207031 C 23.894531 46.511719 23.828125 46.871094 23.90625 47.222656 C 23.984375 47.570312 24.1875 47.875 24.503906 48.078125 C 25.136719 48.484375 25.984375 48.316406 26.398438 47.695312 L 30.84375 40.882812 C 30.992188 40.65625 31.070312 40.40625 31.070312 40.148438 C 31.070312 39.898438 31.003906 39.664062 30.878906 39.460938 C 30.765625 39.28125 30.621094 39.121094 30.449219 39.007812 C 30.214844 38.851562 29.953125 38.785156 29.695312 38.785156 Z M 29.695312 38.785156 " fill-opacity="1" fill-rule="nonzero"/><path fill="#f1940b" d="M 28.566406 52.050781 C 28.058594 52.050781 27.550781 51.914062 27.089844 51.609375 C 26.480469 51.214844 26.0625 50.605469 25.902344 49.894531 C 25.757812 49.183594 25.894531 48.464844 26.289062 47.855469 L 26.398438 47.683594 L 30.855469 40.871094 C 31.667969 39.617188 33.363281 39.257812 34.625 40.070312 C 35.402344 40.578125 35.867188 41.421875 35.867188 42.347656 C 35.867188 42.878906 35.707031 43.386719 35.425781 43.828125 L 30.855469 50.820312 C 30.335938 51.621094 29.457031 52.050781 28.566406 52.050781 Z M 33.136719 41.003906 C 32.683594 41.003906 32.246094 41.21875 31.984375 41.625 L 27.425781 48.609375 C 27.222656 48.914062 27.15625 49.277344 27.234375 49.625 C 27.3125 49.988281 27.515625 50.292969 27.832031 50.484375 C 28.464844 50.890625 29.324219 50.707031 29.730469 50.089844 L 34.285156 43.105469 C 34.433594 42.878906 34.511719 42.628906 34.511719 42.371094 C 34.511719 41.910156 34.273438 41.480469 33.890625 41.230469 C 33.644531 41.074219 33.382812 41.003906 33.136719 41.003906 Z M 33.136719 41.003906 " fill-opacity="1" fill-rule="nonzero"/><path fill="#f1940b" d="M 31.433594 55.140625 C 30.925781 55.140625 30.417969 55.007812 29.953125 54.703125 C 29.34375 54.308594 28.917969 53.699219 28.769531 52.988281 C 28.621094 52.277344 28.757812 51.554688 29.152344 50.945312 L 34.285156 43.09375 C 35.109375 41.839844 36.792969 41.480469 38.054688 42.292969 C 38.832031 42.789062 39.296875 43.644531 39.296875 44.570312 C 39.296875 45.089844 39.148438 45.609375 38.855469 46.050781 L 36.960938 48.949219 L 33.722656 53.914062 C 33.191406 54.714844 32.324219 55.140625 31.433594 55.140625 Z M 36.566406 43.21875 C 36.113281 43.21875 35.675781 43.429688 35.414062 43.835938 L 30.28125 51.691406 C 30.078125 51.996094 30.011719 52.355469 30.089844 52.707031 C 30.167969 53.066406 30.371094 53.371094 30.6875 53.5625 C 31.320312 53.96875 32.175781 53.789062 32.582031 53.15625 L 37.714844 45.304688 C 37.863281 45.078125 37.941406 44.832031 37.941406 44.570312 C 37.941406 44.109375 37.707031 43.679688 37.320312 43.429688 C 37.085938 43.296875 36.824219 43.21875 36.566406 43.21875 Z M 36.566406 43.21875 " fill-opacity="1" fill-rule="nonzero"/><path fill="#f1940b" d="M 21.253906 42.550781 C 20.972656 42.550781 20.714844 42.382812 20.625 42.101562 C 20.25 41.0625 18.164062 40.035156 16.945312 39.640625 C 16.597656 39.527344 16.394531 39.144531 16.515625 38.785156 C 16.628906 38.433594 17.011719 38.230469 17.375 38.355469 C 17.757812 38.480469 21.1875 39.652344 21.910156 41.648438 C 22.035156 42 21.855469 42.394531 21.503906 42.519531 C 21.402344 42.539062 21.324219 42.550781 21.253906 42.550781 Z M 21.253906 42.550781 " fill-opacity="1" fill-rule="nonzero"/><path fill="#f1940b" d="M 42.636719 36.085938 C 42.261719 36.085938 41.957031 35.78125 41.957031 35.410156 C 41.957031 35.039062 42.261719 34.734375 42.636719 34.734375 C 43.007812 34.734375 43.3125 35.039062 43.3125 35.410156 C 43.3125 35.78125 43.007812 36.085938 42.636719 36.085938 Z M 42.636719 36.085938 " fill-opacity="1" fill-rule="nonzero"/><path fill="#f1940b" d="M 26.648438 30.128906 C 26.277344 30.128906 25.972656 29.824219 25.972656 29.453125 C 25.972656 29.082031 26.277344 28.777344 26.648438 28.777344 C 27.019531 28.777344 27.324219 29.082031 27.324219 29.453125 C 27.324219 29.824219 27.019531 30.128906 26.648438 30.128906 Z M 26.648438 30.128906 " fill-opacity="1" fill-rule="nonzero"/><path fill="#f1940b" d="M 30.4375 31.382812 C 30.292969 31.382812 30.15625 31.335938 30.035156 31.246094 L 27.890625 29.644531 C 27.585938 29.417969 27.527344 29 27.753906 28.695312 C 27.980469 28.390625 28.398438 28.335938 28.703125 28.5625 L 30.84375 30.164062 C 31.148438 30.390625 31.207031 30.808594 30.980469 31.113281 C 30.84375 31.292969 30.640625 31.382812 30.4375 31.382812 Z M 30.4375 31.382812 " fill-opacity="1" fill-rule="nonzero"/><path fill="#f1940b" d="M 44.371094 22.289062 C 44.261719 22.289062 44.136719 22.253906 44.023438 22.199219 C 43.707031 22.007812 43.59375 21.589844 43.785156 21.273438 L 46.042969 17.492188 C 46.234375 17.179688 46.652344 17.066406 46.96875 17.257812 C 47.285156 17.449219 47.398438 17.867188 47.203125 18.183594 L 44.949219 21.960938 C 44.824219 22.175781 44.597656 22.289062 44.371094 22.289062 Z M 44.371094 22.289062 " fill-opacity="1" fill-rule="nonzero"/><path fill="#f1940b" d="M 36.394531 22.378906 C 36.023438 22.378906 35.71875 22.074219 35.71875 21.703125 L 35.71875 17.765625 C 35.71875 17.390625 36.023438 17.085938 36.394531 17.085938 C 36.769531 17.085938 37.074219 17.390625 37.074219 17.765625 L 37.074219 21.703125 C 37.074219 22.074219 36.769531 22.378906 36.394531 22.378906 Z M 36.394531 22.378906 " fill-opacity="1" fill-rule="nonzero"/><path fill="#f1940b" d="M 28.453125 22.289062 C 28.226562 22.289062 28.003906 22.175781 27.878906 21.960938 L 25.589844 18.191406 C 25.394531 17.878906 25.496094 17.460938 25.8125 17.269531 C 26.128906 17.078125 26.546875 17.179688 26.738281 17.492188 L 29.027344 21.261719 C 29.222656 21.578125 29.121094 21.996094 28.804688 22.1875 C 28.691406 22.253906 28.566406 22.289062 28.453125 22.289062 Z M 28.453125 22.289062 " fill-opacity="1" fill-rule="nonzero"/><g clip-path="url(#db992762c1)"><path fill="#f1940b" d="M 37.0625 65.949219 C 29.34375 65.949219 22.089844 62.949219 16.640625 57.488281 C 11.179688 52.027344 8.179688 44.785156 8.179688 37.066406 C 8.179688 29.351562 11.179688 22.097656 16.640625 16.648438 C 22.101562 11.199219 29.34375 8.1875 37.0625 8.1875 C 44.777344 8.1875 52.035156 11.1875 57.484375 16.648438 C 62.941406 22.109375 65.945312 29.351562 65.945312 37.066406 C 65.945312 44.785156 62.941406 52.039062 57.484375 57.488281 C 52.035156 62.949219 44.777344 65.949219 37.0625 65.949219 Z M 37.0625 9.539062 C 21.886719 9.539062 9.535156 21.894531 9.535156 37.066406 C 9.535156 52.242188 21.886719 64.597656 37.0625 64.597656 C 52.238281 64.597656 64.589844 52.242188 64.589844 37.066406 C 64.589844 21.894531 52.238281 9.539062 37.0625 9.539062 Z M 37.0625 9.539062 " fill-opacity="1" fill-rule="nonzero"/></g><path fill="#f1940b" d="M 15.277344 38.285156 C 14.417969 38.285156 13.71875 37.585938 13.71875 36.730469 C 13.71875 35.871094 14.417969 35.171875 15.277344 35.171875 C 16.132812 35.171875 16.832031 35.871094 16.832031 36.730469 C 16.820312 37.585938 16.132812 38.285156 15.277344 38.285156 Z M 15.277344 36.527344 C 15.164062 36.527344 15.074219 36.617188 15.074219 36.730469 C 15.074219 36.84375 15.164062 36.933594 15.277344 36.933594 C 15.390625 36.933594 15.480469 36.84375 15.480469 36.730469 C 15.480469 36.617188 15.390625 36.527344 15.277344 36.527344 Z M 15.277344 36.527344 " fill-opacity="1" fill-rule="nonzero"/><path fill="#f1940b" d="M 54.074219 29.78125 C 53.21875 29.78125 52.519531 29.082031 52.519531 28.222656 C 52.519531 27.367188 53.21875 26.667969 54.074219 26.667969 C 54.933594 26.667969 55.632812 27.367188 55.632812 28.222656 C 55.632812 29.082031 54.933594 29.78125 54.074219 29.78125 Z M 54.074219 28.03125 C 53.960938 28.03125 53.871094 28.121094 53.871094 28.234375 C 53.871094 28.347656 53.960938 28.4375 54.074219 28.4375 C 54.1875 28.4375 54.277344 28.347656 54.277344 28.234375 C 54.277344 28.121094 54.175781 28.03125 54.074219 28.03125 Z M 54.074219 28.03125 " fill-opacity="1" fill-rule="nonzero"/></svg>