<svg width="81" height="110" viewBox="0 0 81 110" fill="none" xmlns="http://www.w3.org/2000/svg">
<g clip-path="url(#clip0_345_21079)">
<path d="M58.1313 71.5261C58.2601 71.8569 58.3589 72.119 58.4663 72.381C61.452 79.495 64.4462 86.6046 67.4275 93.7229C68.1664 95.4842 68.9053 97.2455 69.6012 99.024C69.8074 99.5438 70.005 100.128 69.9793 100.669C69.9191 101.928 68.7378 102.731 67.4232 102.401C65.503 101.915 63.6042 101.339 61.6968 100.802C60.305 100.412 58.9088 100.029 57.5212 99.6254C57.1776 99.5266 56.9886 99.5653 56.7995 99.9175C55.2573 102.8 53.6893 105.67 52.1299 108.544C51.4555 109.785 50.3815 110.288 49.3247 109.845C48.7147 109.592 48.3066 109.128 48.0575 108.526C46.3563 104.458 44.6551 100.386 42.9626 96.3133C42.606 95.4584 42.2494 94.5993 41.9401 93.7229C41.6996 93.0398 41.9101 92.4427 42.4342 92.0475C42.9583 91.6523 43.7186 91.5793 44.2384 91.9702C44.5262 92.185 44.7883 92.5029 44.9301 92.8294C46.2188 95.8322 47.4818 98.8479 48.7448 101.864C49.2044 102.968 49.6469 104.076 50.1367 105.287C50.2827 105.081 50.4159 104.935 50.5061 104.768C51.55 102.852 52.5681 100.927 53.6378 99.024C54.0029 98.3753 54.4067 97.7224 54.9179 97.1897C55.7041 96.3691 56.7308 96.1286 57.8348 96.4336C60.3307 97.1209 62.8223 97.8297 65.3139 98.53C65.4944 98.5815 65.6748 98.6245 65.9712 98.6975C65.8552 98.3925 65.7908 98.1949 65.7092 98.0059C62.2596 89.7707 58.8057 81.5355 55.3561 73.3003C55.2315 73.0039 55.0941 72.7118 55.0039 72.4025C54.8621 71.8956 54.57 71.7152 54.0931 71.9514C53.3328 72.3295 52.5037 72.6345 51.8464 73.15C49.7328 74.8039 47.7353 76.6039 45.5916 78.2148C44.6594 78.915 44.174 79.7656 43.7616 80.788C42.4084 84.1517 40.9993 87.4939 39.6032 90.8361C37.5326 95.7978 35.4534 100.755 33.3699 105.713C32.9747 106.653 32.5494 107.577 32.1413 108.509C31.7761 109.351 31.1489 109.897 30.2339 109.944C29.3318 109.991 28.6788 109.489 28.2492 108.707C26.634 105.781 25.0101 102.86 23.4206 99.9218C23.2187 99.5481 23.034 99.5051 22.6646 99.6082C19.4899 100.523 16.3153 101.434 13.132 102.323C11.6757 102.731 10.4686 102.031 10.2624 100.665C10.2066 100.296 10.2796 99.8703 10.4213 99.518C11.375 97.1295 12.3459 94.7496 13.3339 92.374C16.2079 85.5006 19.0904 78.6358 21.9686 71.7667C21.9944 71.7066 22.003 71.6378 22.0374 71.4961C21.0708 71.3973 20.13 71.3113 19.1978 71.1954C17.9778 71.045 16.7105 71.0364 15.5463 70.6842C11.8304 69.5586 9.77267 66.9167 9.23998 63.1277C8.89202 60.649 8.6987 58.1531 8.48391 55.6572C8.35074 54.0978 7.88249 52.7102 6.84719 51.4988C5.25342 49.6344 3.7155 47.727 2.1561 45.8368C0.192885 43.4526 -0.47727 40.772 0.308874 37.7606C0.605289 36.6351 1.17664 35.6428 1.89405 34.7406C3.2945 32.975 4.6434 31.1579 6.15985 29.4954C7.75361 27.7512 8.48391 25.7794 8.6042 23.4382C8.72448 21.0669 8.99082 18.6956 9.33879 16.3457C9.89725 12.5825 13.2953 9.54965 17.0928 9.22317C19.9238 8.9783 22.7548 8.68189 25.5815 8.38977C26.6855 8.27378 27.6134 7.74109 28.4511 7.04086C30.4014 5.41273 32.3518 3.7846 34.3064 2.16505C37.7774 -0.704585 42.3396 -0.734657 45.8322 2.10491C47.5505 3.50537 49.299 4.88434 50.9271 6.38789C52.5037 7.8399 54.3122 8.46709 56.4086 8.60456C58.853 8.7678 61.2973 8.9783 63.7159 9.34775C68.5444 10.0909 70.8642 14.3224 71.0962 17.7848C71.268 20.3538 71.5687 22.9141 71.8394 25.4744C71.9511 26.5312 72.4064 27.4591 73.0766 28.2796C74.7606 30.3459 76.4059 32.4423 78.1328 34.4743C81.1442 38.0098 80.517 43.0102 78.1199 45.8454C76.4445 47.8258 74.8379 49.8664 73.1539 51.8382C72.2647 52.8821 71.8394 54.0548 71.7148 55.3952C71.4484 58.2605 71.2551 61.1387 70.8384 63.9826C70.2929 67.6856 66.8476 70.7056 63.1102 70.9977C61.5594 71.118 60.0128 71.2813 58.462 71.4316C58.3761 71.4402 58.2945 71.4703 58.1227 71.5133L58.1313 71.5261ZM40.385 3.29057C38.6065 3.14022 37.2662 3.87051 36.0204 4.9273C34.0314 6.61557 32.0167 8.27807 29.9804 9.9105C28.8034 10.8556 27.4244 11.4355 25.9208 11.6031C23.1328 11.9167 20.3362 12.1873 17.5439 12.4537C15.0308 12.6942 12.9559 14.4083 12.5693 16.8999C12.1655 19.4946 11.9034 22.1151 11.7359 24.7355C11.5855 27.1112 10.7435 29.1216 9.20991 30.913C7.67199 32.7044 6.18562 34.5387 4.70355 36.3816C2.71026 38.8604 2.74893 41.6226 4.78087 44.0541C6.40041 45.9915 8.02855 47.916 9.63091 49.8621C10.7221 51.1895 11.4266 52.7059 11.6113 54.42C11.8819 56.946 12.144 59.4719 12.3459 62.0022C12.6208 65.4303 14.5969 67.5482 17.9047 67.8618C20.2718 68.0852 22.6388 68.3042 25.0101 68.5276C27.1881 68.7295 29.147 69.4469 30.8009 70.929C31.4539 71.5133 32.1499 72.0502 32.8243 72.6087C34.2033 73.7514 35.5221 74.9714 36.9655 76.0153C39.0189 77.4974 41.7382 77.3127 43.68 75.7017C45.7076 74.0263 47.731 72.3467 49.7543 70.6627C51.2106 69.4512 52.8731 68.7252 54.7633 68.5491C57.2549 68.3128 59.7508 68.0723 62.2467 67.8747C65.1765 67.6427 67.406 65.7267 67.7411 62.9817C68.0203 60.7091 68.2652 58.428 68.3898 56.1469C68.5401 53.4577 69.3692 51.1079 71.2036 49.0845C72.7329 47.4048 74.1548 45.6264 75.594 43.8693C77.4627 41.5882 77.4713 38.7444 75.6541 36.4246C75.4092 36.1153 75.1472 35.8232 74.898 35.5182C73.3429 33.6237 71.762 31.7507 70.2499 29.8219C69.2919 28.6061 68.7764 27.1756 68.6175 25.6291C68.3339 22.8711 68.0547 20.1132 67.7583 17.3595C67.4877 14.8593 65.4342 12.7372 62.9426 12.4537C60.7045 12.2002 58.462 11.9596 56.2153 11.8222C53.5218 11.6589 51.1204 10.89 49.0842 9.02985C47.4303 7.5263 45.6689 6.14303 43.9592 4.69962C42.8981 3.80178 41.7125 3.24761 40.385 3.27768V3.29057ZM40.4838 80.251C40.3034 80.2382 40.1831 80.2167 40.0585 80.2167C37.756 80.1995 35.7885 79.3446 34.0486 77.8711C32.1241 76.243 30.1995 74.6106 28.2105 73.0598C27.5533 72.5486 26.707 72.2736 25.9423 71.9042C25.6287 71.7538 25.4139 71.844 25.2851 72.2006C25.0273 72.9051 24.7481 73.601 24.4602 74.2927C21.1395 82.2314 17.8145 90.1659 14.4895 98.1047C14.4208 98.2679 14.3821 98.4483 14.3177 98.6717C14.4681 98.646 14.5196 98.6374 14.5712 98.6245C17.0069 97.92 19.4384 97.2068 21.8741 96.5152C23.833 95.961 25.2249 96.5453 26.1958 98.3109C26.9518 99.6899 27.6864 101.077 28.4339 102.461C28.9365 103.393 29.4478 104.321 29.9976 105.33C33.5116 96.9276 36.987 88.6194 40.4838 80.2553V80.251Z" fill="#F39406"/>
<path d="M39.7326 14.606C47.3277 14.7735 53.5223 17.3124 58.4926 22.5318C62.2214 26.4497 64.5197 31.1322 65.2973 36.5321C65.9159 40.8065 65.3961 44.9391 63.9484 48.9815C62.1226 54.0764 58.8792 58.0544 54.4502 61.1044C49.1362 64.7645 43.2208 66.2509 36.8801 65.3616C29.1175 64.2748 22.9701 60.4429 18.6441 53.78C16.6466 50.6998 15.4394 47.362 14.9325 43.762C13.7855 35.6128 16.247 28.5933 21.7458 22.5662C23.8937 20.2078 26.424 18.3648 29.328 17.0503C29.822 16.8269 30.316 16.6379 30.8745 16.8742C31.5146 17.1448 31.8969 17.6174 31.927 18.3004C31.9527 18.9491 31.6821 19.4861 31.0549 19.7782C29.169 20.6631 27.3905 21.7156 25.8054 23.0817C21.5052 26.7976 18.8503 31.4329 18.0685 37.0776C17.4499 41.5153 18.1759 45.751 20.1047 49.8063C22.4503 54.7337 26.2392 58.1231 31.0979 60.4257C35.2047 62.3717 39.5435 62.7669 43.9339 61.9722C51.1853 60.662 56.5509 56.6324 59.9704 50.1113C62.1183 46.0088 62.8014 41.5625 62.1183 37.0304C60.9542 29.3451 56.7872 23.7261 49.8493 20.1691C45.9659 18.1801 41.8418 17.6517 37.5546 18.0384C36.1584 18.1629 35.2133 17.235 35.5312 16.0193C35.6901 15.4093 36.094 15.0012 36.7169 14.9196C37.851 14.7735 38.9894 14.6833 39.7283 14.6103L39.7326 14.606Z" fill="#F39406"/>
<path d="M34.6634 41.8976C35.4023 41.1415 36.1583 40.3554 36.9273 39.5821C40.1621 36.313 43.3969 33.0395 46.6446 29.7832C48.2083 28.2152 50.8244 27.9403 52.7447 29.1045C54.622 30.2386 55.5972 32.6572 54.8583 34.7407C54.5661 35.5698 54.0292 36.386 53.4106 37.0132C48.3285 42.1553 43.2122 47.2631 38.0829 52.3623C36.1369 54.2998 33.336 54.42 31.3212 52.5685C29.1862 50.6096 27.1757 48.5175 25.1137 46.4813C24.654 46.0302 24.1858 45.5834 23.7605 45.1023C22.1624 43.3066 22.0335 40.6647 23.434 38.826C24.9418 36.8413 27.4463 36.2099 29.6587 37.3053C30.1441 37.5459 30.5737 37.9239 30.9732 38.3019C32.1933 39.4575 33.3875 40.6432 34.672 41.8976H34.6634ZM51.9972 33.4304C51.9629 33.4089 51.9328 33.3832 51.8984 33.3617C51.8683 33.1856 51.8555 33.0051 51.8039 32.8376C51.413 31.5317 49.8665 31.1493 48.8398 32.1503C47.508 33.4476 46.2193 34.7922 44.9047 36.111C41.9835 39.0365 39.0667 41.962 36.1369 44.8746C34.977 46.0259 34.2596 46.0388 33.1212 44.9348C31.9785 43.8264 30.8701 42.6837 29.7446 41.5582C29.3279 41.1415 28.9198 40.7076 28.4602 40.3382C27.8287 39.8313 26.8492 39.9172 26.2392 40.4799C25.6206 41.047 25.4874 41.9835 25.96 42.6751C26.1705 42.9844 26.4325 43.2594 26.6988 43.5214C28.821 45.6522 30.9475 47.7743 33.0739 49.8965C34.0791 50.8974 35.0543 50.9103 36.0595 49.9094C40.6819 45.2956 45.3 40.6776 49.918 36.0595C50.3992 35.5784 50.9061 35.123 51.34 34.5989C51.6235 34.2552 51.7867 33.8171 52.0015 33.4218L51.9972 33.4304Z" fill="#F39406"/>
</g>
<defs>
<clipPath id="clip0_345_21079">
<rect width="80.1781" height="110" fill="white"/>
</clipPath>
</defs>
</svg>
